<mxfile host="Electron" agent="Mozilla/5.0 (Macintosh; Intel Mac OS X 10_15_7) AppleWebKit/537.36 (KHTML, like Gecko) draw.io/24.7.8 Chrome/128.0.6613.36 Electron/32.0.1 Safari/537.36" version="24.7.8">
  <diagram name="Page-1" id="73v7qiTGzkuEvO703by5">
    <mxGraphModel dx="1969" dy="2014" grid="1" gridSize="10" guides="1" tooltips="1" connect="1" arrows="1" fold="1" page="1" pageScale="1" pageWidth="827" pageHeight="1169" math="0" shadow="0">
      <root>
        <mxCell id="0" />
        <mxCell id="1" parent="0" />
        <mxCell id="clFiod78sZzIFJFchtkz-20" value="" style="rounded=0;whiteSpace=wrap;html=1;hachureGap=4;fontFamily=ES Klarheit Kurrent RD;fillColor=#EB4B2D;strokeColor=#141419;fillStyle=auto;fontSize=14;" parent="1" vertex="1">
          <mxGeometry x="585" y="250" width="120" height="60" as="geometry" />
        </mxCell>
        <mxCell id="clFiod78sZzIFJFchtkz-19" value="" style="rounded=0;whiteSpace=wrap;html=1;hachureGap=4;fontFamily=ES Klarheit Kurrent RD;fillColor=#C7CFEB;strokeColor=#141419;shadow=0;glass=0;fontSize=14;" parent="1" vertex="1">
          <mxGeometry x="515" y="150" width="120" height="60" as="geometry" />
        </mxCell>
        <mxCell id="clFiod78sZzIFJFchtkz-1" value="CreateGame" style="rounded=0;whiteSpace=wrap;html=1;hachureGap=4;fontFamily=ES Klarheit Kurrent RD;fillColor=#C7CFEB;strokeColor=#141419;fontSize=14;" parent="1" vertex="1">
          <mxGeometry x="230" y="155" width="120" height="60" as="geometry" />
        </mxCell>
        <mxCell id="clFiod78sZzIFJFchtkz-2" value="GameCreated" style="rounded=0;whiteSpace=wrap;html=1;hachureGap=4;fontFamily=ES Klarheit Kurrent RD;fillColor=#EB4B2D;strokeColor=#141419;fontSize=14;" parent="1" vertex="1">
          <mxGeometry x="300" y="255" width="120" height="60" as="geometry" />
        </mxCell>
        <mxCell id="clFiod78sZzIFJFchtkz-4" value="" style="endArrow=classic;html=1;hachureGap=4;fontFamily=ES Klarheit Kurrent RD;rounded=1;curved=0;flowAnimation=0;shadow=0;fontSize=14;" parent="1" source="clFiod78sZzIFJFchtkz-1" target="clFiod78sZzIFJFchtkz-2" edge="1">
          <mxGeometry width="50" height="50" relative="1" as="geometry">
            <mxPoint x="90" y="380" as="sourcePoint" />
            <mxPoint x="140" y="330" as="targetPoint" />
          </mxGeometry>
        </mxCell>
        <mxCell id="clFiod78sZzIFJFchtkz-5" value="open games" style="rounded=0;whiteSpace=wrap;html=1;hachureGap=4;fontFamily=ES Klarheit Kurrent RD;fillColor=#C8FFA5;strokeColor=#181111;fontColor=default;labelBackgroundColor=none;fontSize=14;" parent="1" vertex="1">
          <mxGeometry x="370" y="155" width="120" height="60" as="geometry" />
        </mxCell>
        <mxCell id="clFiod78sZzIFJFchtkz-6" value="" style="endArrow=classic;html=1;hachureGap=4;fontFamily=ES Klarheit Kurrent RD;fontSize=14;" parent="1" source="clFiod78sZzIFJFchtkz-2" target="clFiod78sZzIFJFchtkz-5" edge="1">
          <mxGeometry width="50" height="50" relative="1" as="geometry">
            <mxPoint x="220" y="440" as="sourcePoint" />
            <mxPoint x="270" y="390" as="targetPoint" />
          </mxGeometry>
        </mxCell>
        <mxCell id="clFiod78sZzIFJFchtkz-7" value="JoinGame" style="rounded=0;whiteSpace=wrap;html=1;hachureGap=4;fontFamily=ES Klarheit Kurrent RD;fillColor=#C7CFEB;strokeColor=#141419;shadow=0;glass=0;fontSize=14;" parent="1" vertex="1">
          <mxGeometry x="510" y="155" width="120" height="60" as="geometry" />
        </mxCell>
        <mxCell id="clFiod78sZzIFJFchtkz-9" value="" style="verticalLabelPosition=bottom;verticalAlign=top;html=1;shadow=0;dashed=0;strokeWidth=1;shape=mxgraph.android.phone2;strokeColor=#000000;hachureGap=4;fontFamily=ES Klarheit Kurrent RD;fontSize=14;" parent="1" vertex="1">
          <mxGeometry x="250" y="-60" width="75" height="140" as="geometry" />
        </mxCell>
        <mxCell id="clFiod78sZzIFJFchtkz-10" value="" style="endArrow=classic;html=1;rounded=0;hachureGap=4;fontFamily=ES Klarheit Kurrent RD;fontSize=14;" parent="1" source="clFiod78sZzIFJFchtkz-5" target="kWP5bIo4fPao6hV6OUjQ-7" edge="1">
          <mxGeometry width="50" height="50" relative="1" as="geometry">
            <mxPoint x="380" y="360" as="sourcePoint" />
            <mxPoint x="470.54054054054063" y="60" as="targetPoint" />
          </mxGeometry>
        </mxCell>
        <mxCell id="clFiod78sZzIFJFchtkz-11" value="" style="endArrow=classic;html=1;rounded=0;hachureGap=4;fontFamily=ES Klarheit Kurrent RD;fontSize=14;" parent="1" source="kWP5bIo4fPao6hV6OUjQ-7" target="clFiod78sZzIFJFchtkz-7" edge="1">
          <mxGeometry width="50" height="50" relative="1" as="geometry">
            <mxPoint x="515.945945945946" y="60" as="sourcePoint" />
            <mxPoint x="450" y="57" as="targetPoint" />
          </mxGeometry>
        </mxCell>
        <mxCell id="clFiod78sZzIFJFchtkz-12" value="" style="endArrow=classic;html=1;rounded=0;hachureGap=4;fontFamily=ES Klarheit Kurrent RD;fontSize=14;" parent="1" source="clFiod78sZzIFJFchtkz-9" target="clFiod78sZzIFJFchtkz-1" edge="1">
          <mxGeometry width="50" height="50" relative="1" as="geometry">
            <mxPoint x="270" y="10" as="sourcePoint" />
            <mxPoint x="319" y="78" as="targetPoint" />
          </mxGeometry>
        </mxCell>
        <mxCell id="clFiod78sZzIFJFchtkz-13" value="PlayerJoined&lt;div style=&quot;font-size: 14px;&quot;&gt;Game&lt;/div&gt;" style="rounded=0;whiteSpace=wrap;html=1;hachureGap=4;fontFamily=ES Klarheit Kurrent RD;fillColor=#EB4B2D;strokeColor=#141419;fontSize=14;" parent="1" vertex="1">
          <mxGeometry x="580" y="255" width="120" height="60" as="geometry" />
        </mxCell>
        <mxCell id="clFiod78sZzIFJFchtkz-14" value="" style="endArrow=classic;html=1;rounded=0;hachureGap=4;fontFamily=ES Klarheit Kurrent RD;fontSize=14;" parent="1" source="clFiod78sZzIFJFchtkz-7" target="clFiod78sZzIFJFchtkz-13" edge="1">
          <mxGeometry width="50" height="50" relative="1" as="geometry">
            <mxPoint x="510" y="52" as="sourcePoint" />
            <mxPoint x="559" y="120" as="targetPoint" />
          </mxGeometry>
        </mxCell>
        <mxCell id="clFiod78sZzIFJFchtkz-15" value="GameLobby" style="rounded=0;whiteSpace=wrap;html=1;hachureGap=4;fontFamily=ES Klarheit Kurrent RD;fillColor=#C8FFA5;strokeColor=#102924;fontSize=14;" parent="1" vertex="1">
          <mxGeometry x="670" y="155" width="120" height="60" as="geometry" />
        </mxCell>
        <mxCell id="clFiod78sZzIFJFchtkz-16" value="" style="endArrow=classic;html=1;rounded=0;hachureGap=4;fontFamily=ES Klarheit Kurrent RD;fontSize=14;" parent="1" source="clFiod78sZzIFJFchtkz-13" target="clFiod78sZzIFJFchtkz-15" edge="1">
          <mxGeometry width="50" height="50" relative="1" as="geometry">
            <mxPoint x="593" y="180" as="sourcePoint" />
            <mxPoint x="637" y="280" as="targetPoint" />
          </mxGeometry>
        </mxCell>
        <mxCell id="clFiod78sZzIFJFchtkz-25" value="game room" style="rounded=0;whiteSpace=wrap;html=1;hachureGap=4;fontFamily=ES Klarheit Kurrent RD;fillColor=#C8FFA5;strokeColor=#102924;fontSize=14;" parent="1" vertex="1">
          <mxGeometry x="1005.0000000000001" y="155" width="120" height="60" as="geometry" />
        </mxCell>
        <mxCell id="clFiod78sZzIFJFchtkz-26" value="Quiz master" style="shape=umlActor;verticalLabelPosition=bottom;verticalAlign=top;html=1;outlineConnect=0;hachureGap=4;fontFamily=ES Klarheit Kurrent RD;fontSize=14;" parent="1" vertex="1">
          <mxGeometry x="275" y="-150" width="30" height="60" as="geometry" />
        </mxCell>
        <mxCell id="clFiod78sZzIFJFchtkz-28" value="Participants" style="shape=umlActor;verticalLabelPosition=bottom;verticalAlign=top;html=1;outlineConnect=0;hachureGap=4;fontFamily=ES Klarheit Kurrent RD;fontSize=14;" parent="1" vertex="1">
          <mxGeometry x="475" y="-150" width="30" height="60" as="geometry" />
        </mxCell>
        <mxCell id="clFiod78sZzIFJFchtkz-32" value="" style="endArrow=classic;html=1;rounded=0;hachureGap=4;fontFamily=ES Klarheit Kurrent RD;fontSize=14;" parent="1" source="0DtwkEcFgGxIL71xsOzH-5" target="clFiod78sZzIFJFchtkz-25" edge="1">
          <mxGeometry width="50" height="50" relative="1" as="geometry">
            <mxPoint x="1120.005" y="270" as="sourcePoint" />
            <mxPoint x="1248.13" y="66" as="targetPoint" />
          </mxGeometry>
        </mxCell>
        <mxCell id="clFiod78sZzIFJFchtkz-50" value="" style="endArrow=classic;html=1;rounded=0;hachureGap=4;fontFamily=ES Klarheit Kurrent RD;strokeColor=#000000;dashed=1;fontSize=14;" parent="1" edge="1">
          <mxGeometry width="50" height="50" relative="1" as="geometry">
            <mxPoint x="230" y="110" as="sourcePoint" />
            <mxPoint x="1130" y="110" as="targetPoint" />
          </mxGeometry>
        </mxCell>
        <mxCell id="clFiod78sZzIFJFchtkz-52" value="Timeline" style="text;html=1;align=center;verticalAlign=middle;whiteSpace=wrap;rounded=0;fontFamily=ES Klarheit Kurrent RD;fontSize=14;" parent="1" vertex="1">
          <mxGeometry x="220" y="88" width="60" height="30" as="geometry" />
        </mxCell>
        <mxCell id="9OypTPoKY1CMVtVpkyk9-1" value="Participant" style="shape=umlActor;verticalLabelPosition=bottom;verticalAlign=top;html=1;outlineConnect=0;hachureGap=4;fontFamily=ES Klarheit Kurrent RD;fontSize=14;" parent="1" vertex="1">
          <mxGeometry x="1050" y="-150" width="30" height="60" as="geometry" />
        </mxCell>
        <mxCell id="0DtwkEcFgGxIL71xsOzH-1" value="" style="verticalLabelPosition=bottom;verticalAlign=top;html=1;shadow=0;dashed=0;strokeWidth=1;shape=mxgraph.android.phone2;strokeColor=#000000;hachureGap=4;fontFamily=ES Klarheit Kurrent RD;fontSize=14;" parent="1" vertex="1">
          <mxGeometry x="760" y="-60" width="75" height="140" as="geometry" />
        </mxCell>
        <mxCell id="0DtwkEcFgGxIL71xsOzH-2" value="Quiz master" style="shape=umlActor;verticalLabelPosition=bottom;verticalAlign=top;html=1;outlineConnect=0;hachureGap=4;fontFamily=ES Klarheit Kurrent RD;fontSize=14;" parent="1" vertex="1">
          <mxGeometry x="775" y="-150" width="30" height="60" as="geometry" />
        </mxCell>
        <mxCell id="0DtwkEcFgGxIL71xsOzH-3" value="StartGame" style="rounded=0;whiteSpace=wrap;html=1;hachureGap=4;fontFamily=ES Klarheit Kurrent RD;fillColor=#C7CFEB;strokeColor=#141419;fontSize=14;" parent="1" vertex="1">
          <mxGeometry x="810" y="155" width="120" height="60" as="geometry" />
        </mxCell>
        <mxCell id="0DtwkEcFgGxIL71xsOzH-4" value="GameStarted" style="rounded=0;whiteSpace=wrap;html=1;hachureGap=4;fontFamily=ES Klarheit Kurrent RD;fillColor=#EB4B2D;strokeColor=#141419;fontSize=14;" parent="1" vertex="1">
          <mxGeometry x="860" y="255" width="120" height="60" as="geometry" />
        </mxCell>
        <mxCell id="0DtwkEcFgGxIL71xsOzH-5" value="QuestionAsked" style="rounded=0;whiteSpace=wrap;html=1;hachureGap=4;fontFamily=ES Klarheit Kurrent RD;fillColor=#EB4B2D;strokeColor=#141419;fontSize=14;" parent="1" vertex="1">
          <mxGeometry x="990" y="255" width="120" height="60" as="geometry" />
        </mxCell>
        <mxCell id="0DtwkEcFgGxIL71xsOzH-6" value="" style="endArrow=classic;html=1;rounded=0;hachureGap=4;fontFamily=ES Klarheit Kurrent RD;fontSize=14;" parent="1" source="0DtwkEcFgGxIL71xsOzH-4" target="clFiod78sZzIFJFchtkz-25" edge="1">
          <mxGeometry width="50" height="50" relative="1" as="geometry">
            <mxPoint x="1065" y="280" as="sourcePoint" />
            <mxPoint x="1075" y="225" as="targetPoint" />
          </mxGeometry>
        </mxCell>
        <mxCell id="0DtwkEcFgGxIL71xsOzH-7" value="" style="endArrow=classic;html=1;rounded=0;hachureGap=4;fontFamily=ES Klarheit Kurrent RD;fontSize=14;" parent="1" source="0DtwkEcFgGxIL71xsOzH-3" target="0DtwkEcFgGxIL71xsOzH-4" edge="1">
          <mxGeometry width="50" height="50" relative="1" as="geometry">
            <mxPoint x="969" y="280" as="sourcePoint" />
            <mxPoint x="1041" y="225" as="targetPoint" />
          </mxGeometry>
        </mxCell>
        <mxCell id="0DtwkEcFgGxIL71xsOzH-8" value="" style="endArrow=classic;html=1;rounded=0;hachureGap=4;fontFamily=ES Klarheit Kurrent RD;fontSize=14;" parent="1" source="0DtwkEcFgGxIL71xsOzH-3" target="0DtwkEcFgGxIL71xsOzH-5" edge="1">
          <mxGeometry width="50" height="50" relative="1" as="geometry">
            <mxPoint x="893" y="225" as="sourcePoint" />
            <mxPoint x="917" y="280" as="targetPoint" />
          </mxGeometry>
        </mxCell>
        <mxCell id="0DtwkEcFgGxIL71xsOzH-9" value="" style="endArrow=classic;html=1;rounded=0;hachureGap=4;fontFamily=ES Klarheit Kurrent RD;fontSize=14;" parent="1" source="0DtwkEcFgGxIL71xsOzH-1" target="0DtwkEcFgGxIL71xsOzH-3" edge="1">
          <mxGeometry width="50" height="50" relative="1" as="geometry">
            <mxPoint x="526" y="70" as="sourcePoint" />
            <mxPoint x="567" y="165" as="targetPoint" />
          </mxGeometry>
        </mxCell>
        <mxCell id="0DtwkEcFgGxIL71xsOzH-10" value="" style="endArrow=classic;html=1;rounded=0;hachureGap=4;fontFamily=ES Klarheit Kurrent RD;entryX=0.083;entryY=0.965;entryDx=0;entryDy=0;entryPerimeter=0;fontSize=14;" parent="1" source="clFiod78sZzIFJFchtkz-15" target="0DtwkEcFgGxIL71xsOzH-1" edge="1">
          <mxGeometry width="50" height="50" relative="1" as="geometry">
            <mxPoint x="450" y="165" as="sourcePoint" />
            <mxPoint x="481" y="70" as="targetPoint" />
          </mxGeometry>
        </mxCell>
        <mxCell id="kWP5bIo4fPao6hV6OUjQ-1" value="" style="shape=image;verticalLabelPosition=bottom;labelBackgroundColor=default;verticalAlign=top;aspect=fixed;imageAspect=0;image=data:image/png,iVBORw0KGgoAAAANSUhEUgAAAZEAAAKXCAYAAABDkHfXAAABWGlDQ1BJQ0MgUHJvZmlsZQAAKJF10D1LQnEUx/GvD2WpQ/SwNUhTgYVZEo7mIEGEadHDdr2aBj5crkZEvYSIWnoFEQ0NQYMNCc3RFhRFL6DmwMXkdq5WatEfDufDj8OfwwFrj6JpWTuQy5f0WGTWs7q27nG80osVF924FbWohaLReRnhu3e+6gMWs9+Pm39lwrXgdT7wNvK0cFSxXTr/znc8ZzJVVKV/SPlUTS+BxSuObpc003viQV2WEh+aTjd9YjrR9FVjZikWFt+J+9SMkhS/iL2Jtjzd5lx2S/3awdzencovx81/pIaJEsHPDItMEiAmDv0zP92YD1NAYwedTdJkKOEhJIlGlpR4jjwqE3jFfnxS0+adf9+vle3uQ/AMrP2tLC67XxzAwHkrG3XA0C1UCpqiKz9XtVTtxY0pf9OuMnQdG8b7CjjGoP5oGLWyYdRPwfYMN9VPcyBiLSwS50AAAAA4ZVhJZk1NACoAAAAIAAGHaQAEAAAAAQAAABoAAAAAAAKgAgAEAAAAAQAAAZGgAwAEAAAAAQAAApcAAAAAi+soCwAAQABJREFUeAHsnQdgVMXWx08IIfRO6L1D6AgiRRQUUFCaDUFFLAjo02dBsSAWwPKBPhFRbKgP8VHtiKIggvTekd57Dz18859klrs3W7O7ye7mP7C5c2fOzJ353d0595yZe29MYmKdy1v27BQGEiABEiABEvCXQDZ/C1CeBEiABEiABAwBKhFDglsSIAESIAG/CVCJ+I2MBUiABEiABAwBKhFDglsSIAESIAG/CVCJ+I2MBUiABEiABAwBKhFDglsSIAESIAG/CVCJ+I2MBUiABEiABAwBKhFDglsSIAESIAG/CVCJ+I2MBUiABEiABAwBKhFDglsSIAESIAG/CVCJ+I2MBUiABEiABAwBKhFDglsSIAESIAG/CVCJ+I2MBUiABEiABAwBKhFDglsSIAESIAG/CVCJ+I2MBUiABEiABAwBKhFDglsSIAESIAG/CVCJ+I2MBUiABPwhkFCqgODDEJ0Eskdnt9grEiCBcCFwfee6jqb8Pm2lHNhz3LHPSOQToBKJ/HPIHpBA2BKABXI5bFvHhgWDgFIioTnFOXPnkJLlCknuvPESG5tNjh0+LccOnZaTx5JCdMRg4GAdJEACoSRAK8R/usVLF5SEMgWleOkUl2CC2l+1cLuuaNWCbU4V1mlaQexpTgIh2IlJTEy8vGXPrqBVHR8fJ1ddV1XKVikqMTExaerdt+Oo/P3rejmTdD5NHhNIgASik4CZEwl3JXJnv5b6BEwYPScsTgSUQp0m5T22BQoFisPIjn9vtkf5YGcG1Z2VO0+83HBbA8mTL14O7Tshm1bt0dbH+XMXpWCRPFKxRnEpV7WY3HR3Y/lp/BI5c/pcsPsTnfWFxliMTlbsVVgQSFBXzYlXlZNipQrq9vzxrZoL2Z3OuZC016Jh0cdQN8IoBRznwO5jSlGkWB/7VRx5CFAw+MBKgYWSGSGoSqRpm2pagaxftkuWzd0ily9fGf1Onzwru7cdltqHykm9ZhWlRv3SWiYzOp3px7yCJdObwgaQQDAJ2JWHqfu6W+vKN+m9uvf39xIFSqdOkysWyMwpKwSKwxqsLisokcxSIGhT0JRIsZIFpGT5wnL00ClZblMg1s6vW7pLqtUtLcWVjw/uLquiic8ZJyXKFpL8hXJJXHx2OXXsjBzYe0JZM6esVUj5agmSdOqcHFZ5JdS8C44N9xhcZSfUnAtCgkqDHzEmW4xOP7g37VUQXG8lyheSQkXzCKylI/tPyr5dzicLdeE7ieMULZ5fYuNi5eTRJL3C5OTxM8h2H/z98ruvKYCcsGhEAO1n0UghAEVRLNVvf9k28xmjfkXXd64jv09bFfruuPvK+6Bc3BUNfaOdj5DYpJweG1cv2pFGgThLZv5e0JQIBnaEbesPSLLFArF3MTk5Wb7/cqFcvHDJKatMpaICSwaK5ML5S3oyPlusOuvqrEIprV220yHf+Noqsn/XcYltmE1KVSgkycmXJZtSFpcuJctvk1Zol1nNhmUc6TCrF/2xSf5Zs9dRRwmlYJreUENy5Y6Ts0kXJS4um8Rmz6aspSOy8LcNcu78RS2Lelt2qKWUTWF1UkXOn70g8bnidN3L/9oim1bvcdRp+91cSfcaC5evrteGUoAE3BIwCmSWUhSI11a/OxOgVIqqlVpIW7Nou0kO0tYH7YAj2X9mPhYLUiN9rgZWCMLqhTvUBPo2HXf1x+rucpWfUWlBUyJFiufTbYYl4i3YFUhcjuxyzY019MD8yzdL5cjBU1qJ4Oq/efuakti0vFYA51MHdtRftnIRveLr56+XCCyCKrVLSsOWlaVtt3pyWlkpc39eJ7u2HlZWSn65tlOiqqOCQ4nkyh0vLW6qrZXVjInL5ciBk5JNWUVV65SSBi0qSb0WlWXh7xt0N8pVKaYVCFx0a9WX/8LFZGUp5Zbrbq0j9a6pKNs37ldWjLNCdN9/+7fYvSRzSCBSCRzYc8xhkZg+HFTzIXbFEjxl4u535UVL2It5ETd9CYdtuCgQsAiaEsmVJ4dme1QpAHsoWiK/tjAc6akn67ByH51VbqgChXPLQeWa2rHpoBxWAzrCxYuXZNeWQ7JXuahKVygsudVk/fnDKdaBqWfeL+vl+JHTenfjyj16sikuR6wsVlaH8SFie2jPCUkoW0ByKBcZ3FawTLIry2O1mqiCAkGA9bRh5W4pU7moWgCQIOuW7lDLkc9IPqUwEPbuOKIVCK5mThxJkgUzN0q+ArkkRi1fFrErEfu3U1fBPyQQ3QQsX3u9Gsuyj1VZa5RrprW6+KrdOMVCwfZ/H4RyFZSlAU7kY+SO1FVYTsnYSS3iLj/d8zppDuQ+Aa4sBE9WCOZErPMi7msLfU7QlMhl5VJCyKlcPeeUy8ca6jev5PKxB3/+sEZZC4f0Si6s3jABLqS8aoAuVCyv5FL1IcRmjzXZegvX1YlUBYIEzK1AoUBhGcVgCpjlxHFxKUqkSIl8cjlZlMVzUgqoVWPWAMVWVFkvhYvl00rkgJojqdWwrHJp1ZZtG/ZrpYY0zL/sk6OpRd19Wa01M04CWYdAMdtjTozVAaVR+6ryGoRRJhlPBc61K79ZzNekCVeyUyZF0wiELgGr2LBAAfeHmIvh0B0t8JqDpkQw0Z0nf04prNxax9XEszWsXbJTtq7b50gqVzVB34joSFARXNXXVIM14OUrmCslS53IC6lzJ/bTnHTynOVrkCqu5DFvYcqY+o2CM/tQULiFxTyOwfp9MTJoDw6wXykMzKdAEVZJLKU/yZcuqwn4o7J28Q45vP+EKcItCWRpAlarwrpgBlCw1PegcnMhGIVitjoxg//8z81KsTv6tdItcWlx2AehDG5zuB4uaEoEgy2uPook5JOt6/c79XePWtprDQUK53FSIphjuFHdXwJX1N7tR5XC2S9H1R3uR9QAjUmmKnVKWovreLKyRFwFKBGXQaWbqw+UPavmV/5WE+juwukTZx1ZW5QCxNxH8TKF9Cot3ImPD1aY/fn9arVSK+2KLkdhRkggixGolWppWLvd+pZEmfXdaociMXlGFvON4RCuKD8MJDatYcYWW3Kw220skUS1dHf/VN/GFjNHYm48DHabPNUXNCUCxQEztVKtErJdzW24WlLrriHV65XW8xXz1aCOAdsa8qZaJViq6y2kKBBzpq9I21OwDLhIgnJ7KdeVk9WiBPMWyCk51fwOVmEhYD9fwdxKuR2WPakfpNdoUFbqXl1B3ZlfLEOViL0vaAsDCYQVgdQv6UE1D3JAzUfWblxWNw+K5H9j/nI0tXbj8lK7UVmlWNTyexV3CurnnvmKxfzabGOPm2Sn9gewA3e5qHkRX11acHuZu9ozY54kaI+Cxwqp1er2++zqPgqsXHJ18wvuC6mqXEIVaxZ3QpxXucEQTh2/cvWP/cJqTgTzEwi+KBEt6MOfPVuO6IuMWqkTfLqI+mLEZo+RVh0TpXXHOvo+FdguuDGy5U21pFT5Ik41mwUEmJsJNOA76esn0GOxPAmEmkBCKfWbVV9oPZm+eLusUW5fxxfccnAjh/u8oEycPsq1HT6/CWtLLB1AcgjCfuXZMM/Gur5LXe2NcXcYKJA2XevpbFPGnWyo0oNmiaCBq5VJinsoqtUtJW1Vx06reQtYJEnKNVSwaF4prFxdOdV9GRfVMtkVf2/VK55QDq4w3KjYsGUlwVJalMMXq0bD0qLdVur+jficwWvq+uW7pYJagVWjQRm9amzX5kO6XeWrF9eWB+7/MO4sPLqldIUi0kjdm1JkQz69igw3J1asUUK17bJaUXYAXfAphOg759OxKUQCGUUAF37GdYxjQonUUkrCHv74bpW0VsvvsTJTKxq7gI/77n5XNvvBx9q8iVmPpo5gdoN8MFyQY8IfK7XMai20zKzY0taHuvXBXKxnhhvLkAreyKxqhD9x8exNslstza2mXFSl1NLcCqk3IQI2rJXdajXWSrW01vrcrHVKcWCyG66wZup+EYSzSRdk5d/bBFf8N97eQN/JvlMN9jrgxJmTl5Li199ktTTrt8nL1WR5ZX33OxQKQrJSbhuW7dbP/DIV4pk1f/+2XrmuKuqJ/5qpGcfVMt8/1LsR7CvBAmiWOSS3JBAVBHxRDLPUnCKeLmECVmzhnpIDLp4wYWR83Xr6LQZnzDdHSFUmwanU0T2jMKyKxKpQzANuM1OBoLFBf4qvg4CK4BHwuL8DNxPi3grc++EpQA6urbNnLjgpGU9l0p2nz7+601252DDvgl1YH+4m7HHCMFeSM2cOOXnijLpR0fmelXS3gwVJIIoI1G5UzmF1TPxorqNntz3UXMetaVblYQSxOAdWy2wsWAmCIjH1+roNTA+o0oFV4LaZ5i52o0TMwyxhsWT2MuCgWiJ2ApgvwA17vgYMzL7c8e5rfW7lLEu4cJPhCduSZFflYGVhGTM+DCRAAq4J4GIMHyzrtwZ9zWZNUPFWypXlKkAWeZMsSsiVXCjSrO30Xx+o0qgA9w8EORirxGyDXH1A1YVUiQTUslAU1t8Q69fEt4P4X8K3eilFAtFGAI8Z0jdr2TtmuXAzWVgebw81lRWCOnAjcmYH87v3WyXovqpSfhfM7B6n7/hZQ4mYb4OfEymOYuljy1IkkOUIaCWien3Ih/eou3JXFd1bQNYpK8ZVXmbBNOOAfzpBlbqcWsK/gpnVzXQfN6RzIuluVTALmm+AHwqkQf368txTA+X666+TXDlTlh8Hs0msiwRIILIInDl7Vn7//Q8Z9vYbsmz5cj8aH/2KJLqVSDoVyK8/Tafy8ONnQlESyCoEoExuuKk9FYnlhAftZkNLnZkfhfJIhwJBEVggtD4y/xSyBSQQjgQwNmCMcAwvPjUyVRob/wr6VHtmC0WfEnE6SU47HlkbSbiwGEiABEjAHQEzRpgxw52cc7pF2hJ1lonMvehSIk4nx2nH49mxStIK8YiKmSSQ5QlYxwjr2OEdjEXaEvVeLrwlokeJOJ0Upx2PZ8B3SY/VMJMESCCLEvBvDLFIW6KRjC46lEg6T0Y6i0Xy+WbbSYAEQkAg3WNJuguGoBPprDI6lIhT5307K75JOVXMHRIgARJwS8D3McV3SbcHC6OMyFciTufDacctZt+k3BZnBgmQAAm4JOD72GKRtERdVhrmiZGvRPwEHOHny8/eUpwESCCjCWS1MSaylYjT2XLaSfO9Qa5niTRFmEACJEAC6SLg23hjGZEs0XQdMBMLRbYS8RFcBJ8fH3tIMRIggXAkkBXGnshVIk5nx2nH6bvkPsdJjDskQAIkEBICnscgS64lGpKGhKjSyFUiPgCJ0HPiQ88oQgIkEEkEonksikwl4nRGnHYc3yvXqY5s15F0FXJdFVNJgASimEA6xgr3RSw5lmik0ItMJRIKuvrkReAZDAUL1kkCJOCFgBorOFxoRlGpRPw+t7qA36W8fMmYTQIkEN0E1Jjh57Dhp3hE4NNvNry/R0+5cOGC/ly6dEmSk5PVGy5Tumu2gfbGn3o8ydrz7Ptop7c0k2+27soE2meWJwESiE4CHa5vqzsWY3mfuombLQSscUPClzRXMp7Kmzz71lM9dllP+6YebLNlyyaxsbESFxenP1qJIMEMqBAwcfvW00G85Zm60iPnrqw93b6PY9nTzL7ZGhnrvrc2Mp8ESCBrE8AAioBB1QywZt+6RRzBKpOSkjbNlYyvZU2d9q27Ou1ynvZNHdYtdEb27Nm1MtFKBDsQgAKBFYIPQjAHVnd1uUs3nXKX7yrdnmbdR9y+bz+GNd/kcUsCJEACdgI5cuRwKAYzuELGHrfvW+ux5pl0V2n2eo2sdZvectY6vMXNMaAnjDWilQkKIoIAIetgG8xB1VVdrtJ0Qyx/3MlY003cbC3FddSke9oiz+Tby3OfBEiABKwEzIU3xkwzuHrbWssjbpe3prmTtadb90193tKs+f7ETf3Y4mMUibZEsINEDKLGCkHlwRpU3dXjLt10zJ5v37fLWfNN3Gzt/UG6Nc/ab1MvtyRAAiTgioBxZ2HsNMEMrtZ9exwyJpi42Zp0s7Wn2/eNnNm6y3eXbsr5urXWY3QG0pzmRDCoGijWAdbXg7iTc1eXu3RTjz3fuu8ujrLu8pBu8qxbxNFvk2aOzy0JkAAJuCIA740ZVLG1xiFvTTP7ph4j62rfmmeN2+swZa1bu7zJc5du8v3ZmrqwNR+HJYIB1DqIWuP+HMSVrLu63KWjDld51jQTN1tzXOu+NQ5LwwCw1g8Z68fUwy0JkAAJuCNgvRI3gylkrWMM9s1FuT3PLmf2zdYuj30Ea35KypW/7vLcpV8p6XvMWhfi+GglgipMgqnOOgCbtPRu3dXlLh3Hsedh33TAHre2y1rOxLE1J9OkWctkdvzgoUMy889ZsnPXbskWm00qlCsv17dsKYUKFsrspvH4JEACLgiY8dK6hZgZo6xba9xUZdJc7VvzrHFr/aacdWuXNXnu0k2+P1tXdWkl4irDVZo/B7PKuhu43aWjrD3Puu8pbtoNGWsc+/Y0cxyTh21GhpOnTslzr7wsU777Vi6q+3OsIU/u3PLow33l3/0GWJMzJX7k6FF57e035fFH+km5MmUzpQ08KAmEEwFfLBGMP+Zj2m7GJOz7G7eXMXWarbU+k+atjFUuvXG3SsRUGKqB1VO9nvJMu7D1Rc6VjEnD1hq31h3q+LHjx6XDbV1l89at0rBefWl3fRtp27q1nD9/Xn75faZM+naaDB85Qs6cOSPPP/l0qJvjsX4okK/+94089vAjHuWYSQJZiQDGDgzcZgwxcftgbuQ8sfFFBuU9yXnK83RsX/LsfbKWcbizrInWuKfCVrnMjlsBWuOe2mXkrFtP8sHMe2bwi1qBtG7RUr759HOnq5JG9RvIfeopAjd2vVX+8+EYua1zF6lWuUowD8+6SIAEAiRgxkZPW3seDmnS3MXd5ZvmWvNNmtm6ynOVZuSDsY1NSEh4uVatWsGoy2UdGKCDGfypz8hia+LWttjTsN+hQwerSEji23bskCdfGCTFihaViZ99IXny5ElznHx586rLDpF/tmyWKhUrSe2aNbXM5O+/k1PKDZY9LruMHfe5bNi0SUqWKCF5U+uAW2yGsmSm/viDzPprjhw9dkwqlC2n7y61HwRuKlg9P8yYLtN/+1XQrnh1ExXaZcJ3P/8kM2fPll17dkupkiVk7759UqNqNZMtR48fkx9n/KIsp29l2cqVcu78OTWnU86R7yky9Yfv5fiJE1KqREndVlhf8xYu0I/fwbyQq7Bl2zb5bvpP2gX4z9Ytkis+p1N7f/hluqzdsF5qVLvSRtTz57y5Mn/RIilTqrTkzJnTUfW6DRvk9z9nS8niJSR3rlyOdFcR8JmsXI/TZ/4qZ8+dk0rlK8gvM39T3HZKpQoVnIrAwgTbaeo8/DV/nuzeu1cSihV1nCcIb9z8j/w26w89B7bvwH4ti/aj7jKlSulzdvjIEflenYP/TZ0i6Hu1KlUEN7rZgzcudnnuB0bg559/1soAA7QZpO1bcwR7utlHvre4Nd9en9m3bl3JI99durVseuNeLZH0VpzecvaBHfW4SrPWb823xq0y9rhdzr5vlw/m/rc//air63JzJ6cB0H6MR/o8IP0eeNAp+SmlfNq2vk4NXNtlxerVOg+K4ol+/WX7zh3y8OP/kqUrVwiUUPbscUqJHNVWzEfv/Edq1ajhqAtK4/FBzwoUCWTPKTcaXGnw9b7w1NMy4MGHtewLr70qGOAQhrwxXA2ExeTWm27W+7Pn/iUDnn5K9h88oPuBOZ6zZ89q19x/3nxLChUoqOXc/Rn48kvSvOnV8vEX4wTKKk49OeHCxYta/PYuXWXUm287FR39yccy9P/e0jIlixdXxz2ovxuPqbmj5554Uv9Qpigli4H4qoaNpHTJko7y/Z76txxQ8qPfHiHdb+3sSH/jP+8oJTlLNixa4khzFXn6pRdl3Nf/lexqaWeBAgXknQ9Gaw7LV62SIoULa1ekKffWe+/KO6Pf1+0sXKiQVuT4fuXPl08+G/WBtLzmGi0Kfs+/+oqcTkqSIW8OlwuKv5kbA+OBjz8h3Xr11PxxXvBcuw8//1Rm/fCTUni5zeHEFy4OYUaCRgDn1Do42/fdHcgqZ427kneV7yrNVdmMSrtyp0xGHTFIxwFIT8FdPtKtefZ9T3UGKw9X0Ai4qvQUrF9Qq9yPapC8ePGSfPb+BzJ88BC5o2s33acH//WoLF+9Sg+U/yxdoQfGiZ9/IVj91eex/nJePWQTAYM9BtXLyZdlxpRvZePiZeqzVMaNHqMHyTf/866cOHlSy66c+7f0vP0OHV84c5asnrdAx6FY7uvXV/+Ipk+eKmv+Xihblq+SVwa9IDP++F0GDx2q5bz9+enXGdoCwrG3rlwjf/44XcqULq2vvBcvW+oojqv6l4cPFbj6Vvw1T5bPmSebliyXzmqwxYCOK3WE9m3a6u0fc/7UW/xZu369ViCIz/l7HjY6gMdsZa1de01zp0HZ5JvtuAnjtQKBW/GfZStk3YLF8sOEidqygeJW8I2ozF0wX95S/Bo3aCiLfp8l6xcukVVz58uzT/xbMx3+7giHrIlgccWzj/9bNqr+oP91aycKLjTa3NpJbulwkyyc+Yc6l0ulU/sOmtX/pk41RbW14wsXRwFGgkrAPn7Y960Hs4471nQT95Zv5MJtG7FKxBVIVyfBVZqrshmZhitihCqVKqXrsLha/eD/RsrNN7aT+3v2Uu6gEtoVgqvitte21lfaRgFd27yFloF75evJE/XxNv6zSV+pvzTwWalfp45+7A2ubDvccKNgjgbWxB7lfvEU/u+99/QVdN/7+0jDuvW0KK7S+/a+X5o2aizfTJ0sm5QrzlvA+Rkz8h197BzqoXZwQz2aagUtW7XSUXzI8GE6DiVVIqG4jsOFN2LoMO2eeu3tt7QiveG663R/4MozYZa64kfboIDmzP/bJMvfynUGKwD99hTeeGekdi+NfH2YQ9k0adRIXnvhxTTF4PJqdlUTef3Fl6S8ciMiwHp79KG+UlBZMP9s2ZqmTMd27eURxRH9Qf+7duykZeopZfLq8y/oemDFPHRvb52+afMVrr5ySXNQJmQYAVdjkKu0DGtQkA8UVu6s9IBNTxkwNOXs2yDzdVkd/N0I8HenJ2DAt/v8lyxfrqtq0ewafeVtrddYPCuUkpE7RQ+mmMw3AS4kuMdWr10rBw8f0slJZ8+YbJfbxcuX6cG6XmJimuM1rFdP5i9epN1tVStVdlneJMLlhTkfayhbuozehcWEgHkTWG+Yd4DLC5aFNTSoU1f+XrRQu30wt9FEubIwBwL3D+4shkKpp2Sub9VKWwmwHjDAz/j9d+2+w8o4d2GPmgM6dPiw3HvX3WnmIm5Wg7957pwpf/dttws+JiSdSdILKJauWK5lobTsoV5iHaekmtWr631wtIbiCQl699Tp9HGx1sV44AQwduBizb71t2ZT3p9y6SnjT/3+yGaqEjkvp+WcnJILckZ9zkqy+pssl3T7rzgIML+cumdJdKSl9ta6D8AIqRvETA2OmElRb05JkXXk6N2Q/qmrBl75RmSDsgg6SQe/j1W2TOk0ZbZs36rTXhr6Wpo8k7B1+3YTFcThS5+n3C9bt2/Tvnj43c0EvQWeo4w1gvIYpLv07GFNdoqjXm8BV+n2EB8fr5PM88wwaYyAbetON+m4qz9oE5RIO+XSglJZoVx7tWvU1Aqt3/0PSIurm2klMufvv1OUiHK7XdWwoRQtUsRVdTptzfp1egtrzx5g3SQUTdt+LA7Aogccf9eePboYJvPN99JeD9x31mAUU/78+a3JSgk5Ow785eJUGXcCIrBP1kmMqkFNq+t61NMH9dbsX9kiWeWpYUbpm9RtimxKzpW40z6GpdQsU1dKPv6qO+ElVn3U+zwkp/rkknjJKzkk7QKdFOnQ/s1wJXJRqY3Tlw9JkhxT6uKCpXcpg7klISXqJjmNXGqCK3GjTMyP2N3W28Dp7pj+ptetpZSICus3bvRYFCuH7uzTW7unXnz6GYdsjrgcjriJxOdIGXg/GPGOJBS5srrK5GObFyu+VICb6ebbu+tVXte1bKWXECfWrCUN6taVN9VE82f//UrLefqDVVx58+aRD94e6VbMPji6EozJ5vwjciWTM1WpoK0DHnjIlYhOq6lcQQiYF8E8we9qXuTU6dPaPYfJbMxTwIr7S82LwB0Fi6T33T11GXd/cNMnwjG1Cs1VOHHyhFJcKe415GPFWd9/Py4FlAJo0+pa6dengV5ZV19ZGzd27SzbMIdiC3DjpSf4yyU9x2AZNwQwqLiwQjC2OFsnqcrDUg3GKO/fes8FcLGND8bTM3JcC6vXREnuywUlT0xR9SiSlPHAUkvIohmmRJJVd0/IPmV7HEq99g9Zn8K+4tpqlRRWRGGF1MIlS/SA5qrRmNDdu3+flnWVb02rXLGi3kW9ZvWPyYc7CFfF5qofV8m42fG9N97Sk/JGDlvMnSBcupSst+7+VFLHW6ZWgdVXigfHtAZYBJj3wcqkYISK5cvrH+aRo0fS9A31w1WULVusWiqd0g64vXBfDSbXseIMVsBVSoHAFdasSRM9L5KYuqz9Ji/zIcYdtzrVIrH2B/MfdvfU/416T7vIsGDButQZVttW5TK8rJ7hFqzgL5dgHZf1hCcBXJSflIPKt3NQ2SRFJb+UUNZK6Id4Z/s4RGyS5IjsV+YfFIjr4Gw/OO+5LpEm1W2h1AyTb7a2Ctwk26SCs4t1/k8OeEyvluo94BF9D4G95onTpmqLAHMGVh+7Xc7s4+obV0BYqYQByxqeGzJYut/bS8xqpx27dunscmXLWsVk1do1SmaZTrtw8YqViHcnICRZ/Pkd2t6gXxswUi1ltQZMyt/1QG+5/f571VxGyhWSNT89cSgBTPhjSfNvs2Y5VYH7ZG656w61XHmg7r/JhEtr6YoV8rNS1JjoN/dWtFIrsbBaDcuKMa9kHehNWesW98xgAcOcefMES3JNAGPcyW8PO3bvklyqvbgnxBrGT5qoFZpZwmvNS288PVzSeyyWS0vA7ZhhMszW3WWzIz9t3e5S0hZJm4KyGGsx5mLsDXUIuZo6Jrs8KA/v3TNzF54kjYzGaXxXngqEQd5D9/XW1gHcH03btJamjRvLtc1bagWAZah/qVVEGPjGjfnQ470kpitw1dyplvp+PXmS3Hr3nfJAr3sFbpKf1CA6Sd0gByVj7u9o2ayZvsHuxddf0/ehlFU34M1fvFDe/3isvtkQk8HH1L0nJhRLdY+98PqrekDG/QtYlfXNlMkyauyHeuK5k7pJE4Mz0uCrxyqqYD5nC6udrut0s0Dp4r4QTJ5D6X0x4Wu5pK7u3xn6hrY0TJvR3/c+GqNvxrxD3XNiApbzImDC/M6u3U2yx+0LTz0ji9Ry4x4P3C9dOt2i7z/BZP32nTt1uRg1l2RCi6uv1orusYHP6KXRcG9A9qNxn+vVWbAA8cFKrWAEf7kE45isI0AC6jtxWV3wwaWFscs65+GqZl9kXJWDu+uo7JDzSpUUEucLRlfy6U0LqRI5Ilv13IdPjXOtUF0WNXMaLjNTE40uMVu7LNJ1no6oXLXV+3bBEO1jUnaMmr+4uvFVehIWk734IGCCu7260n/+309J9apVfW7ByKHD9b0nsA4eevwxXQ7WCZaQ4n4SE/r27qNWY+1Uz8OaIH2f+JdOxhU3ntFVp1Zt/biVP+bMkZvUFTjCPXfdJbifA4oNnwfvvU+7qn6aOFmgiKZ8/61MmDJJy+ZSd33jBskH77lX7wfrD1Zw/f7dD/Lk84MELiMz6Y6J9HdUv7FU2Roa1a+vJ8yxsqplsxTFgXysfMJEOtK9Le019cFVCPfUkDeGqWXBCwVKFucNN3BedX1rMfMmkB+hlgH3V/fg4OZJfBBwk+eUL/+r7+jHXA3cbF1Sl/FqgQD++MslgEOxqIUAxgq1LkulXFEFyFY/tzRBy6p0s00jYEkwcyqWJPdRc3j3EjonZQrhohSWil4k05cdk5iYeLlbt27pK+2hFBQIJnxcDfhpB2tFA0BSgyXqXD41w6lOXVT/SakitfKUjUUxQEQl6iqwTd1HxMSxnTjqN9OMDN3iznI8GgNvTKuoHvlh3C/pbQRWBcGdBGvAPmdh6sQSWkwuY1A1916YPFdbXEFj5ZC9Prhotmzbqt1J5dXxAm27q2Nb0/BQys3qeAXzF9CPfDGrmawywYxjTgkT5faAJdo1mzaWzjd31ArFmg+rDDdkgr+rslbZYMUzmkuw2h2J9dw2AO5jKA1lR0Bx6K0lrpMgkNI7LaN2Urap8sjSIlfkdJIRSi3rlJZSBEkpQctYBFWqKW5EsEU7c0mBkCiSkFgicGG5UyDWjnmN6xHfg5S3fFMUCsOqpUy62vpahaVISKJ4d0gw3x+Ce1HM/SjuGgxlgFVZvgZ3LhhYVRn5gEhYO/6029f+uZNrdVN7vfT5D/W4EetKqjGffaKLNG7QIE1RWHbWZ5ClEQhBQkZzCUEXIrJKjCHOw3hKNzDmxFxWOa4y7T11V4mR85Zv5NxscQF9Jka5UtXYXFBS7sNyI+p3ctCVCCZy3E+g+92+EBYIF/URwi6y6qAQuLldOz0Rf/eDfZRrsJ1a2pxPLxPG/A/monp0vz0ox2ElkU4gwJE+A7qPsTmH5Fb/CgftaEFVIljGe1x2B61xvlRkLAyvKsEIwGflNnjKc1uIGVFO4OVnB0msWkL8xTdfO1Zowf2HhQpvDHn1yg2aUc6B3bMSwFjhxsTAGAOfkgcR1GSytcXiri7rIYMUxxidUy0ADtby36AqEdwHYu4496u/oOkt+CLjVIfvBXyXdDoAd7IIAbiw8AwrPGtsz949+unI1icEZxEM7KYLAhg73KiSgKUdWsZFTY4k/xqgi2GMxlgdLLdW0JSIvhPd7X0gji6HZ8SjdRKeTWarMp4AblY0D1XM+KPziGFJwFgdYdk4942CWyuvFAvKne1XFri7P55POUly2Ce5cBBypTN0Gk2ScDg9bAMJhD8BNVa4HUfCv/W6hcEas4OoRI5mODozH6LNPh+OnkZH4FuQJtGHiihCAiRAAoYAxhCbRvF5WEkVdIxlps4M2CapWxGDEYKiRPA0XueHKQajab7X4e6E2c6rU4Wu8tzV41SQOyRAAlmegKuxwtWYYkC5y3NVjykT6i3GbIzdgYagKBE8zj3owQ1dpxsN3RzU3Qm7Iu6m8isCjJEACZBAOgh4Hlu8j00watzU4SY5HY10FAnG2B0UJXJBPdwkLII7+KZx3vKNHLckQAIkEAgBb2ONt/xAju1H2WCM3UFSIuf8aHY6RAPUwJnhb0xHL1mEBEggyggEPPYEOPZ5w3lBvY8k0BAUJYI3EgYrBIeZb7X4JhWsnrEeEiCBaCXg+1jiu6Q7VoHXcKXmYIzdQVIizu+vuNLE8Il5B+9dInx6w5aQAAlkPgHPY4bn3MxvPVqQrpvDbU0PihKx1ennrnvUAZuCfraE4iRAAiQQjgQ8j4Xux9CM6EvmK5HM7T9vE8mIbxmPQQJRTCCTh7BMv9ct85VI6pcrOVmdCjdnQ+el90voos4wWRiR3h6xHAmQQJgScDm2uBiDwrT56WpW2CiRaZ/Ol9+mrkijSHZvPSJTPpmXrs75XcjlN8DvWliABEgg2glwrHCc4bBRImjRkQMnZf3y4DxKnufYcY4ZIQESCAMC0TomBe0pvsE4R9XrlpY1C7dJ6QqFJF/B3C6rPHXsjCybt0WOHjwll5NFipbILw1aVJKceXLIhXMXZdb3q6Xe1RVl1aJtknTqvFSomiDV6paSxXP+kSP7T0qJsoWkZkP1CtecKV3fv/OIbFi+R5JOnpV8hVwf02VDmEgCJEACJKDeSxJGoVBCPqlSp5TMn7nB5a3/0ORQEvE546TlTbWlYcvKcvzwaVm9aLvuBfKPH02SZXO3SM0GZaVGgzKyYeUu+eP7VVKwcB656tqqcmiveiXLtpQnDh/ed0IWz96sFEtBuapNdcmZOy6MaLApJEAC0Ugg2iySsFIi+MIkNikv585ckHVLd6b5/iC9TOWiyvKoLIWK5lXxIlKuWjE5qawTa6jeoLSUKFdIKtcqIXny5VLKIYdUVwqlaKn8UrpiUTm454QW37RqrySULijV6pWWwsXySIPmlazVME4CJEACGUcgQifgw8qdhbMVmz2bXNW6qvz5wxopVb6I0wmEpVCvWUXZv/OoHFHurKMHTskhZU3kzhvvJJevwBW3VM48cVJMubxMiIuPlQvnU+6wh/LJpdxgK/7ehqeeuVscZopySwIkQAKZSwCKxvdXKWZIW8NOiaDXxcsUknJVi8mC3zdIrUZlHSAuXrgkf0xbJUmnz2oLAtZG7nw5lIvqpEMGESgKa8imFJOrcPHiJYnPFacViVYiEXol4KpvTCMBEiCBjCAQlkoEHW/QvLL89PUi5dba5eCwa/NhOXXyjNzco7HE5ciuLIfLslzNf7h9dLKjpOsILJi4uFg98Y46LuNeFQYSIAESIAGfCbi+RPe5eOgEsXoKiuTowStWRo5csXLpknrai/ogHFOT6ts3HpTk5JR9f1tTrkox2bfjqBzcmzJHclgtMWYgARIgAb8IBDpTHuHXrmFrieAkYtJ8+8YDsn/PMX1OS5UrIqXKFZafJyyVeGWJxOXKLrUal5NValnwJeXq8jdUqJ6glgGflYW/b9RzMTlUnQwkQAIkQAK+E4hJTEy83K1bN99LuJDcLctdpGKu2rWKdUp22km9YT21mGOq21IN6rx4MVmSLyRLXE4196HydHZqPSkbVdKU0fmp+6mJ5jEqxoWFfaz8ilfWz6TRv7vsCxNJgARIwBDo3u96iYmJkZhsKbPc2GIfIVtqmkrAfzUPrv/ovBSRlHSToEulkdOpWsRMpOt6kHKlupR8nXZFPrUZV/JSY6Z99ozSUt+e5Nd+RF56Z8dEeWw2PSfiV2/dCOOk51QT7O6UnptiTCYBEiCBLE8gbOdEsvyZIQASIAESiAACWU6JONxcEXBy2EQSIIHII5DVxpgsp0Qi7yvJFpMACZBA+BIIihLJJs4394Vdd80ku71h7tLtctwnARIgAU8E3I0l7tI91ZWBecEYu4OkRPjgwgw87zwUCZAACQSFQDYJfOwOihKJE+dnVwWld6yEBEiABEggpASCMXYHSYlceeBhSHvMykmABEiABIJGIE4CH7uDokTiJW/QOsWKSIAESIAEMoZAMMbuoCiRHJJHTa0H7lvLGGw8CgmQAAmQAMZsjN2BhqAoETQitxQKtC0sTwIkQAIkkEEEgjVmB1GJFMmgrvMwJEACJEACgRLILcEZs4OmRLKrFVp5pGig/WJ5EiABEiCBEBPAWI0xOxghaEoEjckvJSQYN68Eo2OsgwRIgARIIC0BjNEYq4MVgqpEsindVkBKB6ttrIcESIAESCDIBDBGY6wOVgiqEkGjckthurWCdXZYDwmQAAkEkQDcWBijgxmCrkTQuIJSRnIpm4SBBEiABEggPAhgTMbYHOwQEiWCRhaWilQkwT5brI8ESIAE0kEACgRjcihCyJQIGotGc8VWKE4b6yQBEiAB3whgDA6VAkELgje74qY/MJ9yKC/ccdktyXLJjRSTSYAESIAEgkkAq7AwiR7sORB7G0OuRHBAdCKnWlR2QvbJaTlkbwP3SYAESIAEgkgA1kfKLRehH+JDf4RUMFhSBqskrxTTiiRJjim75EIQsbEqEiABEsi6BPAsrNxqlIUCCdaNhL7QDIoSeeu9d305lu8yjreBOSKOsmlTHFnOEYegI+Kcj73UrJRN6s7otGJMIQESIAErgR/HL07djZEYk+GImATrNjXTo8wVeddi/tVxpTbPsacf/ZdnAS+5QVEi7hpx2c0b663p1rhpqz3Num/i/mytsoib/eTkZJdx0w5uSYAESMAVgd49ekpMTIxky5ayNskexz4+CPa4SfNla5VBHMHUm7KX8teaZo27k7GmBxoP6eqsQBvH8iRAAiRAAuFNgEokvM8PW0cCJEACYU2ASiSsTw8bRwIkQALhTYBKJLzPD1tHAiRAAmFNgEokrE8PG0cCJEAC4U2ASiS8zw9bRwIkQAJhTYBKJKxPDxtHAiRAAuFNgEokvM9Pult37tw5OX/+fLrLR0vBU6dOycWLF6OlO+wHCYQdgaDcbBh2vcrCDZo1a5b89ddfgsETSqRAgQLSs2dPqVy5cpajcuLECfn555+lRYsWUqhQIcmdO3eWY8AOk0CoCVCJhJpwBtb/448/ypo1a+Shhx6ShIQEfWTsjxo1Sl566SU9kGZgczL1UJcuXRLwWLt2rRw4cEDatGkjtWrVytQ28eAkEI0EqESi5KziES646oayMAoEXatdu7bcd999jl5u375dJkyYILt375Z8+fJJx44dpVmzZnr/119/lfj4eFm0aJFUqFBBevToIePGjZODBw/KDTfcoAdiVLRp0yZdx+HDh6VGjRrSq1cvyZMnj+MYiKD+GTNm6PT58+dL4cKFpXfv3lK6dGnBAD9t2jRZvHixnDlzRqpUqaLbmDdvXhk6dKi0atVKvv/+e122T58+MnPmTFm5cqXUrVtXW1V41MTRo0flyy+/lM2bN0uJEiV0etmyZR1tiI2NlerVq+tHROzcuVMqVqzoyGOEBEggeAQ4JxI8lpla0549eyR79uxOCsQ0qF69etoKwTPDPvzwQ7nmmmvkzTfflHbt2snXX38tUEAXLlwQDPYFCxaUQYMGyfHjx2X48OHSvn17eeSRR/RVPeYW4CaDZYMr+8GDB0uOHDlk+vTp5lCOLepbsGCBVkovvviiVkpQHAg4zrp16+Tpp5+W559/XuB2ggsOYd++fdqaGjhwoEApoA1QEmjTli1b9AdyH330ke7rq6++Ko0bN9YKBenWUKlSJbnlllu0gsmZM6c1i3ESIIEgEaAlEiSQmV0NrAKrNYD5kJEjRzqa1aBBA2nbtq3gyh7zI1AcsDYgd/bsWS0HJdShQwcdh4Wxf/9+bckgAXXDutixY4eUKlVKmjRpouW6dOki7777rnTr1k3vW/9g4MYgjgfCQR4KC6FmzZraSoB1cvr0aV0flBYCFB2UG/IaNWokK1as0O2G9QGLBYoEFhSsi/79+wuOcd1118ncuXO1MsqfP7+uB3+gEBE4F6Ix8A8JhIQAlUhIsAZWKa72MUgeO3ZMD/b22po3b25PkjJlyggUCZQCrAMohNatW2s5uI2Qh4EYg/bbb7+tFULJkiV1PhQKghl0EYdby+RjH/XBDYV6oEiefPJJJDsC2motjwwM6OaJoqgP5REw8E+dOlVbI7BYkAfFYgIWAyCgH3DNmSelog1o65EjR/SKK1gx1rBx40ZtlVjTvMWhfBjCnwC+A/h+wTqF25MhfAhQiYTPudAtgQJZtWqVthKqVasm8O37EooUKaKthdWrV0vDhg31wNu0aVNdFK4uWBtQAB9//LGef8BcCcJjjz3meBy+Gax1hps/uKqHlfLoo486JLCcGIrA1zBlyhRtNaCO4sWLy6RJk7Q7zZS39tkoIZOHLdqQK1cueeutt7RyQ5q/bUAZBFcKOSWHf8OJAC5AsEACv406depQkYTRyeGcSBidDDQFFgjcTLACrIOpL83EUt4vvvhCoEgwf4Grdsw9LF26VOLi4vR8Bq7u69evrwf9hQsX6mqNheDLMWAxrF+/Xv+gIb9s2TIZNmyYS4vJXX2wWqCIoECg3DAw+NMGuNNglWABAAIm2Z977jk5dIivXnbHPNLT8VvAbwK/DfxGGMKHAC2R8DkXuiUYYGGBpCdg3gPKAyubxo4dqwdmuIYwCQ7XFiwN1P3KK6/oK3m4wDCQY/UVlIwvAe4EzIO89tprUqxYMV0nVmf5YsWY+jE3M378eK3c0F4svcV8i68BbcXczmeffSa//PKLtqQ6d+4sRYsW9bUKykUoAbg3t23bFqGtj85mxyQmJl52NSkajO6aNwja67KmW+NGzp5m3Tdxf7ZWWcTNPq7U7fHRozP3/bjw0QfDxYK5EVzdw+1jD7j6x5Wdr4rDXh77YIfludbJfFdyntJOnjypJ8k9yXjLC0Yd3o7B/PAiEKzfSCC96tevn57vMxdPcLta49g3rlh7HMe15nnat+YhjmDKpuyl/LWmWePuZKzpgcZpiQRKMEzLw23lLgRjuSt+MIEoELQNq6wCDcGoI9A2sDwJZGUCnBPJymeffScBEiCBAAlQiQQIkMVJgARIICsToBLJymeffScBEiCBAAlQiQQIkMVJgARIICsToBLJymeffScBEiCBAAlQiQQIkMVJgARIICsToBLJymeffScBEiCBAAlQiQQIkMVJgARIICsToBLJymeffScBEiCBAAlQiQQIkMVJgARIICsToBLJymeffScBEiCBAAlQiQQIkMVJgARIICsToBLJymeffScBEiCBAAlQiQQIkMVJgARIICsToBLJymc/DPqO95Ls3rs3oJbg/SgH+VbDgBiyMAmklwCVSHrJhXm5F19/TRKqVpLRH4/N1Jbe2uNOwccefvhlutz9YB+p1riBNGjVXOpcc7X0feJfski9yteXgJeJ/efDMdLprtulSsN6UrtZE2ne7gYZ+PJLsnf/Pl+qcJL5aNxnUjaxplMad0iABLwToBLxzijiJC6qNxpO+eE7qVOrtvx34v/Crv0/zvhFHnhsgH7r4th335M5P/8iTz32mOxQr8i94/57ZeWa1V7b/NLQ12X4yP+TZlc1kalffS2/Tv1Obu/SVX6d9Yeq4z45dvy41zqsAtWrVJU7VHkGEiAB/wjwzYb+8YoI6Vlz5siRo0fl8/fHyM13dJcFixdL08aNw6LtS1eukIeVxTHgwYfkhaeecbQJg/jtt3aRjnfeLnf26S0zv/1eShYv4ci3RmA1fPj5p/LNp5/LdS1bObLqJSbKTTfeKB26d5WeDz8gP0yY6MjzFrm2eQvBh4EESMA/ArRE/OMVEdL/mzZFGjdoIFc1bCjVq1aVryZ+49Tun3+dITd0uUVm/TXHkb542VKdNv23X3Ua3s+OgbpF+xulYr1Eadets/ykLAgT/tm6Rctv2rJZej38oHZLtezQTiZMmWREXG6/++lHKZA/v/y7/4A0+Xgf/IfvvCuHDh+W3//8M02+SZg4barc0Po6JwVi8qpWqiwvPjNQFi5ZItt27NDJX0+eJF173W1E9HaXsnrAYMXqFKtnyg/fy023d9d5M/74Xech3/6BG46BBEjgCgEqkSssoiJ24uRJ+Vkpgs43ddT96dKxk3z3809y8tQpR/9uvL6N4B3pzwx+Uc6dO6c/jw18RuLj4wV5CG/9510ZMnyYdGzXXj4Y8Y4k1qwl9/V/RL6ZMlnnnzlzRg/Ad97fW/A+98EDn5NiRYsK6lm2cqWWcfVn6YoV0qh+A8mdK7erbKlSsZIULFBAlq9a5TL//Pnzsnb9emnVvLnLfCQ2VvUjLF+V0o4DBw/KmnXrdJr5c/b8Od3+00mnddKhw4dk1do1Ol6xfHnl2urm+Nx92x0SExMj6zdtEuQxkAAJXCFAd9YVFlERg8K4ePGi3HrTzbo/3TrdouYORsiU77+Ve+9KuRqPjY2Vd4e9KW07d5L3xn4oSUlnZM++fTL+40+1ckH8vY/GyDP/ekIef6Sfrqd9m7ZKLklefftN6XrLrQ5WHdu1kyHPPa/3O9/cUU9yw8JpULeuQ8ZEsBJr5Zo10uuOtBPtRgbbmtWqKwWwwprkiK9et1YuqP6VL1PWkWaPVK1cReKyZ9dKBG3yN8CawccEWB+wWP4z/E2pXYOT74YLtyQAArREoux7AFdPy2bXSNEiRXTPypctJw3r1Zev/ufs0qpRrZo83q+/XuH0wacfK0XwnFQoV06XMQP1bZ27ONHBxDWu6rft2O5Ib6GOZUKe3LmleLFiTlaPycMWV/OxsdkEysRTgJxafOUyxMamXPd4qgNWFlZv4RNogNUz4OmnpPfdPeWOrt0CrY7lSSDqCNASiaJTumPXTpm/eJHExcVpi8B0DfdRnL9wQaAc4JYyoW/vPvLumA8Eg/+dXVPmA5C3Y+dOPeCXSEgwonpbqkRJvd23b78ULFhAx4sULuwkA5dY8mXXSgLKoV5iHdm+M2WuwqmgZWfLtm3SvGlTS8qVaK0aNbT7bJtqo7uA9mOFWhWLNeFO1lM6Fif06vuQ1KldS159/kVPoswjgSxLgJZIFJ36id9Ok+yxsTLspZfllUEvOD6vvzRYp9utkRHvj9JuH0yiv/HuOw4ShQoV0lfxJ06ecKQhcuTYUb1fvtwVV1KMxDjJeNtpULeeLFiyWI6fuFL3qdOn9bwMyq7bsEH2HdgvUBauAtxUUIS/qslva8BkvAl/zPlTR2tb6jh/4bzJ1ttjx47prTtrBUqoz6P95YJSvp/8533NyakC7pAACWgCVCJR9EWAK6t1i5Z6zqFH99vEfO69s4deyTT5u28dg/WS5csEbiwssx34+L91HGkI1atU0du5Cxborfkzd8F8bbWULV3GJPm9xRzNhQsXZfg7IxxlJ6v5mqZtrxOsonp68AtSIqG43NejpyPfHrnnzrsEbfl++s+OrOdfe0Xaq6W9WEGGurF6C248BFhaSWohACblTdjwzz8m6nL7gqpv0dIl8tn7oyVBuegYSIAEXBOgEnHNJeJSsUQXbqAuapB2FeDPx9U/Bl6syMIqqob16qnB+m558J57pW7t2joNebjSv77VtTJ42FCBYsHgO33mb/LBJx/LvUoebqn0BlgYn7w3SsaN/6/c88jDMnP2LGnasLE6fqL869ln9NLcpx/7l+TLm9ftIaAcn1DzOQ/+61EZ8sZwfR8M+nFaWTRYQYaVaEMGpUz2oxLcdAmL49W33tRWzuy5f6nVZ1csL/uBcIPmp199Kf3VvSxwDeLeFvMxy4btZbhPAlmVAOdEouTM/09ZITlz5pQObW9w2SOsrsL9GXBpYW4E8xKfvv+DXo2FAiNfH65Xaw1Td4G//OwgGf32CHn6pRfUzYq36QEYcx+wDl58+soNgi4P5ENim2tby2ejx8h/VVseevwxPehjIQBWlGHCfPCw1/Vg/+9+A9REfKzLGp974km1FLig4J6Xj9T9LFixVbliRYGVgqW6t/e+VwY/86yuEzda9n/gIS2He1+wFBn9u+2+e1wqRNwngjBy9Pv6Y20Alkx/OPJdaxLjJJClCcQkJiZe7tYtNKtO3PmbrenWuDkT9jTrvon7s7XKIm72MWDZ46NHjzbNyJTt3LlzpbmHeyAyulGYlD9w6KCU87CkNpA2Ye5h7769YnWR4flZ4yaMl1Fvvu1T1UlnkrQiKl4sZSEAzilce7v27hEoIhNgZaEv1mOZPG4jh0A4/Eb69eunL0CwEhAB1rk1jn1jsdvjRt6XrVUGcQRTb8peyl9rmjXuTsaaHmiclkigBKO8PKybUCkQoMNCAPugjjvt8fE14MZF682L+BFhObI9YOWY/Vh2Ge6TAAn4R4BzIv7xojQJkAAJkICFAJWIBQajJEACJEAC/hGgEvGPF6VJgARIgAQsBKhELDAYJQESIAES8I8AlYh/vChNAiRAAiRgIUAlYoHBKAmQAAmQgH8EqET840VpEiABEiABCwEqEQsMRkmABEiABPwjkC0Ir1zw74iUJgESIAESiBoCtESi5lSyIyRAAiSQ8QSoRDKeOY9IAiRAAlFDgEokak4lO0ICJEACGU+ASiTjmfOIJEACJBA1BKhEouZUsiMkQAIkkPEEqEQynjmPSAIkQAJRQ4BKJGpOJTtCAiRAAhlPgEok45nziCRAAiQQNQSoRMLsVOIVm5fUK2MZSIAE0hLAb8O8hjZtLlMygwCVSPPXqOIAAEAASURBVGZQ93DMggULyoEDBzxIMIsEsi4B/DbwG2EIHwJUIuFzLnRLypYtK9u2bZO9e/fSIgmzc8PmZB4BWCD4TeC3gd8IQ/gQyB4+TWFLQCBv3rxSp04d2blzp/7BJCcnEwwJZHkCcGHBAsFvA78RhvAhQCUSPufC0RL8SGrWrOnYZ4QESIAEwpUA3VnhembYLhIgARKIAAJUIhFwkthEEiABEghXAlQi4Xpm2C4SIAESiAACVCIRcJLYRBIgARIIVwJUIuF6ZtguEiABEogAAlQiEXCSsnoTT548KRcvXoxIDKdOnYrYtkckcDY6wwlQiWQ48tAcEAPtww8/LHPmzHE6wJ9//iljxoxxSgtkZ8CAAYJjZUSA4njttdfk1VdflSVLlvh0yM2bN8srr7zik2yohU6cOCE//vij7N+/XxBnIIFoJMD7RKLsrH733XdSt25dKVCgQMT3bN++fXL8+HF58803JSYmJqL6gzusoUDWrl2rH2Nz1VVXydVXXx1RfWBjScAXAlQivlCKIJlWrVrJ119/LX379k3TalglcK/cdNNNOm/WrFly5swZ6dChgwwdOlRQ9vvvv5c8efJInz59ZObMmbJy5UqtlHr27Ol48B3S//rrL8mXL5/cfffdUqVKFV3fpk2bZMKECXL48GGpUaOG9OrVS9cF6+jYsWOyYMECqVixoq7b2jiUQ50bNmyQatWqCY4FK2T06NGSlJQkL7/8sgwaNEji4+MdxWChNGvWTH755RcpWrSodO/eXSpVquTIRwQD+bRp02Tx4sW6n2jnfffdJ+vWrdPHwnEQzp49KyNGjJBnnnlGW1lffvmlwKIpUaKEbgses7Fr1y7dRlgUBw8elOeee04mTpwoS5culdy5c0vr1q3lxhtv1PXhT2xsrFSvXl0rPzx9AHdaM5BANBKgOyvKzmr79u1lz549snz58jQ9gwKxulVOnz7tcE3hqn/NmjUycOBA/Wyi4cOH60EUg/eWLVv0x1S4detWLde8eXP54IMP5MKFC1o5jRo1Stq0aSODBw+WHDlyyPTp03URHGfGjBnSqVMnadmypalGb6FwUC4xMVFeeOEFPfh+9tln+hEXUEKFCxfWgzvqswa4iFatWqWVC5TJRx99JOfOnbOKyPz587XCePrpp+X555/XfYfyq1q1qixcuNAhj3oKFSok2bNn1/UkJCRoF1rjxo0FCgXh/Pnzur5y5cpJ165dNSswg6sNLr4ffvghzYMzodRuueUWrYigaBhIIBoJUIlE2VmNi4uTHj16aGsEV9i+hsuXL0u7du30oN2oUSM9mLdt21bv4woeisQEXHEXK1ZMkA83EyyIZcuWSalSpaRJkybaQunSpYse5E0ZWBhNmzbVloZJwxbKDuVatGghRYoUkVtvvVUP0FB4GHjxzCRYRq7cWVBYeJ4SFBOeMQblZg14dAwsMigi1IXjwD2GMuXLl9fHgTzmW6AwoJhgNXTs2FHLX3fddVp5GMULtlAK9evX1+1BOiwUWCxvvfWWQPlYA46D45YsWdJl+62yjJNApBKgOysMzxwGUAxmcAG5egAjLABPAa4kDNqTJ0/2+MRTKA5rMPMouOrHgGje24ArdGs7rG4jDMZHjx7VLqwdO3bIk08+aa1S9wEJuNJ3FWCJWOsrXry4Vhrou7dQuXJlhwjaATcTFIUJOXPmlKlTp2prBNYS3GHmmWSYo4ArChYQ3Gm9e/fWihJuNFgt1rBx40atiKAUjDJr0KCBdnlh0QKUyzXXXCOdO3d2MLOW9xSfO3eup2zmpRIwD2CEa5EPYAyvrwWVSHidD+0WgnulQoUKWhHAt56ecNttt2m3ktUawQCIeQIT4GYygyLSrMeypht5s8UVeK5cufQurt7z58+v5xygvB599FEjpt1FZh7DWrdDQEVgZVgtCKz8wjwIrBIoBU8BCsi4ieBawryENUyZMkW7sNAmKKdJkyZp1xtkGjZsqOdLVq9erecu0E7UhX7BqoDiRICLDHmwxIxSRTr4wGqCxbVixQo9P4JjeFPwKGsN/spby2alOL63eJcIfht8km94nXm6s8LrfGgLBAoELhB3A68vTcbAjitj+P5NwEQ4LBwE+PgxwZyegMl2BAz+UCiwCHCFv379ese8ANxbw4YNc7JgXB0LigeWABQCAibf4SozysFVGZNmlv1u375dtwPzFdYAawb1Y3CHMsUAZJQormbBGSuo4MpCgBUD5bFo0SK9DwsLE+iHDh3S+9Y/sCDGjh2rrRCUx7Fh7TCEhgB+C/hN4JyZ73BojsRa/SVAS8RfYiGWx8AHV1QwAlZbzZs3z1EVXDCzZ8/Wk9EYLM2qKoeAjxEM2phQxsCPyW8MyPjgqhyrpqAEcNWOPOvVu6vqoYCwGGDIkCF6WTLa1b9/f1eiadKgxDAZj8Ebq8mgJK1vhcSczfjx47XbCm6qWrVqye7dux31wKWF1WRm5RTcUqgHE/tY9QV3HxQxVn+ZeRFTGJP5sEBeeuklnQQZzAcxhJYA3Kzb1IupGMKHQEzt2omXu3fvFpIW2X3u5iDWdGvcVT7SrDIm7s/WKou42Yef3x7HstLMDLjCDbWLAy4jDPqeXFbeGMAVBtePXUmAKZYNw03lT4CFAGvB13JwUb3++uvackA7PPUF/YWCsQewxlLee+65x56lV625KmMXhAJD2zH/wpAxBDLiN+KtJ/369dPfOfP9x/fPGse++U7a46jbmudp35qHOIIpm7KX8teaZo27k7GmBxqnOytQghFYHoOjuy+ar93BYG9+NNYySPNVEVjLwV2RnnJwe3nri10ZQFlh0QFcWbBWXAV7GVcySIP1QgXijg7TswIBKpGscJajsI+4ydFM7vvbPUyUwxKD68q6msvfeihPAiQgwjkRfgsikkAgjxCB5YJ7YhhIgAQCJ0BLJHCGrIEESIAEsiwBKpEse+rZcRIgARIInACVSOAMWQMJkAAJZFkCVCJZ9tSz4yRAAiQQOAEqkcAZsgYSIAESyLIEqESy7Klnx0mABEggcAJUIoEzZA0kQAIkkGUJUIlk2VPPjpMACZBA4ASoRAJnyBpIgARIIMsSoBLJsqeeHScBEiCBwAlQiQTOkDWQAAmQQJYlQCWSZU89O04CJEACgROgEgmcYcTWYN6lErEdYMNJgAQynQCf4pvppyC4Dejd/xHZoF43aw054nPIrO9/ciQtXLJExnz2ifwx508poV4de3/PXvLgPfc58hkhARIgAV8JUIn4SioC5PBWwd+VYmjT6lqpWa26o8Wx2WMd8aPHjsp9/ftKp/Yd5MdvJsmCJYvlhddekRw5csi9d/ZwyDFCAiRAAr4QoBLxhVKEyGxV7z7Hq2kffaivNKhb12Wrh40cIfFKYQwfPES/EbBWjRqycfM/MvrjsXLPHXd5fUugy0qZSAIkkGUJcE4kik792g3rJbt6zWyt6tUd7463d2/WX3OkfdsbnJRFB7UPBbR521a7OPdJgARIwCMBKhGPeCIrc+369VKkcBF56713pVHrllK9cUN5YtCzcur0ad0RuLu279wpJYuXcOpY8YQEvX/w0CGndO6QAAmQgDcCVCLeCEVQ/pr162T/wQNy4OAhGfivJ6RZ06YyYcpkua9fX92L00lJ2kIpVLCgU68KFiig96lEnLBwhwRIwAcCnBPxAVKkiNx7Vw/pfmtnuaXDTbrJd3TtJm+++468Peo/Mm/hAmlQJ2WeJFs252uHbDEp++cvXIiUrrKdJEACYULAeTQJk0axGekj0Oba1g4FYmowCmX1urWSK1cuyZsnjxw/ftxk6+2xEyn7yGMgARIgAX8IUIn4QyuMZTHfseGfTbLvwH6nVhrFYKyNhGLF5MBh57kP48YqX6asU1nukAAJkIA3AlQi3ghFSH5MTIzccted8vhzzzq1+IcZv+j9urUT9bbl1dfIzNmznGR+mzVLTcgXlmpVqjilc4cESIAEvBGgEvFGKELyoUTu6t5d34X+5TcT5JhyWX2jJtXHfPqxtLi6mTRp1Ej3pE+ve/Qd7e+O+UDfU/LnvLky7uv/ypBnB0msWh7MQAIkQAL+EODEuj+0wlx20L+f0orhmcEvypMvDJK47Nnl5nbtZcTrwxwtr1Gtmox68215dshgGTribSlapIj0uuNOub1LV4cMIyRAAiTgKwEqEV9JRYBcjrg4eePlV+SV556XXXv2SNnSpfXjTOxNh8LAKq5de3ZLmVKlxb5ayy7PfRIgARJwR4BKxB2ZCE6Pj4+XyhUreuwBFEc5TqR7ZMRMEiAB7wQ4J+KdESVIgARIgATcEKAScQOGySRAAiRAAt4JUIl4Z0QJEiABEiABNwSoRNyAYTIJkAAJkIB3AlQi3hlRggRIgARIwA0BKhE3YJhMAiRAAiTgnQCViHdGlCABEiABEnBDgErEDRgmkwAJkAAJeCdAJeKdESVIgARIgATcEKAScQOGySRAAiRAAt4JUIl4Z0QJEiABEiABNwSoRNyAYTIJkAAJkIB3AlQi3hlRggRIgARIwA0BKhE3YJhMAiRAAiTgnQCViHdGlCABEiABEnBDgErEDRgmkwAJkAAJeCdAJeKdESVIgARIgATcEKAScQMms5LxxsFLly5l1uF5XBIIawL4bfB1zuF1iqhEwut8SMGCBeXAgQNh1io2hwTCgwB+G/iNMIQPASqR8DkXuiVly5aVbdu2yd69e2mRhNm5YXMyjwAsEPwm8NvAb4QhfAhkD5+msCUgkDdvXqlTp47s3LlT/2CSk5MJhgSyPAG4sGCB4LeB3whD+BCgEgmfc+FoCX4kNWvWdOwzQgIkQALhSoDurHA9M2wXCZAACUQAASqRCDhJbCIJkAAJhCsBKpFwPTNsFwmQAAlEAAEqkQg4SWwiCZAACYQrASqRcD0zbBcJkAAJRAABKpEIOElZvYknT56UixcvZhkMx44dyzJ9ZUcjnwCVSOSfQ90DDLQPP/ywzJkzx6lHf/75p4wZM8YpLZCdAQMGCI6VEQGK47XXXpNXX31VlixZkhGHTHOMPXv2yKJFi3T6r7/+Kl999VUamWAlXLhwQc6cOSOfffaZIH7u3LlgVc16SCBkBKhEQoY2cyr+7rvv5Pjx45lz8CAfdd++fbovb7zxhjRt2jTItftWHRQIbvxEuPrqq+Xmm2/2rWA6pI4cOSITJ06U3bt3y5dffinYZyCBcCfAmw3D/Qz52b5WrVrJ119/LX379k1TElbJqVOn5KabbtJ5s2bN0le+HTp0kKFDhwrKfv/995InTx7p06ePzJw5U1auXCl169aVnj17Oh58h/S//vpL8uXLJ3fffbdUqVJF17dp0yaZMGGCHD58WGrUqCG9evXSdcE6gotmwYIFUrFiRV23tXEohzo3bNgg1apV08eCFTJ69GhJSkqSl19+WQYNGiTx8fGOYvv379dWAR6Fce2118rGjRulf//++rljP/zwg/Tr10/Lbt++XX766Sd55JFH9D76PGPGDDl//rxcc8010rlzZ90vtOG///2vHD16VMqXLy/33HOPjs+ePVuXi4uLkyJFiui+derUSc6ePSt//PGH5hATEyMdO3bUSgYKAPWD4fz586Vw4cLSu3dvKV26tGbwySefCNqEum677TapVauWo0/FixeXHDlyyPXXX69lSpYs6chjhATClQAtkXA9M+lsV/v27QUumOXLl6epAQrkxIkTjvTTp087XFO46l+zZo0MHDhQP5to+PDhUqJECT14b9myRfAxYevWrVquefPm8sEHH2jXC+oeNWqUtGnTRgYPHqwHw+nTp+siOA4GVgy+LVu2NNXoLRQOyiUmJsoLL7wgsbGx2p2DR1xACWEQfuaZZ3R9puDly5flww8/lOrVq8tLL70kaDuUANLhBjp06JAR1coCx0BYu3at/Pzzz3pQf/zxx2X9+vW6z8iDAoEigNWDfsOiq1SpkjRr1kxbQTfeeKOgH8bKmzp1qqxbt04effRR6dq1q3zzzTeaEY4PZQmF9+KLL0qFChVk2rRpOIRWZnju01tvvSXt2rWTL774QrdZZ6b+gSKHkr/11lutyYyTQNgSoBIJ21OTvobhirlHjx7aGsHVsq8BAzAGNgzajRo10oN527Zt9T4sDasSwYBarFgxQT6uwmFBLFu2TEqVKiVNmjTRFkqXLl1k1apVjsPDwoBLCltrgLJDuRYtWuircwyeUGZQSrlz59ZWAq7qcRwTDh48qBUH2pE/f36B4kT78fEU5s2bp9sAawiK4oYbbtCWlimzY8cObZndfvvtcu+992oGsAzA1GoFQR6KArxQT8OGDaV27do6DXk5c+aUW265RQoVKqR5GKWGPsCCQvvhGhsyZIhTv1AWLKxbvcM/JBDGBOjOCsOTgwEUfni4gFw9gBEWgKcAVxIG68mTJ3t84ql90C1QoICuFgNnQkKCw32VPXt2p3bgCt0EuH7gAsLVPgbhJ5980mTprVlphAHVVUA5a31w6UBpmHLuysDVg3YilClTJs0g76oc5higtIyLCjJFixbVolAa48eP1xYTlCasC2u7rPXBxYYJ8MqVKzuSEYdlggDFZpQelI95PwwsHVgfr7/+uuYL5QdLx98wd+5cf4tEvLx5ACMsOT6AMbxOJ5VIeJ0PfQWOK/gKyg0CRQD3TnoC/O1wK1mtEQxsZkBDnXDPmMEO+9ZjWdORZw1wieXKlUsn4coagyYGVSgvuHdMwOoicwVvrdvkYwuFAfeYCVj5hUEacwa4YncVoLigfNAX1AulizkOBLTbuhwYeUZZwrKBSw0WBALKmzwopeeff15bOHC9ffTRRwKXnqsASwPHRd/RFgS41NBmTwHMMFeF/sGSGTdunJ5PglXnT/B2EeFPXZEii3OFd4ngt8En+YbXWaM7K7zOh7ZAoEAwqLkbeH1pMgZ2TBovXLjQIY6JcLPSCIOuuXJ2CPgYwWQ7AgZ/KBRcheOpw5hjMC/Ugntr2LBhThaMq+qheDCfYeYtMLhiUMWA7y4gD9bHihUrtAiW/xplgKtUWDFmGbJ1bghtBA8oPIRJkybphQCw9l555RU9mQ33FCbqoYhQJ6wdo6B0IfUHV8WYj0FbURbHggsObjJPAVYIFhDgPLRu3Vr30arwPJXN6nn4LeA3gd+G+Q5ndSbh0n9aIuFyJlLbgQHQPm+Q3iZikhbzACY0aNBAu3Kw0gkuKrOqyuT7usXqIty7gYEfk98YuPHBPAju64ASwECLPGw9BSgguHUwPwB3GtqFVVbeAuYcxo4dK5jghgVgLCe44dBPWGFoE65aTYByQNufffZZ7cZC/oMPPqjbCMsN92dAaeAc3HnnnbpOtO+9997T92yY+QrUd9ddd2lrBYsBoGRgHWA+aJt6aZK7gOXBn376qVY+sJDgysLAyOA7AZxfT4x9r4mSwSIQU7t24uXu3bsFqz6neszVoVOi2rGmW+NGzp5m3Tdxf7ZWWcTNPq4i7XEsK83MAH93qN0VuHLGAGoG3vT0F64wuGfsSgJMcaUPN5U/Ae4KuN78KYdzh3agL3ATjRw50uFmQxswIQ6lZA9YQYXjwS1lDxjc0QYrG+P2clWXOw72eq37ntpmlWPcNYGM+I24PvKVVCwhx3fEfP/tceyb75A9jlqseZ72rXmII5iyKXspf61p1rg7GWt6oPHsqq8MWYwA3CmBBneDPX5U7vI8HRPuCn/L4ccCBeIqmDkbV3lQLvi4Cq7q8+RW9LfNOKantrlqE9NIIJwJePY1hHPL2TYSsBDAzYHuFINFjFESIIEgE0hr6wf5AKyOBDKCAO4+ZyABEsh4ArREMp45j0gCJEACUUOASiRqTiU7QgIkQAIZT4BKJOOZ84gkQAIkEDUEqESi5lSyIyRAAiSQ8QSoRDKeOY9IAiRAAlFDgEokak4lO0ICJEACGU+ASiTjmfOIJEACJBA1BKhEouZUsiMkQAIkkPEEqEQynjmPSAIkQAJRQ4BKJGpOJTtCAiRAAhlPgEok45nziCRAAiQQNQSoRKLmVLIjJEACJJDxBKhEMp55hh0RL0vC+z3cBfMuFXf5TCcBEiABbwSoRLwRitD8NevXSbXGDWX56lVperBQvU72/gH9pFL9OtLsxjYy9ovP08gwgQRIgAR8IUAl4gulCJNZv3Gj9Or7kCSdSUrT8qPHjsp9/ftKsaJF5cdvJslD9/aWl4cNlXETxqeRZQIJkAAJeCNAJeKNUITljxz9vrTt3Ely5oh32fJhI0dIvHqP+PDBQ6RWjRrS++6ecs9dPWT0x2Mdrwp2WZCJJEACJOCCAJWICyiRmoQ5jv98+IE8OeAxGf1/I3U31Juenboz66850r7tDU7vae6g9rdu3y6bt211kuUOCZAACXgjwDcbeiMUQfl45/ii32dL0SJFZNXaNWlajkn27Tt3SsniJZzyiick6P2Dhw5JlYqVnPK4QwIkQAKeCNAS8UQnAvOgQNyF00lJ2mVVqGBBJ5GCBQrofSgRBhIgARLwhwCViD+0Ilw2e2ys7kG2bM6nPVtMyv75CxcivIdsPgmQQEYTcB5NMvroPF6GEsiVK5fkzZNHjh8/7nTcYydS9pHHQAIkQAL+EKAS8YdWFMgmFCsmBw47u62MG6t8mbJR0EN2gQRIICMJUIlkJO0wOFbLq6+RmbNnObXkt1mzpEjhwlKtShWndO6QAAmQgDcCVCLeCEVZfp9e98iGTZvk3TEfyJkzZ+TPeXNl3Nf/lSHPDpLY1DmTKOsyu0MCJBBCAlQiIYQbjlXXqFZNRr35tlIio6VCvUR55MknpNcdd8rtXbqGY3PZJhIggTAnwPtEwvwEpbd5dWrVlgObtrgsDoXR/dbOsmvPbilTqrTYV2u5LMREEiABEnBBgErEBZSskATFUY4T6VnhVLOPJBBSAnRnhRQvKycBEiCB6CZAJRLd55e9IwESIIGQEqASCSleVk4CJEAC0U2ASiS6zy97RwIkQAIhJUAlElK8rJwESIAEopsAlUh0n1/2jgRIgARCSoBKJKR4WTkJkAAJRDcBKpHoPr/sHQmQAAmElACVSEjxsnISIAESiG4CVCLRfX7ZOxIgARIIKQEqkZDiZeUkQAIkEN0EqESi+/yydyRAAiQQUgJUIiHFy8pJgARIILoJUIlE9/ll70iABEggpASoREKKl5WTAAmQQHQToBKJ7vPL3pEACZBASAlQiYQULysnARIggegmQCUSZucXbxy8dOlSmLWKzSGB8CCA3wZf5xwe58K0gkrEkAiTbcGCBeXAgQNh0ho2gwTCiwB+G/iNMIQPASqR8DkXuiVly5aVbdu2yd69e2mRhNm5YXMyjwAsEPwm8NvAb4QhfAhkD5+msCUgkDdvXqlTp47s3LlT/2CSk5MJhgSyPAG4sGCB4LeB3whD+BCgEgmfc+FoCX4kNWvWdOwzQgIkQALhSoDurHA9M2wXCZAACUQAASqRCDhJbCIJkAAJhCsBKpFwPTNsFwmQAAlEAAEqkQg4SWwiCZAACYQrASqRcD0zbBcJkAAJRAABKpEIOEnpaWJSUlJ6imX5MqdOnZKLFy9meQ4EQAK+EuASX19JRYDc5cuX5bvvvpPFixfLmTNnJDY2VqpXry533HGH5MmTJ+g9gKKaN2+etG3bVrZv3y6ffPKJvPLKK0E5zooVK/R9AeXLl5dff/1V9u/fLz179gxK3e4qOXHihPz888/SokULKVSokOTOndudKNNJgARSCdASiaKvwueffy47duyQ++67T9566y0ZPHiwHghHjBghp0+fDnpPcSwoLISSJUvKI488ErRjzJgxQ2AVIFx99dVy8803B61uVxXhjugff/xRVq9eLVOmTNE3erqSYxoJkIAzgdiEhISXa9Wq5ZyaRfZw5W6CiYd6sDLHC/b26NGjMmHCBHn66aelePHiEhMTI3FxcZKYmCh///23ViZlypSRIUOGSNOmTXUe2vDyyy/rQTp79uyyadMmGT16tEydOlUPorjhMUeOHHLs2DF5//33df0LFy4U9Z3RVsLIkSPl0KFDsnnzZqlQoYJMmjRJ1416cczx48fLt99+KydPntQWEe46Hjp0qOBYOM5vv/0mBQoUkNKlS6OII0CB4Djr16+XEiVK6Lv3N2zYoOtAefQN7cExqlSpItOmTZMvv/xS9u3bp+9oRj54jB07Vrdh+fLlun041q5du3T/5syZo5XGNddco9uDtl24cEFbb0eOHJF27do5GDkaxggJpBLABQe+Z/gguIq7yzPyvmytMogjmHpT9lL+WtOscXcy1vRA47REAiUYJuXxTCEMuK5cMHAJwd2EgIHW+igV7EOB4qp/1KhR0qZNG23BQHlMnz5dl/npp5/084pg3WBw/eKLL/TACzdZqVKlpE+fPnoAhkJBWLp0qXar3XrrrTJgwABZu3atVhjIw/OPMKg//vjj0qlTJz3IW9sDmdatWwsUXvfu3aVGjRraijp+/DiydPvXrFkjAwcO1G0aPny47vegQYNky5Yt+gO5jz76SCu7V199VRo3bqyVDNLPnz8v8+fPl3LlyknXrl0lPj4eyTpUqlRJbrnlFu02y5kzp0nmlgRIwAMBKhEPcCIpC9aCKwWCPuAKHFfXnsKyZcu0QmjSpInky5dPunTpIqtWrdJFcGWDOYmDBw9qqwXWDNJy5cqlH8ttPy4GadQDBQAFBqUAq8GEjh07amupWbNmcvbsWbEvAoACw3wO6ofVYg1QeFBkhQsXlkaNGmk5zMlgH1YJFAnaimeP4Tho23XXXaeVB+Y8EGChQVnUr1/fWrW2riAP15y7qzmnAtwhARIQ518ogYQFAVgFGAShGOxX6Whg8+bN07QTLqHZs2enSUfC4cOHpWjRoi7zTCJkMMfx5JNPmiS9RRswGMP6eP311/XVffv27QUKwF1AXZicNqFy5coyefJksyv58+fXcbiQMKC76qND2EUEShEBygauNdSDAIWDuqAwscLq+eef1+nmz8aNG7WywYP80qsk5s6da6rjNgMJ4BzjvOEJvnwAYwaC9+FQVCI+QMpIESgQWAAV1BxDtWrV9JW2L8eHewZX4Hv27NEWBSbSYTlAucD9c9ttt+lq8GM0L72CBYAre3xwBQ7L4dFHH3Uc7ty5c9rdgwG5b9++2mJYsGCBjBs3Tl/1OwRtEfzI4SarW7euzoELq0iRIg6p9A7gpgJYKSa4qgt9gRUD95uxZExfYKkYpWPq8GfrSoH7U56y6SOA7yzeJYLfBp/kmz6GoSpFd1aoyKazXlggUCBwqVgHS2/VwYffrVs3+eyzz7TlASXy1VdfybBhw/Ry1YYNG+oqMMDD4kDA3IQJmETHRLZ5IRbcWyiLK3tYITNnztRurtbKNYVBGooFlgAGZ3uAMkLdcFVBDiu4KlasaBfzuO+ubo+FUjMxTwPlsWjRIp2CSfbnnntOLwLwpTxlwo8Afgv4TeC3gd8IQ/gQoCUSPudCtwTuI1gg6QmYG8AKo3fffVdvYWHA/MeEN5QCFAlcU1i1hPsg8IM0b4mDHOZBXnvtNSlWrJi+Wu/Vq5feYsXap59+KrBCYCnBlYUfNBQVrJkXX3xRHnjgAUeTMTmPHzoGbkxcY5LcWEIOIS8RMIBCtM+XeCmms+Eiw2Q/yv/yyy/a0urcubN26Zl5EV/qoUz4EYD7EotIGMKHQIxaAnoZV7ChCBjEXAVrujVuZO1p1n0T92drlUXc7OMq2x7H0tPMDPC5B8NlgsEeNxjC3QPFhBVSWM6KAOsAygYuH3sAE9yo6OrmRKRjgDYuIpQFP9QFy8EejJViXQFll/G0j3pxLFcuK0/lrHlYXoyFAgzRQyBYv5FAiPTr109/L41rFN9Raxz75ntrj+O41jxP+9Y8xBFM2ZS9lL/WNGvcnYw1PdA4LZFACYZpeevkI6wNo0DQXAzMVkVg7QJ+CK4UCGRcKR18YV0pEMinV3mgLAIUVqCBCiRQgixPAp4JcE7EMx/mkgAJkAAJeCBAJeIBDrNIgARIgAQ8E6AS8cyHuSRAAiRAAh4IUIl4gMMsEiABEiABzwSoRDzzYS4JkAAJkIAHAlQiHuAwiwRIgARIwDMBKhHPfJhLAiRAAiTggQCViAc4zCIBEiABEvBMgErEMx/mkgAJkAAJeCBAJeIBDrNIgARIgAQ8E6AS8cyHuSRAAiRAAh4IUIl4gMMsEiABEiABzwSoRDzzYS4JkAAJkIAHAlQiHuAwiwRIgARIwDMBKhHPfCI217wnxVMHfJHxVJ55JEACJEAlEmXfgR9+mS69Hn5QytetLdd1ulnGT5qYpocLlyyR+wf0k0r160izG9vI2C8+TyPDBBIgARLwhQCViC+UIkRmrXpHep9H+0v1qlXlu/HfSKcOHeTx5wbKN1MmO3pw9NhRua9/XylWtKj8+M0keeje3vLysKEybsJ4hwwjJEACJOArAb7Z0FdSESA3/J0R0qBOXXnhqWd0a+vXqSOz5syRid9Okzu6prwCedjIERKvXmU7fPAQ/ZrNWjVqyMbN/8joj8fKPXfc5fLVmxHQdTaRBEggkwjQEskk8KE47JiR78iXH451VI05j0OHD6vX1155zeysv+ZI+7Y3OCmLDmp/6/btsnnbVkdZRkiABEjAFwJUIr5QihCZ3LlyazcVlMc/W7fIK2++Idt2bJd77uyhe5CcnCzbd+6UksVLOPWoeEKC3j946JBTOndIgARIwBsBurO8EYrA/GWrVkr7bl10y+/q1l3aXd9Gx08nJQkUTKGCBZ16VbDA/7d3HYBS1Ex46L33jvReBBFEEJUqqFRFFLv0HxUFRKWoWFERVBALdhTEXlCxoIKAioD0jhSpSu/tz5fHHLm8vX73bu/eBO4lmZlMZr9sMpuyd/l0XpyIFyySEQQEgSAQkJlIECAlmsh5ZcvSrM+/ohFDhtLMWT9Sjztu05eQOVMmHWfM6N3sGTOk5I+fOJFolyr2CgKCQJwRkJlInBsgFtUXyF9AzTYKEDbNM2fOQiMeG03rN26kCuXLU+5cuWjfvn1e1e7dn5IHT4IgIAgIAqEg4P1IGkpJkXUVAtjvWLBoIW3eusXLrsuaN9d58BCKFilCO//13vvgZaxypctoGfkjCAgCgkCwCIgTCRYpl8thiapnn1407KFRXpb++MvPOl+uTFkdN2t8EX3/0ywvme9mzaJCBQtSlUqVvOiSEQQEAUEgEALiRAIhlED8ntd213sg7304nfbt308fffE5TXp9MjVq0IAa1q+vr+S2njfSqjVraNxLE+nIkSP0869z6M333qWH7rufMp3dM0mgSxZTBQFBIM4IyJ5InBsgmtUPHngXHTx4iAY9MEy/qQ7d7Vq1pqdGPUy8mV6tShV64amn6b6HRtJjzz5NhQsVIjifazp1jqYpoksQEATSCQLiRJKooXH66tHhI2j44CG0Se2NlCpRknLlzJnqCuEwul7dkbb8s5VKlyzlcTCpBIUgCAgCgkAABMSJBAAoEdnZs2enKhX9729gZlJWNtITsXnFZkHAVQjInoirmkOMEQQEAUEgsRAQJ5JY7SXWCgKCgCDgKgTEibiqOcQYQUAQEAQSCwFxIonVXmKtICAICAKuQkCciKuaQ4wRBAQBQSCxEBAnkljtJdYKAoKAIOAqBMSJuKo5xBhBQBAQBBILAXEiidVeYq0gIAgIAq5CQJyIq5pDjBEEBAFBILEQECeSWO0l1goCgoAg4CoExIm4qjnEGEFAEBAEEgsBcSKJ1V5irSAgCAgCrkJAnIirmkOMEQQEAUEgsRAQJ5JY7SXWCgKCgCDgKgTEibiqOcQYQUAQEAQSCwFxIonVXmKtICAICAKuQkCciKuaQ4wRBAQBQSCxEBAn4rL2wi8Onjp1ymVWiTmCgDsQQN9AH5HgHgSkNdzTFtqS/Pnz086dO11mlZgjCLgDAfQN9BEJ7kFAnIh72kJbUqZMGdq4cSNt27ZNZiQuaxsxJ34IYAaCPoG+gT4iwT0IZHaPKWIJEMidOzfVrl2bNm/erDvM6dOnBRhBIN0jgCUszEDQN9BHJLgHAXEi7mkLjyXoJNWrV/fkJSEICAKCgFsRkOUst7aM2CUICAKCQAIgIE4kARpJTBQEBAFBwK0IiBNxa8uIXYKAICAIJAACsifiwkY6ePCg3ljfu3cvyca6CxtITEpzBHhjHSezZGM9zeH3W6E4Eb/wpD0TDmTJkiVUvnx5qlKlCmXKlCntjZAaBQGXIYAjvnhHBH1DTmi5q3FkOctd7aFnIHAgJUqUEAfisrYRc+KHAB6m0CfQN3D8XYJ7EBAn4p620JZgCato0aIus0rMEQTcgQD6BvqIBPcgIE7EPW2hLcEeiCxhuaxRxBzXIIC+IfuErmkObYg4EXe1h1gjCAgCgkBCISBOJKGaS4wVBAQBQcBdCIgTcVd7iDWCgCAgCCQUAuJEEqq5xFhBQBAQBNyFgDgRd7WHWCMICAKCQEIhIE4koZpLjBUEBAFBwF0IiBNxV3uINYKAICAIJBQC4kQSqrnEWEFAEBAE3IWAOBF3tYdYIwgIAoJAQiEgTiShmkuMFQQEAUHAXQiIE3FXe4g1goAgIAgkFALiRBKqucRYQUAQEATchYA4EXe1h1gjCAgCgkBCISBOJKGaS4wVBAQBQcBdCIgTcVd7iDWCgCAgCCQUAuJEEqq5EtPYo0eP0q7duxPT+DhYfVL9FCw+EgSBREBAnEgitFIQNk796EMqWrmC388NvW4PQpN/kRMnT9LLb77uX0hxz5w5Q+MnvURXXncNVTq/LtVs0oiatmlFQ0eNoG07tgcsHwsB2/ZlK1dovP5cvCgW1YWl8+ChQ3RphyvopcmvhlVeCgkCaY1A5rSuUOqLDQJNGjWil8aO8yh/d9r7tGjJEhrzyKMeWvEo/Ozum1PepdFPj6FeN93i0euUGPHYo/Ta22/SgF69acTg+yhr1qw0a/Yv9Ob7U2ju77/RZ1OmUv58+ZyKxoxm254/X366rktXKlSwYMzqDEXxnn17qfddd9KqtWtCKSaygkBcERAnElf4o1d52dJlCB8Ov86fRytWr6bOHa5kUlTi02dOU4YMGfzqwkxl0huTaerkN+jSZs09snVr1aIrWremdl070w29b6cv3v/Aw0uLhG17qRIlaNwTT6VF1QHr+PbHH+ju+++jHNlzUNYsWQLKi4Ag4BYEZDnLLS2RRnYsWLSQOl5/nV5iwvLSuJcmev1mNfYuet01kKo1akDVL2xI19xyE61ak/JkjCWzia+9SseOHaNWna4iDHxO4YNPPqZWLS71ciAsV7lCRRo+ZCj9tmABbdy0SZPf+3A6de55PYvoeMvWrbqOxUuXeug7du2k2wcO0EtjdS++iO4aNpT2Hzjg4Ydq+7oNG3QdK5Wz5fDDzz9RW+Xkzqtbiy5u25qenfACnTL2J0Y8NpomvPoKvaFmZM2uaENVG55Pt/TvS7v//ZdV0MK//qKre3TXOhq0aE4Dhw6hvfv2efhOCeDa4uJm9P2nn1O2bNkCOmonHUITBOKBgDiReKAepzr/WPgnXXXdtWrT9iQ9MfIh6tn9Onpu4ouEpScOA+8bQkuXL6f7B91LjzwwnPbt36f3NY4fP051ataiCxs0pMyZMtFtPW8kOAQ7QG75ypXUvGlTm+XJN6xXX6cXLflLxzt37aJlK1Z4+EgcPX6M4EAOHT6k6QcOHqRWHa/WS3QD7uhNwwcPoXl//E6dbujhcYKh2n702FFdx+Ejh3Udv/z6K3W/7RYqV6YMTXxmLHXr2InGTniRBj0wTPPxB44PM60XlSPpelVH6nvb7fTdT7No4H2DtQx0XXf7LZQjRw4a+9gT1PfW2+iHX36ivvfc7dHhlHj5ufH04phnKF/evE5soQkCrkVAlrNc2zTRNwx7GSWKl6DP35vmedLNpvYqHhz9MPW55VYqXaoU/frbfOVA7qEblYNBqFOzJr34ysuEgb561ap0fr16NOP776h7566OBi5dsZywgV3OWFqzBStXrERZMmdWDuEv6ti+g812zL80+TXCTOS3739Ug3xZLVNb2dasXRv6+MsvqMuVV4VsOzbWzTDs4VF0SdOLadLZvaW2LVtRwQIF6N7hD1Dvm2+lGtWqafE9albxxw8/UZHChXUeDo43wleqWdt/e/bQg/cOplrVa2h+MbUXNe/33/VhA19LgazLtCeR0zNnziR8/IVWrVrRJZdcovfL/MkJz90IiBNxd/tEzTocGf1twR/66fqvZcs8ekuqfQEM+gvVgA4nUlfNNp4a95xyGrup7eUtqYFyGqHsG2TKlHJLnT592lOHnciYMaMeUHGCK9gA5wYntnfffvU5t8RVrEhR+v3PBdqJRGL7ocOHafW6tXRnn75eJl2jZiNwIr8vXOBxIlUrVfI4EAhXKF9eY4ijzFUrVdazkNv+159u6t6D2igMr2zbTn+8FCd5Bg4CwZcjAZ9lkhyKpL88Wc5K+iZOucDt27frdw+w/4D9DP707H2HFti8ZYuOXxn/vHIc9emFVyZR+2u7Up2Lm9BENQsINuBpHSexNm7e7LPIJsWDU6vksBzmq9AmZR+WydhujjE7iYbtsAmheLHiXiZgf6JA/vy0bfsOD71QwUKeNBKQQcDGfa6cOWna5Dc1BqOefJyatL6cmrdvSz/+8rOWSU9/fDkKX/T0hE0yXavMRJKpNf1cS76zx2kfuGewOp57cyrJzGdPBOHJftrrb+qXA2fO+pGmf/oJjXz8Uf3k3fWqq1OVswlYpsIyzky16d5P7RdwwMZz4UIpgy8PqDXPLg9B5viJ4yyq47179+qYZys4Dly5YkV6/YUJXnLIZFJ7NAiR2F6gQH6tA3tAZsCMav/+/VSubMoSGngBDqfRhQ0b0i9ffUNr1q+jb3/4nt6ZNpV63HEb/f79LD3bM/Une5pnGzwjEQeSfC0uM5Hka1PHK8qTOzeVUE/ZX838Ri+3YOMXn7Ub1lPvQXfRhr836hNEOGmEpSOs0ffo2o2mKodSQL1PsUidOELAmr6/pSrIYD9ljjpi/PnXM5DV4QG174JTT199+w098dyz+vTW+XXraR6e3g8fOULYlOewau1aTuoYS0iz5/6qnM0Jj/1n6Az1u3cQwdnh9FMktsMBYVMbdpthvloCxKypepWqJtlnGqffrlcOA/bg4EH/23vRS8+O0ye8liw/t4zoU0ESMthxcJyEl5iuL0mcSDpq/rv69tPHT0c//RRt3baNsLF89/3D1Ebwf3rAw9P+MXUq6uEnn9CnlrBh/OFnnxBegsPTNUKunLn0Ed+vv5upN9ud4IPzubtff7rjzv/RQ0rX/D/+oJt7XE+H1NvYNysnBb0P3f+Ap2jtGjX1HskjY56i7Tt30E9zZtOY8c95+Ej8r1cfPZjjBBZObf2jlueGjhpJs+fNpUbnN9AvLkZiO5zjwN596O2p79P0zz7V1wh8howYThecf75nP8TLKIcM9m2wvzTqicdo89Yt+jDA+x9N17OlhvXPdyiRPkjiQJK3ncWJJG/bprqym67roY/Gvvb2W1S/eVPqcG03vbyCo6h8amjk0GF62anj9d2pYv06dP/DDxGWwLA5jHBZ8+Z0XrlydGPf3vrt81SVnCUMu/segi48mXfu2UO/N4GjxZil4KVDvH/y6Vdfamk4KDyxT37nLarTtImeXfBmPtuFwfmtl16mJcuW6n2Rhi2aEfYxXnz6Wc8md6S2973tDhqonBWO9JatXYPaX9ONKlaoQO+/9kbQLwDmzJGTnlHfEoAZ3oWXX0q1L2pMM2Z+S+++/KrHTl+YCV0QSEQEMtSqVetMly5dYmI7r2fbyk26mWY5m2bmOR1KbMoizXksy9jpCRNSr7mzXWkRz5kzh5r6ecciGjbgurdu+4eKFS3mc3DEia3t6juuSpcs5XEwZt1YrsESGe9HmDw7jXcnMPvAkhECMMcLiVuUDYP6DfCI4yXGnbt3UZlSpT00pwSOG2Mz29c7FZHajpcLt/yzlUqWKKmPIjvZEAwN14xr5+sOpozIBEYgLfpIICv69eun+wVOGiLgYcdMI88PQHaa5YOJTRmkEVhvSi7lr0kz075kTHqkadlYjxTBBCyPmz3QQI0Ncn8yoXzvFZ7O8eGAm/yaTp0564nhGPzVyYJFixThpGMcqe1wjPwuimMFQRLhZPGRIAgkMwKynJXMrSvXJggIAoJAjBEQJxJjgEW9ICAICALJjIA4kWRuXbk2QUAQEARijIA4kRgDLOoFAUFAEEhmBMSJJHPryrUJAoKAIBBjBMSJxBhgUS8ICAKCQDIjIE4kmVtXrk0QEAQEgRgjIE4kxgCLekFAEBAEkhkBcSLJ3LpybYKAICAIxBgBcSIxBljUCwKCgCCQzAiIE0nm1pVrEwQEAUEgxgiIE4kxwKJeEBAEBIFkRkCcSDK3rlybICAICAIxRkCcSIwBFvWCgCAgCCQzAuJEkrl15doEAUFAEIgxAuJEYgywqBcEBAFBIJkRECeSzK0r1yYICAKCQIwRECcSY4BDVY9fHcTPs0oQBASB1Aigb/DP0KbmCiUeCIgTiQfqfurMnz8/7dy504+EsASB9IsA+gb6iAT3ICBOxD1toS0pU6YMbdy4kbZt2yYzEpe1jZgTPwQwA0GfQN9AH5HgHgQyu8cUsQQI5M6dm2rXrk2bN2/WHeb06dMCjCCQ7hHAEhZmIOgb6CMS3IOAOBH3tIXHEnSS6tWre/KSEAQEAUHArQjIcpZbW0bsEgQEAUEgARAQJ5IAjSQmCgKCgCDgVgTEibi1ZcQuQUAQEAQSAAFxIgnQSGKiICAICAJuRUCciFtbRuwSBAQBQSABEBAnkgCNJCYKAoKAIOBWBMSJuLVlHOw6c+YM4SNBEBAEBAG3ICDvibilJRzsYIfBMYtwPkOGDJrEMfMlFgQEAUEgrRAQJ5JWSIdQD5wEfzKQchT4rxwGOwvmnTmt5NQ/5jE/hKpEVBAQBASBiBAQJxIRfNEvzA5C+Qb9baVOjoGdBmrX8medCfJO8qBLEAQEAUEgFgjInkgsUA1TJxwCvisLccZMGYNyCHAakDXLhlm9FBMEBAFBIGQEZCYSMmSxKcBOANozZcoUciUos2zZMpo3b55neSsYJfhiu3z58lHp0qX193XlypUrmGI+ZYY/OpomvTGZSpcqRX/O+sVRrlm7NrRq7Rp6ccwz1K1jJ0eZYIhrN6yni1q3pM/em0qNG14QTJGIZGbM/JaqValK55UrF5EeKSwIJBMCMhNxQWvCgfAnHAfCl1CzZk2qVKmS1sW0QDFmPnv27KElS5bQ9OnTafXq1YGKBOTjGrZs3Up/LVuaSnb1urXagaRiuJywYtUquqlfH9qzb6/LLRXzBIG0RUCcSNri7Vgbz0Ki8YttDRo08Dgkx8r8EOFQ5syZE7EjKVKoMFU6rwJ99e23qWr7/OsZVE99nXeihdNnUr6SXx90SDTjxV5BIIYIiBOJIbjBqOYZCOJoOBF8jXzlypVDmo3Yds6dO5cOHTpkk0PKt2/Thr789ptUZeBErmzbLhUdS1M9e99BVS9oQPWaXUQDhw6hvfv2ecktUrOl2/7Xn6o2PJ+u7tGdVjrMmnbs2km3DxxANZs0oroXX0R3DRtK+w8c8Oh54JGH6aXXJ9OgB4ZpmfGTXtK8nbt2Ud9Bd9EFl7Wg8nVq0aVXtqc3pryreain91136vSAwffQmOfH6TR+KAlLdxe3bU3n1a1Fbbp0VI7T+5o7dO9GX3//HbXr1oUaXd6Cvv9pli4rfwSBZEFAnIgLWhIOJJoBv/zGzikcvZiRrFixIpyinjId2rTTy1brNmzw0NarX6Vbs3YttW3ZykND4t///qP23brS9p076ImRo2jInXfTL3Pn0BVq4D1+4oSWhQyczL79+2nsY49T0wsbU381oJvhwMGD1Krj1QRnM+CO3jR88BCa98fv1OmGHvrAAmQ3bNpIE197lWbPm6t1FFA/dHTi5EntAFYp2wb06kVPjBpFBQvkpyEjh9Oc+fOoSOHC1LFDB13V1Ve0p+ZNmur0mPHj6KEnHqcObdrSxGefo1rVa9DN/fvS1I8+1Hz8WbJ8OQ0dOULtc2WkShUqULGiRT08SQgCyYCAbKzHuRV5sI9kL8S+hCJFitikkPNbtmyhhg0bhlyOC9StVUtvrmM2MrB3H03GLKR504spf958LKbjJ8eNxdlk+vid9yj32Y39C84/n7AB/9Z7U+j2G2+isRNe1O/ETHnlNcqaNStd0boNnTx1kp6bOMEz63pp8muEmchv3/9I5cqU1bprq30i6Pn4yy+oy5VXadp/e/fQ7z/MouJFi+n8gkULKYM6YPD8U2OoZrWUHwNrc9nlVKNxI/r9zz+1s2mnHN9T456jVpdeRvXr1KF/tm+n519+STu8u/r203raXt6SDh8+TI88/RR1vupqypI5pXsVKliQPpsyNSozTV2R/BEEXISAzERc0BjRWsriS8mdK7dnYGVaqPE+aykp1PKQb9+qjdfyjq+lrIV/LaZ2LVt6HAjKVq5QUQ3Wdem3Pxcgq57ol1HLS1poB6IJ6k+n9ldyUse//jafqletqpbB9tPipUv15+jRY1SsSFHlDFL0QLBC+fIeB4J8g3r19UkyOBDMfFatWaOWoL6n7Nmy0eEjhyGSKixdsVzPYOzTZdd06kxYGtu46W9PmcYXXCAOxIOGJJINAZmJxLFFeRkLy0fRDLw4Bv3xfPkQyzwvv/m6fmo/efIELV+5QjuLkydPeV3ups1blIO41IuGTMnixWnbju2avm7jBrrQmhkVL54yk+CCm9TsafPWLdSqU8qMg+mINyseh1IlSnDSE3/0xef04isv04pVK/GeJ9WtWYtOqXbhNvIInk1s2rxZY1vcWp4qWTxF9/btO7QjhLhTfbY+yQsCiYqAOBGXtNxJtS6f+ezyR6QmHTx4biM5XF14dyTSgCWpwoUK0dffzaSjR49S08ZNqED+ArRr924v1QXU/sPe/d6b6BDYs3evZ1kKDsXeaD90yHuWkF/ZXLliRXr9hQle+pExlwszZ/K+7bHZ3efuO/U7Kw/ccy81atBQz4oq1KudSg8TChQooB3M/gP79TUxHUtlCOXKlmGSqtu7Pg9DEoJAEiAgy1lxbESeJeBU1omzG8jRMGe7Wq9HYP3h6MTLh5EGXNcVLVvr00kzvp/peCoLdVSpVJmwFGU+9WOTHO+Z1FAv9yFg03r+gj90mv/8uXgRJ3VcVb0jM3vur3pJKkeOHIQPvlus372DaOasH71kzQyWrrBvgZcfL2t+iXYgmNEcVCfUTp3yPtp75uxRX9SFMGf+fFOV3ojPlTMnlSkVOX5eiiUjCLgUAXEiLmgYDPbRdCJ///13RA4Eg3/16ikbzJHC06FtW/pVnXBauHgxtVeb4U7hTrXxjpf5Hn7qSX36CnsKd943RO9/4Kgwwq039FT7DJvo8bHP6MH906++pFFPPu6l7n+9+qjN9lM0UJXFngg2v4eOGqlPYjU6v4GXrJlppGZMOP314y8/61NceCHy1gEpm+VHjh7Rorly5dTxd7NmEU6cwanB4Yx8/DHCxvzx48e1s8TJr5t6XB8R/qZtkhYE3I6AOJE4txAcCM8YMBBFGrAhvlYdVY0kNGnShCL9+hOuH0tYOdWTOZaI8LTvFLCx/er4F+iDTz+mKg3rU131nsg/27bRh2++41nOwqA9SR2jhfPAMtP/hg6mPrfcqtUxfthUf+ull2mJmsFgX6Rhi2aEvYsXn35WH9N1qhs0HNvt1OFK/Q5K2do16Mprr6Hunbvq01w828HMolWLS+mZF5+ne4c/oFVNUHrx4mT7a7tRmVrV9bsnN/e4gUYNHebt8HcwAAAyLUlEQVSrKqELAkmHQIZatWqd6dKlS0wuzFyeMCsw6WaaZWyamed0KLEpizTnsaFtpydMSL2eznbFIkb9sAMzkYNqCaeweichkjBjxgzC8VzMJvAJJUAeDqRKlSqhFIuqLGYPedQLk/j4CluVgymqjjHzEVonOcxmsqnTVfny5nViO9LgxFGuVMmSHsduC2KJK2uWLF6nxLDfs3P3Lipb+tw+iF1O8smFQL9+/fQ9wn0MDzJm2nw4tNNAgh98AsWmLCPIZThvyzjxbRmzbKRp2fGLFMEIy6PB8cGmehY1OO3cuZOKWid+gq1ivlqf37hxo9bj60aydeHGj+YXMNr6Q81jAz1QCOa0E5xMqAHvn+CLI/0Ffo/FlMmePbs4EBMQSacrBMSJuKC5MeBjMMdGMJ6Gt6ovLywVYDCzzUaZCuqN6Pr162uHxM7JlpO8ICAICALRRCC09Y5o1iy6PAjwgI9jqJgVYEayRr3whrefAwXIQBZlUBY6WF+gssIXBAQBQSBSBGQmEimCUSrPsxGoy6++zwlOAUtT2C9BHu8lYIMaAY4DX9++V71HgRlMCfXyHDbC4UCQhy4JgoAgIAikBQLiRNIC5SDrYEeCOE+ePIS19iNHjtB+9aWD69at0y/sQRXoedWGcUm1AYwlMDgcdh7iQIIEW8QEAUEgKgiIE4kKjNFTwk4ATgEbvXAQcCiYbfDXo4BnOg2U4U/0LBFNgoAgIAgERkCcSGCM0lyCHQIfP0Zsfm0HG8QOh2OmSywICAKCQFohIE4krZAOox52DhyzU+F8GCqliCAgCAgCUUVAnEhU4YytMnEescVXtAsCgkDoCMgR39AxkxKCgCAgCAgCZxEQJyK3giAgCAgCgkDYCIgTCRs6KSgICAKCgCAgTkTuAUFAEBAEBIGwERAnEjZ0UlAQEAQEAUFAnIjcA4KAICAICAJhIyBOJGzopKAgIAgIAoKAOBG5BwQBQUAQEATCRkCcSNjQSUFBQBAQBAQBcSJyDwgCgoAgIAiEjYA4kbChk4KCgCAgCAgC4kQS6B7AFzDylzAmkNliqiAgCCQxAvIFjC5uXHYYHLOpnOcvZOSY+RILAoKAIJBWCIgTSSukQ6gHToI/6uemSP8/+8NTUMO8M6eVnPoHJ8KfEKoRUUFAEBAEIkZAnEjEEEZXATsI5Rs8v15o12A6DC1/1plATmYlNlqSFwQEgVgiIHsisUQ3RN1wCPgJXMQZM2UMyiHAaUDWLBtitSIuCAgCgkDYCMhMJGzooluQnQC0Ov0UbqDaUGbZsmU0b968kJa28Fvt+fLlo9KlS1P16tUpV65cgaryy3/mxefpyefG0tYVqylL5tS3V9HKFWhQvwF0392D/OqJhHlDr9t18XdefjUSNVJWEBAEgkBAZiJBgBRrETgQ/oTjQNi+mjVrUqVKlbQupgWKMfPZs2cPLVmyhKZPn06rV68OVET4goAgIAh4EBAn4oEifgmehWBWEGlo0KCBxyGFqgsOZc6cOeJIQgVO5AWBdIxA6vWGdAxGPC6dZyCIo+FEcufOTZUrV6a1a9cGtafidM1z586lUqVKRby05aTbpk3/9BMaN2kibdqyhcqqJbWO7TvQXX36eZb0jp84QY8/+wx9NfMb2rN3L9WvU5dGPzicKleoaKvyygPPsRNepLfen6JxuLJtO3pw8FDPElu7bl2o98236Pq44KPPjNF1PP3Io/Ttjz/QmPHPMcsrvlPZlzVrVr/8Dm3a6jJTpn9Ar739Fq3fuIGqqFnioP7/ozaXXe7R16F7NxpwR28a99JE+ve/f+nxEaPo8ktaePiSEATcjoA4ERe0EAa8aIYyZcrQmjVr9IwknNNamJGsWLGCGjZsGE2zUulasGgh9R98D916Q0+65KKmtEgtqY0ZP46yqQEaAyvCrf370rw/fqfru11DFzZoSG9NfZ/adO5Iv8z4lkqVKJFKJxNmzf6FNv+zlR4a9gDt3LWLRj89hnb9+y9NePpZLbJk2VLarfJmgCODLMJ55crRtZ26eNiZ1f7OlOnTaIVa7gMPTsQfHwUnvPYqPTLmSYIDG9R/AP06fz7d2KcXvf7CBLqidRute8ny5TR05AgqU7oUVapQgYoVLeqpUxKCQCIgIE4kzq3EM5FI9kLsSyhSpIhNCjm/RQ2osXYic3//jfLlzUuPDR+pZwttW7aiLFmzUK6cKZv7c+bP0zOC8U8+Rd07d9XX0ObyllS32UX0rNrAf2b0Yz6v68TJkzRZDdaVzqugZbJly0aDRzxIQwbeReXLlvVZjhmY6ZiznS+++ZoWL11K4594impWq67F/PH3Hzigbex6dUd6/skxWr69chw7du2kh5VjYScCRqGCBemzKVOjMhPVFckfQSANERAnkoZg+6oqWktZrD93rtwhba5zOTPet2+fmQ05Hczsqm6tOrRX1dPphh7UvUsXatXiMrpHLfdw+PW3+Xr5qXzZcnoAZ3q9WrXptz8XcNYxLl2ypMeBQACzgXsevJ/+/GtxUE7EVLp85UoaMPheuuX6G+jazudmJyzjxF+6YjnBkdSvXcfL9qqVKtNnM76i/9RhhoIFCmgVjS+4QBwIgylxwiEgTiSOTcYDLZaPohl4cQz6w1nOisSWHNmy6+LHjx+nrFmyeKk6eOiQzhcokF/HzZo0oTGPjKanxj1HA4cO0QNpsyYX0dOKVq5MWdq8ZSthRnHVddd66UEmZ46cqWgmofEFjcws5VfHmGHPtu3bvOiBMhjse6olqNo1a9AjDwxPJe6Lv1nN5BDue2hkqjIgYOmMnYi/ZTnHwkIUBFyEgDgRlzTGSTVYYt09GuHgwQMRq8G7I+GEAmefrnft3k25rXdOduzcqVXCQXC4qXsPuqHbtfTHwoX09fff0TvT3qdrbrmJ5n/3oxr48+rlrgWzfvFsiHO5QPGpU6e8RI4cOULYpC9a+NxSH/JmwMY9O3bQTyodt/2vP51Qcq+NfzGVDf74jN/n702jOurotR2wvMYhU6botDvrk1gQSEsEIj9TmpbWJlldPEvAqSwMVNEK27dv16pYfzh68fJhOAFLTQjTPv4oVfEvv/1G07AxjYCTS4MeGKZPYl2oNvFHDr2P7lYvIm74+2/at3+/Os1UWce/LVhAOXLk8HyeeO5ZmjDZ/4uEC9WylRmwNIZQrUoVHWPfZe++vTqNP5gNrt2w3pNH4sHRD9Pvatns9RcnUFGHfSZ//CoVK2ldcIym7Z/O+JLuVXszeGiQIAgkAwLyCOSCVsRgDyeCwSYa4W81CEfiQODU8PZ6OKF61ap0wzXX0rMTXtBP/pc0baqdBAbx51+eRJh5YF8AoXqVqnTXsKF6o7rLVVfrTedv1KBbVR1RxoZ7V0XDBvroZ55Sg+4JwhLVB59+TBMnv0bTXn/Tr3kbN21STuARGjzwTrWEtZ0efPQRuqz5JVS7RsqsoJZannpn2lRqqzbqixQuTOMnTaKdaqZUtlSK83z3g2k0+Z23lVPrT1nUMhj2UjgUzF+AsOnvj1+hfHm6qt0V2lHi6HKnDleqvZEldP/DD9FtPW/Up7tYn8SCQCIjkKFWrVpnuqhNzVgEc2nA1G/SzTTL2DQzz+lQYlMWac7j6dNOT5gwgc1Ikxj1Y+nl8OHDlD179ogHF2yIT5kyRQ98cAbhOJOmauCvcvaJPRwQcD33P/IQff/TT2rtf7NWgVNSLZo1o4fvf5Ayq69o4fDcxAmEd0XWrF+nSfVq16ZJY8d7Nr9Xr1tLd99/n5oR/Kn5cDDd1eZ2/9t7sYpUMb72JGfOnPTvnv9otnrnBeHySy5Rp6Se1iehkF+xahXdPnCArhcn4zDglypRkjCD+fidKXRTvz40Y+a3EE0V4BCOHjvmlz9p7Dg9i3pAzWY++uxTvTRWrEhRan3ZZfTogyN0W0NxuTo1adjd91CfW25NVY8Q3ItAv379dN/id7vQz8w08tz37DSuyuT5y5s8pBG4bEou5a9JM9O+ZEx6pGlxImff0WCHEg8ngroxEzl48CAVVk/FkYQZM2YQjufihuabOlh9kG+iNrsjcSB2Xf/+95921IULFbJZXnkcfcVmeR71sqRTOKCwOXjoIJUoVtyJ7ZOGvRm804GZjVPYtmM75c2TVx0r9r9R71Q2WBr2XraresqoWY6vDh6sLpFzBwLiRM61gyxnncMiLikMKvhgUx3LJlhSKRrmC2fz1ctsGzdu1HqCHazgOKL5BYw2iHgHIpiAp3R/Ac7Fl4PxVw5LVf5CqE7Jny5fPJwKK1u6jC+20AWBhEZAnIgLmg8DPgZz7IngaOzWrVv1146EYhrKVFBvPNevX187JHZOoegQWUFAEBAEQkVATmeFilgM5HnAx9o8ZgWYkeBrS7BPEihABrIog7LQwfoClRW+ICAICAKRIiAzkUgRjFJ5no1AXf78+bVTwNIU9kuQx/sX2CxGgOPA17fvVe81YAZTQn2HFH4HBA4EeeiSIAgIAoJAWiAgTiQtUA6yDnYkiPPkyaNP8OAluf3qnYl169bR0aNHtSac4sqrNopLqq/2wBIYZiHsPMSBBAm2iAkCgkBUEBAnEhUYo6eEnQCcAk4VwUHAoWC2gVkJAnim00AZ/kTPEtEkCAgCgkBgBMSJBMYozSXYIfA7LIixVGUHdjgc23zJCwKCgCAQawTEicQa4Qj0s3PgmJ0K5yNQLUUFAUFAEIgKAuJEogJj2igR55E2OEstgoAgEDwC4kSCxyppJXmGk7QXKBeW1AjIw1V8m1ecSHzxj0vtttOw83ExSioVBKKEgDiVKAEZpBpxIkEClQxiprPgtB3jOpmWDNcs15B8CJhOAmncr0zjPK6aacmHgLuuSJyIu9ojZtawY0DMH1TGaZNvG8E8my55QSAtEHByBkxDzB/YwmnEuG8RS4gtAuJEYotv3LWzA0Ds9Fm9di39/Osc/XsZSONbbfFtwqeVvARBwG0IZFROIbf6Mk58cWaVSpXo/Dp1qflF6qcLVNp0IJxm+8WZMBLRj8WJRB9T12i0HQh/3T3iqeqXB6d+9CH9sWiha+wVQwSBQAjg4Wb/gQP6s2rtGvr86xm6SMN69ela9Tsz13bq7HkRFy/kIsCBoC+II9FwRP2POJGoQ+oOhfasA44Dn6/UT9SOVT8EhQ4oQRBIFgTwMITPq2+9SXf37UdXtG6jHYf5zQ64VnEk0W9x+Rbf6GMad41ODgS/6T101Ajqc8/d4kDi3kJiQKwQwMMR7nHc67jnefZt9olY1Z1e9YoTSbKWR2dB4E6Dn6rduu0f6nLTDfTeh9OT7GrlcgQBZwRwr+Oex72PPsD9AdLcR5xLCjVUBMSJhIqYi+W5c/DTFzrPP9u30Y19etGCRYtcbLmYJghEHwHc87j30QfYkaBvIHBfiX6t6U+jOJEka3N+4kJnQcfpd88gtXy1NsmuUi5HEAgOAdz76APoC/xwJQ4kOOyClRInEixSLpdj54EYnQXrwfc9NJIWLJYZiMubTsyLMQLoA+gLTnskMa46XagXJ5IEzcxPVuxA8NSFU1jvqyO8EgQBQYB0X0CfMGckwIX7jmAUPgLiRMLHzlUl0Rn4g47y3EsTXWWfGCMIxBsB9An0De4n4kCi0yLiRKKDY9y0cEfgjoFOMk29SLh6neyDxK1RpGJXIoA+gb5hOhIYyn3IlUYngFHiRBKgkQKZyA4EMdZ9p37yUaAiwhcE0iUC6BvoI2afSZdARPGi5Y31KIIZb1XYUF+zbh0t/OuveJviVX+Rkvno3x376fQp7+/jypAxA2VSHzOcPJlyBNOkOckxH6/FnDrlXYblTV1M43J2fOq0Wg5Un8yZfT9XmfrM8ijD5U06vvsvU6aMatBKsQ9pX98HiGuAjfhnXw/04+s+bPx0vaocMPAXsmbPTAWL5KEdW/fqa/QlG+g6nLCGLsYWdkMmY6YMhO+4cgpO1+EkFysa+gb6SI1q1fTXo8SqnvSkV5xIErQ2P1Vhmv7TnNmuuKICRXLTLUNaUr2LzqP8hXLToYNHacFPa2n6y3No46qd2sY219SnAY908LL32JETtGPLXvr0jXn0zbSU7/Vq3bUe/e/RK73kOPPPxv+oV6sXOKvjOx+/ilp2rkv3dptMKxdt0bT2PRpSn5HtvOTMzLSJs2nmh4vole8GmGSv9I1Nx9J/Ow940ZB5Z969tGntLhra4w2vQfrCy6vSkLFdqHPtx3SZyT/dSYWK5UlVHoSnB31E+Qrloq69mlLPi571yOTJn4OmzL+Xtv79H/Vp/aKHXrpCYXrpm37Ut+0E2rxut4duJq6++UJq3qEWVaxZQjuvk8dP0ZxvVtCkh2fQoQPHTFEqVio/vfrjQFo4ex2NuPVdL16l2iVp7Ie306H9R+n6xs/QyROnvPgDVdu0Um2Ea5j1+VIa9FRHanFVbS8Zznwz9U96/sEvOBuXGH2kauXKysFn0jMS+SqUyJpBnEhk+MW1NDsPGMHvhSxcEv9ZSIXqxWnkK9fR4rkbaHTfabR++TYqXrYgdbqtCY1+oyfd0+017Shg98F9R6l363NOAANpnQvLU/+HO9C+/w7TvO9WQYwOHzxG93R9TafNP/aAliNXVmrSsip9pxzCFcpxsBOZ9fkSbQ/KFiyahx59qyc9MXA6/b06xaHt33OYcubJrlWP7jeNtq5PPTDv+/eQWbVXukrdUtTp1sb00atzveh25oOXZtMPn6Ruo393HCDM2O54oA2VLF+Q4BwRGjSrSCsWbqHzqhWjUucVoq0b/tX0Oo3L0+7t+x0dSNZsmWnQmI7aMUyd+AstX7BZO4DyVYtS5zsuoien3Ex3d3mVTiinwqGlcgI/fbGULrysCpUoW4C2bdrDLK+4QfNKNP/7lDYBI0vWTHTh5VXo+LGTXnKLfl2vnNXXXjRkDipHFO+APoIHLvQZfLcW+hGCOJPwWkacSHi4uaoUOxN0irXr18fdtg49L6D1K7bT2CGfeJZatqhB+YUHP6cVnetRJmPJSC0iaWfBRsNxbFqzi66+pTGVrVzE40SwlOPriZvLIm52RU1a+vvf9OYzP9DLMwdQnkdz0IF9R7SzgsNCOKpmOwiY8Zg62Yls37zHi66FA/z59PV51GNgC/r9xzV+y+7ZddAnHw5t7+5DVLNhWY8TadiiMn3/8WI6/+IK1EgN8B+/luKkaitHu3C2c1uDB1nMaDB74LBuOdrkU7rqpkaUM3c2D+5YjsLMbXTfqXRw7xFqe10Dev3J77iYJ56rHHqz9jW9nMgFLarQ2qXbqLKarZjhyMHjPq/TlItHGn0EfYX7jTiPyFrB9wJwZHqldBwQQMfYsSvlyToO1XuqrKqeypf/scnjQJiBBz7MEPgpm+kcYxkdyz3X9L1YPw3/8uUyZmnHgxmO/clfOJdHBonW3errJ2oM1suUDZd3qevFDyZTpkKhVPXg6dxfWLv0H/rq3T/0Ug72PnyFQiXyptKNWQYHPMHXvKCczmJwx5P/4l83qFnURv3Ez3K1LyxHf6qlJ6cA/Der5TXTgbAcZm6YLcFZc6h3UQU6pmYScDKYJbXqUk/PMJjP8eyvllFjNevAHguHS66qRT8b7cT0XHmzp7pOtF32HFlYJG4x+gj6ioToIHDuboiOPtESJwTQKTBFP3jI95JLWpiGTdUyFYvQrn/2BVVdnnw56Is1I7xk1yz5Rz8Vm0sqWKYa/1kvLzlk3nr2B8J+BgL2CTAg//b9ap3/+cul1L1fc8Is4eyKhaYH+jN0XNdUIgvnrKfhN7+Tim4S3h0/iyZ81Ze69m5KUyf8YrI86S63X0T4mAEb7x2rj9akRcphdO/fTKer1ilFhw8dI8yMsDTYZ0Q7yp0vu16Oy1cgJy1SNjmFijWLp3LUza6oQcVKpzhCOOsVf27RMzaUx54TO+zVf23VS4dN29agWZ8t8VK/atFWOqBmKph9zPl6uZ7N1G9agcbf/znddl8rL1kstzm11+BrX1d1b/aSTesM+ggvZ6V13clYnziRJGpVXtuN5yVh2Qmbz4WK5Q3KDOx1PNJnqj7RU7lWSeo+oDl9PHmuZxmLlWAjuE+bcxvLTD+iynNo1a2eXqK6WC1pIWDJBvsLdZtUIDzhBxseuOltvaRmyp847r3mb/I4jUMBL6hNY+wHzf8hxZExj+N3xv5I33zg+4fAYOddT1ylHUXDFimzEJTFXsh/uw5Q1bql9SwNS0gY0J3C7u0H1GZ6cS8WMKhWv7SmlSxXkD5SGGPZD068catqepmspZqBIOzcuk/vJ9lOBEuPs2csp+bta2gnclHrarT0t78dZzx/qEMU44Z9pvWZfw6ovSc3BDf0FTfgEA0bxIlEA0UX6ciVM5eajRyMq0XrV26nUmpJyCng9NHubfv0KR7wcSx0yfyNWhTLNseOnqB7nu6kZjL7vZ5YcfwWS1S+ApaQLu9YV23cHqEr1Z4MB+wxXHF9g5CcCJZ6/NXFup1izFh+/mKZWta6Ws1GZqcSgdP0p3v3tv3aYVQ/v4xeyvpk8jyPjr/mbqRKtUpQ+SpFfS5lQRizCexxYDkMuCG8MPwLHePPM9Nv86RbXF1bb4o3aF6RGlDFFLqaqlSsUZywEc8n6bjAL18tpyfevYmy58xKl6gTWN9/tJhZXvEJtTzm7zq9hNM4gz4iIXoI+F68jV4doikNEShapHAa1uZc1V/zNlLTNtX16SBTArOCGwddRsXL+N5f+OLt32j14q107zOdvNbeTT1O6QsurUzZ1ZLXnR1f8fq8MOJLtZdQVT/ZO5WLBe2Vx77RM7Fr+jQNSz2WtGpeUJYqqIF88bwNHh2L5q6nSuq4Lk6C+dpUh/Cy3zfpPaRr+lzsKWsmzD0bHM3Fcp8Xble/TBtW7qB21zU0i+k0HNSefw/SJR1qUrV6pVPNGFMVcCHBDX3EhbCEbZI4kbChc1dBnDDBp0K58nE37LM359PaZdto2AvdqK56TwRPrTgthPcHsNQ14/0FPm3E3sULw7+kwmoD+tq+KXsDEMaJrvJqv8Ppg0ERgyH2QrCkZIY/Zq3Ra/x4JyXYUFodpXWqJ1eebEGpwDLTK49+o9/PsAsUKp7XUbf5/giWtC5VM4Qt6v0PzKQ4YCaCk1d51X7IyoW+9xWwh/LkXR+q02KX0M2DL1dLYKXUuzq51Ds7FejBidfqWcYOJYPZBja7f1ZHe+2ADfbLOtbRbWfzsKTVUz0MYGP/6OHjNlvncyqsnDAEtvEO6CPcX+JtSzLUL8tZydCKZ68BHaN29Rr03U+z4npV2BcZc/dHdOvQVnSXevGvcIl8+mU3bA4Pv+Udr5NBTobiqOsn6um4i3qn4cez71RgY/2Fz3s7iVP/KyYSjsI+PuCDVHycRsLyUptrzye8M2G/9Z2qgCLcN76rE1m/V4IBNJiA/QQ4gtqNynuJ45rwscOX6mTXxFFfaTJmcrnVOyt87SyL90L2/XdIL3fxW/DMs+O5366kJwd+qJfyOtxwgXYGONqMTW28I4I9Fbx8iaPYW86+e2Lq+EnZf8vglnSpWrJaq97zMcNstaSFwwG8GW/yOF23yXmO7YWXMvu1m8hicYnRR9BXJEQHgQy1atU606VLl+hos7T42rwy6Waai9s0M8/pUGJTFmnO81lx1MvpCRMmsBmuj/laEOP7gA4fPkyLlyyha2672VW24ykbG+O+nlpdZWwSGoMTczjoACfEeyRJeJlBX9K0196gurVrU86cOdXX3GT2zEpCcSz9+vXT5fCyIgLKmmnkWZ+dZvlgYlMGaQTWm5JL+WvSzLQvGZMeaVqWsyJFMI7l7ZsTX+NQ8bzzqFa16nG0KnXVeBtbHEhqXNKKgtkXjlyLAyHdN9BH0Fd4sDX7UVq1STLVI04kCVqTOwE6RtasWalDmzZJcFVyCYJA9BFA30AfYSfCjiT6NaUfjeJEkqSt0RnQMTA973hFBypfpmySXJlchiAQHQTQJ9A30EfYiURHc/rWIk4kCdqfZyJYk8VTVrZs2ejm63okwZXJJQgC0UMAfQJ9A30EfYX7TfRqSJ+axIkkeLvzdBwxOgaestBRWl96GbVRHwmCgCBAui+gT6BvoI+wEwE23IcEp/AQECcSHm6uK8VPVZimo6Pg5Ml9d95NVSqcfQvZdRaLQYJA2iCAPoC+gD6BvsFLWeI8ooO/OJHo4BhXLdwZEKODZMmShXLkyEF58uShh+4bRqVLlIirfVK5IBAvBHDvow+gL6BPoG+wE4FN3HfiZV8y1CtOJBla8WxnQIdgR5I9e3bKlSsXnafezn30/uFUsXz5JLlSuQxBIDgEcM/j3kcfQF9An2AHwn0lOE0i5Q8BcSL+0ElAHjoH742g0+AJrHKlSvTsw49SswsbJ+AVicmCQOgI4F7HPY97H30AfcHeCwldq5RwQkC+9sQJlQSlwYHg7XU4EQScQuG380HDunDtb7+hT2Z8Sf/s2JGgVylmCwK+EShZrBh1bNee2rduQ4UKFfIsY/GJLO4b6CsSooOAOJHo4OgaLexIeEaCjUR0HHzwJNb16o7UrHET+uq7mTT7t/m0YdPfrrFdDBEEwkXgvLLl6OJGF9IVLVtRMeVI8ubNq5eweB8E9z87Do7DrUvKeSMgTsQbj6TImZ0EnQebiaDxpjum9j26dqO2l11Oq9asoWWrVmpnsm2n+o3v/fvo6LFjnhlMUgAiF5E0COA+zq4ejPLnzUclihYlOI+aVatR1cqVqWDBgpQvXz6P87CP86Ks2TeSBpQ4X4g4kbMNgJuLl37i3CZRqZ47C3ccxOxQ+AhwgQIFqIQ6vdKgfn06pH4y9OjRo3T8+HH906HJhEVUABUlrkAA9zEehrA8hYchbJhjzwPHd5HHh50H5GI5A+E+5gpg4miEOJE4gh/rqnGTwxmwA+EYnYsdSe7cuSl//vx04sQJ/U3A/FvtsbZN9AsC4SLAzgHLs5hlw6Hgw8d3mY/7HR8EjsOtU8r5RiDdOxHcXMn81G12HqTxwdMZOho6HZzJqVOn9Ffhw4HgY4dkxse+Vsm7DwHzHmbrcA/zB/cyPnxv830OWaeyrCNacVrUES1bY6En3TuRWIDqRp240XlWYnYydEQ4E/DYWXDsxusQmwQBHrTt+xjIMM9OC2qxQ0CcSOywdZ1m7mDsTGAgnuDEabiuqcSgEBDg+5qL2HmmSxwbBMSJxAZXV2uVTubq5hHjQkRA7ucQAYuyuDiRKAOaiOqkEyZiq4nNgoA7EJCvPXFHO4gVgoAgIAgkJALiRBKy2cRoQUAQEATcgYA4EXe0g1ghCAgCgkBCIiBOJCGbTYwWBAQBQcAdCIgTcUc7iBWCgCAgCCQkAnF3InIyKCHvGzFaEBAEXIJAvMfQuDsRl7SDmCEICAKCgCAQBgLiRMIATYoIAoKAICAIpCAgTkTuBEFAEBAEBIGwEUgXTiTea4Zht44UFAQEgYRGID2MPenCiST0XSjGCwKCgCDgYgTSpRNJD08HLr7nxDRBIGkRSI9jS7p0Ikl7B8uFCQKCgCCQxgikayeSHp8a0vj+kuoEgXSBQHoeS9K1E7Hv7vR8I9hYSF4QEAR8IyBjxTlsxImcw0JSgoAgIAgIAiEiIE4kRMBEXBAQBAQBQeAcAuJEzmEhKUFAEBAEBIEQERAnEiJgIi4ICAKCgCBwDgFxIuewkJQgIAgIAoJAiAikOycipypCvENEXBAQBEJCIL2NMUnrRLghOQ7pLhBhQUAQEASihACPQRxHSa1r1CSdE0nWhnLNHSOGCAKCQEQIJNsY5QonYoNq54NpsXDKBKNXZAQBQUAQiAUC4YxZdhk7Hws7A+l0hRMJZKTwBQFBQBAQBNyJQFycSDS9Zyi6bFnOc+zOJhKrBAFBwK0I8NjBMdtp55nuFIci61TepEVTl6nXXzouTsSfQbHgxQPYWFyH6BQEBIHEQiA9jD1J7UTSQwMmVpcSawWB9IlAMo9FSelEQmmwUGTT5+0vVy0ICAL+EAhlDAlF1l+dbuIlrBNxagwnmg02y3DMfDvPdIkFAUFAEHBCwB4zOM+xUxmmOck40VjezbFrnIgNoJk3024GU2wTBAQBQSCaCJhjn5lGHXY+mvWGoss1TiRYo52Ac6LZ+oKRsctIXhAQBASBcBEIZsxxknGihWtDWpRLOCcSLCihNATLchxsHSInCAgC6RMBHis4DgaFUGSD0ecWmbg5kWgA6qTDiWaDHYyMXUbygoAgIAgEQiCYscVJxokWqC6bHw0dts5g8nFzIsEYF20ZfyD740XbDtEnCAgCiY+AvzHDHy/xr9z7ClztRMyG8JXmyzH5TPMXszzHkDXT/soKTxAQBNI3AuZYwWmOg0XGSd6k+UoHqz+t5FzlREzQogWAP53+eNGqX/QIAoJA8iPgbyzxxwsXmVjoDNcWVzmRcC4i2mCeOHEiHDOkjCAgCKQTBKI9RkR7DEvrZkh4JxIsYGZDmWm7/MoVK22S5AUBQUAQ8CDgb4wwxxYz7SmchIm4OpFQQTblzXQk7cJ6EOMz4+sZFO0njUjsk7KCgCDgHgQwNmCM4PEClvEYEqmVph4zHYzeUOWD0RmsTKaiRYuOqlGjRrDyaS4XDXB86XCi79u3j5YtW0Z58+SlgoUKUqZMmdL8mqVCQUAQcBcCcB7Lli6jt99+m7Zs2eJxIhhD+AOLeUxhGudtnr+8ybPTyCOYep3yWsj6Y5ex2GFnM4ddMkYFcaFnzpyJSDvr4NhUxjSOTR6nN2/eTJNenqTtgC34nD592ivPdDNGec5zmnWCbgY7b/I4HYwMy0osCCQ7AuizgYItY+Y5jdhOM82OM2bM6HESJs/JDlOnzffHs2UD5VlXILm04sfUieBioz0QOulkGsdO4PnjsTxkEGCzmQaN80gHG/zVyfr84cMyTvX5K+ckLzRBIBEQ8HfP+7PfVzmmcwwdSHOe075irpP5dnnmO8Vchz+ek4wTzUlHKLRY6OT6Y+pEuJJIYwAQ7qDpVNamMcBch8lnHl8DZGwaeHYZWxeXYTrrYzryNo9lnGKznBNfaIJAsiPgrw+YPKc0aEznNMfAjdMcM5bIc7B5oJt8U47TocZO+kLVEWv5mDsRgOBvcHTiO9GcgAhWjsva8sgjsH3MZzqXA59pmN6yPPOdYtYFnp1meVsP1wG+zeMyEgsC6RkBs4/YODjxTJqd5jxiXx/UYfOYxvUzn/M236T7SkNHMMFJzolm6grEN2XDScfciYRjVDTKADgeiDnNMfQHk2Y7bFmmc+zER902ne0xyyFt00FD2WgEJ93R0Cs6BIFQEIjW/exUpy/dJp3THEMP0pznNMdcD/M5z+U4b/Kd0k40LpssccI4ETRGNAZEX3pMutnwZkODjg12X3xTltO+9JrXEkifKct6g40D6Q5Wj8gJAvFCIJR72EnWpNlpziPmD64TKw4ITDNjzTjL47QZQzYaIVp6omGLPx2ucCIAyx4onWh8IU48pnEMWTPNZW06y9gxy5nlYKO9nOVUzulaoMeko5wZTJ5JR9qWtfmB8v50ByorfEEgUgQivX/91e9PtxMPNKY7xTaf8ywLWzhtxybPtpllTRmTxvJONH88f/JcLtaxK5xIrC8S+gG2PZgyzSlGGcgH00iQsWcorBN6OJi6nGxhOTO25UxesGmz3mDLiJwg4CYEgr2H/ckxj2NcH884kAadP/7yzHOKQeNg1sO0ZIwT3omgoeyB1qSZaTQg5zk2GxU0BNN5sG4nHuuADN+MLA89XIZ1Ig41mDpCLcvypk1Mk1gQSCsEonEPB2urXZedhx7QTLqZZ7pJs8vYPLbNLMs0Lst5luG8zTfpiZJOeCfiC2g0VjCDJ8txzI2KstzgiO2Zhlkvl+UynDdl7HQwMigTzDXYuu086pIgCCQyAsHcw04yNs3MI815XzE/HNp8YOlE84cxy/uTSUSea5wIAA40YAaS8cVnuh3bDQY+AjsD0x7cTLYjMeVQlvVDh5l2yjMNMYJZVwol5S/bZNIiSfuqJxKdUlYQsBGI9n1r6+e8v3psnpl3SoNm0tmB2HXZcsxHzOXt2JQx5Ww657k8553iYGScykWbllk9cLs2ACRfg54vnkk30/ZFgodgOgLkzTKmDPMQczBl/dFMHtJO18R1+eKzjkhjs55IdUl5QSAeCAS6h33xmc4x24480zhmHmKTz3nms7wtw3yOWc4uz3x/9EA8U0c80q6ZiURy8Wggp4HZ1MkyHIPHDWs7Ep51sAzkzFmIWRfr4LpYF5dFbMqznBnbfFunKStpQUAQ8EbA7i+B8ihtyphpm2fPRsw8l0PMabO8SQPdKQQj41TOTbSkcCIAFI3Bg7GvtC/gWZ5j1oeYdeLmQRofyJmypl6bzvKmjJ1GGafAdTvxhCYIpDcEfPUTGwcnOZNmplGW8xwzzc6b9TCPY5Nnp00ZX2m7TCLlk8aJ2KCjsXwNwiaP04Fi1g85BHYOHDMNMctw2raD+TYd8mZgOZMWqIwpK2lBIFERcLr3A12LrzLB0FmGY7MupgWKUYZlzPKc9sdjmUSM08SJALxoDX6mLjMN8O08NwjTObZlmc6xr3Imn9OIOXAaS19mYDpoJg4mneVNPtPM2KmMyZe0IJAeEAjUD/zxzSUpEyuzDKftmOWd6EyDDKc55nIc23Qzb6ZZPtw4mrp82ZAmTsRX5TYdF2wPok40s5zNN/Nm2izDaV98JzpovoJtMy992fKQ86WHdfji27okLwgIAucGaycsnPqSP5rJM9Om7lDpXNYsZ6bBt/NchmMnvhON5dM6dpUTSYuLB/g8YKM+zpsx22EO+lyGG8/ksTzHNs8uCzmmcRnWy3k7tuVtvuQFgWREIFC/sK/ZSd6m+csH4pl8TnPMtth5pidrnGZOBMBGayC0dfnLM49jNKSZdsozDTEC7EYZTiM282ba5pl5pDlwGeSDwcWUZx1OcTC6nMoJTRBISwSCvZ+DsSlYXbacmTfTqNPMc5pj0yabZuY5zbGtN5i8WVeoabPeUMuGIp85rSoK1ijYYw+ETjRbny1j5yFv0pBGMOsy+eCxDNIIkGUalzPLOPFSSp77y+XOUVLXY/Kc5E2+nWYbbLrkBYFERiDU+9qfvM0z805pk8YY2rRAeZQLRob1c2yXcdLDsvGK02wmkhYXCMCdBl2Tbqa5QVCG6Ryb9jINMQLLO6VBM+WQNwPzTJqTzcx3kmeexIKAIHCuvwXCwu5LZj6YNOtnWTu2+cizDPM49kVnfiLFCetE0AhOg69JN9NmowSig49g6jfL2GlTt5l20mPyWT/Lmbxw06wz3PJSThBICwSiec+zvb50hkI3Zc006jDzZprrt2V80UMta+pxYzpNnQjAC2aQc5ILlsYNaddjlzfz/tLQx7psOZPH9SJG4DJIoxwHX3TmIzZlTHowabOuYORFRhBINASCucd9yQRLN+XMNLAy877SthxjbMozLRRZX+VNXb702TLRyqepE4mW0aYegOpv0DX5Zho6zLyvtJMcaFwnypl5nVF/mM55W57piJnHNLss0yUWBASB1Aj46y/+eNBk80PJm7Jm2tZr8+wrCMS35d2WT3gnwg3mNBDbNCdZNCDL+UpzOcSmrFPepCHNwelGsXWxrB2znE2XvCCQHhBw6jtO1x2JnF3WzqM+k+YrbcuZdpplmO5EY16ixGnuRABaMIOik5wTjYEOhWfLmnk7Df2mveCbNDsPHtO04Nk/pg6mO8mBZ8v6kmM9EgsC6QmBUPpDIFmbb+eBq00z82Y6kKzdRnZZk+/Ec6KZZTgdrBzLRxqnuROJ1GAAZA+yrNPmmXkzDXnkEViXyTfTkLFlnWhOMpDjwHzOc8z1cx6xL1lTRtKCgCBwDoFQ+4wtb+ehORDN5JtptsqkmWlfup3KMc3NcVycCAB1GjxtoHzJ+aKjvM0z82aa6zJpSCPANjNtynKa7bflOM96WN5XbMr7kmE618l5iQWBZEYglL4RDA5O+myanWe9Jt1Mg2/nbZrNt/Nch10uGLop46+8LRfNfFycSDQuAA3ha1C1eWbeTLMdoCGwPlPGTLM8Yi6DNMrZeVsGeQ5cD+eDjc06gi0jcoJAekMgUD+x+Xbexsvk+0qbZfzJmDyzDNL+eLasm/KudyIA1tegGwkPjWDrNfXZaW40uwzokEVgHudNmhY4+8fkm3ROsx7OSywICALnEAjUf85Jnks5lXGicQknnkkz0/7KMA+xUxnmh8vj8vGMXe9EAoED8H0NuibPTLPOQDTwEUz9TLPpyDvxTBpkEEx9KRTvv05lvCUkJwgIAr4Q8Nd/wuHZZew87AhEc+Kz/f54LOPmOG5OBMAFGkwZuECy/vgmz0ybupE2bYGcSXMqBz7LaWH1x0lHMDyW4djUwzSJBQFBIAUBu9/5w8WfrD8e6zRlzLQTn2mITVkzbcrYcjYvGL5Zxl89ply003FzItG+EAAYzODrS44bwNRhyjrx7WtgGabbuphux6YceLYeW17ygoAgcA6BYPtLsHLQbMsGyp+zJnVZk2embZ0mL5HSCeNEALg92NpA+5Kx6Xbe1AMeAtflK2/K6AIOf7isyWK9Js1JzuRLWhAQBEJDIJw+5VTGptl52yqbb+dZ3hed+YiDkTHl45WOqxMBSE6Dqi8wgpFn4G29dllfclx3MPKsg8vYdTLdjO0yJg/pYHTYZSQvCKQ3BAL1o2Dw8KfDiedE43qceMHSWIcZO5U1+XY6VHm7fCT5uDoRGI6LD2XgDFbeSY6BNutzkmNAfckz39TD18I8jm0ZpvuKuU5ffKELAoJA6AgE0698yfiisxU23877kmO6Hfsqb8txPlR5LhetOO5OBBcCEEIZbIOV9yVn05FH8GWDL74vulZ29g/LmDQz7atOU0bSgoAg4B+BQP3MX2lfZX3RWZcT34kGeV901sVxsHLhynO5aMaucCK4IIAXyoAarDw3iq3bqbwvWQac+cib+ky6zeOyvmK7rC+5UOimbaGUE1lBIC0QiMU9H4rd/ur3x+M6fMk40Z1orMeOQ5FF2VDl7fqilXeNEwnnghjEYAZNyNpyvsr7ops2sgxovvSa8k5yNj9aedO2aOkUPYJAoiEQbD+IVM5XeV90G8dg5exybslnqFWr9pmjR4+6xR6xQxAQBAQBQSCBEPg/jmsRbIAhyrwAAAAASUVORK5CYII=;fontSize=14;" vertex="1" parent="1">
          <mxGeometry x="253.22" y="-47.5" width="70" height="115.73" as="geometry" />
        </mxCell>
        <mxCell id="kWP5bIo4fPao6hV6OUjQ-2" value="" style="shape=image;verticalLabelPosition=bottom;labelBackgroundColor=default;verticalAlign=top;aspect=fixed;imageAspect=0;image=data:image/png,iVBORw0KGgoAAAANSUhEUgAAAZIAAAKZCAYAAACSra2kAAABWGlDQ1BJQ0MgUHJvZmlsZQAAKJF10D1LQnEUx/GvD2WpQ/SwNUhTgYVZEo7mIEGEadHDdr2aBj5crkZEvYSIWnoFEQ0NQYMNCc3RFhRFL6DmwMXkdq5WatEfDufDj8OfwwFrj6JpWTuQy5f0WGTWs7q27nG80osVF924FbWohaLReRnhu3e+6gMWs9+Pm39lwrXgdT7wNvK0cFSxXTr/znc8ZzJVVKV/SPlUTS+BxSuObpc003viQV2WEh+aTjd9YjrR9FVjZikWFt+J+9SMkhS/iL2Jtjzd5lx2S/3awdzencovx81/pIaJEsHPDItMEiAmDv0zP92YD1NAYwedTdJkKOEhJIlGlpR4jjwqE3jFfnxS0+adf9+vle3uQ/AMrP2tLC67XxzAwHkrG3XA0C1UCpqiKz9XtVTtxY0pf9OuMnQdG8b7CjjGoP5oGLWyYdRPwfYMN9VPcyBiLSwS50AAAAA4ZVhJZk1NACoAAAAIAAGHaQAEAAAAAQAAABoAAAAAAAKgAgAEAAAAAQAAAZKgAwAEAAAAAQAAApkAAAAAZ0HN7gAAQABJREFUeAHsnQd8FEUbxl9I6L333ovU0HvvvaOAotJBUZp+ShOlC4KA2BAQEFS6gHREUZDee++9E2q+fQbncne5Sy6Xu+TKM7/fZWdnZ2Zn/rOZZ2fe2d1YQUFBIcHBj8X1LsT1WTJHEiABEiABFxCI5YI8QrMI1N4rwfe1l1sSIAESIAEScJhAbIdjMiIJkAAJkAAJ2CBAIbEBhUEkQAIkQAKOE6CQOM6KMUmABEiABGwQoJDYgMIgEiABEiABxwlQSBxnxZgkQAIkQAI2CFBIbEBhEAmQAAmQgOMEKCSOs2JMEiABEiABGwQoJDagMIgESIAESMBxAhQSx1kxJgmQAAmQgA0CFBIbUBhEAiRAAiTgOAEKieOsGJMESIAESMAGAQqJDSgMIgESIAEScJwAhcRxVoxJAiRAAiRggwCFxAYUBpEACZAACThOgELiOCvGJAESIAESsEGAQmIDCoNIgARIgAQcJ0AhcZwVY5IACZAACdggQCGxAYVBJEACJEACjhMwfWrX8SSMSQIkQAIk4A4Cr5TJLu37VJZXSmcPN/uGeYaHezy6D/4nJCFuOW/OAuklXZbkcunsLTl9+IpbzuGKTHMXziBpMiaTg9vPyp2bD21mmTpDUilZKZekyZRcXjx/IVfP35btm47L7RsPbMZ3JNAdeerz5i2SSVKlTyL/bjgmz54+18HckgAJeDABR0TEE4vv1hHJgC9aSOYcqeT8yevSrc5UT6y/KlPjTmWketMi8r+Os2XP36csypk4WXzpObyhVKhTQGIHxLI4hg565bwd8vWIVRISCS12R54WBTN2WrxdTirULSivlhlnVxyt03CfBEggZgnokYinjTgiouI2ISlQIosSkWP7LkqeVzIKhmz7tp6OqDwedTxFmsQydv4bkj5LCjm8+7wsmfGPnDx0RRImiWeMTnJLxXoFpVHH0hIrViz5avhKh8rujjxtnfj4gcsSN34cjkZswWEYCZCASwm4TUhqtyouIS9C5MuPlsvExV2kfvsgrxOS3p82VCKydOZW+XbkamNKK3TYcWzvRVn8/d8y+qc3pGGHUnL31kOZO3lThI3jjjxtnfTnr/60FcwwEiABHyTQvk8VVau5kyLug9xRfbcISfyEcaVS/YJyfP8lOXHwshzacVbK1c4vuBu/de2+qR5JkiWQ0jXyKpvDxmX7lfDog5mMKbH8xTPLtYt3ZO8/p3WwJE+VSMrUzCdZcqaWO0bnjXPs+vOE6Tg8mDoqUyOfHN51Xp2vhGHbyFMko9y+/kB2/XXSIXsNbAylq+WVS2duyvej11qIiD5Z8KOnMuztefLF4rcNA1kV2bBkr7IH6ePW26jmWa3JK3LvTrBs33jMImvYd4qUzS5H91yQcyeuq2OFS2eTdJmTy+bfDsiTx8+kWPmcymZikdBsB+2yc7MlR7PD9JIACXgoAWWg7/1SSFDEmBATtwgJpnwgJn+uPKjQb1i6TwoGZRWMUuZP3Wxqjnt3HqnpoVJV80gyQyAWf/+POhYvQRwZPL2tYahPIQPazDDFr9r4Fek+tL4kMqaWYBTHNjBOgBKSzwcsMYlU6gzJpO/oJvLTlD+kvGHbyJo7jTx79kICA2PLc8NQPm3oCln1005TvrY8VRoVVsELv/s73Omhm1fvyTbDoF2ndXGp1KCQLJhmfyQQ1Tz7fNZYTh2+HEZIsFgA9f16xO8mIWlkjJJgI4HoQEiavVlWSlbObauqKgy2IQqJXTw8QAIeSwAmA8yGtDfEBD+46BYTtzxHUrtlMXUHv964Q4f747+74jqtS0is2JYG6y8GLVUrnzr2rS4ZsqVU8bv8r45gRDJr/Do5uveCCoMYvDOysZpCerfZN8qI3LLoKAWweMVcgikja9emR2U5e+ya9Gv9vbQo/JmM6D5fjXpe71dTIFbhuZwF0qnD+g4/vLgnDlxSh3PkTx9eNHFHnuGe0OzgZ71+llbFRln8OlWcIJfP3RKMrDDqoiMBEvBOAhAOPbWuBOW/qa7oqo3LRyRYpYXRB+6E9TTWg7vB8s+aI1K5YSEpVSWPcQd/1FQ/LJ+d9OEyNQLp9UkDWTZrm9RpU0J2/HFcFhmjAe069asuceIGyMSBS9R0FsKxagoAcxfKIKWr5xVM5+zfdkYnUdNi495fZBpR/LP2iOCHERNEK7wlySnTJlH5XDaWLkfkThrTd3Cp0iYON6o78gz3hGYHHxtiYe7ixg+UD6e0lnTGcuZPey4QLYbmcegnARLwDALLjw2OVEGie2Ti8hFJTWM0Ard24R6Liq9duFvt129f0iIcO9vWH5WVP+2QouVyyICJLZQATTCmqsyX1OJu//qlu3LAeNbD2sE2AYfVYebu+IGLJhHR4Vcu3FbehInj6SCb26dPXj57ET+CkQsSo1OGu3v7kdra++OOPO2dK7xwjAr7j28u+Ypmku9Gr1HiGl58HiMBEiCB8Ai4dEQSEBBbqjcrqs73tjE99eagWqZz6yktzNPjLlh36DrCdyPXSDXDBgLbygxjxZH5g37oqGFQhtHelrt64Y4Kzvjf1JiOc+ta2IcFnxr2ArjYxpLd8Nz1y3cle760auRy/tSN8KJKZsPwD3fm6NVw47kjz3BPaOfgWx/UVosf8AyMtkvZicpgEiABDyDgyHMlWPBjGokYNpPotJO4dEQCkUhprMyCXeLQznNyxFhFpH9YQYVnSiAodduWCNM0MFZDRDAKaf5mOWVI15EwhfX82XOJZxy35RIkejm6gFHZ3GH5sbNOP5iI6bKIXP5imVUU1Ds854o8Y0lYAUyQyDYXW2VpbDz30uT1MmqBwlfDHHv2xVY+DCMBEvAcAjEpIqDgUiGp3erltNY0o4Ma1eeXML8xfRcq8rWM1VtYbaVdtrxp5fX+NZUAffnRMjX6wOos7fD8BozCGbKmUHYSHa63WXO/HBFc/W/aSodHZbvJWI78JPiZeuAQoyFzh7Lhafi48QKlYMksgmW5mHb712pZrnka+KOaJ4QyjnFOa5ch68tFCtbh1vtla+UXjBQheCN7/6JWsFnH4T4JkIB3ETBf/guDe3SORDQplwkJnu8IMp67wHMf+7ed1vlbbPFMBozhiFu+Tn51DAb0/uObCabFJhiG9N8X7FIdMpb6wjiv3d+GsR52jYYdSusgtcXqqyZvlFWrsbauCzXiW0RyYgfLej/r/bPxWpTYaiGAnr5CVihr54E15dv1vaX/583VKGuy8eDlw/uPwz1TVPPEQ4+YvsM7urTDaKS88YwOXHizdXiGBZxvGYsbhr49N8Ky6vy5JQES8GwCevlvTIkI6IS9vXWSWTXjXVV4TmOj8cyIuZHcOrvVP+9Sq6vwpPsfyw9Ix/eqS/b86QRPYmPqCw5Pw09d2UN6DmsgB3ecU3f7eP4ENpTOA2tJGqMjxQsTk6VMaLxTqoKkNUYMEwYtUaMW6/NFZR8rzyYOWCzvG4ZpPHSIRQF4wPLapTuqrHgNDNwV4wWOpxx8KWVU8sRzOa26VlDCBvtGnLiBUqOZwd1sdGervhCbwV+3VUuekUe1JkVsjmwWTNusRmG28mAYCZCA5xKIiVGIOQ2XCUmt/1ZrbViyzzz/MP6/fj8k3YbUk8KlskmtFsWkaedyaqpFr4FGghtX7sm3n/2unht5b0xT42WKsyT44RN5p+nX0mNYfWnwWik1tQQbCDr28f0XKwELczIXBOCJ+4cPnkjLLhXUA4d46BAOYomn5DHCamSMkr5Z20sWG+/i+vGLjRZP6NsqgrN5zvtykyRNkVBqtihqvEiygXrIcuvaw8b68T9kym/d7Ao4RnIYBcLVaP5yMYStcuGVL5jOoyMBEiCByBCIFRQUFBIcHCxXgsOucIpMRtEZF3fgeGARq6DwjEp0uURJ46sVZ3g6HvaYR4bAwOGOv02PSmo57QevzYpUcZzJE7aZjNlTykVjqpAdf6RwMzIJeDSBkXM6RvgtElTAkVVc0VlRrxSS6AQUmXPhNfPmL3aMTFp7cd2Rp71zMZwESCBmCXjrh60oJDF73fDsJEACJOD1BFy2asvrSbACJEACJEACThGgkDiFjYlIgARIgAQ0AQqJJsEtCZAACZCAUwQoJE5hYyISIAESIAFNgEKiSXBLAiRAAiTgFAEKiVPYmIgESIAESEAToJBoEtySAAmQAAk4RYBC4hQ2JiIBEiABEtAEKCSaBLckQAIkQAJOEaCQOIWNiUiABEiABDQBCokmwS0JkAAJkIBTBCgkTmFjIhIgARIgAU2AQqJJcEsCJEACJOAUAQqJU9iYiARIgARIQBOgkGgS3JIACZAACThFgELiFDYmIgESIAES0AQoJJoEtyRAAiRAAk4RoJA4hY2JSIAESIAENIFA7dm8fKU8fPhQ/Z48eSLPnz+XFy9eSEhIiPrpeNgijI4ESIAESMB3CcSKFcuictjHL3bs2BIQECBx48aVhAkTqp9JSOLFi6eEAxHjxImjhAS5QEzgKB4KA/+QAAmQgN8R0KICEYHTQgLdwM9CSBA5MDBQHcCIxHo0QjHxu+uHFSYBEvBzAlpEgAF+/CAk0AqMSvAzCQl2dASMQuxNa5kzpbCY06CfBEiABLyfgLlwWNdGCwlGJvhBTDCDZRIS7OCA+bSW9YjEOlPukwAJkAAJ+A8BLSSoMUYl0Aw1OtEIICAIgHjYG41wBKJpcUsCJEAC/kHAeoSixQQiAr8amWgUGKJoAUEYRyOaDLckQAIkQAKagBYS7IcREgRgRAKnRx56qwL5hwRIgARIwO8JQCvg9BZ+k40EwxPtKCCaBLckQAIkQAK2CNgUEvNAcz8yoLDYwsgwEiABEvAfAta6YF5z04gEkewJRngZmGdGPwmQAAmQgH8RgD6YhARVd0Qw7ImNf6FjbUmABEjA9wk4ogmgYCEkjmBxNGNH8mIcEiABEiAB7ycQamH3/rqwBiRAAiRAAjFAgEISA9B5ShIgARLwJQIUEl9qTdaFBEiABGKAAIUkBqDzlCRAAiTgSwQoJL7UmqwLCZAACcQAAQpJDEDnKUmABEjAlwhQSHypNVkXEiABEogBAhSSGIDOU5IACZCALxGgkPhSa7IuJEACJBADBCgkMQCdpyQBEiABXyJAIfGl1mRdSIAESCAGCFBIYgA6T0kCJEACvkSAQuJLrcm6kAAJkEAMEKCQxAB0npIESIAEfIlApF8j70uVj2xdHj56KLWaNgnzAbCypUrJ55+OjGx2jE8CJEACPkGAQhKJZjx05IgcO3lCerz5liRKmMiUMke2bCY/PSRAAiTgbwQoJJFo8QOHDxsCklCGDPzAoa9JRiJrRiUBEiABryVAG0kkmu7gkcNSqEABJSL85HAkwDEqCZCATxOgkESieQ8aI5I4gXHknUEDJE/JYlKiSkWZ+u03YWwmkciSUUmABEjA6wlQSCLRhBiR7Ny7RzKkSy+DBwyStKnTyNDRI2XitKmRyIVRSYAESMC3CMQKCgoKCQ4Oln379vlWzVxcm2fPn8svSxZJ7hw5Jah4CVPuTdq3lV379sqx7bskXrx4pnB6SIAESMBfCHBE4mBLBwYESNvmLS1EBEkb16svEOLjp046mBOjkQAJkIBvEaCQONiejx49kgOHDwmeJTF3iRO9XAYcOxZRmnOhnwRIwH8IRHvvN2DAAMHP2tkLt44XU/unzpyRao0ayHezZ1kU4bfVvwvEJGf27Bbh3CEBEiABfyEQrc+RrFmzRnGtVauWBV974RaRYninQL58UrxIEflm5kwpXKCgFClUWGb+NFfWb/5D3u3eg/aRGG4fnp4ESCDmCESrkMRcNaN+5lixYsn3X06Tdz8YKG06v64yxMOJ7/XsJX2794z6CZgDCZAACXgpgWgVEnsjD3vhnsY0U4YM8vMPs+TO3bty89YtyZYli8SOHe2zg56GheUhARLwcwJuXf5ryxYSGd5jxoyJTHTGJQESIAESiAECbrud1qMMZ+tkbUdxNh+mIwESIAEScC8Bt45IzIsOYcEPAmEuEvbCzdPSTwIkQAIk4LkE3DYisa6yHqGYiwji2Au3Ts99EiABEiABzyQQbULimdVnqUiABEiABKJKIFqExN6ow154VCvF9CRAAiRAAtFHwC02EgiEFglnqmJtR3EmD6YhARIgARKIHgJuGZFERURQbWs7SvSg4FlIgARIgAScIeCWEYl1QfTzJNbPhdgLt07PfRIgARIgAc8l4JYRiXl19ejEepRhL9w8Lf0kQAIkQAKeT8DtQuL5CDyzhC9evIjxT/iiDFeuXJGHDy1fne9JxDyBkyfxYFlIICYIuF1I7I087IXHBARPPOfw4cPlzz//jLGiQUD69esnw4YNk9WrV8dYOaxPfPXqVdmyZYsp+NNPP5XNmzeb9ukhARKIfgJuf2mjtV1EV9FeuD7ObcwS+PfffyVlypQycOBAiRMnTswWxuzsELXnxmePy5cvr0KbN28uadOmNYtBLwmQQHQTcLuQRHeF3HU+TO+MGzdO2rVrJz///LPgzjhv3rzSsWNHSZw4sezfv1/Wr18vffr0MRXhp59+kjRp0kiNGjVk5cqVqkPGnf6uXbskVapU0qlTJzl37pwsX75cfc+kbt26EhQUZEp/48YNdc7z589L7ty5pUOHDpIsWTJ1HOWZP3++HDhwQOLGjSvlypWThg0bCl53j7Bt27apcmHbunVrKVWqlClfeJ4+fSrLli1T8Z48eSIFCxaUtm3bqjRLly6VP/74Q8UZOXKk9O3bV5IkSWKR/pbx9uMFCxbIkSNHJGvWrFK2bFk5ePCgdO7cOUIWyGj37t3q/NevX5csxluU27dvLxkzZlTnOHHihKrbpUuXJHXq1IpfxYoVZdOmTbJz50415Xfv3j3p1auXGrWVLFlScQ6vThG1H6bIUJ/t27er/MEbZdK8LSrPHRIgAQsCbp/asjibF++EhITIhQsXZM6cOVKpUiV566235Izx1UR0unDoqC5fvmxRQwjBXeOV83B37tyRJUuWqNfOv/nmmxJgfAN+0qRJqnNs1aqVFC5cWCA8OI92mP7LmTOndO3aVdBxTp48WR+SadOmqfO9/vrrAgHCNNhvv/2mjuOzwOioT506JVWrVpV06dKZ0mkPyvLPP/+otBA0dNooD84PUYKwoIN/7bXXJEGCBDqZ2mJE8PXXXwvO88477yiRmjt3rly7dk0dj4jF0aNHVfpixYop4UVnPXbsWMUQ5//qq68kn/EhsUGDBkmVKlVk9uzZAjEtYnxYDB08mDRp0kSdC4KO88GFV6eI2g/89u7dK2ibnj17Kt6oEx0JkEDEBDgiiZiRRYwGDRqY7u5xl4y7f0cdOkzc9WPUAGGZMWOGuoPHyAYdN0Yt6DDRgcOhM8XUDVymTJlUx3ry5Em1j874o48+MsXFqGTevHmC8sEFBwcrscP0lLV7/PixrFu3Ttq0aaOEBscRb8SIEXLo0CFVluTJk6s80Glbu9OnT6tyYnoSIpMtWzZlt4DAOOJWrVqlhLNRo0Yqeq5cueR///ufEkMIB0Qzf/78qs6od4oUKdRICWVKmjSpmtrSjPT5IqoTyghnr/0ggmCQJ08eCQwMFAg0bgToSIAEIiZAIYmYkUWMDMbHrbRDp4ZpIUcdRgYQETh0ivgoFjpROHResEU8ePBA7eNPgQIFTH6cCx0dRg64u0b8DRs2mI5jdADxwJQTXPz48VV8UwQzD+7iMZVjnn/mzJlVJ438IWrhOYzMMGVnPlKBGEKEHHFIj7rMmjXLIjrOHS9ePCldurQafWXPnl1N9WG6D7zCcxHVSQuJvfbDOTGdh2ebihYtqs5rzie8c/MYCfg7AQpJJK8Ac8OzFgWdBTp4c2d9h27e8SIeprfws+es7RKwAUAAcPeNEQg6Y3OHu3edn/W5zOMhPVyiRIlMwagL7vwdcUiPspg767ThsYDgYXRmXn5Mp+kpOIwGMO21Y8cONXWI6cPevXur0YL5Oc39jtbJXvthhDN48GA1soINCyvDMJWGaS46EiCB8AlQSMLn4/BRjBB0Z6YT3bx50zT1pMMis7148aIpOu64b9++rYzPGAXBLoDOF0Z7OBzDdJe5OJgSW3lgwIY7fPiwybj/7NkzZeOAGEXksEpKl0ePFI4dO2ZKFhELPZrB4gDtYJ+AsGBEtmfPHmW8L1GihGI6ceJE1bFj2smei2qdUH6UG9Nt+MGoP336dDW9pRnbOzfDScDfCdDY7qIrAJ0NOkGs3sLdOAzZML5b35lH5nRYQYSpKkxbwa6ADhx2E0y5oAPHqivYEyAsMAwjPjrDiBzSYvpq48aNShBQbqxEQ1qswIrIFSpUSHX6sOlgdIFVVlixpV1ELCCAuOvHVBj4QABhYMcIDiMtGM0xzYRjGIGhfnr0ghEFBFob2PU5o1onrJ6bOXOm4ok8US+cC1OKdCRAAuETiLjXCT89j/5HAHPwMBR/+eWXqgOC7QNLYq2nvyIDDB32J598IhgtYCqoS5cuyq6CzrZ79+7yww8/KAM89mEUf/XVVx3OHsuWkX7IkCGqvBCp9957TxImTBhhHhCcbt26yTfffCN///23EiDUF6IGFxELrCSDGIAVyo7l0y1atFDpkB4LErAkGlNaGOVhRVvNmjVxSE03/fXXX6reX3zxhQrTf8Krk7ntScc331auXFmOHz+ueCAc9iuszDOfCjOPTz8JkEAogWh5aWPo6Xzfh44PHb8jU0yO0MAdOZYQ6ykk6zTovGGgRofsjMOdN0YCzpYXU2q4a8czNLBp4AFG7SJigfOi/Pbqdv/+fVU3684cTGCjQb1tuajUKSLets7HMBLwdwIckbj4CkDnZq+Dc+ZUuDO219EiP2uDfGTPgdVdUXHhlS0iFlgYEF56jFRsOTAJj3FU6hQRb1vlYRgJ+DsB2kj8/QpwUf0x9Wa+tNZF2TIbEiABLyDAqS0vaCQWkQRIgAQ8mQBHJJ7cOiwbCZAACXgBAQqJFzQSi0gCJEACnkyAQuLJrcOykQAJkIAXEKCQeEEjsYgkQAIk4MkEKCSe3DosGwmQAAl4AQEKiRc0EotIAiRAAp5MgELiya3DspEACZCAFxCgkHhBI7GIJEACJODJBCgkntw6LBsJkAAJeAEBCokXNBKLSAIkQAKeTIBC4smtw7KRAAmQgBcQoJB4QSOxiCRAAiTgyQQoJJ7cOiwbCZAACXgBAQqJFzQSi0gCJEACnkyAQuLJrcOykQAJkIAXEKCQeEEjsYgkQAIk4MkEKCSe3DosGwmQAAl4AQEKiRc0EotIAiRAAp5MgELiya3DspEACZCAFxCgkHhBI7GIJEACJODJBCgkntw6LBsJkAAJeAEBCokXNBKLSAIkQAKeTIBC4smtw7KRAAmQgBcQoJB4QSOxiCRAAiTgyQQoJJ7cOiwbCZAACXgBAQqJFzQSi0gCJEACnkyAQuLJrcOykQAJkIAXEKCQeEEjsYgkQAIk4MkEKCSe3DosGwmQAAl4AQEKiRc0EotIAiRAAp5MgELiya3DspEACZCAFxCgkHhBI7GIJEACJODJBCgkntw6LBsJkAAJeAEBCkkUGunx48dy/sIFefb8eRRyYVISIAES8G4CFBIn2m/a999Jo3atJVeJolKiaiXJ/kpB6fvhILlz964TucVckpVrVsupM2dirgA8MwmQgE8QoJBEshlHjBsjn30+Tgrmyy8zpkyT339dLO906yHLVq2Ujz79JJK5xVz0Q0eOSKce3eTWndsxVwiemQRIwCcIBPpELaKpErN+mieTpn8ln308RN7q2Ml01uJFikjqVKlk4NDB0qxBQ6leuYrpmKd6XoS8UEWLJbE8tYgsFwmQgJcQ4IgkEg21wpgKKlG0mLzZoWOYVJ3atZfhH34kadOkMR07fuqkdOj6tuQrVVKKVSovfQYOkNt37piO/7J0iXTr+45s+utPqd+6pYr3Vp9e8uDhQ/l9/Tqp1ayxlKhSUUZPnKDCkBB5InzH7l3S9NV2kjeouBpZbN2+3ZTvwcOHVRzraavWb3QSiOHho0el67vvqPi9+r8vYyd/YUo795efpUaTRpKjaGGp06KpKofpoOFp2LaVrFq3Vuq1aiGla1SVdZs2mh+mnwRIwA8JUEgi0ei79+2VoGLFJVassHfxsWPHlm5vdJbCBQqqHG/cvCkNWrWUy1evyKghQ2XAO31l899/SX2jA37y9KmKc/3GDVm/+Q95Z9AAqVezpnRs21Z13O3efEM+GDZE6tSoKe1atJIJ06bIyrVrVJpHjx7Jnv37pf1bb0qFsmXV9FqcwEDp2K2LXLh0ScV5+OihihMcHKz29Z+DRw7LlWtXJU3q1NK0YUMV3KR+A6lcroLyT/3uW3n/ow8lV44c8uXY8UZdS6h8V6z+XWch+w4elIFDBktAQGzJnTOnpEub1nSMHhIgAf8kwKktB9sdq7Nu3rqlOllHkoz+YoIYiiOLfpwniRMlUklKlSghlerVkVnz5pqmxjBCmfDZKGlQu46KA9vF6g3rZfb0b6RO9RoqbMee3bLWCGvZuInp1M0bN5b+vV+OKsqVKi3l69RUI5dJo8eY4tjzpEqZ0hCuWjLmi4lSq1p1wdTc3Xv35PMpk6Vlk6YyefRYlRRlgvAMHzta6v9XPhxA+qVz5wvEk44ESIAE2BM4eA3Ejx9fxcTdviNu1949apShRQRp8uTMZXTaRWXbzh0WWUAItCuQL5/EjRtXKpUrp4MkvXHXf/LMadM+POaigg69rjF62XfwgEWcyOzsP3RQiUnxV4qo0QxGPfjly51HTp4+rURU51e2VCmKiIbBLQmQgHjkiGTNmpfTOLVq1fKYJoIxHfaPYydO2C0TprNwtw539tx5qVmlWpi4GdOnl0tXLpvC48aJIylTpDDtB8QOkNRGHgkTJDSFBRpTV9YuQ/oMFkGYrrIWG4sIEeycO39exRhkTKnZcmeN47qcmTJYnttWfIaRAAn4D4GwPVQM1/2E0VF7opAAS6H8BdRdekhISBg7CWwXlerXkVcKFpL53/8gKVIkl9t3Qw3rGuut27clW5aselcCbIiE6WA4nvsP7lscRb5ZMmayCNO2GASizMrQH2IRxbSTLFky5V82b4EUKVTIFK498eLF017DPuJxl42pbPSQAAlEPwGPm9rKlSuXiYIWFFNADHtea91GDhw+JF9+Mz1MSb77cZbAeF6zalV1LK8xJbRl21bVgevI9+7fl70H9kvBvPl0kNPb7bt2WaT9Z/u/UqhAARWWKOFLm8xts2dEzpw7J0+ePDGl0ct+Q/5bBpw3V251DCuyEiRIYPotWfmb9Bv8kTx79syUlh4SIAESMCfg9lvLC4aReu3atXLUWHIKlzdvXqlprFDKlMny7hmioaeysMU+fjmNlUHm4mJe+Oj2N6pbT7q+3llGfj5eMI1V47+pq4XLlsjC5cskqHgJ6dS2vSrWO127qSWyw8eMlne79xC8TgXTRrB/NKjz0rAelfKjDFitVa9Wbflh7o9qpPTJhx+rLLNlzSJJEieWidOmStbMWYylww/UMy6YRtMuUaKXU2drN26UZEmTqUUEjevVFyz/zZo5szRr2MjIc598OHyYWu6MctORAAmQgC0Cbh2RQESmTp0qBw4ckKfGklf84EcYjmmnRQNbOC0o8J88eRIbj3GDBw5ST7Jv27lT2nbuJC06vio/L14krZs2lzlff6OEAoUtaSwT/nbSl/LzkkXqWY+ixnMkF43lub/O/NFiasvZijWsW1f6D/5YchZ7RWbP/0m++nyiWn2F/GBfwUowGNDL1KwmDdq0Uqu08AyMfv4wS6bMUqtqNRlvrNTq9/H/VDHGj/jMWMVVTf73yTBV5l79+ylBeb9nb2eLyXQkQAJ+QCBWUFBQCJ432Ldvn8urO3PmTCUctjIuZMzDd+r08unw6dOnC2wjcGPGvFy+qsMgKubCYiuvmArDCq4rV69JFuMOPjAgwG4xLl6+rEYIGCVE1WFlFh4YxKtZXjEYXrl6VewZv1+8eCHnL16QjBky2i3f/QcPBCMV8xEHbCuXjQUBEBtbz8xEtQ5MTwIk4FsE3Doi0dNZtpCZH8P0lXZaUHSYHqXo4560xZ1/jmzZ7HbSuqxYqeUKEdH56S3Ey56IIA6WBWNqKzyRw/JkcxFBOggL0lFEQIOOBEggIgJuFZKITq6Pa9HQ+9h62pSWednoJwESIAESCCXgViGBYd2eMz8GY7x21oZ1630dz1+3WF21aflKKRAOW39lw3qTAAnEDAG3CglWZ8UxWymkq4gwHNNOj0jMbSHWU1w6rr9v8TwHnn7XT9r7Ow/WnwRIIOYJuHX5L5b49ujRI8LlvxAQiIkefZjbRbTIxDwqloAESIAESMAWAbcKCU4IMdGrs2wVQIdpEcG+FhKEmYfruNySAAmQAAl4DgG3Tm05U00tIkhrPv3lTF5MQwIkQAIk4H4Cbh2RQBSw+krbO1AdPcLAlJX5dJauqrmdRMfVx7glARIgARLwPAIufyARogHxMB9ZhFdtiAVGHhSN8CjxGAmQAAl4LgGXjkggIngiPTIOafDDSMR8NBKZPBiXBEiABEgg5gi41EZi/jxIZKvk6AgmsvkyPgmQAAmQgHsJuFRIMLKg820CV413e23ZssW3K8nakQAJRIqAS4UkUmdmZK8ksHr1ajl27JhXlp2FJgEScA8Bl9pI9Jt73VPUmM/1hvHhqoULF8qhQ4ckg/G52QoVKsgu4wNTPXv2VIXbb3zjfNmyZXLZeNtvwoQJpVixYtKiRQvBp3JXrlypnvK/cuWKSpPK+HQvnq85Z3xwavny5YIn1usar4Y33sas8sIXDVesWKHu/vH1RbwtuV27dipfaxIPHz6UcePGSevWrVX5bt26JeXLl5c6xndPfvjhB7X4oUiRItKsWTNJkiSJ+tgWphL//vtvuX79uqQ0Pu2LBQ+VKlVSWWNkOX/+fLlkvPY+tfEJ3xo1akjFihVl06ZNstN4fT7Kdu/ePenVq5fy2yvnA+PNwuPHj1f1WrBggZQpU0ZatWplXXzukwAJeDmBgIwZMw7F1+/wBDqdfQJ4JfuXX36pvqmCDv358+eydOlSQXg14xse6HTHjh2rOt2mTZuqzvm3336TNMZ33rNkySI7duxQK9myZs0q9evXV3f1G42PSmGqqEmTJkpk0CFjwQHeuou0f/zxhzRo0ECJAjpwiBYEwtrhy4e//PKLnDp1SuWV2Xit/eLFi1V8CBBEYv369eq1Kjly5JDNmzerskN4cAxCBQEsV66c+jLiyJEjlQi2bdtWCc+cOXOkePHiqh4XL16U5MmTC+qIz/OGV058nuDXX39VwgqRwsOpxvVmXXzukwAJeDkBl45IvJxFuMXHa++xrHnUqFHG99hTSP78+eX8+fPqjh4J0Rk3btxYateurfJBZ75t2zbBCEQ7dLzonCEUd+7ckRkzZkjnzp3VVyMLFiyoRi3IE50tppCQnx4lIOyDDz6Q06dPS/bs2XWWFlsIVNGiRVUYFj6gw2/YsKHax0gHIymIHt7T9eqrr0qJEiXUMYyu/vzzT1XWxMY3UzDaQP3Q8eOH+iIc+SVNmlSJKMQRYhpeOTHSgcNIq2zZssrPPyRAAr5HgELiYJvii47p0qVTnapOgs4fowY4PFyJDnn79u1y9uxZNTrAFiMA7ZBef+MDnTK+F6Kfn8H0F15miekgTKHh07zHjx8XjAC0w3FMm9kTkvTGd0+0Q/7mb1jGVBumwOBKly6tzvHXX3/JmTNnlDhBFDAyxRQbjk+ePFmdBwKEH/KzdhGVUwsJuNCRAAn4LgEKiYNtixEH7srNHUYY2qHDh50ikfGhKNzNV6lSRdkP9HFsEyRIYL4rAcaHqfCzdhARONhRzNPgzj5t2rTW0U375nERaP3BKh3xn3/+kdmzZ6upqnzGm4QxTYXPH2v3+uuvq6ktTMdh+g6/3r17S548eXQUtXW0nBAxOhIgAd8loITEsJ3SRUAAd/sbNmxQd+0YPcBZf3ce01l9+/Y1jTpg84BhOrIOAgKH/GC3gIMtBlNl+pgKdPIPhAGi1KhRI5UDRkFPjc/roqzw79mzR01FYeoLYjFx4kRl9LcWEl0Wd5XTyeoxGQmQQDQT4PJfB4FjBRYEBN+hh2EdU1owlmuHkQg6XXT4cHjWAqMUTBdF1ukVXxAunAt5/v7777Jo0SI19RTZ/KzjY2QFQzgcprSwEg0OYoJRzJIlS1T9ICw4N4z5epoK02s3b95U02TuLqcqFP+QAAl4PAFObTnYRBCRd999V7CCCQZ3GL+xnFU/U1G1alVljO/Xr58SnNy5cwvCsLzXGQdjOERr2LBhanoLU1qYcnLFB61gxMdyXNhzIHSVK1dW01YYYcEeggUBWJKMkQvEsXDhwmp1F+qBZcSwrQwaNEi++OILZbS3V04IEB0JkIDvE1AvbXz0KFj279/n+7WNQg2xygojjAIFCphyQUeLlVwQGO3u37+v7urt2Sd0PEe36MjR2WPE42p3+/ZttQoLRn9bDnWB8R2jEHOHUQpGLzimnTvLqc/BLQmQgGcSsN2DeGZZY7RU6MwnTZqkvvZ47do19WDeunXrwixrxbSRq0QEFUZn7Q4RQd565Rj8thzqYi0iiAfhMRcRhLmznMifjgRIwHMJcEQSibY5cOCAYMUTluViqglTW7YeEIxEloxKAiRAAl5PgDaSSDQhnhLHj44ESIAESCCUAKe2QlnQRwIkQAIk4AQBCokT0JiEBEiABEgglACFJJQFfSRAAiRAAk4QoJA4AY1JSIAESIAEQglQSEJZ0EcCJEACJOAEAQqJE9CYhARIgARIIJQAhSSUBX0kQAIkQAJOEKCQOAGNSUiABEiABEIJUEhCWdBHAiRAAiTgBAEKiRPQmIQESIAESCCUAIUklAV9JEACJEACThCgkDgBjUlIgARIgARCCVBIQlnQRwIkQAIk4AQBCokT0JiEBEiABEgglACFJJQFfSRAAiRAAk4QoJA4AY1JSIAESIAEQglQSEJZ0EcCJEACJOAEAQqJE9CYhARIgARIIJQAhSSUBX0kQAIkQAJOEKCQOAGNSUiABEiABEIJUEhCWdBHAiRAAiTgBAEKiRPQmIQESIAESCCUAIUklAV9JEACJEACThCgkDgBjUlIgARIgARCCVBIQlnQRwIkQAIk4AQBCokT0JiEBEiABEgglACFJJQFfSRAAiRAAk4QoJA4AY1JSIAESIAEQglQSEJZ0EcCJEACJOAEAQqJE9CYhARIgARIIJQAhSSUBX0kQAIkQAJOEKCQOAGNSUiABEiABEIJUEhCWdBHAiRAAiTgBAEKiRPQmIQESIAESCCUAIUklAV9JEACJEACThAIdCINk5CAhISEkIIPE4gVK5YP145VczUBComrifpwftbiYb3vw1X3q6pBRMzblqLiV83vVGUpJE5h869EulOxt9U09HG9z613ELAWCr2vt7oW1vs6nFsSoJDwGrBLQAuD+RZ+/UNCc791RjqddTj3Y5aAPUFAuD6m/XrfvMS2wsyP0+9/BCgk/tfmEdZYC4D5Fv4XL14o4Xj8+LGs27RRtu7YIQcOH5Iz58/JzVu35MmTJxHmzQieRyBu3LiSMkUKyZY5ixTKX0DKlCwpNapUlXjx4ilhiR07tklgzEtPQTGn4d/+WEFBQSGPHgXL/v37/JsEa68IWIuHuYDs3LNbfvx5gSxZ8RtFw8evF4hLk/oN5LVWraVE0WIWgqJHK0BAMfHxC8HB6lFIHATlD9HMRUSPPrA9deaMjJ8yWQmIP3BgHS0JQFDe79lbcmTLJnp0oreISTGx5OWPe3yOxB9b3UadrUUEAvL8+XOZ9dM8qdmsMUXEBjN/CcIIFNcArgVcE7g29I0GGOhrx194sJ5hCdBGEpaJ34XojgBb3Uk8e/ZMho0eKTPmzvE7HqxwWAKwf/1vxHA5fvKEDBn4gQQGvuw69MgE1w5HJmG5+UsIhcRfWtpOPe2JSL+PP5Jfli62k4rB/koANxb37j+QcZ+MoJj460Vgo96c2rIBxd+CrEciQ42RCEXE364Cx+uLawPXCEategSrb0gcz4UxfYkAhcSXWjOSdcE/v/kP898/LpgvP3A6K5Ik/S86rhFcK7hmzK8hCor/XQuoMYXEP9vdotb450eHcOrMaRk+ZrTFMe6QgD0CuFZwzWgxsReP4b5PgELi+21ss4bmd5GYnkBnMH7Kl/LkKR8qtAmMgWEI4FrBNYNrR6/i0tdVmMgM8GkCFBKfbt6IK4d/fHQCeNhw2aqVESdgDBIwI4BrBteOFhKzQ/T6EQEKiR81tq6qvmvUIoI7yjnGE+t0JOAMAVw7HJU4Q8530lBIfKctI10TLSQPHz2S5b+vinR66wQV6xUU/Nzp8JmMdJmTS6Kk8cOcJjAwtrEk1fYvIMDyUkc8W5/ciBU7Vpg8rE9kK475eXE8Ihc3fqCkz5JCIoobOyCWWJcdeaPsOKetY+r4f/XQdQyvzPbyiKgO+jiuHVxDHJVoIv635XMk/tfmqsZ6VIJ//vXGCxifPH3qEhKDJrWUDUv3yg9j1smNK/dckicyQYfYpkdlafF2eUmQKK7K99LZWzLpw2Wyb+tpyZonjUxd0d3u+Q7tPCf928xQx2s0Lyp9RzeRmePWyc/T/7JIU6d1cen1SUOLsMePnsqV87dlyQ//yO8LdkmD9kHSbUg9izjmOwum/SmzPl9vHmTyN3m9jFRuWFhyFcqg6vTsyXP56/dDMn34Snlw77EpHjyo89dreknipAmkY8XP5UnwM9Px3K9klAm/viUP7gbLq2XHy7Onz03H4OnzaSOp1bKYjHtvoWxctl9qG/7eRpgtd/H0TelS60tbhxwKw7WDa6hRvfqmFVx8ONEhdD4TiULiM03pWEUgINrpEQne4utKV61xESlTI58hJmtlxVzX5N2qW0WBAHzWc4Ec3XtBda4Y/YyY+Zq81+I7OXvsqnSvO9VUjREzO8gmowNd88suFfY4OFQo0cGu+mmn1G1bUn75ZouEvAhlgsj37wRL19qhHWuyVImkSJns0nN4Q7lz86HRMe+TPX+fUvmmTJtEPp3VQUb1+UXOHL2qwu7eeqi25n/ixguU98Y2lXSZksv8aZvl4I5zSgSy50srzQ1xHD33denb4lt5agiLdq8Y54SI3b7+QCo3KCxrf92tD1lsS1bOLVvXHTGFxYkbYPDPK08ehwoPDj68/1jeb/mdKZ72WIuQDo/MFtdQgzp1LV6XguuLghIZit4bl0LivW3ndMn1aEQLyaGjoZ2Q05laJUyYKJ70GNZAytTMJzOM0cnpw1esYkRuN13mFEYn/kB2Gx04On7cvf/67RY5aeSLu3J0wOdOXDdlis7x9o37FmE4mDF7SsmSK4181OlHmbjobUEnvH3jMVM6eIyna5Rg6ECIx9lj16TJG2XVyOeftUeU2OB4sNHRw2HEYn5+FWj2B6JQunpe6VD+c1VefejEwcsyYcASadyptCRMHM/ivLVaFjeEcLdcu3hHWnapYFNI/jbKUqlBIQshKVU1rxzff0nyGKMWc/fieUi4ZTSPG1k/riE9taWvL4pIZCl6b3zLiWPvrQdL7gQB/MPDSHru4gUnUjuWpGSl3PLlsq7SpmclxxLYiYWRRY586V7m1aOS5CqYXk397PrzhFw+d8tOqrDBtVoUky2rD6mpoA1L9kr9diXDRjILwfRSqnRJpHX3ipIhawrZ/NsBs6OOe/MVzSTnjl+zEBGdGqK38Nu/LUQkUZJ4Uq52fvnDON/W9UeVAGI6zNr9ueKAlDVGH7C5aFelcWGVTu/rbYBhU8lZIH2YX/LUiXQUp7e4hnAt4Zqi8z8CoVef/9Xd72usheTW7dtuZ9Hh3WpGh4fRyVrZ+8/pSJ/v8K7z8mGHWdKudxVp16uydOhbTa5fvivfj14jfyx3rHOH4RrTY+PeX6TOv9nohDu+X13SZEym7vp1oZIkSyDLjw3Wu2p7bN9FGdF9vsAu44zLVSi9wBZh7irVL2gsHEihgiBYh3ael/3/nlH7sKMc339Rbl59aWf6e81hqW/YZib/b5l5FnJk9wW5d/uRYBTy16qDalRTvEJOZTt6c1Ati7iwLU1a2sUiDDuw58CuExWHa4hCEhWC3p2WQuLd7Rel0uspiKcuMrRHqTAOJD6y54IMfWuuxE8YV4qVzyG1WxWX/p+3UN/I2Lh0X4Q5lDBGR0lTJFSrpdIatgo4TFvVbVNCZk/YYEoPW8In3eYLhCdP4YzS1hCuRd//LZjSctZdv3zPMLCnt0hetFxOyV88swrLmC2lLDTOoYWktjGtde3yHalpjKDgMHVXrWkR+X7UagujPKbh/lx50LChFFRCUt4YxezfdsbmyAfTgd3qTFH5mf95ZNQ3qg7XkL6eopoX03sfAQqJ97WZS0uMf/44ceKIu8Vk9sQNMn/KZqfKHhgnQJp0KqOM3FgJFvzwierU0bH3n9BcqjV5RRwRktqtiinhaPBqkKkcj428IEjzJm8yXkL4QoU/f/5CrQTDzp4tpwSG+vfHNTNGLXeNUcM5U9rIeLBAoKYxGsIyXG3c//Lj5aYsxv/ypskPA3zuwhmUkDXqUMoUbgxapHqzorJs1jZTGDybVxyUUXM6KYGt0vgVWbdwj8VxvYPz3rp2X++6dItrCNcSnX8SoJD4Z7tb1Dp5MmNq53qoodriYBR3dmw+HmVjO2wI9Y3OH3ffsCWYu+uX7krS5AnMg2z6k6VMaBi78xlG9tnqjl1HQvisLe9J2Vr51Z29DjffLp+9zbjjLyT9xjeT7vWmWizDNY8Xnv/Av2cFNorWxuqz+VPDCqr5sxwwsmNk8sFrsyyy7PJRHaln2HSshQQidctYWFClYSHJXyyzfNoj+h8uxTVE578EaGz337Y3Lc3MlD6sETeqWB4+eCxTh/wmQzrPjfKKLZRl/eK9hl2kujTqWFpNTSU3luRWbVRYLeHFcxgRuWpNishdY9XXge1nLaJiamvHH8eV/cHigNkObrS//Pg3SZ0hqbTp7tyiASwIGP3ur9K+TxV5vX8NgfEddShWPqd8NK2NWjxwxYiD0RdGWLbsPmCQNXcaKVwqm1npXnoxvdXhveqy01h8gBGbLQchy54/nc2fuZDZShtRmL6GuFIrIlK+eZwjEt9sV4drhS/c5c2VW3bvj9jG4Gim7nggcc4XGyX4wRNp8VZ56fpxXVUUGKJnT1ivngmJqGx4dgRTQHpayTz++kV7BQ9SZs6Z2jzYwo9nRBbP+Ec9ELnB6NDPn7phcdyRnb9XH5bRfX41RlclpeFrpdRUFJYPY7oMz5BgyW6FugXVU/u2xBHHzxorv2B0XzTDcmT2p1E3sAlvVRmM7VhBZ8u9WmacxaoxW3HCC8M1hGuJzj8JxAoKCgp59ChY9ruwI/FPlN5Ra20QxZp/fJjo4cOHsnj5Mhn0ybAoV0C/HgV3x+50WBobN34ct833u7PsOm8Y8lOlS6pWntkSNx3PW7ajPh4iTRs2koQJE6ovJ+pP8HKE4i0tGLVyckQSNX5emRr/3PqHf/jK5Su4xODubgHRsLH6yPp1IvqYt2zxcCAeNPQFB0M7riFz8aCA+ELLOl4HjkUdZ+UTMc3/weEPCAhQd5E1K1fxifqxEtFPANcORiK4lqyvr+gvDc8YEwQoJDFB3QPOiX943EHinz8wMFCaNbB8UaEHFJFF8BICuHZwDeFa0qMSLyk6i+kiAhQSF4H0xmy0mMSNG1eKFykq1StW9sZqsMwxSADXDK4dXEMUkRhsiBg+NYUkhhsgJk4PAdE/3EVijjtevHjSpWMniWPcWdKRgCMEcK3gmsG1g2tIT23pa8uRPBjHNwhQSHyjHZ2uhZ7eQmeQM0cO6dE59AlrpzNlQr8ggGsF1wyuHT2t5RcVZyXDEKCQhEHiHwH6rhFbdAKYmoDBtGXjptKgpuXL/vyDCGsZGQK4RnCt4JrBtcPRSGTo+V5cConvtWmka4RRCYyluLNMnDixvN+zt1QuWy7S+TCBfxDAtYFrBNcKrhlcO7iG6PyXAFvff9veZCfBqAQdgR6VJDPemzS4/0CpVaWqH9Nh1W0RwDWBawPXiB6N4NoxH+HaSscw3yZAy6pvt69DtdPTW4gcP3589RZXPPnev1cfyZQ+vfz46y/qKXiHMmMknySAUcdrLVpK+5atlYgkSpRIXSt62S+uITr/JUAh8d+2VzVHB4DXppiLSYIEL9+mi7CObdtLkYKFZe7CX2T7HtvfDPdzhD5f/aCixaR985ZSrEgRSZo0qZrSwjViLSIUE5+/FOxWkEJiF43/HLAnJtp2ElSihGTPmlX+3blD1v/1p+zYs0eePX/mP4D8sKaBAYFSsqjxbFGFilKqRElJnTq1EhFMZ2m7iDawAw9FxA8vErMqU0jMYPiz15aYIAxigmcEMOWVMmVKKVnM+HLftWuyY+8eOXbqpJy/dFFu3Lwp9x88pLh46QUE0UicKKGkMto3c4aMkidHTilpPGSYJk0aJSAQD0xlQUD0Ci2KiJc2tpuKTSFxE1hvzNZaTCAielSiDfHoVNKmTStZjRHKgwcP1NuDHz9+rL7XDbsKnfcRQBtDGCAUWjSSJEmibh70CAQ3E+ZTWXoEorfeV2uW2JUEKCSupOkDeZmLCaqDzkOLiR6Z4LO8WLWDLV5Fjx/sLM+fP/cBAv5XBT26QFvjh3bGjYMWD30N4DqA0+Kht/5HjDW2JkAhsSbCfVNHoVGgA9E/dCroZDDVhRGI/tn6XretMJ0ntzFHwJYAIEy3MbYQF/N9lFan09uYqwHP7GkEKCSe1iIeVB7rDkN3LBAICAq25mJh7vegarAoERAwb2f4zX9Iqo/rbQTZ8bAfEqCQ+GGjR7bK1h2I3qdwRJakd8TX7atLa72vw7klAU2AQqJJcBshAfMOBSJivh9hYkbwKgJsW69qrhgvLIUkxpvAOwvAjsY7242lJgF3EOC7ttxBlXmSAAmQgB8RoJD4UWOzqiRAAiTgDgIUEndQZZ4kQAIk4EcEKCR+1NisKgmQAAm4gwCFxB1UmScJkAAJ+BEBCokfNTarSgIkQALuIEAhcQdV5kkCJEACfkSAQuJHjc2qkgAJkIA7CCghMV6vQ0cCJEACJEACThHgiMQpbExEAiRAAiSgCVBINAluSYAESIAEnCJAIXEKGxORAAmQAAloAhQSTYJbEiABEiABpwhQSJzCxkQkQAIkQAKaAIVEk+CWBEiABEjAKQIUEqewMREJkAAJkIAmQCHRJLglARIgARJwioBLv5B48vRpOXz0iEVB8CW9ePHiSfJkySRXjpySLGlSi+Pu3lm7caPEixtXKpUvH6lT7dy7Ry5fviw1q1WXuHHiRCotI5MACZCAPxFwqZCsWrtGho4eaZdfXKNDb1C7jowdPkKSJkliN54zB54+eyZf//C9ZMqQUZo2aGjKoteA9yVNqtSyeeXvpjBHPFO++VqWrVoph7Zul1QpUzqSJFri2KtntJycJyEBEiABGwRcKiQ6/xaNGkvVipX0rjx/8UJu374t38z6QRYtXyZ37t6Ved9+L6787veSFb/JsNGjZMJno0znhadqhYqS1IlRUJFChSU4OFjieNhoxF49LSrNHRIgARKIRgJuEZLiRYtKm+YtwlTj1dZtpHL9urL+j03GFNhRKZAvX5g4rg74asIXTmX5TrfuTqVjIhIgARLwNwJuERJ7EGEfqVWtmsz6aZ7s2LPbQkhOnDol23bukOMnT0rs2LEkZ/YcUr1yZUmXJq0pu1u3b8nq9euldMkgefDwgSxduUJeKVhIkiRJLFv//VfF+9fIIzAgQOobU2hJEieWxb8tl/iGjaZuzd4hQkIAAC31SURBVFqmfOC5eu2a/Ln1H9lt2ELSpE4ttavXkHy585jibNm2Vc6dP6+myWDjuX3njvy+bq2ULF5ckiZOIqs3rBfYhMqXLiMVy5aV+PHjm9JqD6ahNmz+Q46fOCEXLl0ypt0ySKECBaSKMUoydxilZUifXkqXKCmb/vpTtu/aJWK8SLNU8RIWI7t/tv9rt54hISFKoHfs3q3Y5M6ZS5UtV44c5qeinwRIgARcTyAoKCikcOHCRj8UdWfYFULS5M4RMv2H7+1m1rJTBxXnl6VLTHHGTJoYkjF/HhWer1SJkLR5cip/ruJFQv746y9TvN379qnwT8ePDcExnAu/Vv/lqfeR/tjJEyod8qtYt7YpD3gMIVPpEK9QudLKny5vrpA5Py8wxevcq4cKv37jhgo7cOiQ2u8/+KOQV8qXDclRtHBI+do1VVlRlqMnjpvSwnP42NGQqg3rqzSoW+4SRZUfZXyty1shL168MMXPU7JYyOs9uoW82bunKb6uS8/+75videv7jikPHNf1fPL0aUibzq+rY+nz5Q4pUCZI+TMVyBvy7ayZpvT0kAAJkIA7CEh0Cgk6V3R+6OyMu3lVnz//+Vt1eo3btQk5ffaMCrty9WrI+CmTVXj91i1M9dZCksFI/0bP7iFrNmwImfLtN+r4z0sWq/g/Lphvig+PtZCsWrdWnb95h/YhOA8cygVRQFzDfqPC7AkJOvDu7/cNefzkiYq3a+/ekPylS4aUq1Uj5O69eyoMf5q0b6vKg3I9evQo5NmzZyH//PtvSMV6tVX4xj83m+JCSMClRpNGIStW/67yPnTkSEjxKhVVXGOUZYprq57zF/6q4g0dNTLk3v37Ki7qVLhcmZDMhfKHGKMpU3p6SIAESMDVBNzyHAmW3I6eOMH0GzrqMzE6ZjE6SjEqIG916CQ5smVTw6vTZ89KuVKl5dOPB0u2LFlVWNo0aaR3l25qyfDxk6fCDMPSpE4jX30+UWpWrSo93nwrzPHwAiZNn6YM6NPGTxScBw5TWkMGfaDOB/tNeA5TbRM+HWlaElzslVekX68+cvzUSTWNhrSGoEgyY7lz59c6SMvGTdS0V4Ax3VYmKEjatWilsscUnrkDl68mTJR6tWqrvPPnzSu93+6qouzat9c8ahg/zg1Xo0oVSZwokfKjTpPHjJVhgz6UJ0+eqDD+IQESIAF3EHCLjcS42xb8zF3s2LEla+bM8m73nkZn2tJ06NVWrQU/7R4+eiiwl+w0bCjofB88fKgPmbaFCuQXLCWOrDOmk+TAocOG7aG4SUR0HrWN50Xwi8g1qFNHPRdjHq9OjZrywfChsu/gARWMpc0zp35ligKRgI3kyLGjsnf/PhX+KPiR6Tg8KZIll9zGczbmLkumzGrXGGWYB4fxVypXQSZOmyodur4trZo2MwSlqlQqV07ZV8xXz4VJyAASIAEScAEBtwhJL+NOulWTpqbiJUqU0DAmZ5A4gbZPB8P2NzN/kD1GJ3v+4kWVDsZrdMC2XNbMWWwFRxiG0Q+EKqPxrImzLkumTGGSZkiXTi1lPmT2MCaWOH87e6bg2ZqjhrHdmN5S6fBgJpx13fToSB387w+M/HAQwPAcRAPLnoeM/FR+mDtH/SC0VcpXkPd79ZYSRYuFl5zHSIAESCBKBGz37FHKUiR9urQWK7LCyw4rlrq996564r1G5SrGVFVxtbKpWOFXpHbzpnL63NkwyZ190jxOnJfV1Z16mIwdCHjy5GmYWPcfPFDCkNaYcoND/q1e7yCGTUd14pjKK1q4sODZFIjl2+/0DpNHLGOlWlQcRnWYRtu05S+1Umzdpo2yZuMGtQps/oyZUqFM2ahkz7QkQAIkYJeAW4TE7tlsHBj/5WRjuW9sWb1wiWTP+tJGgmjPnz+XU2fPiLG8yUYq54Lw1DtECCMTa3fj5k3p0rePVK9UWXq+1cX6sGn/5JnTJr/2HD95QnmLGuIHh6XBEJG2zVvKpNFjVJj+A+GEe/7cdfU6deaMmg6Ezch8im7y11/JJ2PHqIdAKSS6BbglARJwNYHYrs4wsvmdvXBeEhjTWGnTpLZIOveXn5WR+JkhKI44PW2GqSt7DoJV3bAf7D2wX7bt2GER7fs5s2Xzli3y7Fn458OT5ZevXrFIa6wcU1Nb5UuXVuFnz59T26xZXto4dGQ8i7Jw+VK1++z5Mx0cqa2teuK1NO3f7qxGIOaZYQQElyB+AvNg+kmABEjApQRifESCh/mwyqvPwAHymvHkO2wHMNR/PfMHtYoKnS9+2rZgr/apU6VSh76bPUsuXb4ib3boqB4AtI4/dOAHaurn1S5vSv8+7ygDt7EkWBYsWqRWjXVq1946icU+XpvSsE1rGWCkTZkipcxf9Kss/32VDOr7ngQZDxDCVShbTgkLygIjOmwUew/ul5lz58rVq9dUnFu3bqttZP/YqufbHTuphyX7ffQ/440CzaVsUCnD8H9Q5vw8Xy1KaG68soaOBEiABNxFIMaF5HNjKW3Pfu+pp9TxpDpcwfz5ZeHsOWI8oyFYOoynw5s1bBQugzJG54mXNS43XrT45TfTpXiRIjaFJGf27LJ20VJ5Z9AA+WjEJ6Y88bQ5XiYZkWBhuir4cbD0MdLDCJ7ZML6/37O3vNejlymvEkWKypjhn8gnY0ar1Vw4gMUDb7R/1TB+95GSVSupOpkSRMJjq56N6tZTy6GHjx2tVm8hO7zHLG+u3LJ07k+KRSROwagkQAIkECkCsfBAIu6y9xlz+jHprl2/rqaMsCIrKq+aR11g/NZ37uHVCctqzxjG/EwZM6qRQ3hxDx4+LFUb1VcjnZGDhwrS4jUr4b2CBM9vYLFAQOwA9dwMptZc5WzVE8J2+epVuX7junG+7OoVMa46H/MhARIgAXsEYnxEoguG913hF1WHO39b772ylS/exVW4QEFbhyIMQ1r8wnNYgotRgTucrXpCqDIa7+zCj44ESIAEoouA626Ro6vEPA8JkAAJkIBHEaCQONgcsDlg6XBggMcM4hwsOaORAAmQgHsJsFd0kC++nXL+oOVnhB1MymgkQAIk4NMEOCLx6eZl5UiABEjA/QQoJO5nzDOQAAmQgE8ToJD4dPOyciRAAiTgfgIUEvcz5hlIgARIwKcJUEh8unlZORIgARJwPwEKifsZ8wwkQAIk4NMEKCQ+3bysHAmQAAm4nwCFxP2MeQYSIAES8GkCFBKfbl5WjgRIgATcT4BC4n7GPAMJkAAJ+DQBColPNy8rRwIkQALuJ0AhcT9jnoEESIAEfJoAhcSnm5eVIwESIAH3E6CQuJ8xz0ACJEACPk2AQuLTzcvKkQAJkID7CVBI3M+YZyABEiABnyZAIfHp5mXlSIAESMD9BCgk7mfMM5AACZCATxOgkPh087JyJEACJOB+AhQS9zPmGUiABEjApwlQSHy6eVk5EiABEnA/AQqJ+xnzDCRAAiTg0wQoJD7dvKwcCZAACbifAIXE/Yx5BhIgARLwaQIUEp9uXlaOBEiABNxPgELifsY8AwmQAAn4NAEKiU83LytHAiRAAu4nQCFxP2OegQRIgAR8mgCFxKebl5UjARIgAfcToJC4nzHPQAIkQAI+TYBC4tPNy8qRAAmQgPsJUEjcz5hnIAESIAGfJkAh8enmZeVIgARIwP0EKCTuZ8wzkAAJkIBPE6CQ+HTzsnIkQAIk4H4CFBL3M+YZSIAESMCnCVBIfLp5WTkSIAEScD8BCon7GfMMJEACJODTBCgkPt28rBwJkAAJuJ8AhcT9jHkGEiABEvBpAhQSn25eVo4ESIAE3E+AQuJ+xjwDCZAACfg0AQqJTzcvK0cCJEAC7idAIXE/Y56BBEiABHyaQGB01u7EiROydu1adUr4a9WqpX7RWQZXnuvx48dy7fp1SZ8+vQQGBLgya+ZFAiRAAl5DIFpHJNOnTxcICH5wa9askQEDBpj2vYXatO+/k0btWkuuEkWlRNVKkv2VgtL3w0Fy5+5dUxW+mvG9ZCtSyLTvqOfA4UOSNk9O2blnt0NJnj57Jl/PnGGKG9n0poT0kAAJkICTBKJNSCAa9pwepdg77knhI8aNkc8+HycF8+WXGVOmye+/LpZ3uvWQZatWykeffhLloiZPllzatWgpqVKmdCivmXPnyIhxY01xI5velJAeEiABEnCSQLRNbYUnJE6WPdqTzfppnkya/pV89vEQeatjJ9P5ixcpIqlTpZKBQwdLswYNpXrlKqZjkfVkypBBvhg1xuFkL0JeSKxYsUzxI5velJAeEiABEnCSQLSNSHLlymW3iHqqy24EDzmwYs1qKVG0mLzZoWOYEnVq116Gf/iRpE2TxuLY3/9uk7otmkluYxqseYdXZe+B/abjCxYtlB7v9xUIVMGypaRzrx5y/NRJqdWssRw+elTFgw2my7t9JH/pklKgTJC0fqOTHDl2TB2bv/BXmfbdtwJbDdKs3rBeTpw6ZZEeERGvXqsWkqt4ESlasby83rO7nL9wQeWBP4M/GyFTv/1GfjBGN5Xq15F8QSXkDSPO9Rs3THHoIQESIAF7BKJNSOwVAOEwunuD271vrwQVK24xAtDljh07tnR7o7MULlBQB6kOHh1yzWrV5P1efeTMuXPS7q3OKhyRrt24Lus3/yGjv5ggVcpXkDSpU6tje/bvl4ePHqp8+gwaIPsPHpQP3+snn/zvY8MOc0fZZ548eSJFChWWMiWDlKEf4pYnZy4Jfhws5ulnzpsjvQf2N+KVlEmjx0rLJk1ly9Z/pNeAfqZynj57VtlZphhi0rJxU+n+5luydtNG6TOovykOPSRAAiRgj0C0TW3VrFnTrlHdG4QEd/A3b92SXDly2GMZJvzFixcydvgIaVS3njqWxpj+6tHvPUHHnS9PHhWGPGFraVC7jtqHsdzcbdm21RCR96Vj23YquEihQjLlm6/l6rVrUiBfPilRrJisXLdW2jZvaTP91u3bDXFoIkMHfaiO4zwYwcyYM9v8NHLrzh3Zvn6TEjMcuHf/vnz1/bcWcbhDAiRAArYIRJuQYGprzJgxaqUW7CV6qgsC4w0ufvz4qph6pOBomSsbIw3tygaVUt6zF86bhAQB5cuU0VHCbIsao44xX0w0hOO61K1RU0oawhEZG8rU8RNMeWKq6tCRI3Lx8iXBai/84gS+vATy5c5tEhEkyJk9uzoeHBwsuu6mjOghARIgATMC0SYk+pze+uwIjOmwfxz7b+myro/59sbNmxarrdABJ0ua1BQlXrx4yv/c6MC1S5AggaQwVmrZc99Mmiy9B/SXL7+ZLpO//kqVoedbXaR75zftJbEIx8jlE2Ol2dqNGwTlw/SZXhEWEhJiipsqZSqTHx5dVhjz6UiABEggPAIeYSMJr4CedKxQ/gLK/mDeAevyPXr0SBmq23R+XQfZtKWYDv7niehBxnRp0sqCGTNl/5atMnHkaMmbK7cMGfmp/LJ0iXVWNvc7du8qGzdvlkHv9pU/V62WA39vM5YXtwoT12zhV5hjDCABEiCB8AhEy4gEq7JOnjypfiiM+SotTHHlzJnTKwzur7VuI2/27qlGB727dLPg+t2Ps9Qqp5pVq1qER2XntmG3wIOOb3d6XcqXLiPtW7aSVk2bSeGypWX33r3K9oGlv7DF2HJY8YUHG0cPHS6d2r1qinLwyGHlf/H8uUicOKZwekiABEjAGQJuFRIIBh42NBcO60LiGH6wm2DaC6Ki7SfWcWN6H0bzrq93lpGfj1fTRDWqVFNFWrhsiSxcvkyCipeQTm3bu6yYyZMlk8dPHsvw0aNk9LBPlN3it9WrDMP4bSkTFKTOkyhhImU8X7V2jVqabH5yTMflyJZN1mxcL00bNDA0I678vHiRYNkx3KPgR7R/mAOjnwRIwCkCbhMSCENkH0LU8bt27eqxYjJ44CBJnCiRbNryl3wz8wdlkI5r3NW3a9naWF31nsSNG9ephrCXaMjAD+STMaOl6att5cHDh+rc/3u/v2klWPXKlZVYYAqrf593pH6t2qasMFoZaqQfPWmi8ZxKaYlt7FcoW07mffu9tH3zDdmxe4+4cgRlOjE9JEACfkUgVlBQUAhW5uzbt8+lFcc7tJx1GJFATDzdYQXXlavXJEvmzG5/aSNWWF2+clkyZ8xk0/aCabAkiRNLgJ2XR14y0sLwnzBBQk/HyvKRAAl4GQG3jUiiwiG8qbCo5OvqtOiUMXUUHQ7LdLNkymz3VJgGC89lSJc+vMM8RgIkQAJOE+CqLafRMSEJkAAJkAAIuG1qi3hJgARIgAT8gwBHJP7RzqwlCZAACbiNAIXEbWiZMQmQAAn4BwEKiX+0M2tJAiRAAm4jQCFxG1pmTAIkQAL+QYBC4h/tzFqSAAmQgNsIUEjchpYZkwAJkIB/EKCQ+Ec7s5YkQAIk4DYCFBK3oWXGJEACJOAfBCgk/tHOrCUJkAAJuI0AhcRtaJkxCZAACfgHAQqJf7Qza0kCJEACbiNAIXEbWmZMAiRAAv5BgELiH+3MWpIACZCA2whQSNyGlhmTAAmQgH8QoJD4RzuzliRAAiTgNgIUErehZcYkQAIk4B8EKCT+0c6sJQmQAAm4jQCFxG1omTEJkAAJ+AcBCol/tDNrSQIkQAJuI0AhcRtaZkwCJEAC/kGAQuIf7cxakgAJkIDbCFBI3IaWGZMACZCAfxCgkPhHO7OWJEACJOA2AhQSt6FlxiRAAiTgHwQoJP7RzqwlCZAACbiNAIXEbWiZMQmQAAn4BwEKiX+0M2tJAiRAAm4jQCFxG1pmTAIkQAL+QYBC4h/tzFqSAAmQgNsIUEjchpYZkwAJkIB/EKCQ+Ec7s5YkQAIk4DYCgW7L2UbGJ06ckLVr16oj8NeqVUv9bERlUDQRCAkJkVixYoV7thcvXsizZ88kbty44cbjQRIgAf8kEK0jkunTpwsEBD+4NWvWyIABA0z7nt4Ejdq1lrR5cpp+6fLmktwlikqtZo1l1k/zTMXfvmuninPoyBFTmCd5nhqiMHriBKlUr47kKl5E2r75hly8fNluEXsN6CedenSze5wHSIAE/JtAtI1IIBr2HEYpuXLlsnfYo8Lz5sot7/XqrcqEu/l79+7JslUrpN/H/1NhHdu286jy2irMpOnT5McF82XCZ6MkZYrkMmz0KGnUtrVs+X2NxIsXz5Tk2fPnMvLz8fLLksVSo0pVUzg9JEACJGBOwCOExLxAnu5Pkzq1NG/YyKKYEI8KdWvJnJ/ni6cLyYVLl2TC1CkyasgwqVm1qqrHd5OnyCsVysrSlSukVdNmKuzYyRPS4/2+ctQYPWZMn96ivtwhARIgAXMC0Ta1Fd6IQ091mRfMm/yxY8eWAnnzyakzZ+wWe/7CX6VeqxZqKqloxfLyes/ucv7CBRV/w+Y/1PTYuQvnLdIvWr5MmrRvKxgZwO3YvUuavtpOTadVqFNLvvhqmsB+oV3Dtq1k1bq16jyla1SVdZs26kOm7d/btsqTJ0+kQe3aprDUqVJJyWLFZK1Z/EXLlkmcOHFl9a+LpUihwoYdxRSdHhIgARKwIBBtQmJxVqsdGN292T169Eg2/rlZcmbLbrMaM+fNkd4D+0uZkiVl0uix0rJJU9my9R+B7QGuZLHicvjYMTUiMM/gxwU/SYZ06SQwIEBgd2ncro0hKs/UaKKDMQqaOG2KDP7sU1OSfQcPysAhgyUgILbkzplT0qVNazqmPRA7GM1TJE+hg9Q2fdp0cu36dVNY59c6yIoFv0i+PHlMYfSQAAmQgC0C0Ta1VbNmTbtGdW8Skus3bsji35YrlrCRXLtxXZas+E3uP3ggXd7obIuxbN2+XVo2biJDB32ojjeoXUceP34sM+bMVvtJkySR2tWqKyHp+VYXFYZO/a+tW2XWV1+r/RHjxkqG9Blk2bwFplVW8QxB+GjEcOlmnDdzpkwqXqqUKWXp3PmCUZItd+/+PUlpJSKIlzxZMjliiJl2GKXQkQAJkIAjBKJNSDC1NWbMGLVSC4Z3PdUFgfEmd+T4Menybh9TkQOM0UK2LFlkytjxYWwnOtLU8RO0VyBEWM118fIlweop/OIEBiqhwcqos+fPSdbMWZSoJEuaTKpVqqymtrbt2K7sF3sPHDDllTFDBpV+1769JiEpW6qUXRFBwoCAQON42HmqWLFiy5OnT0x500MCJEACjhKINiHRBfL2Z0eCipeQbyd9qaqDDjl1qtRq6knXz9b26rVr8sm4MbJ24wa5cfOmwGCPkQMcRjVwNapWU6MCGLx7vd1VFq9YLo3r1VciA1sK7CTzfv1F/VQCsz/nzp837WUyxCU8lzZNGrl9526YKHfu3pHEiRKHCWcACZAACUREINqFJKICefpxTCdFdhVTx+5d5cLFizLo3b5SrnQZwRLiad9/J0NGhto34saJo4Rj+apVyoaybccO+d/7/RWOZMa0Exz2u3R6XfnN/wQaabXDiCM8ByF5+Oih+iVMkNAUFVNpWTNnNu3TQwIkQAKOEgi/13E0lwjiYVXWyZMn1Q9RzVdpYYorp2EY9iY7SQTVtTiMDnrnnt0yeuhw6dTuVdOxg0cOK/8LrMj6TwhaGHaU2fN/kvkLFwpGFmVKBqk4SRInNozu6WXFmt/lnW7dTXnsO3hAxk6eJB/166/EyXQgHE+5UqXVCGrdpk3SqG49FfOu8SzMvzt3yJBBH4STkodIgARIwDYBtwoJBAMPG5oLh3UxcAw/2E0gJhAVbT+xjuuN+zBa58iWTdZsXC9NGzRQS2p/XrxIFixaqKrzKPiRxI8fX/nLBpVSAvLFV1PljVc7mIzqOPhu9x4ycOhgGWFMkeHY7Tu3pe+HHxhp40menI4/zInRVL1ateWzz8dJ/rx5JY0xNffBsCGGnSerhdCpAvEPCZAACThAwPbSHgcSRhQFwqBfiRJRXH3cmTQ6radu8R6roQM/UK8gKVi2tOQLKi4r166Red9+r4q8Y/ceU9ERt3mjxmoFGFZ5mbtO7drLx/0HyHezZ0nxyhWkYZtWysCOp9MjeleWeT7wjxn2iSFYGQXPohQsE6TKNnnsOMH0Gh0JkAAJRJZArKCgoJDg4GDZt29fZNOGGx/v0HLWYUTStWtXZ5N7bLpLVy5LsqRJxdw2YV1YjDjW//GHrF/6comx9XE8gHjh0kXjGZF0Ue74b9+5I8+NqTVt+Lc+F/dJgARIwBECbp3acqQAtuKENxVmK763hMHOYc/hORSszsI7sD5473170dTS3iyZXGMUx7MjdCRAAiQQVQIeKSRRrZQ3pq/TvKng/VaVypWT9i1be2MVWGYSIAE/JeC2qS0/5el0tXcbU4t4k3AZ44FC2iqcxsiEJEACMUCAI5IYgG7rlMVeecVWMMNIgARIwOMJuG3VlsfXnAUkARIgARJwCQEKiUswMhMSIAES8F8CFBL/bXvWnARIgARcQoBC4hKMzIQESIAE/JcAhcR/2541JwESIAGXEKCQuAQjMyEBEiAB/yVAIfHftmfNSYAESMAlBCgkLsHITEiABEjAfwlQSPy37VlzEiABEnAJAQqJSzAyExIgARLwXwIUEv9te9acBEiABFxCgELiEozMhARIgAT8lwCFxH/bnjUnARIgAZcQoJC4BCMzIQESIAH/JUAh8d+2Z81JgARIwCUEKCQuwchMSIAESMB/CVBI/LftWXMSIAEScAkBColLMDITEiABEvBfAhQS/2171pwESIAEXEKAQuISjMyEBEiABPyXAIXEf9ueNScBEiABlxCgkLgEIzMhARIgAf8lQCHx37ZnzUmABEjAJQQoJC7ByExIgARIwH8JUEj8t+1ZcxIgARJwCQEKiUswMhMSIAES8F8CFBL/bXvWnARIgARcQoBC4hKMzIQESIAE/JcAhcR/2541JwESIAGXEKCQuAQjMyEBEiAB/yUQGJ1VP3HihKxdu1adEv5atWqpX3SWgeeyJBASEiKxYsWyDLTae/HihcSOzXsOKyzcJQES+I9AtPYO06dPFwgIfnBr1qyRAQMGmPb/K5PHbhq1ay1p8+Q0/dLlzSW5SxSVWs0ay6yf5pnKvX3XThXn0JEjpjBP8jx99kxGT5wglerVkVzFi0jbN9+Qi5cvWxTx7Plz8kbP7qp+WQrllyoN68lvq3+3iMMdEiABEgCBaBuRQDTsOYxScuXKZe+wR4XnzZVb3uvVW5UJd/P37t2TZatWSL+P/6fCOrZt51HltVWYSdOnyY8L5suEz0ZJyhTJZdjoUdKobWvZ8vsaiRcvngQHB0vbzm9IQECAjPjoY8maOYvMmjdXOvfqIQtmzJQqFSraypZhJEACfkrAI4TEm9inSZ1amjdsZFFkiEeFurVkzs/zxdOF5MKlSzJh6hQZNWSY1KxaVdXju8lT5JUKZWXpyhXSqmkz2bTlLzl+6qTM/eZ7U5xSJUrKX1u3KgGikFg0P3dIwO8JRNvUVngjDj3V5a2tAftBgbz55NSZM3arMH/hr1KvVQs1lVS0Ynl53Zg2On/hgoq/YfMfanrs3IXzFukXLV8mTdq3lWfPn6vwHbt3SdNX26nppgp1askXX00T2C+0a9i2laxat1adp3SNqrJu00Z9yLT9e9tWefLkiTSoXdsUljpVKilZrJis/S9+jmzZZOTgoVK1UiVTnDiBgZIhfTq5a4zA6EiABEjAnEC0CYn5Sa39MLp7s3v06JFs/HOz5MyW3WY1Zs6bI70H9pcyJUvKpNFjpWWTprJl6z/Sa0A/Fb9kseJy+NgxNSIwz+DHBT9JhnTpJNCYYoLdpXG7NoaoPFOjiQ7GKGjitCky+LNPTUn2HTwoA4cMNqakYkvunDklXdq0pmPaA7GLGzeupEieQgepbfq06eTa9evKj+m7Nzt0VOfVkU6cOiW79+2TIKOsdCRAAiRgTiDaprZq1qxp16juTUJy/cYNWfzbcsUQNpJrN67LkhW/yf0HD6TLG53N2Zr8W7dvl5aNm8jQQR+qsAa168jjx49lxpzZaj9pkiRSu1p1JSQ93+qiwtCpYypp1ldfq/0R48YaI4IMsmzeAtMqq3iGIHw0Yrh0M86bOVMmFS9VypSydO58u6us7t2/JymtRAQJkydLJkcMMbPlYJyHDShtmjTS1U4dbaVjGAmQgH8QiDYhwdTWmDFj1EotGN71VBcExpvckePHpMu7fUxFhkE6W5YsMmXs+DC2Ex1p6vgJ2vv/du4+1uq6jgP49yoqIclatvAh/3CDNRtbD5enJZq1HsjpHLaaOqP+yAuuTfBhSrXAbDWVuUJL3dS2aj6kgWuOWRY+/NVEVCBcD4t/UrBcDlyTBiv6fX91j+fg5fM5B4Jx9fXbDvf87uf9u/eel9t5+3s6pRZRvZpr28vbS32Dro962KgWzcLLF5V6tVQ9uV3PV0w5YUo5Z95Z7aGtpzc8056/2LRlS+dnnXzSSe32z23e1CmSOTNn7rdE6oZHHz2hmb/5ct+hoaPK7j27Oz979MnuPXva17u+2SO6/+4flVp6FgIECHQLHLYiGf2l4/3ekeEPfbjcteq29uXUN+QT331izyGg0dfZ/fVvr7xSblh5U/n1E4+Xv7/6aqkn7OueQ13qXk1dPvGxc9q9glogX/3KSHl47SPl/PmfbUumnkup50nu+/lD7aPdoOufv7z4YmftlKZcoqXuVezY+dqbIjtf21kmHz+55/v16q0vLh4pv31mffnx7XeWM+fM7ZlbIUCAQBU47EUy3tnr4aSTp04d6GXUN+OXtm0r1y1ZWubOml3qOYjb77m7LP/uG+c3jj3mmLY4Hnn00fYcytMbNpSvX3VN+3umNIed6lLXL1v4pfZ59z8Tmm1Hl7rHES21SF7f9Xr7mPSOSZ1oPZR22qmndtbrobdLF11Wntu0sb3kd87wzM7MEwIECHQLxO863cmDeF6vytq6dWv7qD+m+yqteojr9ObE8Hg6TzIIRX2Dfnbj8+XGFd8qCy+6pLPpC3/4ffv83/WKrP8VwYXN4a2fPHB/eWD16lL3LGZ/ZLjNvHPy5Oak+9Sy9rFflisWLe78jM0vbCk337qqfOPqa9py6gyCJ3Nnzmr3oH7z5JPlvM/Mb5P1Sqz1z24oy69b1tly5MolZePvNpc1P723zDjjA53ve0KAAIF9BQ5pkdTCqDcbdhfHvn9AndVHPW9Sy6SWyuj5k32z43G9XlpbL6d97Il15YJzz20649jy4MNrys/WrG5fzq5/7ioTJ05sn9f/668F8v07fli+fMmlnZPqdbhk8eXl2hXfLN9uDpHV2Y6dO8rSry1rtj2uTDu9/5s5697U/E9+qnznlpXl/dOnl/c0h+aWXb+8Oc9zWqfofvX4urK2uYv9CwsuLH9s/tvUx+jyrmbv6ONnnT266isBAgQO3aGtWgzR3exj2Y/mR0ZG3jJlUj/HasW1y8qNq75XzpgzqxzVrH+0Oddw3133tB9NsuH5jZ2b/mp2wXnnl1V33tGefO82WnjRxc2VYf8ot/zgtnZ+/KRJ5ewz5zWHu67uKZzubfb3/KbrbygjS68o9V6Uemlxvdnw1ptXlnp4rS73PvRg+7Xe+1If3UvdO1Ek3SKeEyAwNDw8vLeeVN3c3CPw/1zqZ2gd6FL3SGqZvNWW7X99ubkS64TSfW5i39dY9zjWPfVUWfeL/15ivO+83oD40vZtzT0i7+288e+b6Xd9x86d5V/NobXRE//9bidHgACBboFDemir+xcN8jw6FDbIzznSsvU8x/6Weh9KvTqrfgbWsiuv2l+svbT3fae8cVJ8v8E+BvXeEQsBAgQOVuCILJKDfVHjcftPL7ig/Gnrn8u8uXPLxZ/7/Hh8Cf5mAgTepgKH7NDW29TzgF92/fiR+knCs5sbCkfPVRzwD7MhAQIEDqOAPZLDiB39qg/OmBGNzQgQIHDEChwRH9p4xOr4wwgQIEAgFVAkKZEAAQIECEQCiiTSMSNAgACBVECRpEQCBAgQIBAJKJJIx4wAAQIEUgFFkhIJECBAgEAkoEgiHTMCBAgQSAUUSUokQIAAAQKRgCKJdMwIECBAIBVQJCmRAAECBAhEAook0jEjQIAAgVRAkaREAgQIECAQCSiSSMeMAAECBFIBRZISCRAgQIBAJKBIIh0zAgQIEEgFFElKJECAAAECkYAiiXTMCBAgQCAVUCQpkQABAgQIRAKKJNIxI0CAAIFUQJGkRAIECBAgEAkokkjHjAABAgRSAUWSEgkQIECAQCSgSCIdMwIECBBIBRRJSiRAgAABApGAIol0zAgQIEAgFVAkKZEAAQIECEQCiiTSMSNAgACBVECRpEQCBAgQIBAJKJJIx4wAAQIEUgFFkhIJECBAgEAkoEgiHTMCBAgQSAUUSUokQIAAAQKRgCKJdMwIECBAIBVQJCmRAAECBAhEAook0jEjQIAAgVRAkaREAgQIECAQCSiSSMeMAAECBFIBRZISCRAgQIBAJKBIIh0zAgQIEEgFFElKJECAAAECkYAiiXTMCBAgQCAVUCQpkQABAgQIRAKKJNIxI0CAAIFUQJGkRAIECBAgEAkokkjHjAABAgRSAUWSEgkQIECAQCSgSCIdMwIECBBIBRRJSiRAgAABApGAIol0zAgQIEAgFVAkKZEAAQIECEQCiiTSMSNAgACBVECRpEQCBAgQIBAJKJJIx4wAAQIEUgFFkhIJECBAgEAkoEgiHTMCBAgQSAUUSUokQIAAAQKRgCKJdMwIECBAIBVQJCmRAAECBAhEAook0jEjQIAAgVRAkaREAgQIECAQCSiSSMeMAAECBFIBRZISCRAgQIBAJKBIIh0zAgQIEEgFFElKJECAAAECkYAiiXTMCBAgQCAVUCQpkQABAgQIRAKKJNIxI0CAAIFUQJGkRAIECBAgEAkokkjHjAABAgRSAUWSEgkQIECAQCSgSCIdMwIECBBIBRRJSiRAgAABApGAIol0zAgQIEAgFVAkKZEAAQIECEQCiiTSMSNAgACBVECRpEQCBAgQIBAJKJJIx4wAAQIEUgFFkhIJECBAgEAkoEgiHTMCBAgQSAUUSUokQIAAAQKRgCKJdMwIECBAIBVQJCmRAAECBAhEAook0jEjQIAAgVRAkaREAgQIECAQCSiSSMeMAAECBFIBRZISCRAgQIBAJKBIIh0zAgQIEEgFFElKJECAAAECkYAiiXTMCBAgQCAVUCQpkQABAgQIRAKKJNIxI0CAAIFUQJGkRAIECBAgEAkokkjHjAABAgRSAUWSEgkQIECAQCSgSCIdMwIECBBIBRRJSiRAgAABApGAIol0zAgQIEAgFVAkKZEAAQIECEQCiiTSMSNAgACBVECRpEQCBAgQIBAJKJJIx4wAAQIEUgFFkhIJECBAgEAkoEgiHTMCBAgQSAUUSUokQIAAAQKRgCKJdMwIECBAIBVQJCmRAAECBAhEAook0jEjQIAAgVRAkaREAgQIECAQCSiSSMeMAAECBFIBRZISCRAgQIBAJKBIIh0zAgQIEEgFFElKJECAAAECkYAiiXTMCBAgQCAVUCQpkQABAgQIRAKKJNIxI0CAAIFUQJGkRAIECBAgEAkokkjHjAABAgRSAUWSEgkQIECAQCSgSCIdMwIECBBIBRRJSiRAgAABApGAIol0zAgQIEAgFVAkKZEAAQIECEQCiiTSMSNAgACBVECRpEQCBAgQIBAJKJJIx4wAAQIEUgFFkhIJECBAgEAkoEgiHTMCBAgQSAUUSUokQIAAAQKRgCKJdMwIECBAIBVQJCmRAAECBAhEAook0jEjQIAAgVRAkaREAgQIECAQCSiSSMeMAAECBFIBRZISCRAgQIBAJKBIIh0zAgQIEEgFFElKJECAAAECkYAiiXTMCBAgQCAVUCQpkQABAgQIRAKKJNIxI0CAAIFUQJGkRAIECBAgEAkokkjHjAABAgRSAUWSEgkQIECAQCSgSCIdMwIECBBIBRRJSiRAgAABApGAIol0zAgQIEAgFVAkKZEAAQIECEQCiiTSMSNAgACBVECRpEQCBAgQIBAJKJJIx4wAAQIEUgFFkhIJECBAgEAkoEgiHTMCBAgQSAUUSUokQIAAAQKRgCKJdMwIECBAIBVQJCmRAAECBAhEAook0jEjQIAAgVRAkaREAgQIECAQCSiSSMeMAAECBFIBRZISCRAgQIBAJKBIIh0zAgQIEEgFFElKJECAAAECkYAiiXTMCBAgQCAVUCQpkQABAgQIRAKKJNIxI0CAAIFUoC2SvXvTnAABAgQIEBhTwB7JmCy+SYAAAQL9CiiSfqXkCBAgQGBMAUUyJotvEiBAgEC/AoqkXyk5AgQIEBhTQJGMyeKbBAgQINCvgCLpV0qOAAECBMYUUCRjsvgmAQIECPQr0BbJ0NBQv3k5AgQIECDQI2CPpIfDCgECBAgMKqBIBhWTJ0CAAIEeAUXSw2GFAAECBAYVUCSDiskTIECAQI+AIunhsEKAAAECgwookkHF5AkQIECgR0CR9HBYIUCAAIFBBRTJoGLyBAgQINAjoEh6OKwQIECAwKACimRQMXkCBAgQ6BFQJD0cVggQIEBgUAFFMqiYPAECBAj0CCiSHg4rBAgQIDCogCIZVEyeAAECBHoEFEkPhxUCBAgQGFRAkQwqJk+AAAECPQKKpIfDCgECBAgMKqBIBhWTJ0CAAIEeAUXSw2GFAAECBAYVmDC6wbRp00ef+kqAAAECBPoWaPdIJk48ru8NBAkQIECAQLfAfwAcOOLHdHUhNgAAAABJRU5ErkJggg==;fontSize=14;" vertex="1" parent="1">
          <mxGeometry x="763" y="-47.5" width="69" height="114.2" as="geometry" />
        </mxCell>
        <mxCell id="kWP5bIo4fPao6hV6OUjQ-3" value="" style="endArrow=classic;html=1;rounded=0;hachureGap=4;fontFamily=ES Klarheit Kurrent RD;fontSize=14;" edge="1" parent="1" source="clFiod78sZzIFJFchtkz-25" target="kWP5bIo4fPao6hV6OUjQ-4">
          <mxGeometry width="50" height="50" relative="1" as="geometry">
            <mxPoint x="750" y="165" as="sourcePoint" />
            <mxPoint x="1044.7297297297296" y="60" as="targetPoint" />
          </mxGeometry>
        </mxCell>
        <mxCell id="kWP5bIo4fPao6hV6OUjQ-4" value="" style="verticalLabelPosition=bottom;verticalAlign=top;html=1;shadow=0;dashed=0;strokeWidth=1;shape=mxgraph.android.phone2;strokeColor=#000000;hachureGap=4;fontFamily=ES Klarheit Kurrent RD;fontSize=14;" vertex="1" parent="1">
          <mxGeometry x="1027.5" y="-60.4" width="75" height="140" as="geometry" />
        </mxCell>
        <mxCell id="kWP5bIo4fPao6hV6OUjQ-5" value="" style="shape=image;verticalLabelPosition=bottom;labelBackgroundColor=default;verticalAlign=top;aspect=fixed;imageAspect=0;image=data:image/png,iVBORw0KGgoAAAANSUhEUgAAAZIAAAKZCAYAAACSra2kAAABWGlDQ1BJQ0MgUHJvZmlsZQAAKJF10D1LQnEUx/GvD2WpQ/SwNUhTgYVZEo7mIEGEadHDdr2aBj5crkZEvYSIWnoFEQ0NQYMNCc3RFhRFL6DmwMXkdq5WatEfDufDj8OfwwFrj6JpWTuQy5f0WGTWs7q27nG80osVF924FbWohaLReRnhu3e+6gMWs9+Pm39lwrXgdT7wNvK0cFSxXTr/znc8ZzJVVKV/SPlUTS+BxSuObpc003viQV2WEh+aTjd9YjrR9FVjZikWFt+J+9SMkhS/iL2Jtjzd5lx2S/3awdzencovx81/pIaJEsHPDItMEiAmDv0zP92YD1NAYwedTdJkKOEhJIlGlpR4jjwqE3jFfnxS0+adf9+vle3uQ/AMrP2tLC67XxzAwHkrG3XA0C1UCpqiKz9XtVTtxY0pf9OuMnQdG8b7CjjGoP5oGLWyYdRPwfYMN9VPcyBiLSwS50AAAAA4ZVhJZk1NACoAAAAIAAGHaQAEAAAAAQAAABoAAAAAAAKgAgAEAAAAAQAAAZKgAwAEAAAAAQAAApkAAAAAZ0HN7gAAQABJREFUeAHsnQd8FEUbxl9I6L333ovU0HvvvaOAotJBUZp+ShOlC4KA2BAQEFS6gHREUZDee++9E2q+fQbncne5Sy6Xu+TKM7/fZWdnZ2Zn/rOZZ2fe2d1YQUFBIcHBj8X1LsT1WTJHEiABEiABFxCI5YI8QrMI1N4rwfe1l1sSIAESIAEScJhAbIdjMiIJkAAJkAAJ2CBAIbEBhUEkQAIkQAKOE6CQOM6KMUmABEiABGwQoJDYgMIgEiABEiABxwlQSBxnxZgkQAIkQAI2CFBIbEBhEAmQAAmQgOMEKCSOs2JMEiABEiABGwQoJDagMIgESIAESMBxAhQSx1kxJgmQAAmQgA0CFBIbUBhEAiRAAiTgOAEKieOsGJMESIAESMAGAQqJDSgMIgESIAEScJwAhcRxVoxJAiRAAiRggwCFxAYUBpEACZAACThOgELiOCvGJAESIAESsEGAQmIDCoNIgARIgAQcJ0AhcZwVY5IACZAACdggQCGxAYVBJEACJEACjhMwfWrX8SSMSQIkQAIk4A4Cr5TJLu37VJZXSmcPN/uGeYaHezy6D/4nJCFuOW/OAuklXZbkcunsLTl9+IpbzuGKTHMXziBpMiaTg9vPyp2bD21mmTpDUilZKZekyZRcXjx/IVfP35btm47L7RsPbMZ3JNAdeerz5i2SSVKlTyL/bjgmz54+18HckgAJeDABR0TEE4vv1hHJgC9aSOYcqeT8yevSrc5UT6y/KlPjTmWketMi8r+Os2XP36csypk4WXzpObyhVKhTQGIHxLI4hg565bwd8vWIVRISCS12R54WBTN2WrxdTirULSivlhlnVxyt03CfBEggZgnokYinjTgiouI2ISlQIosSkWP7LkqeVzIKhmz7tp6OqDwedTxFmsQydv4bkj5LCjm8+7wsmfGPnDx0RRImiWeMTnJLxXoFpVHH0hIrViz5avhKh8rujjxtnfj4gcsSN34cjkZswWEYCZCASwm4TUhqtyouIS9C5MuPlsvExV2kfvsgrxOS3p82VCKydOZW+XbkamNKK3TYcWzvRVn8/d8y+qc3pGGHUnL31kOZO3lThI3jjjxtnfTnr/60FcwwEiABHyTQvk8VVau5kyLug9xRfbcISfyEcaVS/YJyfP8lOXHwshzacVbK1c4vuBu/de2+qR5JkiWQ0jXyKpvDxmX7lfDog5mMKbH8xTPLtYt3ZO8/p3WwJE+VSMrUzCdZcqaWO0bnjXPs+vOE6Tg8mDoqUyOfHN51Xp2vhGHbyFMko9y+/kB2/XXSIXsNbAylq+WVS2duyvej11qIiD5Z8KOnMuztefLF4rcNA1kV2bBkr7IH6ePW26jmWa3JK3LvTrBs33jMImvYd4qUzS5H91yQcyeuq2OFS2eTdJmTy+bfDsiTx8+kWPmcymZikdBsB+2yc7MlR7PD9JIACXgoAWWg7/1SSFDEmBATtwgJpnwgJn+uPKjQb1i6TwoGZRWMUuZP3Wxqjnt3HqnpoVJV80gyQyAWf/+POhYvQRwZPL2tYahPIQPazDDFr9r4Fek+tL4kMqaWYBTHNjBOgBKSzwcsMYlU6gzJpO/oJvLTlD+kvGHbyJo7jTx79kICA2PLc8NQPm3oCln1005TvrY8VRoVVsELv/s73Omhm1fvyTbDoF2ndXGp1KCQLJhmfyQQ1Tz7fNZYTh2+HEZIsFgA9f16xO8mIWlkjJJgI4HoQEiavVlWSlbObauqKgy2IQqJXTw8QAIeSwAmA8yGtDfEBD+46BYTtzxHUrtlMXUHv964Q4f747+74jqtS0is2JYG6y8GLVUrnzr2rS4ZsqVU8bv8r45gRDJr/Do5uveCCoMYvDOysZpCerfZN8qI3LLoKAWweMVcgikja9emR2U5e+ya9Gv9vbQo/JmM6D5fjXpe71dTIFbhuZwF0qnD+g4/vLgnDlxSh3PkTx9eNHFHnuGe0OzgZ71+llbFRln8OlWcIJfP3RKMrDDqoiMBEvBOAhAOPbWuBOW/qa7oqo3LRyRYpYXRB+6E9TTWg7vB8s+aI1K5YSEpVSWPcQd/1FQ/LJ+d9OEyNQLp9UkDWTZrm9RpU0J2/HFcFhmjAe069asuceIGyMSBS9R0FsKxagoAcxfKIKWr5xVM5+zfdkYnUdNi495fZBpR/LP2iOCHERNEK7wlySnTJlH5XDaWLkfkThrTd3Cp0iYON6o78gz3hGYHHxtiYe7ixg+UD6e0lnTGcuZPey4QLYbmcegnARLwDALLjw2OVEGie2Ti8hFJTWM0Ard24R6Liq9duFvt129f0iIcO9vWH5WVP+2QouVyyICJLZQATTCmqsyX1OJu//qlu3LAeNbD2sE2AYfVYebu+IGLJhHR4Vcu3FbehInj6SCb26dPXj57ET+CkQsSo1OGu3v7kdra++OOPO2dK7xwjAr7j28u+Ypmku9Gr1HiGl58HiMBEiCB8Ai4dEQSEBBbqjcrqs73tjE99eagWqZz6yktzNPjLlh36DrCdyPXSDXDBgLbygxjxZH5g37oqGFQhtHelrt64Y4Kzvjf1JiOc+ta2IcFnxr2ArjYxpLd8Nz1y3cle760auRy/tSN8KJKZsPwD3fm6NVw47kjz3BPaOfgWx/UVosf8AyMtkvZicpgEiABDyDgyHMlWPBjGokYNpPotJO4dEQCkUhprMyCXeLQznNyxFhFpH9YQYVnSiAodduWCNM0MFZDRDAKaf5mOWVI15EwhfX82XOJZxy35RIkejm6gFHZ3GH5sbNOP5iI6bKIXP5imVUU1Ds854o8Y0lYAUyQyDYXW2VpbDz30uT1MmqBwlfDHHv2xVY+DCMBEvAcAjEpIqDgUiGp3erltNY0o4Ma1eeXML8xfRcq8rWM1VtYbaVdtrxp5fX+NZUAffnRMjX6wOos7fD8BozCGbKmUHYSHa63WXO/HBFc/W/aSodHZbvJWI78JPiZeuAQoyFzh7Lhafi48QKlYMksgmW5mHb712pZrnka+KOaJ4QyjnFOa5ch68tFCtbh1vtla+UXjBQheCN7/6JWsFnH4T4JkIB3ETBf/guDe3SORDQplwkJnu8IMp67wHMf+7ed1vlbbPFMBozhiFu+Tn51DAb0/uObCabFJhiG9N8X7FIdMpb6wjiv3d+GsR52jYYdSusgtcXqqyZvlFWrsbauCzXiW0RyYgfLej/r/bPxWpTYaiGAnr5CVihr54E15dv1vaX/583VKGuy8eDlw/uPwz1TVPPEQ4+YvsM7urTDaKS88YwOXHizdXiGBZxvGYsbhr49N8Ky6vy5JQES8GwCevlvTIkI6IS9vXWSWTXjXVV4TmOj8cyIuZHcOrvVP+9Sq6vwpPsfyw9Ix/eqS/b86QRPYmPqCw5Pw09d2UN6DmsgB3ecU3f7eP4ENpTOA2tJGqMjxQsTk6VMaLxTqoKkNUYMEwYtUaMW6/NFZR8rzyYOWCzvG4ZpPHSIRQF4wPLapTuqrHgNDNwV4wWOpxx8KWVU8sRzOa26VlDCBvtGnLiBUqOZwd1sdGervhCbwV+3VUuekUe1JkVsjmwWTNusRmG28mAYCZCA5xKIiVGIOQ2XCUmt/1ZrbViyzzz/MP6/fj8k3YbUk8KlskmtFsWkaedyaqpFr4FGghtX7sm3n/2unht5b0xT42WKsyT44RN5p+nX0mNYfWnwWik1tQQbCDr28f0XKwELczIXBOCJ+4cPnkjLLhXUA4d46BAOYomn5DHCamSMkr5Z20sWG+/i+vGLjRZP6NsqgrN5zvtykyRNkVBqtihqvEiygXrIcuvaw8b68T9kym/d7Ao4RnIYBcLVaP5yMYStcuGVL5jOoyMBEiCByBCIFRQUFBIcHCxXgsOucIpMRtEZF3fgeGARq6DwjEp0uURJ46sVZ3g6HvaYR4bAwOGOv02PSmo57QevzYpUcZzJE7aZjNlTykVjqpAdf6RwMzIJeDSBkXM6RvgtElTAkVVc0VlRrxSS6AQUmXPhNfPmL3aMTFp7cd2Rp71zMZwESCBmCXjrh60oJDF73fDsJEACJOD1BFy2asvrSbACJEACJEACThGgkDiFjYlIgARIgAQ0AQqJJsEtCZAACZCAUwQoJE5hYyISIAESIAFNgEKiSXBLAiRAAiTgFAEKiVPYmIgESIAESEAToJBoEtySAAmQAAk4RYBC4hQ2JiIBEiABEtAEKCSaBLckQAIkQAJOEaCQOIWNiUiABEiABDQBCokmwS0JkAAJkIBTBCgkTmFjIhIgARIgAU2AQqJJcEsCJEACJOAUAQqJU9iYiARIgARIQBOgkGgS3JIACZAACThFgELiFDYmIgESIAES0AQoJJoEtyRAAiRAAk4RoJA4hY2JSIAESIAENIFA7dm8fKU8fPhQ/Z48eSLPnz+XFy9eSEhIiPrpeNgijI4ESIAESMB3CcSKFcuictjHL3bs2BIQECBx48aVhAkTqp9JSOLFi6eEAxHjxImjhAS5QEzgKB4KA/+QAAmQgN8R0KICEYHTQgLdwM9CSBA5MDBQHcCIxHo0QjHxu+uHFSYBEvBzAlpEgAF+/CAk0AqMSvAzCQl2dASMQuxNa5kzpbCY06CfBEiABLyfgLlwWNdGCwlGJvhBTDCDZRIS7OCA+bSW9YjEOlPukwAJkAAJ+A8BLSSoMUYl0Aw1OtEIICAIgHjYG41wBKJpcUsCJEAC/kHAeoSixQQiAr8amWgUGKJoAUEYRyOaDLckQAIkQAKagBYS7IcREgRgRAKnRx56qwL5hwRIgARIwO8JQCvg9BZ+k40EwxPtKCCaBLckQAIkQAK2CNgUEvNAcz8yoLDYwsgwEiABEvAfAta6YF5z04gEkewJRngZmGdGPwmQAAmQgH8RgD6YhARVd0Qw7ImNf6FjbUmABEjA9wk4ogmgYCEkjmBxNGNH8mIcEiABEiAB7ycQamH3/rqwBiRAAiRAAjFAgEISA9B5ShIgARLwJQIUEl9qTdaFBEiABGKAAIUkBqDzlCRAAiTgSwQoJL7UmqwLCZAACcQAAQpJDEDnKUmABEjAlwhQSHypNVkXEiABEogBAhSSGIDOU5IACZCALxGgkPhSa7IuJEACJBADBCgkMQCdpyQBEiABXyJAIfGl1mRdSIAESCAGCFBIYgA6T0kCJEACvkSAQuJLrcm6kAAJkEAMEKCQxAB0npIESIAEfIlApF8j70uVj2xdHj56KLWaNgnzAbCypUrJ55+OjGx2jE8CJEACPkGAQhKJZjx05IgcO3lCerz5liRKmMiUMke2bCY/PSRAAiTgbwQoJJFo8QOHDxsCklCGDPzAoa9JRiJrRiUBEiABryVAG0kkmu7gkcNSqEABJSL85HAkwDEqCZCATxOgkESieQ8aI5I4gXHknUEDJE/JYlKiSkWZ+u03YWwmkciSUUmABEjA6wlQSCLRhBiR7Ny7RzKkSy+DBwyStKnTyNDRI2XitKmRyIVRSYAESMC3CMQKCgoKCQ4Oln379vlWzVxcm2fPn8svSxZJ7hw5Jah4CVPuTdq3lV379sqx7bskXrx4pnB6SIAESMBfCHBE4mBLBwYESNvmLS1EBEkb16svEOLjp046mBOjkQAJkIBvEaCQONiejx49kgOHDwmeJTF3iRO9XAYcOxZRmnOhnwRIwH8IRHvvN2DAAMHP2tkLt44XU/unzpyRao0ayHezZ1kU4bfVvwvEJGf27Bbh3CEBEiABfyEQrc+RrFmzRnGtVauWBV974RaRYninQL58UrxIEflm5kwpXKCgFClUWGb+NFfWb/5D3u3eg/aRGG4fnp4ESCDmCESrkMRcNaN+5lixYsn3X06Tdz8YKG06v64yxMOJ7/XsJX2794z6CZgDCZAACXgpgWgVEnsjD3vhnsY0U4YM8vMPs+TO3bty89YtyZYli8SOHe2zg56GheUhARLwcwJuXf5ryxYSGd5jxoyJTHTGJQESIAESiAECbrud1qMMZ+tkbUdxNh+mIwESIAEScC8Bt45IzIsOYcEPAmEuEvbCzdPSTwIkQAIk4LkE3DYisa6yHqGYiwji2Au3Ts99EiABEiABzyQQbULimdVnqUiABEiABKJKIFqExN6ow154VCvF9CRAAiRAAtFHwC02EgiEFglnqmJtR3EmD6YhARIgARKIHgJuGZFERURQbWs7SvSg4FlIgARIgAScIeCWEYl1QfTzJNbPhdgLt07PfRIgARIgAc8l4JYRiXl19ejEepRhL9w8Lf0kQAIkQAKeT8DtQuL5CDyzhC9evIjxT/iiDFeuXJGHDy1fne9JxDyBkyfxYFlIICYIuF1I7I087IXHBARPPOfw4cPlzz//jLGiQUD69esnw4YNk9WrV8dYOaxPfPXqVdmyZYsp+NNPP5XNmzeb9ukhARKIfgJuf2mjtV1EV9FeuD7ObcwS+PfffyVlypQycOBAiRMnTswWxuzsELXnxmePy5cvr0KbN28uadOmNYtBLwmQQHQTcLuQRHeF3HU+TO+MGzdO2rVrJz///LPgzjhv3rzSsWNHSZw4sezfv1/Wr18vffr0MRXhp59+kjRp0kiNGjVk5cqVqkPGnf6uXbskVapU0qlTJzl37pwsX75cfc+kbt26EhQUZEp/48YNdc7z589L7ty5pUOHDpIsWTJ1HOWZP3++HDhwQOLGjSvlypWThg0bCl53j7Bt27apcmHbunVrKVWqlClfeJ4+fSrLli1T8Z48eSIFCxaUtm3bqjRLly6VP/74Q8UZOXKk9O3bV5IkSWKR/pbx9uMFCxbIkSNHJGvWrFK2bFk5ePCgdO7cOUIWyGj37t3q/NevX5csxluU27dvLxkzZlTnOHHihKrbpUuXJHXq1IpfxYoVZdOmTbJz50415Xfv3j3p1auXGrWVLFlScQ6vThG1H6bIUJ/t27er/MEbZdK8LSrPHRIgAQsCbp/asjibF++EhITIhQsXZM6cOVKpUiV566235Izx1UR0unDoqC5fvmxRQwjBXeOV83B37tyRJUuWqNfOv/nmmxJgfAN+0qRJqnNs1aqVFC5cWCA8OI92mP7LmTOndO3aVdBxTp48WR+SadOmqfO9/vrrAgHCNNhvv/2mjuOzwOioT506JVWrVpV06dKZ0mkPyvLPP/+otBA0dNooD84PUYKwoIN/7bXXJEGCBDqZ2mJE8PXXXwvO88477yiRmjt3rly7dk0dj4jF0aNHVfpixYop4UVnPXbsWMUQ5//qq68kn/EhsUGDBkmVKlVk9uzZAjEtYnxYDB08mDRp0kSdC4KO88GFV6eI2g/89u7dK2ibnj17Kt6oEx0JkEDEBDgiiZiRRYwGDRqY7u5xl4y7f0cdOkzc9WPUAGGZMWOGuoPHyAYdN0Yt6DDRgcOhM8XUDVymTJlUx3ry5Em1j874o48+MsXFqGTevHmC8sEFBwcrscP0lLV7/PixrFu3Ttq0aaOEBscRb8SIEXLo0CFVluTJk6s80Glbu9OnT6tyYnoSIpMtWzZlt4DAOOJWrVqlhLNRo0Yqeq5cueR///ufEkMIB0Qzf/78qs6od4oUKdRICWVKmjSpmtrSjPT5IqoTyghnr/0ggmCQJ08eCQwMFAg0bgToSIAEIiZAIYmYkUWMDMbHrbRDp4ZpIUcdRgYQETh0ivgoFjpROHResEU8ePBA7eNPgQIFTH6cCx0dRg64u0b8DRs2mI5jdADxwJQTXPz48VV8UwQzD+7iMZVjnn/mzJlVJ438IWrhOYzMMGVnPlKBGEKEHHFIj7rMmjXLIjrOHS9ePCldurQafWXPnl1N9WG6D7zCcxHVSQuJvfbDOTGdh2ebihYtqs5rzie8c/MYCfg7AQpJJK8Ac8OzFgWdBTp4c2d9h27e8SIeprfws+es7RKwAUAAcPeNEQg6Y3OHu3edn/W5zOMhPVyiRIlMwagL7vwdcUiPspg767ThsYDgYXRmXn5Mp+kpOIwGMO21Y8cONXWI6cPevXur0YL5Oc39jtbJXvthhDN48GA1soINCyvDMJWGaS46EiCB8AlQSMLn4/BRjBB0Z6YT3bx50zT1pMMis7148aIpOu64b9++rYzPGAXBLoDOF0Z7OBzDdJe5OJgSW3lgwIY7fPiwybj/7NkzZeOAGEXksEpKl0ePFI4dO2ZKFhELPZrB4gDtYJ+AsGBEtmfPHmW8L1GihGI6ceJE1bFj2smei2qdUH6UG9Nt+MGoP336dDW9pRnbOzfDScDfCdDY7qIrAJ0NOkGs3sLdOAzZML5b35lH5nRYQYSpKkxbwa6ADhx2E0y5oAPHqivYEyAsMAwjPjrDiBzSYvpq48aNShBQbqxEQ1qswIrIFSpUSHX6sOlgdIFVVlixpV1ELCCAuOvHVBj4QABhYMcIDiMtGM0xzYRjGIGhfnr0ghEFBFob2PU5o1onrJ6bOXOm4ok8US+cC1OKdCRAAuETiLjXCT89j/5HAHPwMBR/+eWXqgOC7QNLYq2nvyIDDB32J598IhgtYCqoS5cuyq6CzrZ79+7yww8/KAM89mEUf/XVVx3OHsuWkX7IkCGqvBCp9957TxImTBhhHhCcbt26yTfffCN///23EiDUF6IGFxELrCSDGIAVyo7l0y1atFDpkB4LErAkGlNaGOVhRVvNmjVxSE03/fXXX6reX3zxhQrTf8Krk7ntScc331auXFmOHz+ueCAc9iuszDOfCjOPTz8JkEAogWh5aWPo6Xzfh44PHb8jU0yO0MAdOZYQ6ykk6zTovGGgRofsjMOdN0YCzpYXU2q4a8czNLBp4AFG7SJigfOi/Pbqdv/+fVU3684cTGCjQb1tuajUKSLets7HMBLwdwIckbj4CkDnZq+Dc+ZUuDO219EiP2uDfGTPgdVdUXHhlS0iFlgYEF56jFRsOTAJj3FU6hQRb1vlYRgJ+DsB2kj8/QpwUf0x9Wa+tNZF2TIbEiABLyDAqS0vaCQWkQRIgAQ8mQBHJJ7cOiwbCZAACXgBAQqJFzQSi0gCJEACnkyAQuLJrcOykQAJkIAXEKCQeEEjsYgkQAIk4MkEKCSe3DosGwmQAAl4AQEKiRc0EotIAiRAAp5MgELiya3DspEACZCAFxCgkHhBI7GIJEACJODJBCgkntw6LBsJkAAJeAEBCokXNBKLSAIkQAKeTIBC4smtw7KRAAmQgBcQoJB4QSOxiCRAAiTgyQQoJJ7cOiwbCZAACXgBAQqJFzQSi0gCJEACnkyAQuLJrcOykQAJkIAXEKCQeEEjsYgkQAIk4MkEKCSe3DosGwmQAAl4AQEKiRc0EotIAiRAAp5MgELiya3DspEACZCAFxCgkHhBI7GIJEACJODJBCgkntw6LBsJkAAJeAEBCokXNBKLSAIkQAKeTIBC4smtw7KRAAmQgBcQoJB4QSOxiCRAAiTgyQQoJJ7cOiwbCZAACXgBAQqJFzQSi0gCJEACnkyAQuLJrcOykQAJkIAXEKCQeEEjsYgkQAIk4MkEKCSe3DosGwmQAAl4AQEKiRc0EotIAiRAAp5MgELiya3DspEACZCAFxCgkHhBI7GIJEACJODJBCgkntw6LBsJkAAJeAEBCkkUGunx48dy/sIFefb8eRRyYVISIAES8G4CFBIn2m/a999Jo3atJVeJolKiaiXJ/kpB6fvhILlz964TucVckpVrVsupM2dirgA8MwmQgE8QoJBEshlHjBsjn30+Tgrmyy8zpkyT339dLO906yHLVq2Ujz79JJK5xVz0Q0eOSKce3eTWndsxVwiemQRIwCcIBPpELaKpErN+mieTpn8ln308RN7q2Ml01uJFikjqVKlk4NDB0qxBQ6leuYrpmKd6XoS8UEWLJbE8tYgsFwmQgJcQ4IgkEg21wpgKKlG0mLzZoWOYVJ3atZfhH34kadOkMR07fuqkdOj6tuQrVVKKVSovfQYOkNt37piO/7J0iXTr+45s+utPqd+6pYr3Vp9e8uDhQ/l9/Tqp1ayxlKhSUUZPnKDCkBB5InzH7l3S9NV2kjeouBpZbN2+3ZTvwcOHVRzraavWb3QSiOHho0el67vvqPi9+r8vYyd/YUo795efpUaTRpKjaGGp06KpKofpoOFp2LaVrFq3Vuq1aiGla1SVdZs2mh+mnwRIwA8JUEgi0ei79+2VoGLFJVassHfxsWPHlm5vdJbCBQqqHG/cvCkNWrWUy1evyKghQ2XAO31l899/SX2jA37y9KmKc/3GDVm/+Q95Z9AAqVezpnRs21Z13O3efEM+GDZE6tSoKe1atJIJ06bIyrVrVJpHjx7Jnv37pf1bb0qFsmXV9FqcwEDp2K2LXLh0ScV5+OihihMcHKz29Z+DRw7LlWtXJU3q1NK0YUMV3KR+A6lcroLyT/3uW3n/ow8lV44c8uXY8UZdS6h8V6z+XWch+w4elIFDBktAQGzJnTOnpEub1nSMHhIgAf8kwKktB9sdq7Nu3rqlOllHkoz+YoIYiiOLfpwniRMlUklKlSghlerVkVnz5pqmxjBCmfDZKGlQu46KA9vF6g3rZfb0b6RO9RoqbMee3bLWCGvZuInp1M0bN5b+vV+OKsqVKi3l69RUI5dJo8eY4tjzpEqZ0hCuWjLmi4lSq1p1wdTc3Xv35PMpk6Vlk6YyefRYlRRlgvAMHzta6v9XPhxA+qVz5wvEk44ESIAE2BM4eA3Ejx9fxcTdviNu1949apShRQRp8uTMZXTaRWXbzh0WWUAItCuQL5/EjRtXKpUrp4MkvXHXf/LMadM+POaigg69rjF62XfwgEWcyOzsP3RQiUnxV4qo0QxGPfjly51HTp4+rURU51e2VCmKiIbBLQmQgHjkiGTNmpfTOLVq1fKYJoIxHfaPYydO2C0TprNwtw539tx5qVmlWpi4GdOnl0tXLpvC48aJIylTpDDtB8QOkNRGHgkTJDSFBRpTV9YuQ/oMFkGYrrIWG4sIEeycO39exRhkTKnZcmeN47qcmTJYnttWfIaRAAn4D4GwPVQM1/2E0VF7opAAS6H8BdRdekhISBg7CWwXlerXkVcKFpL53/8gKVIkl9t3Qw3rGuut27clW5aselcCbIiE6WA4nvsP7lscRb5ZMmayCNO2GASizMrQH2IRxbSTLFky5V82b4EUKVTIFK498eLF017DPuJxl42pbPSQAAlEPwGPm9rKlSuXiYIWFFNADHtea91GDhw+JF9+Mz1MSb77cZbAeF6zalV1LK8xJbRl21bVgevI9+7fl70H9kvBvPl0kNPb7bt2WaT9Z/u/UqhAARWWKOFLm8xts2dEzpw7J0+ePDGl0ct+Q/5bBpw3V251DCuyEiRIYPotWfmb9Bv8kTx79syUlh4SIAESMCfg9lvLC4aReu3atXLUWHIKlzdvXqlprFDKlMny7hmioaeysMU+fjmNlUHm4mJe+Oj2N6pbT7q+3llGfj5eMI1V47+pq4XLlsjC5cskqHgJ6dS2vSrWO127qSWyw8eMlne79xC8TgXTRrB/NKjz0rAelfKjDFitVa9Wbflh7o9qpPTJhx+rLLNlzSJJEieWidOmStbMWYylww/UMy6YRtMuUaKXU2drN26UZEmTqUUEjevVFyz/zZo5szRr2MjIc598OHyYWu6MctORAAmQgC0Cbh2RQESmTp0qBw4ckKfGklf84EcYjmmnRQNbOC0o8J88eRIbj3GDBw5ST7Jv27lT2nbuJC06vio/L14krZs2lzlff6OEAoUtaSwT/nbSl/LzkkXqWY+ixnMkF43lub/O/NFiasvZijWsW1f6D/5YchZ7RWbP/0m++nyiWn2F/GBfwUowGNDL1KwmDdq0Uqu08AyMfv4wS6bMUqtqNRlvrNTq9/H/VDHGj/jMWMVVTf73yTBV5l79+ylBeb9nb2eLyXQkQAJ+QCBWUFBQCJ432Ldvn8urO3PmTCUctjIuZMzDd+r08unw6dOnC2wjcGPGvFy+qsMgKubCYiuvmArDCq4rV69JFuMOPjAgwG4xLl6+rEYIGCVE1WFlFh4YxKtZXjEYXrl6VewZv1+8eCHnL16QjBky2i3f/QcPBCMV8xEHbCuXjQUBEBtbz8xEtQ5MTwIk4FsE3Doi0dNZtpCZH8P0lXZaUHSYHqXo4560xZ1/jmzZ7HbSuqxYqeUKEdH56S3Ey56IIA6WBWNqKzyRw/JkcxFBOggL0lFEQIOOBEggIgJuFZKITq6Pa9HQ+9h62pSWednoJwESIAESCCXgViGBYd2eMz8GY7x21oZ1630dz1+3WF21aflKKRAOW39lw3qTAAnEDAG3CglWZ8UxWymkq4gwHNNOj0jMbSHWU1w6rr9v8TwHnn7XT9r7Ow/WnwRIIOYJuHX5L5b49ujRI8LlvxAQiIkefZjbRbTIxDwqloAESIAESMAWAbcKCU4IMdGrs2wVQIdpEcG+FhKEmYfruNySAAmQAAl4DgG3Tm05U00tIkhrPv3lTF5MQwIkQAIk4H4Cbh2RQBSw+krbO1AdPcLAlJX5dJauqrmdRMfVx7glARIgARLwPAIufyARogHxMB9ZhFdtiAVGHhSN8CjxGAmQAAl4LgGXjkggIngiPTIOafDDSMR8NBKZPBiXBEiABEgg5gi41EZi/jxIZKvk6AgmsvkyPgmQAAmQgHsJuFRIMLKg820CV413e23ZssW3K8nakQAJRIqAS4UkUmdmZK8ksHr1ajl27JhXlp2FJgEScA8Bl9pI9Jt73VPUmM/1hvHhqoULF8qhQ4ckg/G52QoVKsgu4wNTPXv2VIXbb3zjfNmyZXLZeNtvwoQJpVixYtKiRQvBp3JXrlypnvK/cuWKSpPK+HQvnq85Z3xwavny5YIn1usar4Y33sas8sIXDVesWKHu/vH1RbwtuV27dipfaxIPHz6UcePGSevWrVX5bt26JeXLl5c6xndPfvjhB7X4oUiRItKsWTNJkiSJ+tgWphL//vtvuX79uqQ0Pu2LBQ+VKlVSWWNkOX/+fLlkvPY+tfEJ3xo1akjFihVl06ZNstN4fT7Kdu/ePenVq5fy2yvnA+PNwuPHj1f1WrBggZQpU0ZatWplXXzukwAJeDmBgIwZMw7F1+/wBDqdfQJ4JfuXX36pvqmCDv358+eydOlSQXg14xse6HTHjh2rOt2mTZuqzvm3336TNMZ33rNkySI7duxQK9myZs0q9evXV3f1G42PSmGqqEmTJkpk0CFjwQHeuou0f/zxhzRo0ECJAjpwiBYEwtrhy4e//PKLnDp1SuWV2Xit/eLFi1V8CBBEYv369eq1Kjly5JDNmzerskN4cAxCBQEsV66c+jLiyJEjlQi2bdtWCc+cOXOkePHiqh4XL16U5MmTC+qIz/OGV058nuDXX39VwgqRwsOpxvVmXXzukwAJeDkBl45IvJxFuMXHa++xrHnUqFHG99hTSP78+eX8+fPqjh4J0Rk3btxYateurfJBZ75t2zbBCEQ7dLzonCEUd+7ckRkzZkjnzp3VVyMLFiyoRi3IE50tppCQnx4lIOyDDz6Q06dPS/bs2XWWFlsIVNGiRVUYFj6gw2/YsKHax0gHIymIHt7T9eqrr0qJEiXUMYyu/vzzT1XWxMY3UzDaQP3Q8eOH+iIc+SVNmlSJKMQRYhpeOTHSgcNIq2zZssrPPyRAAr5HgELiYJvii47p0qVTnapOgs4fowY4PFyJDnn79u1y9uxZNTrAFiMA7ZBef+MDnTK+F6Kfn8H0F15miekgTKHh07zHjx8XjAC0w3FMm9kTkvTGd0+0Q/7mb1jGVBumwOBKly6tzvHXX3/JmTNnlDhBFDAyxRQbjk+ePFmdBwKEH/KzdhGVUwsJuNCRAAn4LgEKiYNtixEH7srNHUYY2qHDh50ikfGhKNzNV6lSRdkP9HFsEyRIYL4rAcaHqfCzdhARONhRzNPgzj5t2rTW0U375nERaP3BKh3xn3/+kdmzZ6upqnzGm4QxTYXPH2v3+uuvq6ktTMdh+g6/3r17S548eXQUtXW0nBAxOhIgAd8loITEsJ3SRUAAd/sbNmxQd+0YPcBZf3ce01l9+/Y1jTpg84BhOrIOAgKH/GC3gIMtBlNl+pgKdPIPhAGi1KhRI5UDRkFPjc/roqzw79mzR01FYeoLYjFx4kRl9LcWEl0Wd5XTyeoxGQmQQDQT4PJfB4FjBRYEBN+hh2EdU1owlmuHkQg6XXT4cHjWAqMUTBdF1ukVXxAunAt5/v7777Jo0SI19RTZ/KzjY2QFQzgcprSwEg0OYoJRzJIlS1T9ICw4N4z5epoK02s3b95U02TuLqcqFP+QAAl4PAFObTnYRBCRd999V7CCCQZ3GL+xnFU/U1G1alVljO/Xr58SnNy5cwvCsLzXGQdjOERr2LBhanoLU1qYcnLFB61gxMdyXNhzIHSVK1dW01YYYcEeggUBWJKMkQvEsXDhwmp1F+qBZcSwrQwaNEi++OILZbS3V04IEB0JkIDvE1AvbXz0KFj279/n+7WNQg2xygojjAIFCphyQUeLlVwQGO3u37+v7urt2Sd0PEe36MjR2WPE42p3+/ZttQoLRn9bDnWB8R2jEHOHUQpGLzimnTvLqc/BLQmQgGcSsN2DeGZZY7RU6MwnTZqkvvZ47do19WDeunXrwixrxbSRq0QEFUZn7Q4RQd565Rj8thzqYi0iiAfhMRcRhLmznMifjgRIwHMJcEQSibY5cOCAYMUTluViqglTW7YeEIxEloxKAiRAAl5PgDaSSDQhnhLHj44ESIAESCCUAKe2QlnQRwIkQAIk4AQBCokT0JiEBEiABEgglACFJJQFfSRAAiRAAk4QoJA4AY1JSIAESIAEQglQSEJZ0EcCJEACJOAEAQqJE9CYhARIgARIIJQAhSSUBX0kQAIkQAJOEKCQOAGNSUiABEiABEIJUEhCWdBHAiRAAiTgBAEKiRPQmIQESIAESCCUAIUklAV9JEACJEACThCgkDgBjUlIgARIgARCCVBIQlnQRwIkQAIk4AQBCokT0JiEBEiABEgglACFJJQFfSRAAiRAAk4QoJA4AY1JSIAESIAEQglQSEJZ0EcCJEACJOAEAQqJE9CYhARIgARIIJQAhSSUBX0kQAIkQAJOEKCQOAGNSUiABEiABEIJUEhCWdBHAiRAAiTgBAEKiRPQmIQESIAESCCUAIUklAV9JEACJEACThCgkDgBjUlIgARIgARCCVBIQlnQRwIkQAIk4AQBCokT0JiEBEiABEgglACFJJQFfSRAAiRAAk4QoJA4AY1JSIAESIAEQglQSEJZ0EcCJEACJOAEAQqJE9CYhARIgARIIJQAhSSUBX0kQAIkQAJOEKCQOAGNSUiABEiABEIJUEhCWdBHAiRAAiTgBAEKiRPQmIQESIAESCCUAIUklAV9JEACJEACThAIdCINk5CAhISEkIIPE4gVK5YP145VczUBComrifpwftbiYb3vw1X3q6pBRMzblqLiV83vVGUpJE5h869EulOxt9U09HG9z613ELAWCr2vt7oW1vs6nFsSoJDwGrBLQAuD+RZ+/UNCc791RjqddTj3Y5aAPUFAuD6m/XrfvMS2wsyP0+9/BCgk/tfmEdZYC4D5Fv4XL14o4Xj8+LGs27RRtu7YIQcOH5Iz58/JzVu35MmTJxHmzQieRyBu3LiSMkUKyZY5ixTKX0DKlCwpNapUlXjx4ilhiR07tklgzEtPQTGn4d/+WEFBQSGPHgXL/v37/JsEa68IWIuHuYDs3LNbfvx5gSxZ8RtFw8evF4hLk/oN5LVWraVE0WIWgqJHK0BAMfHxC8HB6lFIHATlD9HMRUSPPrA9deaMjJ8yWQmIP3BgHS0JQFDe79lbcmTLJnp0oreISTGx5OWPe3yOxB9b3UadrUUEAvL8+XOZ9dM8qdmsMUXEBjN/CcIIFNcArgVcE7g29I0GGOhrx194sJ5hCdBGEpaJ34XojgBb3Uk8e/ZMho0eKTPmzvE7HqxwWAKwf/1vxHA5fvKEDBn4gQQGvuw69MgE1w5HJmG5+UsIhcRfWtpOPe2JSL+PP5Jfli62k4rB/koANxb37j+QcZ+MoJj460Vgo96c2rIBxd+CrEciQ42RCEXE364Cx+uLawPXCEategSrb0gcz4UxfYkAhcSXWjOSdcE/v/kP898/LpgvP3A6K5Ik/S86rhFcK7hmzK8hCor/XQuoMYXEP9vdotb450eHcOrMaRk+ZrTFMe6QgD0CuFZwzWgxsReP4b5PgELi+21ss4bmd5GYnkBnMH7Kl/LkKR8qtAmMgWEI4FrBNYNrR6/i0tdVmMgM8GkCFBKfbt6IK4d/fHQCeNhw2aqVESdgDBIwI4BrBteOFhKzQ/T6EQEKiR81tq6qvmvUIoI7yjnGE+t0JOAMAVw7HJU4Q8530lBIfKctI10TLSQPHz2S5b+vinR66wQV6xUU/Nzp8JmMdJmTS6Kk8cOcJjAwtrEk1fYvIMDyUkc8W5/ciBU7Vpg8rE9kK475eXE8Ihc3fqCkz5JCIoobOyCWWJcdeaPsOKetY+r4f/XQdQyvzPbyiKgO+jiuHVxDHJVoIv635XMk/tfmqsZ6VIJ//vXGCxifPH3qEhKDJrWUDUv3yg9j1smNK/dckicyQYfYpkdlafF2eUmQKK7K99LZWzLpw2Wyb+tpyZonjUxd0d3u+Q7tPCf928xQx2s0Lyp9RzeRmePWyc/T/7JIU6d1cen1SUOLsMePnsqV87dlyQ//yO8LdkmD9kHSbUg9izjmOwum/SmzPl9vHmTyN3m9jFRuWFhyFcqg6vTsyXP56/dDMn34Snlw77EpHjyo89dreknipAmkY8XP5UnwM9Px3K9klAm/viUP7gbLq2XHy7Onz03H4OnzaSOp1bKYjHtvoWxctl9qG/7eRpgtd/H0TelS60tbhxwKw7WDa6hRvfqmFVx8ONEhdD4TiULiM03pWEUgINrpEQne4utKV61xESlTI58hJmtlxVzX5N2qW0WBAHzWc4Ec3XtBda4Y/YyY+Zq81+I7OXvsqnSvO9VUjREzO8gmowNd88suFfY4OFQo0cGu+mmn1G1bUn75ZouEvAhlgsj37wRL19qhHWuyVImkSJns0nN4Q7lz86HRMe+TPX+fUvmmTJtEPp3VQUb1+UXOHL2qwu7eeqi25n/ixguU98Y2lXSZksv8aZvl4I5zSgSy50srzQ1xHD33denb4lt5agiLdq8Y54SI3b7+QCo3KCxrf92tD1lsS1bOLVvXHTGFxYkbYPDPK08ehwoPDj68/1jeb/mdKZ72WIuQDo/MFtdQgzp1LV6XguuLghIZit4bl0LivW3ndMn1aEQLyaGjoZ2Q05laJUyYKJ70GNZAytTMJzOM0cnpw1esYkRuN13mFEYn/kB2Gx04On7cvf/67RY5aeSLu3J0wOdOXDdlis7x9o37FmE4mDF7SsmSK4181OlHmbjobUEnvH3jMVM6eIyna5Rg6ECIx9lj16TJG2XVyOeftUeU2OB4sNHRw2HEYn5+FWj2B6JQunpe6VD+c1VefejEwcsyYcASadyptCRMHM/ivLVaFjeEcLdcu3hHWnapYFNI/jbKUqlBIQshKVU1rxzff0nyGKMWc/fieUi4ZTSPG1k/riE9taWvL4pIZCl6b3zLiWPvrQdL7gQB/MPDSHru4gUnUjuWpGSl3PLlsq7SpmclxxLYiYWRRY586V7m1aOS5CqYXk397PrzhFw+d8tOqrDBtVoUky2rD6mpoA1L9kr9diXDRjILwfRSqnRJpHX3ipIhawrZ/NsBs6OOe/MVzSTnjl+zEBGdGqK38Nu/LUQkUZJ4Uq52fvnDON/W9UeVAGI6zNr9ueKAlDVGH7C5aFelcWGVTu/rbYBhU8lZIH2YX/LUiXQUp7e4hnAt4Zqi8z8CoVef/9Xd72usheTW7dtuZ9Hh3WpGh4fRyVrZ+8/pSJ/v8K7z8mGHWdKudxVp16uydOhbTa5fvivfj14jfyx3rHOH4RrTY+PeX6TOv9nohDu+X13SZEym7vp1oZIkSyDLjw3Wu2p7bN9FGdF9vsAu44zLVSi9wBZh7irVL2gsHEihgiBYh3ael/3/nlH7sKMc339Rbl59aWf6e81hqW/YZib/b5l5FnJk9wW5d/uRYBTy16qDalRTvEJOZTt6c1Ati7iwLU1a2sUiDDuw58CuExWHa4hCEhWC3p2WQuLd7Rel0uspiKcuMrRHqTAOJD6y54IMfWuuxE8YV4qVzyG1WxWX/p+3UN/I2Lh0X4Q5lDBGR0lTJFSrpdIatgo4TFvVbVNCZk/YYEoPW8In3eYLhCdP4YzS1hCuRd//LZjSctZdv3zPMLCnt0hetFxOyV88swrLmC2lLDTOoYWktjGtde3yHalpjKDgMHVXrWkR+X7UagujPKbh/lx50LChFFRCUt4YxezfdsbmyAfTgd3qTFH5mf95ZNQ3qg7XkL6eopoX03sfAQqJ97WZS0uMf/44ceKIu8Vk9sQNMn/KZqfKHhgnQJp0KqOM3FgJFvzwierU0bH3n9BcqjV5RRwRktqtiinhaPBqkKkcj428IEjzJm8yXkL4QoU/f/5CrQTDzp4tpwSG+vfHNTNGLXeNUcM5U9rIeLBAoKYxGsIyXG3c//Lj5aYsxv/ypskPA3zuwhmUkDXqUMoUbgxapHqzorJs1jZTGDybVxyUUXM6KYGt0vgVWbdwj8VxvYPz3rp2X++6dItrCNcSnX8SoJD4Z7tb1Dp5MmNq53qoodriYBR3dmw+HmVjO2wI9Y3OH3ffsCWYu+uX7krS5AnMg2z6k6VMaBi78xlG9tnqjl1HQvisLe9J2Vr51Z29DjffLp+9zbjjLyT9xjeT7vWmWizDNY8Xnv/Av2cFNorWxuqz+VPDCqr5sxwwsmNk8sFrsyyy7PJRHaln2HSshQQidctYWFClYSHJXyyzfNoj+h8uxTVE578EaGz337Y3Lc3MlD6sETeqWB4+eCxTh/wmQzrPjfKKLZRl/eK9hl2kujTqWFpNTSU3luRWbVRYLeHFcxgRuWpNishdY9XXge1nLaJiamvHH8eV/cHigNkObrS//Pg3SZ0hqbTp7tyiASwIGP3ur9K+TxV5vX8NgfEddShWPqd8NK2NWjxwxYiD0RdGWLbsPmCQNXcaKVwqm1npXnoxvdXhveqy01h8gBGbLQchy54/nc2fuZDZShtRmL6GuFIrIlK+eZwjEt9sV4drhS/c5c2VW3bvj9jG4Gim7nggcc4XGyX4wRNp8VZ56fpxXVUUGKJnT1ivngmJqGx4dgRTQHpayTz++kV7BQ9SZs6Z2jzYwo9nRBbP+Ec9ELnB6NDPn7phcdyRnb9XH5bRfX41RlclpeFrpdRUFJYPY7oMz5BgyW6FugXVU/u2xBHHzxorv2B0XzTDcmT2p1E3sAlvVRmM7VhBZ8u9WmacxaoxW3HCC8M1hGuJzj8JxAoKCgp59ChY9ruwI/FPlN5Ra20QxZp/fJjo4cOHsnj5Mhn0ybAoV0C/HgV3x+50WBobN34ct833u7PsOm8Y8lOlS6pWntkSNx3PW7ajPh4iTRs2koQJE6ovJ+pP8HKE4i0tGLVyckQSNX5emRr/3PqHf/jK5Su4xODubgHRsLH6yPp1IvqYt2zxcCAeNPQFB0M7riFz8aCA+ELLOl4HjkUdZ+UTMc3/weEPCAhQd5E1K1fxifqxEtFPANcORiK4lqyvr+gvDc8YEwQoJDFB3QPOiX943EHinz8wMFCaNbB8UaEHFJFF8BICuHZwDeFa0qMSLyk6i+kiAhQSF4H0xmy0mMSNG1eKFykq1StW9sZqsMwxSADXDK4dXEMUkRhsiBg+NYUkhhsgJk4PAdE/3EVijjtevHjSpWMniWPcWdKRgCMEcK3gmsG1g2tIT23pa8uRPBjHNwhQSHyjHZ2uhZ7eQmeQM0cO6dE59AlrpzNlQr8ggGsF1wyuHT2t5RcVZyXDEKCQhEHiHwH6rhFbdAKYmoDBtGXjptKgpuXL/vyDCGsZGQK4RnCt4JrBtcPRSGTo+V5cConvtWmka4RRCYyluLNMnDixvN+zt1QuWy7S+TCBfxDAtYFrBNcKrhlcO7iG6PyXAFvff9veZCfBqAQdgR6VJDPemzS4/0CpVaWqH9Nh1W0RwDWBawPXiB6N4NoxH+HaSscw3yZAy6pvt69DtdPTW4gcP3589RZXPPnev1cfyZQ+vfz46y/qKXiHMmMknySAUcdrLVpK+5atlYgkSpRIXSt62S+uITr/JUAh8d+2VzVHB4DXppiLSYIEL9+mi7CObdtLkYKFZe7CX2T7HtvfDPdzhD5f/aCixaR985ZSrEgRSZo0qZrSwjViLSIUE5+/FOxWkEJiF43/HLAnJtp2ElSihGTPmlX+3blD1v/1p+zYs0eePX/mP4D8sKaBAYFSsqjxbFGFilKqRElJnTq1EhFMZ2m7iDawAw9FxA8vErMqU0jMYPiz15aYIAxigmcEMOWVMmVKKVnM+HLftWuyY+8eOXbqpJy/dFFu3Lwp9x88pLh46QUE0UicKKGkMto3c4aMkidHTilpPGSYJk0aJSAQD0xlQUD0Ci2KiJc2tpuKTSFxE1hvzNZaTCAielSiDfHoVNKmTStZjRHKgwcP1NuDHz9+rL7XDbsKnfcRQBtDGCAUWjSSJEmibh70CAQ3E+ZTWXoEorfeV2uW2JUEKCSupOkDeZmLCaqDzkOLiR6Z4LO8WLWDLV5Fjx/sLM+fP/cBAv5XBT26QFvjh3bGjYMWD30N4DqA0+Kht/5HjDW2JkAhsSbCfVNHoVGgA9E/dCroZDDVhRGI/tn6XretMJ0ntzFHwJYAIEy3MbYQF/N9lFan09uYqwHP7GkEKCSe1iIeVB7rDkN3LBAICAq25mJh7vegarAoERAwb2f4zX9Iqo/rbQTZ8bAfEqCQ+GGjR7bK1h2I3qdwRJakd8TX7atLa72vw7klAU2AQqJJcBshAfMOBSJivh9hYkbwKgJsW69qrhgvLIUkxpvAOwvAjsY7242lJgF3EOC7ttxBlXmSAAmQgB8RoJD4UWOzqiRAAiTgDgIUEndQZZ4kQAIk4EcEKCR+1NisKgmQAAm4gwCFxB1UmScJkAAJ+BEBCokfNTarSgIkQALuIEAhcQdV5kkCJEACfkSAQuJHjc2qkgAJkIA7CCghMV6vQ0cCJEACJEACThHgiMQpbExEAiRAAiSgCVBINAluSYAESIAEnCJAIXEKGxORAAmQAAloAhQSTYJbEiABEiABpwhQSJzCxkQkQAIkQAKaAIVEk+CWBEiABEjAKQIUEqewMREJkAAJkIAmQCHRJLglARIgARJwioBLv5B48vRpOXz0iEVB8CW9ePHiSfJkySRXjpySLGlSi+Pu3lm7caPEixtXKpUvH6lT7dy7Ry5fviw1q1WXuHHiRCotI5MACZCAPxFwqZCsWrtGho4eaZdfXKNDb1C7jowdPkKSJkliN54zB54+eyZf//C9ZMqQUZo2aGjKoteA9yVNqtSyeeXvpjBHPFO++VqWrVoph7Zul1QpUzqSJFri2KtntJycJyEBEiABGwRcKiQ6/xaNGkvVipX0rjx/8UJu374t38z6QRYtXyZ37t6Ved9+L6787veSFb/JsNGjZMJno0znhadqhYqS1IlRUJFChSU4OFjieNhoxF49LSrNHRIgARKIRgJuEZLiRYtKm+YtwlTj1dZtpHL9urL+j03GFNhRKZAvX5g4rg74asIXTmX5TrfuTqVjIhIgARLwNwJuERJ7EGEfqVWtmsz6aZ7s2LPbQkhOnDol23bukOMnT0rs2LEkZ/YcUr1yZUmXJq0pu1u3b8nq9euldMkgefDwgSxduUJeKVhIkiRJLFv//VfF+9fIIzAgQOobU2hJEieWxb8tl/iGjaZuzd4hQkIAAC31SURBVFqmfOC5eu2a/Ln1H9lt2ELSpE4ttavXkHy585jibNm2Vc6dP6+myWDjuX3njvy+bq2ULF5ckiZOIqs3rBfYhMqXLiMVy5aV+PHjm9JqD6ahNmz+Q46fOCEXLl0ypt0ySKECBaSKMUoydxilZUifXkqXKCmb/vpTtu/aJWK8SLNU8RIWI7t/tv9rt54hISFKoHfs3q3Y5M6ZS5UtV44c5qeinwRIgARcTyAoKCikcOHCRj8UdWfYFULS5M4RMv2H7+1m1rJTBxXnl6VLTHHGTJoYkjF/HhWer1SJkLR5cip/ruJFQv746y9TvN379qnwT8ePDcExnAu/Vv/lqfeR/tjJEyod8qtYt7YpD3gMIVPpEK9QudLKny5vrpA5Py8wxevcq4cKv37jhgo7cOiQ2u8/+KOQV8qXDclRtHBI+do1VVlRlqMnjpvSwnP42NGQqg3rqzSoW+4SRZUfZXyty1shL168MMXPU7JYyOs9uoW82bunKb6uS8/+75videv7jikPHNf1fPL0aUibzq+rY+nz5Q4pUCZI+TMVyBvy7ayZpvT0kAAJkIA7CEh0Cgk6V3R+6OyMu3lVnz//+Vt1eo3btQk5ffaMCrty9WrI+CmTVXj91i1M9dZCksFI/0bP7iFrNmwImfLtN+r4z0sWq/g/Lphvig+PtZCsWrdWnb95h/YhOA8cygVRQFzDfqPC7AkJOvDu7/cNefzkiYq3a+/ekPylS4aUq1Uj5O69eyoMf5q0b6vKg3I9evQo5NmzZyH//PtvSMV6tVX4xj83m+JCSMClRpNGIStW/67yPnTkSEjxKhVVXGOUZYprq57zF/6q4g0dNTLk3v37Ki7qVLhcmZDMhfKHGKMpU3p6SIAESMDVBNzyHAmW3I6eOMH0GzrqMzE6ZjE6SjEqIG916CQ5smVTw6vTZ89KuVKl5dOPB0u2LFlVWNo0aaR3l25qyfDxk6fCDMPSpE4jX30+UWpWrSo93nwrzPHwAiZNn6YM6NPGTxScBw5TWkMGfaDOB/tNeA5TbRM+HWlaElzslVekX68+cvzUSTWNhrSGoEgyY7lz59c6SMvGTdS0V4Ax3VYmKEjatWilsscUnrkDl68mTJR6tWqrvPPnzSu93+6qouzat9c8ahg/zg1Xo0oVSZwokfKjTpPHjJVhgz6UJ0+eqDD+IQESIAF3EHCLjcS42xb8zF3s2LEla+bM8m73nkZn2tJ06NVWrQU/7R4+eiiwl+w0bCjofB88fKgPmbaFCuQXLCWOrDOmk+TAocOG7aG4SUR0HrWN50Xwi8g1qFNHPRdjHq9OjZrywfChsu/gARWMpc0zp35ligKRgI3kyLGjsnf/PhX+KPiR6Tg8KZIll9zGczbmLkumzGrXGGWYB4fxVypXQSZOmyodur4trZo2MwSlqlQqV07ZV8xXz4VJyAASIAEScAEBtwhJL+NOulWTpqbiJUqU0DAmZ5A4gbZPB8P2NzN/kD1GJ3v+4kWVDsZrdMC2XNbMWWwFRxiG0Q+EKqPxrImzLkumTGGSZkiXTi1lPmT2MCaWOH87e6bg2ZqjhrHdmN5S6fBgJpx13fToSB387w+M/HAQwPAcRAPLnoeM/FR+mDtH/SC0VcpXkPd79ZYSRYuFl5zHSIAESCBKBGz37FHKUiR9urQWK7LCyw4rlrq996564r1G5SrGVFVxtbKpWOFXpHbzpnL63NkwyZ190jxOnJfV1Z16mIwdCHjy5GmYWPcfPFDCkNaYcoND/q1e7yCGTUd14pjKK1q4sODZFIjl2+/0DpNHLGOlWlQcRnWYRtu05S+1Umzdpo2yZuMGtQps/oyZUqFM2ahkz7QkQAIkYJeAW4TE7tlsHBj/5WRjuW9sWb1wiWTP+tJGgmjPnz+XU2fPiLG8yUYq54Lw1DtECCMTa3fj5k3p0rePVK9UWXq+1cX6sGn/5JnTJr/2HD95QnmLGuIHh6XBEJG2zVvKpNFjVJj+A+GEe/7cdfU6deaMmg6Ezch8im7y11/JJ2PHqIdAKSS6BbglARJwNYHYrs4wsvmdvXBeEhjTWGnTpLZIOveXn5WR+JkhKI44PW2GqSt7DoJV3bAf7D2wX7bt2GER7fs5s2Xzli3y7Fn458OT5ZevXrFIa6wcU1Nb5UuXVuFnz59T26xZXto4dGQ8i7Jw+VK1++z5Mx0cqa2teuK1NO3f7qxGIOaZYQQElyB+AvNg+kmABEjApQRifESCh/mwyqvPwAHymvHkO2wHMNR/PfMHtYoKnS9+2rZgr/apU6VSh76bPUsuXb4ib3boqB4AtI4/dOAHaurn1S5vSv8+7ygDt7EkWBYsWqRWjXVq1946icU+XpvSsE1rGWCkTZkipcxf9Kss/32VDOr7ngQZDxDCVShbTgkLygIjOmwUew/ul5lz58rVq9dUnFu3bqttZP/YqufbHTuphyX7ffQ/440CzaVsUCnD8H9Q5vw8Xy1KaG68soaOBEiABNxFIMaF5HNjKW3Pfu+pp9TxpDpcwfz5ZeHsOWI8oyFYOoynw5s1bBQugzJG54mXNS43XrT45TfTpXiRIjaFJGf27LJ20VJ5Z9AA+WjEJ6Y88bQ5XiYZkWBhuir4cbD0MdLDCJ7ZML6/37O3vNejlymvEkWKypjhn8gnY0ar1Vw4gMUDb7R/1TB+95GSVSupOpkSRMJjq56N6tZTy6GHjx2tVm8hO7zHLG+u3LJ07k+KRSROwagkQAIkECkCsfBAIu6y9xlz+jHprl2/rqaMsCIrKq+aR11g/NZ37uHVCctqzxjG/EwZM6qRQ3hxDx4+LFUb1VcjnZGDhwrS4jUr4b2CBM9vYLFAQOwA9dwMptZc5WzVE8J2+epVuX7junG+7OoVMa46H/MhARIgAXsEYnxEoguG913hF1WHO39b772ylS/exVW4QEFbhyIMQ1r8wnNYgotRgTucrXpCqDIa7+zCj44ESIAEoouA626Ro6vEPA8JkAAJkIBHEaCQONgcsDlg6XBggMcM4hwsOaORAAmQgHsJsFd0kC++nXL+oOVnhB1MymgkQAIk4NMEOCLx6eZl5UiABEjA/QQoJO5nzDOQAAmQgE8ToJD4dPOyciRAAiTgfgIUEvcz5hlIgARIwKcJUEh8unlZORIgARJwPwEKifsZ8wwkQAIk4NMEKCQ+3bysHAmQAAm4nwCFxP2MeQYSIAES8GkCFBKfbl5WjgRIgATcT4BC4n7GPAMJkAAJ+DQBColPNy8rRwIkQALuJ0AhcT9jnoEESIAEfJoAhcSnm5eVIwESIAH3E6CQuJ8xz0ACJEACPk2AQuLTzcvKkQAJkID7CVBI3M+YZyABEiABnyZAIfHp5mXlSIAESMD9BCgk7mfMM5AACZCATxOgkPh087JyJEACJOB+AhQS9zPmGUiABEjApwlQSHy6eVk5EiABEnA/AQqJ+xnzDCRAAiTg0wQoJD7dvKwcCZAACbifAIXE/Yx5BhIgARLwaQIUEp9uXlaOBEiABNxPgELifsY8AwmQAAn4NAEKiU83LytHAiRAAu4nQCFxP2OegQRIgAR8mgCFxKebl5UjARIgAfcToJC4nzHPQAIkQAI+TYBC4tPNy8qRAAmQgPsJUEjcz5hnIAESIAGfJkAh8enmZeVIgARIwP0EKCTuZ8wzkAAJkIBPE6CQ+HTzsnIkQAIk4H4CFBL3M+YZSIAESMCnCVBIfLp5WTkSIAEScD8BCon7GfMMJEACJODTBCgkPt28rBwJkAAJuJ8AhcT9jHkGEiABEvBpAhQSn25eVo4ESIAE3E+AQuJ+xjwDCZAACfg0AQqJTzcvK0cCJEAC7idAIXE/Y56BBEiABHyaQGB01u7EiROydu1adUr4a9WqpX7RWQZXnuvx48dy7fp1SZ8+vQQGBLgya+ZFAiRAAl5DIFpHJNOnTxcICH5wa9askQEDBpj2vYXatO+/k0btWkuuEkWlRNVKkv2VgtL3w0Fy5+5dUxW+mvG9ZCtSyLTvqOfA4UOSNk9O2blnt0NJnj57Jl/PnGGKG9n0poT0kAAJkICTBKJNSCAa9pwepdg77knhI8aNkc8+HycF8+WXGVOmye+/LpZ3uvWQZatWykeffhLloiZPllzatWgpqVKmdCivmXPnyIhxY01xI5velJAeEiABEnCSQLRNbYUnJE6WPdqTzfppnkya/pV89vEQeatjJ9P5ixcpIqlTpZKBQwdLswYNpXrlKqZjkfVkypBBvhg1xuFkL0JeSKxYsUzxI5velJAeEiABEnCSQLSNSHLlymW3iHqqy24EDzmwYs1qKVG0mLzZoWOYEnVq116Gf/iRpE2TxuLY3/9uk7otmkluYxqseYdXZe+B/abjCxYtlB7v9xUIVMGypaRzrx5y/NRJqdWssRw+elTFgw2my7t9JH/pklKgTJC0fqOTHDl2TB2bv/BXmfbdtwJbDdKs3rBeTpw6ZZEeERGvXqsWkqt4ESlasby83rO7nL9wQeWBP4M/GyFTv/1GfjBGN5Xq15F8QSXkDSPO9Rs3THHoIQESIAF7BKJNSOwVAOEwunuD271vrwQVK24xAtDljh07tnR7o7MULlBQB6kOHh1yzWrV5P1efeTMuXPS7q3OKhyRrt24Lus3/yGjv5ggVcpXkDSpU6tje/bvl4ePHqp8+gwaIPsPHpQP3+snn/zvY8MOc0fZZ548eSJFChWWMiWDlKEf4pYnZy4Jfhws5ulnzpsjvQf2N+KVlEmjx0rLJk1ly9Z/pNeAfqZynj57VtlZphhi0rJxU+n+5luydtNG6TOovykOPSRAAiRgj0C0TW3VrFnTrlHdG4QEd/A3b92SXDly2GMZJvzFixcydvgIaVS3njqWxpj+6tHvPUHHnS9PHhWGPGFraVC7jtqHsdzcbdm21RCR96Vj23YquEihQjLlm6/l6rVrUiBfPilRrJisXLdW2jZvaTP91u3bDXFoIkMHfaiO4zwYwcyYM9v8NHLrzh3Zvn6TEjMcuHf/vnz1/bcWcbhDAiRAArYIRJuQYGprzJgxaqUW7CV6qgsC4w0ufvz4qph6pOBomSsbIw3tygaVUt6zF86bhAQB5cuU0VHCbIsao44xX0w0hOO61K1RU0oawhEZG8rU8RNMeWKq6tCRI3Lx8iXBai/84gS+vATy5c5tEhEkyJk9uzoeHBwsuu6mjOghARIgATMC0SYk+pze+uwIjOmwfxz7b+myro/59sbNmxarrdABJ0ua1BQlXrx4yv/c6MC1S5AggaQwVmrZc99Mmiy9B/SXL7+ZLpO//kqVoedbXaR75zftJbEIx8jlE2Ol2dqNGwTlw/SZXhEWEhJiipsqZSqTHx5dVhjz6UiABEggPAIeYSMJr4CedKxQ/gLK/mDeAevyPXr0SBmq23R+XQfZtKWYDv7niehBxnRp0sqCGTNl/5atMnHkaMmbK7cMGfmp/LJ0iXVWNvc7du8qGzdvlkHv9pU/V62WA39vM5YXtwoT12zhV5hjDCABEiCB8AhEy4gEq7JOnjypfiiM+SotTHHlzJnTKwzur7VuI2/27qlGB727dLPg+t2Ps9Qqp5pVq1qER2XntmG3wIOOb3d6XcqXLiPtW7aSVk2bSeGypWX33r3K9oGlv7DF2HJY8YUHG0cPHS6d2r1qinLwyGHlf/H8uUicOKZwekiABEjAGQJuFRIIBh42NBcO60LiGH6wm2DaC6Ki7SfWcWN6H0bzrq93lpGfj1fTRDWqVFNFWrhsiSxcvkyCipeQTm3bu6yYyZMlk8dPHsvw0aNk9LBPlN3it9WrDMP4bSkTFKTOkyhhImU8X7V2jVqabH5yTMflyJZN1mxcL00bNDA0I678vHiRYNkx3KPgR7R/mAOjnwRIwCkCbhMSCENkH0LU8bt27eqxYjJ44CBJnCiRbNryl3wz8wdlkI5r3NW3a9naWF31nsSNG9ephrCXaMjAD+STMaOl6att5cHDh+rc/3u/v2klWPXKlZVYYAqrf593pH6t2qasMFoZaqQfPWmi8ZxKaYlt7FcoW07mffu9tH3zDdmxe4+4cgRlOjE9JEACfkUgVlBQUAhW5uzbt8+lFcc7tJx1GJFATDzdYQXXlavXJEvmzG5/aSNWWF2+clkyZ8xk0/aCabAkiRNLgJ2XR14y0sLwnzBBQk/HyvKRAAl4GQG3jUiiwiG8qbCo5OvqtOiUMXUUHQ7LdLNkymz3VJgGC89lSJc+vMM8RgIkQAJOE+CqLafRMSEJkAAJkAAIuG1qi3hJgARIgAT8gwBHJP7RzqwlCZAACbiNAIXEbWiZMQmQAAn4BwEKiX+0M2tJAiRAAm4jQCFxG1pmTAIkQAL+QYBC4h/tzFqSAAmQgNsIUEjchpYZkwAJkIB/EKCQ+Ec7s5YkQAIk4DYCFBK3oWXGJEACJOAfBCgk/tHOrCUJkAAJuI0AhcRtaJkxCZAACfgHAQqJf7Qza0kCJEACbiNAIXEbWmZMAiRAAv5BgELiH+3MWpIACZCA2whQSNyGlhmTAAmQgH8QoJD4RzuzliRAAiTgNgIUErehZcYkQAIk4B8EKCT+0c6sJQmQAAm4jQCFxG1omTEJkAAJ+AcBCol/tDNrSQIkQAJuI0AhcRtaZkwCJEAC/kGAQuIf7cxakgAJkIDbCFBI3IaWGZMACZCAfxCgkPhHO7OWJEACJOA2AhQSt6FlxiRAAiTgHwQoJP7RzqwlCZAACbiNAIXEbWiZMQmQAAn4BwEKiX+0M2tJAiRAAm4jQCFxG1pmTAIkQAL+QYBC4h/tzFqSAAmQgNsIUEjchpYZkwAJkIB/EKCQ+Ec7s5YkQAIk4DYCgW7L2UbGJ06ckLVr16oj8NeqVUv9bERlUDQRCAkJkVixYoV7thcvXsizZ88kbty44cbjQRIgAf8kEK0jkunTpwsEBD+4NWvWyIABA0z7nt4Ejdq1lrR5cpp+6fLmktwlikqtZo1l1k/zTMXfvmuninPoyBFTmCd5nhqiMHriBKlUr47kKl5E2r75hly8fNluEXsN6CedenSze5wHSIAE/JtAtI1IIBr2HEYpuXLlsnfYo8Lz5sot7/XqrcqEu/l79+7JslUrpN/H/1NhHdu286jy2irMpOnT5McF82XCZ6MkZYrkMmz0KGnUtrVs+X2NxIsXz5Tk2fPnMvLz8fLLksVSo0pVUzg9JEACJGBOwCOExLxAnu5Pkzq1NG/YyKKYEI8KdWvJnJ/ni6cLyYVLl2TC1CkyasgwqVm1qqrHd5OnyCsVysrSlSukVdNmKuzYyRPS4/2+ctQYPWZMn96ivtwhARIgAXMC0Ta1Fd6IQ091mRfMm/yxY8eWAnnzyakzZ+wWe/7CX6VeqxZqKqloxfLyes/ucv7CBRV/w+Y/1PTYuQvnLdIvWr5MmrRvKxgZwO3YvUuavtpOTadVqFNLvvhqmsB+oV3Dtq1k1bq16jyla1SVdZs26kOm7d/btsqTJ0+kQe3aprDUqVJJyWLFZK1Z/EXLlkmcOHFl9a+LpUihwoYdxRSdHhIgARKwIBBtQmJxVqsdGN292T169Eg2/rlZcmbLbrMaM+fNkd4D+0uZkiVl0uix0rJJU9my9R+B7QGuZLHicvjYMTUiMM/gxwU/SYZ06SQwIEBgd2ncro0hKs/UaKKDMQqaOG2KDP7sU1OSfQcPysAhgyUgILbkzplT0qVNazqmPRA7GM1TJE+hg9Q2fdp0cu36dVNY59c6yIoFv0i+PHlMYfSQAAmQgC0C0Ta1VbNmTbtGdW8Skus3bsji35YrlrCRXLtxXZas+E3uP3ggXd7obIuxbN2+XVo2biJDB32ojjeoXUceP34sM+bMVvtJkySR2tWqKyHp+VYXFYZO/a+tW2XWV1+r/RHjxkqG9Blk2bwFplVW8QxB+GjEcOlmnDdzpkwqXqqUKWXp3PmCUZItd+/+PUlpJSKIlzxZMjliiJl2GKXQkQAJkIAjBKJNSDC1NWbMGLVSC4Z3PdUFgfEmd+T4Menybh9TkQOM0UK2LFlkytjxYWwnOtLU8RO0VyBEWM118fIlweop/OIEBiqhwcqos+fPSdbMWZSoJEuaTKpVqqymtrbt2K7sF3sPHDDllTFDBpV+1769JiEpW6qUXRFBwoCAQON42HmqWLFiy5OnT0x500MCJEACjhKINiHRBfL2Z0eCipeQbyd9qaqDDjl1qtRq6knXz9b26rVr8sm4MbJ24wa5cfOmwGCPkQMcRjVwNapWU6MCGLx7vd1VFq9YLo3r1VciA1sK7CTzfv1F/VQCsz/nzp837WUyxCU8lzZNGrl9526YKHfu3pHEiRKHCWcACZAACUREINqFJKICefpxTCdFdhVTx+5d5cLFizLo3b5SrnQZwRLiad9/J0NGhto34saJo4Rj+apVyoaybccO+d/7/RWOZMa0Exz2u3R6XfnN/wQaabXDiCM8ByF5+Oih+iVMkNAUFVNpWTNnNu3TQwIkQAKOEgi/13E0lwjiYVXWyZMn1Q9RzVdpYYorp2EY9iY7SQTVtTiMDnrnnt0yeuhw6dTuVdOxg0cOK/8LrMj6TwhaGHaU2fN/kvkLFwpGFmVKBqk4SRInNozu6WXFmt/lnW7dTXnsO3hAxk6eJB/166/EyXQgHE+5UqXVCGrdpk3SqG49FfOu8SzMvzt3yJBBH4STkodIgARIwDYBtwoJBAMPG5oLh3UxcAw/2E0gJhAVbT+xjuuN+zBa58iWTdZsXC9NGzRQS2p/XrxIFixaqKrzKPiRxI8fX/nLBpVSAvLFV1PljVc7mIzqOPhu9x4ycOhgGWFMkeHY7Tu3pe+HHxhp40menI4/zInRVL1ateWzz8dJ/rx5JY0xNffBsCGGnSerhdCpAvEPCZAACThAwPbSHgcSRhQFwqBfiRJRXH3cmTQ6radu8R6roQM/UK8gKVi2tOQLKi4r166Red9+r4q8Y/ceU9ERt3mjxmoFGFZ5mbtO7drLx/0HyHezZ0nxyhWkYZtWysCOp9MjeleWeT7wjxn2iSFYGQXPohQsE6TKNnnsOMH0Gh0JkAAJRJZArKCgoJDg4GDZt29fZNOGGx/v0HLWYUTStWtXZ5N7bLpLVy5LsqRJxdw2YV1YjDjW//GHrF/6comx9XE8gHjh0kXjGZF0Ue74b9+5I8+NqTVt+Lc+F/dJgARIwBECbp3acqQAtuKENxVmK763hMHOYc/hORSszsI7sD5473170dTS3iyZXGMUx7MjdCRAAiQQVQIeKSRRrZQ3pq/TvKng/VaVypWT9i1be2MVWGYSIAE/JeC2qS0/5el0tXcbU4t4k3AZ44FC2iqcxsiEJEACMUCAI5IYgG7rlMVeecVWMMNIgARIwOMJuG3VlsfXnAUkARIgARJwCQEKiUswMhMSIAES8F8CFBL/bXvWnARIgARcQoBC4hKMzIQESIAE/JcAhcR/2541JwESIAGXEKCQuAQjMyEBEiAB/yVAIfHftmfNSYAESMAlBCgkLsHITEiABEjAfwlQSPy37VlzEiABEnAJAQqJSzAyExIgARLwXwIUEv9te9acBEiABFxCgELiEozMhARIgAT8lwCFxH/bnjUnARIgAZcQoJC4BCMzIQESIAH/JUAh8d+2Z81JgARIwCUEKCQuwchMSIAESMB/CVBI/LftWXMSIAEScAkBColLMDITEiABEvBfAhQS/2171pwESIAEXEKAQuISjMyEBEiABPyXAIXEf9ueNScBEiABlxCgkLgEIzMhARIgAf8lQCHx37ZnzUmABEjAJQQoJC7ByExIgARIwH8JUEj8t+1ZcxIgARJwCQEKiUswMhMSIAES8F8CFBL/bXvWnARIgARcQoBC4hKMzIQESIAE/JcAhcR/2541JwESIAGXEKCQuAQjMyEBEiAB/yUQGJ1VP3HihKxdu1adEv5atWqpX3SWgeeyJBASEiKxYsWyDLTae/HihcSOzXsOKyzcJQES+I9AtPYO06dPFwgIfnBr1qyRAQMGmPb/K5PHbhq1ay1p8+Q0/dLlzSW5SxSVWs0ay6yf5pnKvX3XThXn0JEjpjBP8jx99kxGT5wglerVkVzFi0jbN9+Qi5cvWxTx7Plz8kbP7qp+WQrllyoN68lvq3+3iMMdEiABEgCBaBuRQDTsOYxScuXKZe+wR4XnzZVb3uvVW5UJd/P37t2TZatWSL+P/6fCOrZt51HltVWYSdOnyY8L5suEz0ZJyhTJZdjoUdKobWvZ8vsaiRcvngQHB0vbzm9IQECAjPjoY8maOYvMmjdXOvfqIQtmzJQqFSraypZhJEACfkrAI4TEm9inSZ1amjdsZFFkiEeFurVkzs/zxdOF5MKlSzJh6hQZNWSY1KxaVdXju8lT5JUKZWXpyhXSqmkz2bTlLzl+6qTM/eZ7U5xSJUrKX1u3KgGikFg0P3dIwO8JRNvUVngjDj3V5a2tAftBgbz55NSZM3arMH/hr1KvVQs1lVS0Ynl53Zg2On/hgoq/YfMfanrs3IXzFukXLV8mTdq3lWfPn6vwHbt3SdNX26nppgp1askXX00T2C+0a9i2laxat1adp3SNqrJu00Z9yLT9e9tWefLkiTSoXdsUljpVKilZrJis/S9+jmzZZOTgoVK1UiVTnDiBgZIhfTq5a4zA6EiABEjAnEC0CYn5Sa39MLp7s3v06JFs/HOz5MyW3WY1Zs6bI70H9pcyJUvKpNFjpWWTprJl6z/Sa0A/Fb9kseJy+NgxNSIwz+DHBT9JhnTpJNCYYoLdpXG7NoaoPFOjiQ7GKGjitCky+LNPTUn2HTwoA4cMNqakYkvunDklXdq0pmPaA7GLGzeupEieQgepbfq06eTa9evKj+m7Nzt0VOfVkU6cOiW79+2TIKOsdCRAAiRgTiDaprZq1qxp16juTUJy/cYNWfzbcsUQNpJrN67LkhW/yf0HD6TLG53N2Zr8W7dvl5aNm8jQQR+qsAa168jjx49lxpzZaj9pkiRSu1p1JSQ93+qiwtCpYypp1ldfq/0R48YaI4IMsmzeAtMqq3iGIHw0Yrh0M86bOVMmFS9VypSydO58u6us7t2/JymtRAQJkydLJkcMMbPlYJyHDShtmjTS1U4dbaVjGAmQgH8QiDYhwdTWmDFj1EotGN71VBcExpvckePHpMu7fUxFhkE6W5YsMmXs+DC2Ex1p6vgJ2vv/du4+1uq6jgP49yoqIclatvAh/3CDNRtbD5enJZq1HsjpHLaaOqP+yAuuTfBhSrXAbDWVuUJL3dS2aj6kgWuOWRY+/NVEVCBcD4t/UrBcDlyTBiv6fX91j+fg5fM5B4Jx9fXbDvf87uf9u/eel9t5+3s6pRZRvZpr28vbS32Dro962KgWzcLLF5V6tVQ9uV3PV0w5YUo5Z95Z7aGtpzc8056/2LRlS+dnnXzSSe32z23e1CmSOTNn7rdE6oZHHz2hmb/5ct+hoaPK7j27Oz979MnuPXva17u+2SO6/+4flVp6FgIECHQLHLYiGf2l4/3ekeEPfbjcteq29uXUN+QT331izyGg0dfZ/fVvr7xSblh5U/n1E4+Xv7/6aqkn7OueQ13qXk1dPvGxc9q9glogX/3KSHl47SPl/PmfbUumnkup50nu+/lD7aPdoOufv7z4YmftlKZcoqXuVezY+dqbIjtf21kmHz+55/v16q0vLh4pv31mffnx7XeWM+fM7ZlbIUCAQBU47EUy3tnr4aSTp04d6GXUN+OXtm0r1y1ZWubOml3qOYjb77m7LP/uG+c3jj3mmLY4Hnn00fYcytMbNpSvX3VN+3umNIed6lLXL1v4pfZ59z8Tmm1Hl7rHES21SF7f9Xr7mPSOSZ1oPZR22qmndtbrobdLF11Wntu0sb3kd87wzM7MEwIECHQLxO863cmDeF6vytq6dWv7qD+m+yqteojr9ObE8Hg6TzIIRX2Dfnbj8+XGFd8qCy+6pLPpC3/4ffv83/WKrP8VwYXN4a2fPHB/eWD16lL3LGZ/ZLjNvHPy5Oak+9Sy9rFflisWLe78jM0vbCk337qqfOPqa9py6gyCJ3Nnzmr3oH7z5JPlvM/Mb5P1Sqz1z24oy69b1tly5MolZePvNpc1P723zDjjA53ve0KAAIF9BQ5pkdTCqDcbdhfHvn9AndVHPW9Sy6SWyuj5k32z43G9XlpbL6d97Il15YJzz20649jy4MNrys/WrG5fzq5/7ioTJ05sn9f/668F8v07fli+fMmlnZPqdbhk8eXl2hXfLN9uDpHV2Y6dO8rSry1rtj2uTDu9/5s5697U/E9+qnznlpXl/dOnl/c0h+aWXb+8Oc9zWqfofvX4urK2uYv9CwsuLH9s/tvUx+jyrmbv6ONnnT266isBAgQO3aGtWgzR3exj2Y/mR0ZG3jJlUj/HasW1y8qNq75XzpgzqxzVrH+0Oddw3133tB9NsuH5jZ2b/mp2wXnnl1V33tGefO82WnjRxc2VYf8ot/zgtnZ+/KRJ5ewz5zWHu67uKZzubfb3/KbrbygjS68o9V6Uemlxvdnw1ptXlnp4rS73PvRg+7Xe+1If3UvdO1Ek3SKeEyAwNDw8vLeeVN3c3CPw/1zqZ2gd6FL3SGqZvNWW7X99ubkS64TSfW5i39dY9zjWPfVUWfeL/15ivO+83oD40vZtzT0i7+288e+b6Xd9x86d5V/NobXRE//9bidHgACBboFDemir+xcN8jw6FDbIzznSsvU8x/6Weh9KvTqrfgbWsiuv2l+svbT3fae8cVJ8v8E+BvXeEQsBAgQOVuCILJKDfVHjcftPL7ig/Gnrn8u8uXPLxZ/7/Hh8Cf5mAgTepgKH7NDW29TzgF92/fiR+knCs5sbCkfPVRzwD7MhAQIEDqOAPZLDiB39qg/OmBGNzQgQIHDEChwRH9p4xOr4wwgQIEAgFVAkKZEAAQIECEQCiiTSMSNAgACBVECRpEQCBAgQIBAJKJJIx4wAAQIEUgFFkhIJECBAgEAkoEgiHTMCBAgQSAUUSUokQIAAAQKRgCKJdMwIECBAIBVQJCmRAAECBAhEAook0jEjQIAAgVRAkaREAgQIECAQCSiSSMeMAAECBFIBRZISCRAgQIBAJKBIIh0zAgQIEEgFFElKJECAAAECkYAiiXTMCBAgQCAVUCQpkQABAgQIRAKKJNIxI0CAAIFUQJGkRAIECBAgEAkokkjHjAABAgRSAUWSEgkQIECAQCSgSCIdMwIECBBIBRRJSiRAgAABApGAIol0zAgQIEAgFVAkKZEAAQIECEQCiiTSMSNAgACBVECRpEQCBAgQIBAJKJJIx4wAAQIEUgFFkhIJECBAgEAkoEgiHTMCBAgQSAUUSUokQIAAAQKRgCKJdMwIECBAIBVQJCmRAAECBAhEAook0jEjQIAAgVRAkaREAgQIECAQCSiSSMeMAAECBFIBRZISCRAgQIBAJKBIIh0zAgQIEEgFFElKJECAAAECkYAiiXTMCBAgQCAVUCQpkQABAgQIRAKKJNIxI0CAAIFUQJGkRAIECBAgEAkokkjHjAABAgRSAUWSEgkQIECAQCSgSCIdMwIECBBIBRRJSiRAgAABApGAIol0zAgQIEAgFVAkKZEAAQIECEQCiiTSMSNAgACBVECRpEQCBAgQIBAJKJJIx4wAAQIEUgFFkhIJECBAgEAkoEgiHTMCBAgQSAUUSUokQIAAAQKRgCKJdMwIECBAIBVQJCmRAAECBAhEAook0jEjQIAAgVRAkaREAgQIECAQCSiSSMeMAAECBFIBRZISCRAgQIBAJKBIIh0zAgQIEEgFFElKJECAAAECkYAiiXTMCBAgQCAVUCQpkQABAgQIRAKKJNIxI0CAAIFUQJGkRAIECBAgEAkokkjHjAABAgRSAUWSEgkQIECAQCSgSCIdMwIECBBIBRRJSiRAgAABApGAIol0zAgQIEAgFVAkKZEAAQIECEQCiiTSMSNAgACBVECRpEQCBAgQIBAJKJJIx4wAAQIEUgFFkhIJECBAgEAkoEgiHTMCBAgQSAUUSUokQIAAAQKRgCKJdMwIECBAIBVQJCmRAAECBAhEAook0jEjQIAAgVRAkaREAgQIECAQCSiSSMeMAAECBFIBRZISCRAgQIBAJKBIIh0zAgQIEEgFFElKJECAAAECkYAiiXTMCBAgQCAVUCQpkQABAgQIRAKKJNIxI0CAAIFUQJGkRAIECBAgEAkokkjHjAABAgRSAUWSEgkQIECAQCSgSCIdMwIECBBIBRRJSiRAgAABApGAIol0zAgQIEAgFVAkKZEAAQIECEQCiiTSMSNAgACBVECRpEQCBAgQIBAJKJJIx4wAAQIEUgFFkhIJECBAgEAkoEgiHTMCBAgQSAUUSUokQIAAAQKRgCKJdMwIECBAIBVQJCmRAAECBAhEAook0jEjQIAAgVRAkaREAgQIECAQCSiSSMeMAAECBFIBRZISCRAgQIBAJKBIIh0zAgQIEEgFFElKJECAAAECkYAiiXTMCBAgQCAVUCQpkQABAgQIRAKKJNIxI0CAAIFUQJGkRAIECBAgEAkokkjHjAABAgRSAUWSEgkQIECAQCSgSCIdMwIECBBIBRRJSiRAgAABApGAIol0zAgQIEAgFVAkKZEAAQIECEQCiiTSMSNAgACBVECRpEQCBAgQIBAJKJJIx4wAAQIEUgFFkhIJECBAgEAkoEgiHTMCBAgQSAUUSUokQIAAAQKRgCKJdMwIECBAIBVQJCmRAAECBAhEAook0jEjQIAAgVRAkaREAgQIECAQCSiSSMeMAAECBFIBRZISCRAgQIBAJKBIIh0zAgQIEEgFFElKJECAAAECkYAiiXTMCBAgQCAVUCQpkQABAgQIRAKKJNIxI0CAAIFUQJGkRAIECBAgEAkokkjHjAABAgRSAUWSEgkQIECAQCSgSCIdMwIECBBIBRRJSiRAgAABApGAIol0zAgQIEAgFVAkKZEAAQIECEQCiiTSMSNAgACBVECRpEQCBAgQIBAJKJJIx4wAAQIEUgFFkhIJECBAgEAkoEgiHTMCBAgQSAUUSUokQIAAAQKRgCKJdMwIECBAIBVQJCmRAAECBAhEAook0jEjQIAAgVRAkaREAgQIECAQCSiSSMeMAAECBFIBRZISCRAgQIBAJKBIIh0zAgQIEEgFFElKJECAAAECkYAiiXTMCBAgQCAVUCQpkQABAgQIRAKKJNIxI0CAAIFUoC2SvXvTnAABAgQIEBhTwB7JmCy+SYAAAQL9CiiSfqXkCBAgQGBMAUUyJotvEiBAgEC/AoqkXyk5AgQIEBhTQJGMyeKbBAgQINCvgCLpV0qOAAECBMYUUCRjsvgmAQIECPQr0BbJ0NBQv3k5AgQIECDQI2CPpIfDCgECBAgMKqBIBhWTJ0CAAIEeAUXSw2GFAAECBAYVUCSDiskTIECAQI+AIunhsEKAAAECgwookkHF5AkQIECgR0CR9HBYIUCAAIFBBRTJoGLyBAgQINAjoEh6OKwQIECAwKACimRQMXkCBAgQ6BFQJD0cVggQIEBgUAFFMqiYPAECBAj0CCiSHg4rBAgQIDCogCIZVEyeAAECBHoEFEkPhxUCBAgQGFRAkQwqJk+AAAECPQKKpIfDCgECBAgMKqBIBhWTJ0CAAIEeAUXSw2GFAAECBAYVmDC6wbRp00ef+kqAAAECBPoWaPdIJk48ru8NBAkQIECAQLfAfwAcOOLHdHUhNgAAAABJRU5ErkJggg==;fontSize=14;" vertex="1" parent="1">
          <mxGeometry x="1030.5" y="-47.1" width="69" height="114.2" as="geometry" />
        </mxCell>
        <mxCell id="kWP5bIo4fPao6hV6OUjQ-6" value="" style="shape=image;verticalLabelPosition=bottom;labelBackgroundColor=default;verticalAlign=top;aspect=fixed;imageAspect=0;image=data:image/png,iVBORw0KGgoAAAANSUhEUgAAAZIAAAKYCAYAAABZ8X4BAAABWGlDQ1BJQ0MgUHJvZmlsZQAAKJF10D1LQnEUx/GvD2WpQ/SwNUhTgYVZEo7mIEGEadHDdr2aBj5crkZEvYSIWnoFEQ0NQYMNCc3RFhRFL6DmwMXkdq5WatEfDufDj8OfwwFrj6JpWTuQy5f0WGTWs7q27nG80osVF924FbWohaLReRnhu3e+6gMWs9+Pm39lwrXgdT7wNvK0cFSxXTr/znc8ZzJVVKV/SPlUTS+BxSuObpc003viQV2WEh+aTjd9YjrR9FVjZikWFt+J+9SMkhS/iL2Jtjzd5lx2S/3awdzencovx81/pIaJEsHPDItMEiAmDv0zP92YD1NAYwedTdJkKOEhJIlGlpR4jjwqE3jFfnxS0+adf9+vle3uQ/AMrP2tLC67XxzAwHkrG3XA0C1UCpqiKz9XtVTtxY0pf9OuMnQdG8b7CjjGoP5oGLWyYdRPwfYMN9VPcyBiLSwS50AAAAA4ZVhJZk1NACoAAAAIAAGHaQAEAAAAAQAAABoAAAAAAAKgAgAEAAAAAQAAAZKgAwAEAAAAAQAAApgAAAAAWiHkXgAAQABJREFUeAHsnQdgFEUbhj96Qu+9Q+i9S+8ggkgXUASkicIvIqAoiNjpCHYUFLCgdERFqoAUBYTQey+h9w7/vBPm2ByXQrhLdi/v/P95e7uzs98+E/bdb+abmXjFihW/K15PPijS6zayQBIgARKIiwTiefmm70pClHji2iUvF8ziSIAESIAE4gKBVEpG4seFG+U9kgAJkAAJ+I4AhcR3bFkyCZAACcQJAhSSOFHNvEkSIAES8B0BConv2LJkEiABEogTBCgkcaKaeZMkQAIk4DsCFBLfsWXJJEACJBAnCFBI4kQ18yZJgARIwHcEKCS+Y8uSSYAESCBOEKCQxIlq5k2SAAmQgO8IUEh8x5YlkwAJkECcIEAhiRPVzJskARIgAd8RoJD4ji1LJgESIIE4QYBCEieqmTdJAiRAAr4jQCHxHVuWTAIkQAJxggCFJE5UM2+SBEiABHxHgELiO7YsmQRIgATiBAEKSZyoZt4kCcQegeIVcws+TP5LQK+Q6L+3xzsjARKIbQIfTOngMuH1Z76T4DX7Xb+54R8E6JH4Rz3yLkjAlgToidiyWrxulPJI7nq9UBSYOn0yKVM1n6TPklISJU4oB3aGyP7tJ+TI/tNy1zeX9Ml9sFASIAHvEaA38vAsQ5sGc6nmwVz65OIVcsv345bp7e8/Dv02pbbrXUPc95ljvvyOV6xYsbsnrl322jVSpAqUnm83ksoNC0uCBA86PBtW7JHR/WfLmZOXvHZNFkQCJGBvAsYzsbuQzNs1WINsHDTUFkAhDO161YjQFogKxMPkjWnbU0lC9T8vpnSZUsjwnzpLxmypZPt/h2X+9/8qLyRELp6/KnkKZpJaTYtLtSeKyvhfe8hLjb+QMyEXvXh1FkUCJGAXAhCOdr2rC96ekdg3ojE81H+MMOCk4LX7lVj8pc+HGOMYEkQGH3grhrU+EMP/8aqQ9H6/iRaRWd+slm+G/Sl3bt9vwzp59LysXbJT9qrmref61pamnSrKxI8WxvDt8nIkQAK+JOAuIOZa6HCP6Tdlc20nfltFxJMIW5uvtJDcE+zYulevCUmRsjmkbPX8snfbcZk4bGEYEbHe3MyvV0mTZ8tLCfXGEi9+PLl7577YpEyTVEpWziPZ86STZCkD5NiBM7Jl3SHdt2Ito3rjonLq+EXZseGwlKqSV4qWy6mayi7KhhV75ci+0zor9pV8LI/ETxhf1i/fI1v/PWgtQm+jGa5sjfySp1AmuXzxmuzadFQ2rNz7QL548UTfW8FS2SUwaWI5tPeUbF57wHWtB07gDhKIgwQ+mNohwrdiHH+9/XdxkMzD37JpzkKzld2bA3F3XhOS6o2LaVpLZgfL7dt3wiV36+Zt6VbvE7l25UaYPJXqFhR4NBCTK5eu6w76RIkTaKGZNGKRTP/qb1f+nkOekI2r90ni7lWkfM0guXXrjiRUgnHj+i3p12ai1FC2NO/ymGv/0z2rySeDf5XffljnKqO0EqA+w5+StBmSy7lTlyVp8iSSOCChrF28U/fhoDkOCeUO+uJpLSTwsC6cuyKp0yUT3MeEDxbIvMn/uMrkBgnEZQKmaQVv0GhqMQ9DwwTH8aZtfZs2x/h9n4BptjJ9H/ePhN2yei1hj8T8r/jeumRQ8ay6KHgkkSV3EcFDvO+IZtpD6dN8gjxdbpi0VZ93e07TotS+d01JliJJmGIr1y8sGbKkkhef+Fxal/5QvnrvD0mcJKEM+6GjVKhTQD7o9Yu0LPGBvNFhshaY9v+r6To/bcYU8sanrVXA2l15pcXX8sxjI6VVqQ9lwvsLpHytAvL8wPquvNWbFNMiMn3C39Km7EfyTKWR0vPxz5SgXJXOA+ppz8mVmRskQAIe36DRxo8EcdEPwHtt/Hon//PQBOwkIjDeax4JOtqR9m07ob+t/ylUOrugGSke2oiQ7n3t3HREewM582eQbesPyYrftsqu4KM6y7WrN2X1n9tlvYryqqAe7umVaFy+GKKP6SJUGcP6TJeDu07qfXMnrxWIBUTpU+V9bFq9X+/fuGqfbFPNY2gyS54qQC6dvyZte1WXANVENVVFOsAGJHhRsyaulsfqF5I6zUrKL1+slMOqCSt7nvT6+Lplu+Xq5VAv6uDuk9pryZY7rfKcEujj/A8JkMB9AiZU1ewJXnNAdxajr8R4KviOrX4TE51l7HP/Du94TNhr+ETkueFYRMfd78fXv70mJLdV8xJSqrRJ5cLZK2Hs7tivjhQrnyvMPvx4p8dPsmbRDh3hNbjzVNdxNCdlzplW8hbJJGnSJdf7kwQkch3HBpqxDqkHuklodsIDvpDqxzBiZI6ZUOPAZEm0kCAP8u/efExyq/4Ra9q58Yjuc8lfLIsWEghR6xeqymDVvLV41ib5VwnKJrUPYcz4MJEACTxIwDRzmSPmoYcHsWm6MQ9Mk4ffoQTgvYEfAhec0D8Cq70mJKeOX5BM2VNLUImscmjPqTB/E798+bcsmrHRta9ao6JSplo+129sZMmVVpo//5huW8U2xqCgI/7KPS/AODPmJESBuQ9shDjgYzwHk/eOW58Nyo+fIJ5Yp24wec13VpUHCULy8cC58vzr9aVRu3L6c/PGbfnv773y4/i/ZIcSHiYSIAGJ0LuwPhSNqJjv2GAXnmdhPJHwjseGrU64pteEBE1JiJQKKpZVFs/cFObe/126K8xvNGVZhSR73vQyYlpnCUyeWEdY4c1/r2oi26Wandqp/pEn2pcLcz5+oLM7uunmjVtyVXXoj3h1ZrhFhBw57zq24OcNsnROsJSqnFfbjUgvdPKjw35Qp6mOeWtw3RA3SMCHBIzHYb0EXto8hbGavLEpKlY77bCNZsDQwITqKsptf5RMMn0mkXXQR6mwaGTympAsnrlR2rxQTeq2KCXL52+RrapfIqrpyecq6P6L0QNmh/FccH62PKGeQXwPo+SjWr57PoQIFyyRTYf7IkLMmuCtpFGRXKZ5Dr+zqXBkiCHGweCD1LJbFUGTHSLEnOJ+Wu+T2yTgawJoosFD0TRhuY8lMQ8/5DOCYrUprooLmEkviXLzlh67o/qbkGKLmdeito4dPCs/fvKXBCZLLEO/aS/FKjzYJ4LmpMfblpU6zUta/150kxh2nDh0Lsz+fEUyS6HSOfS+BKrfxFtpzcIdOkKsjQoLtiaE/749oZ28o+xPrsaxID0/oK4M+aqt9kCsefdsOaZ/Xr9207qb2yQQ5wmYjvbQDnbVKXxvXih3MCaffvtGNJfbxz1/XPmNF1PDTAcnRBDhBhExTfTmnNjg5DWPBMb/+OlfehxIYzXg8MOpzwmah7aqaKyTR87pTm00e2EyR0RkfTdqsWrG2q3vedOq/TrEtusb9WXGhFUSovo/0EyGsSBohgoITCQpUgfqvN74z0w18h5i1qJrZUmlxoSsVNFisAv7sqpILIQBnzgcKmpzvlsrFesUlJfebay9pS1qYGNeJXD1W5VWtt2WpXODvWESyyABvyHgqaPdeCXWm8TgRAxSNIJjPRbXt41nYcTV8DD7tRdimYImtpq0jF1eFRJ0dH8+9DcdidWkQwU9arymGoeBhI5zeC2I0kLYrXWerZkTV6korTTSoHUZ6Te6uc6PQYLfjlwse7cel9Ezuui+iVULtutjj/of9K/0bfWNdH2jgcC+uvc8pOtK4CBkc75b47oE+n6GvTJDOvWrq6O3cACd/If2nJTX2k3SzWOuzNwgARJwETAPPdcODxsQEzwUTUITF4SFzcX3m6msYuJJkGNbRFB3Xp/91/xB4BsDBDGNPMZ2HFaRXPBEIkrIlzlHGjl3+nIYoYnonEc9hugweCEQhxOHz2ovw1OZmM4lnRrICA8GU7e49614Oof7SCCuETD9Hrhva+STp2goq4AYTmZEvKeOeZMnLn6bPiQjJGaAJyZyjG3R9frsv+4VjLEeR/efcd8d7m88nKMyMj7cAqJxAAMR3cOVPRUDjwohzvgwkQAJREwgKu31pm3fU0nuHfOe8sSlfca7M992u3evNm3Z7eZoDwmQQMwSMB3oUbkqvA73ZKae93TMPS9/24cAhcQ+dUFLSMDxBExHuw5hjeRuPDXJBK/JpadS8XQskuJ4OBYJ+LSPJBbvi5cmARIgARKIAQLoI/He4IwYMJiXIAESIAESsB8BCon96oQWkQAJkICjCFBIHFVdNJYESIAE7EeAQmK/OqFFJEACJOAoAhQSR1UXjSUBEiAB+xGgkNivTmgRCZAACTiKAIXEUdVFY0mABEjAfgQoJParE1pEAiRAAo4iQCFxVHXRWBIgARKwHwEKif3qhBaRAAmQgKMIUEgcVV00lgRIgATsR4BCYr86oUUkQAIk4CgCFBJHVReNJQESIAH7EaCQ2K9OaBEJkAAJOIoAhcRR1UVjSYAESMB+BCgk9qsTWkQCJEACjiKgV0hcPu83uXLliv7cuHFDbt++LXfu3JG7d+/qj/WOsI+JBEiABEjAfwnEixcvzM3hNz7x48eXBAkSSOLEiSVp0qT607hxE7W0lUpJkiTRwoGMiRIl0kKC/RATJIqHxsD/kAAJkECcI2BEBSKCZIQEuoEPkktIkDlhwoT6ADwSd2+EYqJ58T8kQAIkEGcIGBHBDWMbHwgJtAJeCT5IWkjww2SAFxJes5Y+495/KCxWGtwmARIgAecTsAqH+90YIYFngg/EBC1YSFpI8AMHrM1a7h6Je6H8TQIkQAIkEHcIGCHBHcMrgWbgG8klJNgB8QjPG6EHonnxPyRAAiQQZwi4eyhGTCAi2MY3khYSuChGQLCT3ggoMJEACZAACVgJGCHBvgeEBDuMi2I8D/NtLYTbJEACJEACcZcAtALJfBsS2iMx7gl2UkAMGn6TAAmQAAl4IuBRSKw7rdsogMLiCSP3kQAJkEDcIeCuC+53rj0SZApPMCIrwL1A/iYBEiABEogbBIw+aCHBLZsdEd1+eGIT0Tk8RgIkQAIk4DwCUdEEc1cuITE7Ivp+mIIjKofHSIAESIAE/IcAZ//1n7rknZAACZBArBCgkMQKdl6UBEiABPyHAIXEf+qSd0ICJEACsULgofpIvG3hRTkhF+W4XJbTclXOy025IrfVf5lIgARIgATCJ5BAEqn/JZVASSXJJJ2kkMzqkyn8E3x8JMaF5JpckJOyU0nHXrmhhIOJBEiABEjg4Qjghfu2evm+pj5n5aA+WS01pSQlr2SQAhIgKR+uwEfMHWNCclP5HEfkPwmRHY9oMk8nARIgARJwJ4AX82OyWX8ySkHJJqWU1xLons0nv2NESE7KLqWZa9ls5ZMqZKEkQAIkEJYAXtjR6pNTKigPJSjsQR/88rmQ7JdV9EJ8UHEskgRIgAQiIoDmr32yUvVBn5Lc8lhEWR/5mE+jtnbJYorII1cRCyABEiCB6BOAd4JnsS+Tz4QEhptOIF/eAMsmARIgARKImACexb4UE58ICZqzKCIRVyyPkgAJkEBMEsAzGc9mXySvCwk61hmZ5YuqYpkkQAIk8GgE8GzGM9rbyatCghBfRGcxkQAJkAAJ2JMAntF4VnszeVVIME6EI9O9WT0siwRIgAS8SwDPaDyrvZm8JiQYsc4mLW9WDcsiARIgAd8QwLMaz2xvJa8JCaY9YSIBEiABEnAGAW8+s70mJBhFyUQCJEACJOAMAt58ZntFSDCLLydgdMYfD60kARIgARDAMxvPbm8kLwnJcW/YwjJIgARIgARikACW8fBG8oqQYD0RJhIgARIgAWcR8Naz2ytCgkWpmEiABEiABJxFwFvPbq8ICVY2ZCIBEiABEnAWAW89u70iJByE6Kw/HlpLAiRAAiDgrWe3V4SEVUICJEACJBB3CVBI4m7d885JgARIwCsEbCMkt27dkbt37j5wU3fVLhxjIoHYJoC/Q/O5fdvz3yT/VmO7lnj92CDg86V2o3pTz1QaITnzZ5CPvu8o8eLHc522ZtEOGdZnuswIHujaxw0SiGkCB3edlJ6NPgtz2cRJEkqeQpnk6ZeqS/maQXIm5KJ0qDJavl7aWzJlSx0mL3+QgD8TsI2QAPLOjUdk5jerpXkX364v7M8VynvzLYEhX7WVTDnS6ItcuXRd/lm8U9574ScZM6ubpEwT6NuLs3QSsCkBWwlJ006V5PuPl0r5WkGSI196j8iO7j8jX777u+wKPipo9ipcJof0fLuRpMuUQi5fuCYD2k2SrgMbyMThC+XU8QtSr0UpadmtioweMFu2rT8kFesUlOderSOp0ibV5a/+c7tM/XiZHD90VvIVySIvDHlcchXI6PHa3EkCmXOllex50rlA5CuaRWZ8vUqC1+yXKg0Lu/Zj4+rlGzLhgwXy34q9cuHcFe1xP/96fSlSNodMHr1EH+/2ZgPXOb/9uE52bz4mvd5trP+Wv3jnd1n3125JEphI6jYvJW2V5wNvff3yPbJ0brASrqSybO5m6TKwvpSomFs+HjhXNv9zQFKkDpTK9QtLx351JGGiBK7yuUECviJgmz4S3GD+YlmlUftyMqr/LPHUBn3n9l15/Zlv9T+gIRPaqYd+I9m//YRMHhW6sP0d1ceyf0eIfDpkvv5H93TP6vLzFyulT4sJgn/w/Ue3kI2r9snyX7donvjH/2HvX6RS3YLy9tftJU2GZFqILp2/5iveLNfPCKxasF1uXL+lRcL91sa9OVf2bj0uvT9oIoM+f1oCkiWWkX1n6mxBxbPKgp836HPNeQumbZC8hTPrn+/2nCaH9p6SPh81lVY9qsrvP62XHz75Sx/DCxOuu+O/I/KE+vcCYfvyvT8Ef//vf9dB/7tYPGuTzP/+X1M0v0nApwRs5ZHgTtv3rqnbon9RAtCmZ7UwN3/h7BWp1qiotOtdQ5ImTyL4x7h/xwktDtaMbV6opj0P7Js1cbWkzZhCCwt+V3+iqGxYuVcaP1tei0zZGkHS/n81cUi/KT5f62P54+f10qJLZb2P/yEBK4FJwxepv73EOjBk16ajcnjfaSldJa+UrJxH95FY82bPm16adX5M/51i/507d+TN56bIrZu3pVyN/MpbiC/rlcdRqV4h7RFDdKpOKCLb/zusPZyxs7spLzlUWJIkSSSfva1ekF6sri8Bb6f/6OaSIWsq/RsedanH8khQiaz695uftZGkSriYSCAmCNhOSODGv6Rc+7e7/iAVaxcIwyB1+mTSeUA9JQR7ZJdqAsA/ZDRXmX9MJnP2fPebHtKqJi+4/SYlTxUol86HLjN5YGeIZMiSSjcJmOPx4sWTQ7tPmZ/8JoEwBG4q7+NGwvi6iamsEoPW6qWlVtPiYfKYH+161dBNsHO+XSM71d/q9g2H9aGbN25LoHrIV2lQWFb8vk0LyYrftmoxQpPr6oU7JFHiBPLrlH9MUXL54nXdFIbmWiScb/27b9imrIx7Y66gnCoNi0j1xkUltwoEYCKBmCBgOyHBTeMND/8QRvWfrbySqi4O167cUE1P38qpY+f1P7pyNfOr6JhUsmXdIVcebCRNERDmd+IAz7eJt7o0GZOH+QdZp3lJyZb7vhCFKYg/4jyBrqpPw9pHEhGQ8YPmCZqYipXPJSUq5ZbiFXLJuDfnuU6p0aS4vKs66uGhQACaPFtBH7t6+bokDkgU5u8ygzqSu2BGSXCvzyOZ2994g9alJVdQBlk6J1gWz9wov3y5Up5/rZ40e56BKy7g3PAZAc9PWJ9dLuoFo8O8R4NPZNrnK10nrVRvb3Dhv1nSW5KlDBULdEh6Gn/iOimCjcwq+iaZaiJDJ6ZJa5fs1F6K+c1vEogOgZAj5+X3H9fLB1M6SPF7HvHfC7bpotCXgQRhCUiaWP6at0UQXvxY/UJ6P/4u0Q9Su1kJVxgxQos3rTkgKVVHuntC0MmK+Vt04EmPtx6X7oMaylfvL5B5k/+hkLjD4m+fELBVZ7v1DhF50vWNBrJnyzHX7hQqvPLmDdW0oJoXkPZuO67f+LAvOqlui5KySkVt/ff3Xh0Bhs7391UnJ94QmUjgUQgEJE2km6cQIox0UTWn/vTJcr1t/l4RgQXP+9uRi1SfSZDu90MGeOSIQvxeRROeP3NFrl+9KZ8Mnq+DRDxFYanWWPlLCQnKQV4Eqly/ekMyKG+diQRigoBtPRLcfM0ni8uS2cESvHa/ZlFe/WMrX7OAdK//iaRQfR0Qlvaq433SiEW6/Vhneoj/NGpfXkKOnpchXX7QIZYIp+yk+mDQic9EAo9CAH9L6CNBSG5A0j/kthoV/0yfWvK5iig8oCILU6vOeaSaqnlrlho7VaNJUdfl0E/4xqetZbRq2u1YbbT+2yxUKru8OPQJVx73jef61pZP35qvBkSOUkJyVzLnSC0DxrZ0z8bfJOATAvGKFSt2Nzg4+JEKXyuTHun8hz35mnrrQqcnvBZvJExrceHMZR3d5Y3yWAYJGAIIWT93+lK4f1sIGBn8/FT5dkUfwUh59wSPJEAJC8QlKsnb/zaick3mcTaBCtLxkW4gKKiAPPiX+0hFxszJ+IeFj7dSQhWFgxBhJhLwNoH4CeJ5/NuCQOzYeFh1iv8tDZ8u61FEYIsZOBtVu7z9byOq12W+uE3Atn0kcbtaePf+TuDKxWvyqer3SKeiBq3BHv5+37w//yTgSI/EP6uCdxWXCGRRU61MWv5yXLpl3qsfE6BH4seVy1sjARIggZggQCGJCcq8BgmQAAn4MQEKiR9XLm+NBEiABGKCAIUkJijzGiRAAiTgxwQoJH5cubw1EiABEogJAhSSmKDMa5AACZCAHxOgkPhx5fLWSIAESCAmCFBIYoIyr0ECJEACfkyAQuLHlctbIwESIIGYIEAhiQnKvAYJkAAJ+DEBCokfVy5vjQRIgARiggCFJCYo8xokQAIk4McEKCR+XLm8NRIgARKICQIUkpigzGuQAAmQgB8ToJD4ceXy1kiABEggJghQSGKCMq9BAiRAAn5MgELix5XLWyMBEiCBmCBAIYkJyrwGCZAACfgxAQqJH1cub40ESIAEYoKAV9Zsbxw0NCZs5TVIgARIgAS8TCBkV8dHLtErQjJv1+BHNoQFkAAJkAAJOJMAm7acWW+0mgRIgARsQ4BCYpuqoCEkQAIk4EwCFBJn1hutJgESIAHbEKCQ2KYqaAgJkAAJOJMAhcSZ9UarSYAESMA2BCgktqkKGkICJEACziRAIXFmvdFqEiABErANAQqJbaqChpAACZCAMwlQSJxZb7SaBEiABGxDgEJim6qgISRAAiTgTAIUEmfWG60mARIgAdsQoJDYpipoCAmQAAk4kwCFxJn1RqtJgARIwDYEKCS2qQoaQgIkQALOJEAhcWa90WoSIAESsA0BColtqoKGkAAJkIAzCVBInFlvtJoESIAEbEOAQmKbqqAhJEACJOBMAhQSZ9YbrSYBEiAB2xCgkNimKmgICZAACTiTgG2EpPeTX0rjoKEyesBsjyTPnrwkTQq+o/OcOnbBYx677Pz58xXSttxwn5vzbs9p8tbz3/v8OrwACZAACUREIGFEB2P6WPwE8WTtop1y+/YdSZAgrMat+nO73L1zN6ZNsvX1SlbKLbdv3bG1jTSOBEjA/wmEfVrH8v0WKZtTLl24KpvXHHjAkpW/b5Og4lkf2B+XdzTpUEGe6lwpLiPgvZMACdiAgK08kvSZUkjBUtnl7wXbpGTlPC48589ckc1rD8izr9SSXcFH9f71y/fId6MWy+vjW0mmbKldef+at0Xmf/+vvDf52Qe8GmS6dfO2TBmzVP5dtkuuXLoulRsUlifal5csOdPoMi5fuKbLXbN4p1y7ckOJVzbp8no9yVUgo+saUcnjyhzOxp4tx+SnT1dI8Jr9kjMog/R463EZ+/oceemdxpK/WBZZOP0/WTxrk7w/uYOrhJAj5+X9l6a58nz94Z/6froPaihrl+yU7z9e5spr3WjVo6pUUffJRAIkQAK+IGArjwQ3iAfeqj93yF1LK9Zq1ayVt0jmMIIBwTm466Ss+G1rGC5/TFsv6ZQguTeNmUzj35wnC37eII3alZNnXq4l//29T0b1m6UP45rv9PhJl9laPXx7vdtYbt64JX1aTJDDe09FOY+5Vnjf505dlre7/ajLfu3jllKhdgEZ3Hmq7N58TIsXzkOf0L5tJ8IUcUPZYs1z7OBZObr/jM6TNVdaqdOspOtTv1VpiRcvnmaEY0wkQAIk4CsCtvJIcJPwEPCmvWPjYSmkxAJphWrWqvp4Eb1t/pMsRRIpX6uAfui36FJZ78YDepN6wx/0eRuTLcz3tvWHZOGMjTL0m/ZSplo+fSxPoUzSt9XXsn3DYTmpOvE3/3NAhv/USQqXyaGPV6xbSLrXHS/fjVwiAz9ppa8XWZ4wF/Xw45cvVyqhvKvKay2JEifQ3tdV5R39+Olyvd/DKZHuyp43veBj0so/tinROSovf9hUcI9MJEACJOArArbzSDJlTy15C2eWVQu263u+eP6qBK/epwXGHUKtJ4vJrk1H5cThc/oQvJPkKQOUSOR3z6p/71Vv+EmTJ3GJCHbiITt900ApVDq77Nx0RDLnSOMSERxPmDC+VG9cVLauP4ifUcqjM0bwn73bjmsbICIm1XiyuNl85O/920/IaOVlocmuTvOSj1weCyABEiCBiAjYTkhgbOWGaN4KFZI1C3fo/gnTh2G9mXI1gyR5qgBX89Zf87dozwUPf0/p0J6TkiZD8gcOqRYgnU4cOqebxdwzpMucUs6fvqyjyaKSx/1899+H956W1OmShdmdIUvKML+j++PC2Su6eS5v0SzS5Y0G0S2G55EACZBAlAnYrmkLlleuX0imjF6i2/cRrVWlYdhmLXN3CRMl0MKBPLWaFpdt6w7Kc31rm8MPfCdLESCXL157YD8681OmSSop0gTKkf2nHzh+8dxVSZ8lle53iUqeBwpw2wERuaQ69a3pyuUb1p96+6YKDLCmS8oOJDSLeUoIm/6g1y+C815XfS/hCaqnc7mPBPyFwLj+0yK8lez5MkqFukUkm/pm8g4Bz6/u3ik72qXkzJ9BsudJJ0vnBsvGVfuUkIQfcVRTNQntCj4ii1TfBx72CCEOL6EPAZ6FaQpDPohIx2qjZcnsTYLrHtl3Ws6EXAxTBCKrct+L2opKnjAne/iRu1BG2fLPwTABBTtUH401BSRNLNev3lAd8vfF5ODuk9YsD2x/9e4fgn4g9OV48rweOIE7SCAOEji8J0TWLgwbpONrDEfUNc1nzZ9b9LavrxmT5dvSIwEANG/NmrhasuZOK9mUqISXipbLpQVkmhpNjj4B00zlKT867CePXizD+8yQZ/vUkmx502nPJ71quqrRpJjcuHZLMCp9VL/Z0vv9JspLCZS5k//RHfADx7fWRSIaKrI8nq5t3deqe1V58YnPZNLwhdKmZzXZsHKvfPPBn9Yskk9FqcHxQJ4WXSvLARWhFl54L05EJNq8Kf/o8hIpTw39PSalSJ3UFd5s9vGbBPyVQK9hof9Ww7s/eCwQk5hIEI216uOe1lp2VKhXVCqqj5OTfYWkfmGZ9tmKcJu1DHQIR00lAj9/sVLgnUSU0Lk9ZEI7PQ3LG89N1lnTq76JPh811c1WgckSyzuTnpExr82RzjXHalHKmjudvDqiuVSqW1Dnj0qeiGzAsRz50qvIsqf1uJHpX/0tSQITyeNty8qsb1a7Ti1SLqcgGm32pNXqs0ZSp08mfUc0k0Edp+iwXlfGextrl+zSWz+pyC98rAnBAv1Ht7Du4raDCOAFB824mPnBmhCIck01iWbImsq6m9s2IBCegHgyDUKDj5MFJV6xYsXuBgcHe7q/KO9bK5OinNcXGb8dsUjW/bVHPp7TLcrF4x8hBiRmVM1h8eKH/QeKQi6dvyYYt5HWQ+e8uUhU8pi8nr7hcYQcVR38GVPIcRV51qP+J/Lh1OekWIVcruw3rt+Ss6cuhRlD4zrIDb8ncPLoeXm52Vcy+Mu2UrBktjD3O/GjhZImY3J5qlMlGdRpqiCYxJpeG9tSRyNa9/nzNh7eSJG93Zs+lMg8l+iy8iQipl8GZaJvxtjq7q3EhphUkI7RvVV9XlBQAbGtRxKVO7uq3sZCjpyTP6Zt0KPeo3KOyZMiVaDgE15CNFhkKSp5IioD3pR1VL6nvImTJIw0j6fzuM/ZBPCis2zOZvW3vV7343m6m3Ur9ihPs7nuR0OIfHc1O0JGi3eCptu4ktD/YH0oRyYmvuIy84ulDzSbeRIHq31Wu8229bivbPVmuY4Wkj7NQ0ecl3wsj9RrWdqbXFgWCcQqgT9+Wi/7d4ToJlA0s7onBIRgqh4Ef2AsVSL1wtGgVRm5fOmaJFfRiZ68bPcy/Ok33vLxwMaDOLYexvAy3PterCKC40f3ntR5zH4Ihtln6iO27DfXj863o4Wk74in5MrF61K0fE7Hh7rCMxk/r4dkvjfnV3Qqk+f4DwE0V6Ff5M5t1f7pIWGuuTJV8+oju9QMBoHJksibHSfruduw3VWNIarXspSHM/13l3mLjy0xMQLgibB7c5fJC5sRiuwuQDiePW8Gx4QoO1pI/Gk2YAQC5C7IuHZP/wjj4j6ISERp3V+7pWqj0EgfzJSAED9MzvnCkEYyRwVnfDxwjp4M1L1fJaIy7X7M9G1E1U7rwzqq50Q3n+nzcD/fKm7ux+CJRJQQotzMIWNdbDmOJCK4PEYCcZ0AvJRgtdRCKdWki/Ti0MYyYXFvKV0lr44I7Pl2IxXll1yWqNmjmWKGQHiigL4bJHS2uyfjhYQ3MDKr8kickhztkTgFMu0kAW8S2KkG4GJ8VTI1rxwSgjYSB9z/p4z+kWKqufe8mi7Hn1JUoqysTUimHyImGHhqnrJeF6JghMPsh31IkXkzJr+dv+mR2Ll2aBsJeCCwXoW6m9mrcXj8oHl6zJU16zY1U0KZqvmsu/x+O7ZEBGBNZ787ZDOCXveF3BMOHQqstk2zl/s5+G1ExtMxO+67/xpjR+toEwmQwAME0D/SY/Djrv0lKuaRz96er+edw+BELOyGqC6scxNXkjX8NyY9EStfIwymbwbH4IVA4HDMfKznWMXP7IfQmLLMPrt/U0jsXkO0jwQsBDC+5IQaO4VVNE3C1D+I3BrY4TsdxYixR2+otW5SpU1qsvj9t9UjiM2HsLm2VUys2zhu+k3grXhq7jJlOKnSbDmy/bIK6cXCVUwkQAJhCWC6FD3TgVq3xz1hpoSzJy9KWjVTAlP4BEz0V1T6XMIvJeIjnjyNiM8Ibc6KDRHxq5Ht+Efww/hlsmzuZsGIdYTDVlSueefX6ul4+sgqIarHsQphSzUJYmThlVEtD+vLv//iz67s6PTMoWYZfu7VOrodG/NenVMzDmNd9ZhMmLH4u1FL5Pihs1JErfbYZ1hTwYzCSD+M/0svHIb168vVzC9tX6qhxiGEHotJG3mthyeAvy8s/uYpodOdIuKJTMzvgyDgExVBia2mOG9SsU3T1rg35ur1x9+Z+IxkzJZKsAbIh71/kYnDFurBVd64aYRNYp2T5s8/5o3iXGVglcWxs0Ln+bpx/ab89esWee/FaTJ1dV9XnpjcADvMcIylfLHa5Ffv/yETPlggL73TWNYs2iHrlu2WD6Z00KOhx6oJKjFrcKvuVWLSRF6LBHxGwHgcEV3AUzhuRPmje8wICs5Hk9ZhNXYEAw1NCi/01xx3yrctorbggWA9kdfHt9IiAngpUgdK35HNpPS9yBNMGTF17FLpWmecjHhlhuaLByCmj3im0kg13foi1yjgXcFH5dXW30jLkh9Kl9rjdNk4YVif6fq83k2+EKwkiLf1z4f+Ju0rjpA+LSaodU2O6uP71FK1YwbMliFdf9ATKV67elP6tZkoW/49qI+7/yeeehXEzKz44K2/+hNFJXSyxcthsoZn14T3F+j5wkxmeBOj+s/SP7E+fC9lb5syH2nPByKB5ImHPqD+g+tkVzMMY/lgvME2V7MIL5+/VR/GCHpMkY/QUbSlB5XIKlvDuS9THr9JwJ8I6KgpNZo8phNEA8KCb/OJaRt8dT1beCS7VUdhuswpHugcxMy7aWvk1/d+QT1AZ3y9Snq921iwfsgGNWEdppnvP6a56k8JUCN558q65bulXI0gtUrgz9K6RzW91jqayj4bMl9qqhUUXxz6hF6W973JHdQ5gapzcrKOt/94TndZOP0/GdLlez2w6/q1m2qhq2Bpqd7SG7YuLQFqmndMIx/RTMCmgjAjMKZ+xxxI1uWB0XQXnl0FSmSTX6f+Iw3UtZCWzdss+dVSuRC7od1+lG6qWaxU5TyCWY5//mKFdB5QT9x5mOvjGzPGWps4YDfmZUJTVm7lPZmEFRUXKgFv2KaM2cVvEnA8AV/2fTgejo9uwBZCcvbkZUmqxCCyVFxNr27WHEHTTe2nSkihUtn1aU91riRrF+/U/RKvjmyuVkrMoT2UAuqNG8Jw9dINLTjIDG/nwK4TckgtFjXip07ai8ACU78qDwehlVijBH00z7xcy7VQFhaXCi8d2BmivRocR1RNoPJKsMaJNd25c0fCs6tCnQIy7s25cu7UZb3k75pFO6Vdrxry9x/b9TQXWG8FCf0ug9V04RASJCsPvePefyBAAUkTuXYlDgjdvnrlhmvGYwjbJ4N+laSqbwRroTCRAAmQQHQJ2EJIcuZPL8cPnHngHvCwO338gn6w4yAe8CaFqLfuVQu36zd5sy9TjjR6gapL6mE+oO0kJRYh2jPAcTzIrSlErf+Bt3PTAY1jhVWn9OkTF/V10imvB52XUUmZcqSWV4Y/pbNianp0hrp35idIEF+tceLZroDAAClfK0hWL9yhVoNUK0KqxbTgUWCtkt2bj0nb8sPDmAEbkaw8rBmwIiJmjjXpmhIQCGPylKHT5oMrBrHt2Xpc3lfeGWxjIgESIIHoErCFkKA9H80sWB4WzTwmrV28Q3e4T13zqt5lfeAlV2387XvX1MvQ4uCtW0oo1BMy5Mh5GfbydB2lVFY1c2Ef+krw8LSmFGmSyvGDZ7TXYlaeO7TnlMvjsV7Lep6n7YDAxC7PyNNx7IvMrupPFJPfVT9Q1lxppZrqY0HCgx9NWljV0SSIghG/8GxEM+HJY+fNKbqpC82BRhi/eu8PPfX4e989yzBrFyVukAAJRJeALV5F8fbesV9dGfnqLDmhPAWkg6rZafKYpVK7WUlJmvzBMSWl1AR1S+cEC8acIH2jopI+e/s3tQjQZb10baV6hXTfBvpIkG7fuq07w3Gt66rzHNFM8dWbOLwaJHRQH1VeUT7VN+Ep4e3dXMvT8cj2RWQXzi1bPb/sVddYr5rWqqj16pFKKhHZuGqfjmbD71ULtgvWYIHoRpSwPsuRfadl+3+Hdd65k9dKxXtLBa/8fausUZ7P0IntdVMfItnu3nFT2YgK5zESIAEScCNgC48ENjXtWFFP6/CmWksdUVJJVLs+HqjwOjylRu3K6Yd/p+pjJKNqSkqlPIwBY1voPobiFXNLr8ZfaAFCaG72POm0SKC5qESl3DrSa9T0LtJXNUeNeX2OTB65WK6oyLF+o5rpqLEzalCXexrcaYpuvsIDPzoJU95HZBeanrC+xKnjFyV1umT6EvmKZJbn+taR3k2/1B33EL5e7zWJtCkK0VjooMf67ikVFzS1YY14pOlfrdIjoxHpZhIit0YrHkwkQAIkEB0CthzZjhBXdIhHJWGkL97Q3QfUIaQ4QcL4OsTVvRwIFSKxkNDkBW/BPLzd83r7d0R2jeo3S4c711IRZtYEr+HyxWtRZmLOBRcEGTzqksCmPH6TAAn4HwG/GtlurZ6oigjOsU6fbS3DXVisx4yIYB/6DWJKRHA9T3ZhYaIFat35HRuPaI8D+awJfTgPw8Sciz4UioihwW8SIAFfEbBFH4mvbs4p5aZUUVaYtRX9FmjiYiIBEiABJxGwTR+Jk6B521aE8UY0TsXb12N5JEACJOBNAvHdw2K9WTjLIgESIAES8H8CbNry/zrmHZIACZCATwlQSHyKl4WTAAmQgP8ToJD4fx3zDkmABEjApwQoJD7Fy8JJgARIwP8JUEj8v455hyRAAiTgUwIUEp/iZeEkQAIk4P8EKCT+X8e8QxIgARLwKQEKiU/xsnASIAES8H8CFBL/r2PeIQmQAAn4lACFxKd4WTgJkAAJ+D8BCon/1zHvkARIgAR8SoBC4lO8LJwESIAE/J8AhcT/65h3SAIkQAI+JUAh8SleFk4CJEAC/k+AQuL/dcw7JAESIAGfEqCQ+BQvCycBEiAB/ydAIfH/OuYdkgAJkIBPCVBIfIqXhZMACZCA/xPwyprtjYOG+j8p3iEJkAAJ+CGBkF0dH/muvCIk83YNfmRDWAAJkAAJkIAzCbBpy5n1RqtJgARIwDYEKCS2qQoaQgIkQALOJEAhcWa90WoSIAESsA0BColtqoKGkAAJkIAzCVBInFlvtJoESIAEbEOAQmKbqqAhJEACJOBMAhQSZ9YbrSYBEiAB2xCgkNimKmgICZAACTiTAIXEmfVGq0mABEjANgQoJLapChpCAiRAAs4kQCFxZr3RahIgARKwDQEKiW2qgoaQAAmQgDMJUEicWW+0mgRIgARsQ4BCYpuqoCEkQAIk4EwCFBJn1hutJgESIAHbEKCQ2KYqaAgJkAAJOJMAhcSZ9UarSYAESMA2BCgktqkKGkICJEACziRAIXFmvdFqEiABErANAQrJI1TFjWu35Nypy49QgsjFc1fl2pUbj1QGTyYBEiCB2CSQMDYvHt61ez/5pezddlxGz+giQcWzhpfNp/vv3hVpUmCotH2purT/X03XtbD/ly9Xyj9Ld8nOjUfk1s3bkj1vein5WG5p/UI1SZcphStveBuXzl+TKWOXSPCaA3JwV4jEjx9fgkpklTJV80nrntUkYcKH0/d3e06Tm9dvydtftwvvktxPAiRAAj4jYDshObAzRPZtPy55CmWSBdM2xJqQhEd8wvt/yLzJ/0iLbpWlU786kihxQtmwYo/89uM62fzPQfno+46SPFVAeKfL9as35e1uP8jR/aflmZdrSaHS2eXCmSuybvluLVDHDp6RV4Y3k3jxwi3igQMlK+WW27fuPLCfO0iABEggJgjYTkgWz9wk+YpmkfqtSsuk4Yuky8D6kiQwUUywiPQac75dI7MnrZGh37SXMtXyufLnL5ZFHqtfSPq2/FqGdv9Bhv3YyXXMfWN435lyeM8p+eS3FyRthuSuwyUr59H3PbzPDMmYLbU826eW61hkG006VIgsC4+TAAmQgM8I2EpI7t65K0vmBEv9lqWkcv3C8tnbv8ny37ZK3eYlXQCmjF4i//29T974tLWkufcghoeweNYmGfBxC8mkHsKXL1yT70YtljWLd+r+h6Di2aTL6/UkV4GMupyl6hprl+yURu3KyXcjF8v+HSGSMyiDdH+zoW5icl3MbQPXKF8zKIyImCxo3urYv658MuhXOXbwrGTJmcYccn1fuXRd1izcLp361wsjIiZDjcbFZM2iHbJoxkaXkHyuGCQJSCSdBtQ12WTlH9vk589XyJiZXfW+rz/8UzexdR/UUL4ft0zWqvv2lAaOb61EKpWnQ9xHAiRAAtEm8HCN8dG+TNRO/O/vvXIm5KJUe6KopE6fTEqoJpsF09aHOblh27JycPdJwcMT6fDeU2p7geCNHiKCPox3evwkK5QAte5RVXq921hu3rglfVpM0HlxzrnTl2X98j0y7OUZ2gvoqJqo0Gk+uPNUlfc2sjyQsH//9hNSqkreB46ZHYVKZdebu4OPml1hvnep/bCvVJU8YfZbf6CMU8cvyNmTl/TuI/vPaGGy5rlw9ors3nzMtQvCdVTlQypSNofUaVZSf+o2LyV1W5SSE4fOCUQsZdqkrnO4QQIkQALeImArIVmkmrXgNRjPoWaT4rJ13SGXAOCm02dOKZ0H1BN4FZtW75cxA+ZINuUNtO9dQzOBgGz+54C8+Vkb7XFUaVhE3v32WUmTLrnyPpa4uKHD+6V3nhC8xcMzeWHI43Lx/FXBw95TQuf/LdUPkSl7ak+H9b4c+dLrjvKd4ZRhys6U/UFvxRSau2Amvblrs2c7TL7wvktVzito6sKn8bPl5ci+03JTBQS8+WkbCbBJE2F4tnM/CZCAMwnYRkgQArvqz+1Ss0kxF8nKDQqrzuwE8ofqdLemBm3KqCipPMrz+FF2bzkmrw5/ShImSqCz7Nx0RDLnSCOFy+RwnYIoqOqNi8rW9Qdd+7BRQpVhUtbc6fQm3tw9pQQJQlGh+S28FC9+PO1x3IXb4SFFqYx49070XISHUsPfteDnDTL3u7XS56MnddNd+Dl5hARIgASiT8A2QrLy9206ounHT5dLmzIf6U/nGmO0F7B45kb9bW4TEU2telSRq5dvSPGKuSW3ivAyCc04nkJw0ylP5rxq0rp9OzS6KXFAwjBv6ImThHYXhScCuAZE7fihs+ZSD3zj2ig/h/KQPCWE+CJFVIZpokKfy6OkbesPyadvzZeW3aoIvDImEiABEvAVAdt0tqMjG01DzbtUDnOviHCaPuFv3UltHojwCqaMWSppM6bQobf/qjEd5VQnOFKKNIFyRIXWuicM/EufJZUYryDew8TXqsLg1eQtnFl10u+SZs8/5ioe/S2p0yXTv9HvgmQVNr3j3n/yF8sq8FrQ0Y9IL5PcywhImlh7VeY4xqpY0yV1LxEl9LG8/9LPUrxCLunwSu2IsvIYCfgdgXH9p0V4T9nzZZQKdYtINvXN5B0CtvBITh27oPo79km9lqXVp1SYz7Ov1JIUqQLDNG/N/Ga17Np0VIZMaCsV6xSUcW/O05FaQJIzfwbdL4BOe2sKXrNfct+L2rLuf5jthk+XVYMI98vK37e6Tvvy3d912O+qBdtl8pglOqqrYMlsruPWDfRR1HqyuMz8elUYrwQDMBH2i6YoRGS161VD4icIbeMKVKKCvhtrQrBBeOmGGpj4nhqgCA+r/9gWrnLCy8/9JBDXCBzeEyJrF97/NxwT939EXdN81vy5RW/HxHVj6hq28EiWzN6k77e6itZyT+j7QP/G/B/Wycmj5+X6tZvKG1miPJfHtIeATvKej38mX773h+oLaKrHnyA0dlS/2dL7/SaSUnkoc1V4MDrgEf76KAkih2apD/83XZp3PqpErIDuqP908Hx578Vp2tt4Xo17iSjBJngM/3vqK3lWDUgsUi6HdHy1jnyl7F82b7MOz23aqaKriLxFM8tUdb9LZgdLKRWZtnrhDiVk21zH3TfGK1HdpwID+o5sLsdVNNexu6HRXMiHTv5UjNxyR8bffkag17CI/53DY4GYxESCaKxVH/e01rKjQr2iUlF9nJxsISRo1ipSNqdqekrpkWVtFc7669R/9Rs7mo/Q39FWvbUjIYrrOfUg/mzIfNUXUFgq1Cog70x6Rsa8Nkc61xyrR4ijI/3VEc2lUt2CHst/mJ0YKAgPCYEBsyet1n032fKkk4ZPl5E9W4/L4E5T9DiRao0890tAGN9QEVQ/qPEeGA3/+dDftNeQv2hWqVkqmxaJ19t/q6PJMDCzyTPlZfuGwzLy1ZnaTOzrOfQJFa0226PZGDuD6LKP/vfLA8dfVFFqjyuvislZBDCnG/5ujJdqrIenek31E2bImsrs4rdNCIQnIJ7Mg9Dg42RBiVe0aLG7mzcHe7q/KO9bK5OinDcmMyLE94YaQ2IdQe7N619T050gysuUj2CtJUoUQ46dl6fVnFlRSRi/go7/pMmT6Owo85cvVqqpYbLoZjtTBgZZYiwLxtcwxR0C8MJfbvaVDP6yrbg3mU78aKGkyZhcnupUSQZ1miqH9oRt8nxtbEs9BU9coYWHN1Jkb/emDyUyzyW63DyJiOmXQZnomzG2unsrsSEmFaRjdG9VnxcUVEBs4ZE80l1EcHJEc15FcFqUD6HPwzo2A/33tZuViPL5yOguDCjvmZdrPlBGspThz9/1QGbucDwBeBvL5mxWfYPr5byai81TWqfmeOs/url+wQhWfYzd33pcMlq8k2x5Q0PaPZ3rb/vQ/2B9KEcmJr66/5lfLH2g2cyTOFjts9pttq3HfWWrN8v1ayHxJiiWRQIxSeCPn9brqXsGff60bqJ1vzaCSeClIrgEgSeJVHBFg1Zl5PKla5I8RYDur3M/x59/4y0fD2w8iGPrYQwvw73vxSoiOH5070mdx+yHYJh9pn5iy35z/eh8U0iiQ43nkICPCaC5Cv0id257HpmKvsIyVfNqKzALQmCyJPJmx8k6qhDbXd9ooKMffWymrYo3b/GxJSZGADxBcW/uMnlhM0KR3QUIx7PnzeCYEGUKiada5z4SiGUCEJGI0rq/dkvVRqGRPpi+B1MqtFJzy70wpJHMUTNUfzxwjp7NwL1fJaIy7X7M9G1E1U7rwzqq50Q3n+nzcD/fKm7ux+CJRJQQotzMIWNdbDGOJCKYPEYCJBCWALwULIpW6t4UPy8ObSwTFveW0mpCUQzq7fl2I9X3llwHfoQ9k798RSA8UUDfDRI6292T8ULCGxiZVXkkTkn0SJxSU7STBO4R2Bl8RLLmTismAANBHoj8MwmzJxQrn1POq1mi/SlFJcrK2oRk+iFigoGn5inrdSEKRjjMftiHFJk3Y/Lb+ZseiZ1rh7aRgAcC6/9S/SOWhdXGD5on0z5bESbnNjX2CEs3x6UUWyICxqaz3523GUGv+0LuCYcOBVbbptnL/Rz8NiLj6Zgd991/jbGjdbSJBEjgAQLoH+kx+HHX/hIV86hF4OZL1ceL6MGJ87//V6/rU6F2AVcef9+whv/GpCdi5WqEwfTN4Bi8EAgcjpmP9Ryr+Jn9EBpTltln928Kid1riPaRgIUAxpecOHIuzKSfEBBEbg3s8J1cuXhdz7P2xiet49R0OFaPIDYfwubaVjGxbuO46TeBt+KpucuUYal222/acmT7ZfWPIVmK0JHetifoYAPRaYv29IecCNnBd+x80zFdytlTlzwusIaZFc6evKhnxXb+nfruDkz0V1T6XKJrhSdPI7KyYsuT8quR7fhH8MP4ZbJs7ma9zgjW/qioXPPOr9VzLVoVWUVE5TjWO2nZtbLXyvx7wTZ5/8WfXZdGpyfWI8H8X2jH/kldD9PEYyXGmEyYpfi7UUv0JJNF1CJffYY1FUxPbxKmdunb8mv534dPilki2Bzjt30J4O8rvFU68UKApRWYYp8AvAp8oiIosSUg3qRkm6atcW/M1euOvzPxGT0DLtYP+bD3LzJx2EI9uMobN4038Cmj1czBlvVEvFFuHrXo1dhZ3XRRN67flL9+3aJnA566uq83in/oMsAO09IPVM0bWEPlq/f/kAkfLFBLCzfWZWEG4e8/XqabSB66cJ5AAjYnYDyOiMz0FI4bUf7oHjOCgvPRpHVYjR3BQEOTwgv9Nced8m2LqC2sdLhoxkZ5fXwrLSKAlyJ1oJoKvZmUvhd5gikjpo5dKl3rjJMRr8zQfOdN+UdPH/FMpZEyafgi1yhgrI3+autvpGXJD6VL7XG6bJwwrM90fV7vJl/IBRUaiSnhMftu+4ojpE+LCa712vdtP6Fn1x3S9QfpUf8TwUSK/dpMlC3/HtTnu/8Hi2RhZlZ88NaP6fCxLshZNSGjNYVn14T3F4RZbwXexKj+s/SpmP6+l7IXq0bC84FIIHnioQ+o/+A62dV4gkKls+uwUCwWtnz+VnNY0Bn7vw+aSOYI1o53ZeYGCfgZAR01pUaTx3SCaEBY8G0+MW2Dr65nC49kt+ooTJc5xQOdg5hVN22N/PreL6gH6Ay1IFSvdxvrqeM3qAnrEPLYf0xz1Z8SoEbyzpV1y3dLuRpB8kGvn6V1j2p6HRM0lWGK+ZpNi8uLavr1Fb9tlfcmd1DnBKrOyck63v7jOd1l4fT/ZEiX7/XALqx5gvU/WnavIg1bl9YTM5LtC1EAACwtSURBVGIKejPLb0SVgRmHMb085kDKkjONKyua7sKzq0CJbGqa/H+kgboWEtYlya+mi4fYDe32o3RTzWJYi+TbEYvk5y9WSOcB9cSdh+tCagMzxlqbOGA35mXCSosYMT30m/bW7NwmAb8i4Mu+D78C5cWbsYWQnD15WZIqMYgsYenYmmqFQSQ03dR+qoSrff+pzpVkrVqLA/0Sr6pFnYqUzaE9lAJqnXQIw9VLN7Tg4Fx4Owd2nZBDu07KiJ86aS+ijZr2/Vfl4SC0EuuioI/mGbXwlOmIbqH6VcJLB3aGaK8GxxFVg1UNsciWNd25cydcuyqoBbLGvTlXMKV8yjRJZc2inXqVxL//2K6nuajZpJguCv0ug9V04RASJCsPvePefyBAAUkTuXYlDgjdvnrlhl5LxXWAGyRAAiTgBQK2EJKc+dPL8QNnHrgdvMWfVqsJmgWvzDcyhqi37lULt+s3eXNiphxp9Jrsl9TDfEDbSUosQrRngON4kFtTyOFzem11awd0YdUpffrERX09LJ5lRMR6nqftTDlSyyvDn9KHsOgVOkPd50rCWvHh2RUQGCDlawXp1Q+z5Ukr2dRCXPAoQo6ek92bj0nb8sPDXBY2Ill5WDOkSJ1Uzxxr9l1TAgJhTJ4y0OziNwmQAAl4jYAthATt+bdv35Gdm44ImnlMWrt4h+5wn7rmVb0LD2OTkqv1Odr3rinGU8CqgJi4LuTIeRn28nQdpVRWNXNhH/pKIErWlEK9+R8/eEZ7LWbluUN7Trk8Huu1rOd52g4ITOzyjDwdx77I7Kr+RDH5XfUDZc2VVqrdW3IYD340aQ2Z0M5VLETBiF94NqKZ8KRaXMskNHVhJcmoCqM5j98kQAIkEBUC95/MUcntozx4e+/Yr65aTnaWnFCeAtJB1ew0ecxStVBUSdfqgdbLl1IT1C2dEywYc4L0jYpK+uzt39QiQJcliVocqlK9QrpvA30kSLdv3dad4bjWddV5jmim+EqY4NUgoYP6qPKKsJStp4RldM21PB2PbF9EduHcstXzy151jfWqaQ1LBiOVVCKycdU+Hc2G36sWbJc+zSdo0cXv8FJJNZnfkX2nZft/h3XeuZPXSkUvLDMc3vW4nwRIIG4TsIVHgipo2rGintbhzecm6yipJKpdHw9UeB2eUqN25fTDv1P1MZJRNSWlUh7GgLEtdB9D8Yq5pVfjL7QAITQ3u1pTHSKB5qISlXLrSK9R07tIX9UcNeb1OTJ55GK5oiLH+o1qpqPGzqhBXe4Ja7Gj+QoP/OikoOJZJSK70PSE9SVOHb8oqdMl05fIVySzPNe3jvRu+qXuuIfw9XqviW6+i8iGxGqRI3TQD+o4RfNAUxsWSGIiARIgAV8QsOXIdoS4okM8KgkjfdEsFpjs/mA7nIeQ4gQJ4+vpItzLQTivWSIXTV7wFszD2z2vt39HZNeofrN0uHMtFWFmTRj/cvnitSgzMeeCC4IMfL3ksLkev0mABJxHwK9GtlvxR1VEcI51+mxrGe7CYj1mRAT70G8QUyKC63myCwsTLZi2QXZsPKI9DuSzJvThPAwTcy76UCgihga/SYAEfEXAFn0kvro5p5SbUkVZZciaSoZObK+jq5xiN+0kARIgARCwTR9JXK4OhPGa6LO4zIH3TgIk4EwC9EicWW+0mgRIgARsQ4BCYpuqoCEkQAIk4EwCFBJn1hutJgESIAHbEKCQ2KYqaAgJkAAJOJMAhcSZ9UarSYAESMA2BCgktqkKGkICJEACziRAIXFmvdFqEiABErANAQqJbaqChpAACZCAMwlQSJxZb7SaBEiABGxDgEJim6qgISRAAiTgTAIUEmfWG60mARIgAdsQoJDYpipoCAmQAAk4kwCFxJn1RqtJgARIwDYEKCS2qQoaQgIkQALOJEAhcWa90WoSIAESsA0BColtqoKGkAAJkIAzCVBInFlvtJoESIAEbEOAQmKbqqAhJEACJOBMAhQSZ9YbrSYBEiAB2xDwyprtjYOG2uaGaAgJkAAJkEDUCYTs6hj1zOHk9IqQzNs1OJziuZsESIAESMDfCcSPF8/fb5H3RwIkQAIk4EsC7CPxJV2WTQIkQAJxgACFJA5UMm+RBEiABHxJgELiS7osmwRIgATiAAEKSRyoZN4iCZAACfiSAIXEl3RZNgmQAAnEAQIUkjhQybxFEiABEvAlAQqJL+mybBIgARKIAwQoJHGgknmLJEACJOBLAhQSX9Jl2SRAAiQQBwhQSOJAJfMWSYAESMCXBCgkvqTLskmABEggDhCgkMSBSuYtkgAJkIAvCVBIfEmXZZMACZBAHCBAIYkDlcxbJAESIAFfEqCQ+JIuyyYBEiCBOECAQhIHKpm3SAIkQAK+JEAh8SVdlk0CJEACcYAAhSQOVDJvkQRIgAR8SYBC4ku6Niz77p27curYBRtaRpNIgAScSsCWQtL7yS+lcdBQ2RV8NMa4Xjh7RRbO2Oiz6z1beZT8+MlfPis/soJX/rFN3u76gzxdbph0rD5GOih7hveZIdvWH4rs1AeOz/l2jTQv9v4D+7mDBEggbhKwnZAc2Bki+7YflzyFMsmCaRtirFbGv/mrrJi/JcauF5MX+nvBNvmw9y+SJDCRDBjbUj797QVp27uGnDhyTgZ3nip7thx7KHNy5M8gtZuVeKhzmJkESMB/CdhOSBbP3CT5imaRx9uWlWXzNsv1qzdjhP6du3dF4sWLkWvF5EV2bjqiPY+WXSvLax+3lDLV8klOJQSPP11W3vv2WcmaK6289fz3cvrExSibVbpKXnnpncZRzs+MJEAC/k0goZ1uD+33S+YES/2WpaRy/cLy2du/yfLftkrd5iVdZh7ed1pGvDJD+nzUVCYNXyTbNhxS3ktm6f5mA0kckEg+GzJf9m47LpXqFpSW3atKlpxp9Lm7Nh2Vrz/8U3art+9UaZJK8Yq5pMvABpI8VYB88c7vErxmv+D6Lzf7SgZ/2VbSZkguZ05eki/Vsc3/HJAECeLrhzDOSZYiiS4TxzJmTy2Hdp+UNYt3StOOlaRV9ypy7vRlmTp2qaxV+1KkDpS2L1V32W828ICfPGqJ7Fce2M0btyRnUEbp0KeWFKuQS2dZqjj8s2SX1FUsUNYRdd8lH8sjL3/4pGxavV++H7dMzp+5InWalZSW3SpLQNLEpugw38vnb5VkKQOkzYsP2gAPpd+YFtKj/iey7q/dUr9Vadm//YSMeX2ODFD7syiRMWlQp6lSpUFhafh0GS3wc79bKyOmddaMhnb7wWQL8126aj55rm/tMPv4gwRIwP8I2EpI/vt7r5wJuSjVnigqqdMnkxKVcqvmrfVhhAQeyu7Nx3STTLVGRaWUejue+fUq3XQDr6JkpTzyWP1C+uGL6ur1XhO5ps55q8v3ElQ8q/zv/Sb6QT/t8xVyru8MGTKhnVSoXUC2rjskt2/fkcbPVpCkyRLLlUvX5eWnvpJEiRNIy65VJFW6ZPLD+GUy8JlvZczMrhIvfjw5evCsoO8hcZKESphyS0olGnBsRvadKUcPnJFO/etqjwqCePHsVddfD5rv+rWeKOXVdbsqYTp1/IK+z7fVA/m7la9IoLo+xGjd8t2y5d+DyqbycvnidZk9cbX2HkKOntcPfQjfD6rfJXvedFLzyeKu8q0bOzcekUKlskuAEg1PKXuedFpM0R8FIQEr8L1+7VaY7Pt3nJDCZbLrfeeVbXu3HtfbgUrAIGYmxVeCi34XCGHDNmXNbn6TAAn4MQFbCcki1ayVq0BG/QHzmk2Ky1j1dnx47yn1sEwfphoqq7fjLgPr6313lADA23iqcyXp8nroPgjBnG/X6gf7wV0hgs70516tLXkLZ9bnpM2YXLb8c1AfR1PNr1P/lVs3b7tE6/uPl8nZkxflq0W9JHOOUK8mX9HM0vPxz2TZr1uUbcV0ORfPXZUJi3tJ2owp9O/Vf26XDSv3yri53XU/D3bCaxnUcYq+Fn7Do8iRP730H9VceVGhVZA1Vxp5t+c0CX1g50A2uXT+mvRWwgfvDOnAjhBZu2SnDP7iaS1+2LdDCQU8F09CAqFB/0eDNmWQNdyUu0CmaAc2QPSadKjgKvuYEtDJoxdrjvBemEiABPyfgG36SK5duSGr1EPYPKCBHmIBj+APD53uxcrndNVO7oIZ9Xa5Gvld+/Bgh3dz/dpN3SeAZpwPev0iMyas0s1EVRoWkW6DGobbLRK89oDkKphJP8zxho7PDfWWjiav7ZZIp6y507pEBBffo97UITwIFjAJQpUiVaD5qR+84+f10CJy9fINQTPX7i2hb/jwCKypWPnQpi7sy6XuEzxKqCYukyCI8H48JtXnAw8BghJhUl1D8KQeNeFe3unxk2pOTCs9hz7xqMXxfBIgAYcQsI1HsvL3bboZ6MdPl8svX6504bt1644snrlReRN1JGHC+7qXLlNKV5748UP3Z8oe6jngQAJLXvQfvPNNexk/+Ff55qM/9Qeez/Ov1dP9Hq6CLBshh8/pqCb0mbinE+qYSemzpDKb+vvI/tOSRomNe0qXOdRjwX40of04/i9ZPGuToCw0O8EenSxP9ISJEkhK1Z9jUgLVnJYqbbIwzVTW+zT5zDdiB/IXyyLHD9231xyzfh/df0ZKqD6jR0kwe4Rq0jt/5rKMndVNN/c9Snk8lwRIwDkEbCMkeKjmyJdemnepHIbe4T2nZPqEv2XNwu0CL8IkdH4/TCpSLqd8Ov8F3UyGjnGEFg/p+r1MWNRbMmYLKwYoF53w2fPll4HjWz1wGbzlm+RuR/rMKWXfthPmsOsbb+smoZN91jerpPUL1aRM9XzqYZ9VNVudkP+pPhlrikgkrPki2i5QIpv89uM6uXzhmu50R17YgrLRt7NfNZfBc8tt8aCQB818JkEkLp1XfTwReC1TxiyRf5fukncmPSPps9wXeVMGv0kgpgiM6z8twktlz5dRKtQtItnUN5N3CNx/InqnvGiVgpHWm1bvk3otS6tPqTCfZ1+ppZuFPDVvRfVi2/87rAfjoc8BfS0tlFj1U/0Td27fVZ3GoWMo8PZubQLCWImNq/bpByqaxfDBc3Tkq7Pkn6U7w700+mCOqU54RHyZhAe1dTT56oU7pFK9QtJOjeVARzg8rX3qgY50W9nkzYSmwttKFCarB71JS+cGS7e642Xh9P/k07d+1U1zjdqV04dN9NdFCMe9dPzQWRVZdl9YzH7zvUJF1v2kPMlOA+rqAAmzn98kYEcCh/eovsaFW2PUtCPqmuaz5s8tejtGDfDxxWzhkSyZvUnfZnUVreWe0LxTvXFRmf/DOjmpopWik3Krvg5EJX394QJ5WoXiJkqcUI1i/0/1H8STQqVDO7YRfYSOaURJBSkPoWW3KjrMdfRrc+TpntV0FNnk0UtkoxK8nm83CtcMRIChj2SsOg+huoiw+kYFAqA5yyREP61fvkcLToasqVSn/wH5+v0F+jD6dLyZ4Gm8Nq6VvNP9Ry1mDdX4kSJlcuixOmOUjUi93m0sSZOHhjRnVuHS2J722QrJrIIErqq+q8+G/CaoB08JHs3oAbMFob6IskOY9d17rgvOMcENns7lPhLwBYFew1pHWCw8FohJTCSIxlr1cU9rLTsq1CsqFdXHyckWQoJmrSJlc4bbJFJbhZciqurPX/6Timp8yMMm9EG89M4TMkOFCXerM14/1NEE9ZYaL4IwYySM1IanMKDtJPlw6nN6PMegz9vohyj6SdCEVVg9gPuOeMp1jic78BB+68unZWS/WdKh6mjdmd+gdRkVvnvN1bHfQg0OhMBg/AbCiPHA7j+2hY5Q2/nfET1ew1PZ0d2HIIQ3Pm2tgxaGvTxdhzanVuHM1RoVkTtK3yZ8sEBOK6/p6Z7Vdf8LIsXGvTlPuiqvBZ5Yu141JL6yU9T/3RM8SYRkb1ixR3+sx9FXNPnvV6y7uB0NAgjygCjjxcea4DVeU82UeBlhsheB8ATEk5UQGnycLCjxihUrdjc4ONjT/UV531qZFOW8sZ0RYcGIjEL0lXvSfQEXroaJsEKes6qZCv0JGNj3MAkhx/B+ECLrKeFBgOa1VGmTejrsk33wjDBuJVO21K7yMe4D/SivDHvKtQ/NfBA79He49wO5MnHD5wTghZtBsgVLZgtzvYkfLZQ0KmrvqU6VBANGD+05Geb4a2o6nEKlQ8f+hDngpz/w8EaK7O3e9KFE5rlEF5MnETH9MigTfTPGVndvJTbEpIJ0jO6t6vOCggqILTySR7qLhzwZHoNpxnE/Ff0k1jBdc9xTFJY5FtG3NeLKUz5P1/KUz5v7IApWEUHZ8LTwsSZ4SpmUp8QUOwTwkrFszmblRa7XMxh4smKd8gL7j26u+6+ClWfY/a3HJaPFO8mmBqrGlYT+B+tDOTIx8RWXmV8sfaDZzJM4WO2z2m22rcd9Zas3y41zQuJNeCyLBHxF4I+f1uuIukGfPy2da4594DII4EAkHuZNQ79UIuUxN2ilmlAvXZPkKQJ0k+kDJ/nxDrzl44GNB3FsPYzhZbj3vVhFBMeP7j2p85j9EAyzz1RPbNlvrh+dbwpJdKjxHBLwMQE0V6FfBE2fnhKCNcpUzasP7dp8VDWfJpE3O07Wc8Zhu+sbDXT0o6dz/XWfeYuPLTExAuCJr3tzl8kLmxGK7C5AOJ49bwbHhChTSDzVOveRQCwTCC9KzpiFSTarqrnmkDBJKaYmaNWjqrwwpJHMmbRGPh44R00EmkHc+1XM+U78Nn0bUbXd+rCO6jnRzWf6PNzPt4qb+zF4IhElhCg3c8hYF1uMI4kIJo+RAAmEJQAvJXjNASl1b6qcF4c2VvO99RZMxYNBvQhPT50+uSxR0ZBMMUMgPFFA3w0SOtvdk/FCwhsYmVV5JE5J9EicUlO0kwTuEdgZfEQwx5uJIkSQiJn8E1kQKIG56M6rqEF/SlGJsrI2IZl+iJhg4Kl5ynpdiIIRDrMf9iFF5s2Y/Hb+pkdi59qhbSTggcD6v1T/iFqgzKTxg+bpAaTmN763bTis+lDu57Ee89ft2BIR8DSd/e5szQh63RdyTzh0KLDaNs1e7ufgtxEZT8fsuI8eiR1rhTaRQAQE0D/SY/DjrhwlKuZRi8DNl6qPF9GDE+d//6+ePw2zLMSVZA3/jUlPxMrXCIPpm8ExeCEQOBwzH+s5VvEz+yE0piyzz+7fFBK71xDtIwELAYwvOXHknJ7V2eyGgCBya2CH7+SKWgANg2ff+KR1jA50NbbE1rfVI4jNh7C5tlVMrNs4bvpN4K14au4yZcQWy+hc15Yj27EaoFnONjo3xXNIwF8JYLqUs6cueRwsipkZsBibWWTNXxk86n2Z6K+o9LlE91qePI3IyootT8qvRrbjHwGWsl02d7Oe5hwLOFVUrnlntWZIZKGQkVWQ9TjWO2mp5rryVplrFu2Qb0cu1lPUW6+D1Q6LqanrsWojEwl4iwA61cObcQCd7hQRb5F+tHLgVeATFUGJLQF5tDsMe7ZtmrbGvTFXsMDSOxOf0euDYAnbD3v/IhOHLdSDq8KaHb1fCJucombwbf78Y9ErgGeRAAnYnoDxOCIy1FM4bkT5o3vMCArOR5PWYTV2BAMNTQov9Nccd8q3LYQECy0tmrFRvlMzxZoJDFOkDpS+I5up9UJCl6DFlBGYbHDpnGA9yOpVtZ7IvCn/qKVz/9ZL4NZtUUo6vFJbz5CKKeO/eOd3PcUEZrltq6aOr9O8pAzrM13XS+8mX8iwnzrpWXBnTVwty9Ua7FhXvacazBVUPKvs235CZqv9585ckeNqGdsxs7vpNdc79qsjRZWX8bAJdmK9jttqtccKtYL0oDHMqov7+XjgXNmuImywTspL7z6hp133dH3MYMxEAiTw6AR01JQaTR7TCaLhL8Lhzs4WQrJbdRRiKVojIsZIzNCb9t467BeUh4Jp4LF2BqaAx7TlWDOj/5jmqj8lQD+Q1y3fLeVqBKm12X+W1j2q6XVM0FT22ZD5UrNpcXlRrSOORZjem9xBnROoOicn63j7j+d014s8DemiVkxUA7uwJsiS2cHSsnsVadi6tJ5avZKavt7TjMHG1vC+z526LFjHZOTPnSV5ykAZqtYFWapsaqDKhceFpXD7fNRUC+S4N+bJ6BldPF4/vPK5nwRIICwBX/Z9hL0SfxkCthCSsycvS1IlBpGl4hVySc0ni+tsw/vMkNpPldArDGIH+iLWqiV0EV//6sjman2THHqeogIlsuoH89VLN7TgIC+8nQO7TsihXSdlhPJMsCpgG7V41a/Kc0BoJaZORx/NMy/XCrOGCM596KTarW9evyXb760z8sGUDmrwWCI5su+09rYGf/G0no24SYcKer0VTFmP5H79h74uTyABEiCBGCJgCyHJmT+9bkJyv2d0wJ9WzT9mDXDzjXxYK2OVWsf916n/uE7LpFYmxDTpWF8cC1Qd2BWiZ0dFhjtYwcmSQg6f0+uUm6VlcQhTqZ8+cVFfL53yetB5GVmCN2Rdj93kx2JPgWrKejStYf4jrGmOZW0RQNB90OPa/ptqCdzna31sTtHfm9cekAxqDfmoXj/MyfxBAiRAArFAwBZCkl3ND4QFl3ZuOiIFStxfvGft4h26+Wfqmlc1GusCS8nVIlPte9cUrDaIdEv1P2DiupAj5wWrAPYZ1lTKqmYu7GtZ8kN8hUkp0iSV4wfPaK/FrDx3aM8pl8djvVaYE91+YGnaM0p80JFvykEWLEiUKXvoynWI80cfDpbU/U41c2HJ3yefq6g9kamr+7oiyK6pZW0hbFhjPqrXdzOHP0mABEggxgnYYooUhOJ27FdXRr46S04oTwHpoGp2mjxmqVoCt6THhahKqQnq0PGOMSdI36jlYj97+ze1CNBlvTxspXqFdN8G+kiQbt+6rR/0uBa8BawlHl95L/BqkNBBf1R1rOcrmkX/dv/PHtXpb65lPZYuU0rtwUwZu0QvMIQBY7PV7KuwI0+hzHJYNWF1qzdeBQTc1Mv3Pqb6Wm7euC25gjLqgWPGvlPHLkinGmPl+KGz1uK5TQIkQAK2J2ALjwSUmnasqKd1ePO5yXop3CSqH6FKw8La6/BEsVG7cvrh36n6GB1xlUp5GAPUuudYlbB4xdzSq/EXWoDyFMok2fOk0yKBGPsSlXLrhYJGTe8ifYc/JWNenyOT1TiQKypyrN+oZjr0+Iwa1OWeBneaIq+o/GWr5w9zCM1fb3/dToa/MlPmfLtWC1aOfBlcI4sRQIA1219SkWKBytu4ofpLXvu4pZ5k79URzWRU/1nyy5crtceEqLPMqnnu3OnLYa7BHyRAAiRgZwK2HNmOMSToEI9KwkhfNIu5r4uOfosECePrt373crBmuwmnRZMXvAf0ZTxqgi23lOfjaSlfXOfiuSta6NyvA+HwxvXdy+VvEiABEoiMgF+NbLfebFRFBOdYp8+2luEuLNZjRkSwDx6Ftx7isCWxeHbycJ3w1nD31vWt98htEiABEogpArboI4mpm+V1SIAESIAEvE+AQuJ9piyRBEiABOIUAa8ISQLh9B1x6q+GN0sCJOAXBLz17PaKkCSSpH4BlTdBAiRAAnGJgLee3V4RkkAJHXgXlyqA90oCJEACTifgrWe3V4QkmaRzOk/aTwIkQAJxjoC3nt1eEZIUkjnOVQBvmARIgAScTsBbz24vCUkmNX6C/SRO/6Oi/SRAAnGHAJ7ZKSSTV27YK0ICS9JJXq8YxEJIgARIgAR8T8Cbz2yvCUkGKeD7O+cVSIAESIAEvELAm89srwlJgKSUjFLQKzfIQkiABEiABHxHAM9qPLO9lbwmJDAom5QSbw1w8dYNshwSIAESIIH7BPCMxrPam8mrQpJIAiWnVPCmfSyLBEiABEjAiwTwjMaz2pvJq0ICwzJIEJu4vFlDLIsESIAEvEQATVp4Rns7eV1IYGBueUzSKN+EiQRIgARIwB4E8EzGs9kXySdCAkODpDbFxBc1xjJJgARI4CEJQETwTPZV8pmQwGAYzkguX1UdyyUBEiCByAngGexLEYEFnpfzi9y2KOeAK5VM0stBUeuZy80on8eMJEACJEAC0SeA6Cx0rPuiT8TdKp8LCS6IG0kt2eWI/CchssPdBv4mARIgARLwIgF4IQjx9XZ0VngmxoiQ4OK4IXgnmaWonJSdclr2yg25Ep5d3E8CJEACJPAQBDB3FqY9wYh1bw42jIoJMSYkxhjcYA4ppz8X5YRclONyWcnKVTmvGr6usPnLgOI3CZAACYRDAM1WWJQK64lgKnjM4uutCRjDuWSEu2NcSKzW4MZj8+attnCbBEiABEggegR8GrUVPZN4FgmQAAmQgJMIUEicVFu0lQRIgARsSIBCYsNKoUkkQAIk4CQCFBIn1RZtJQESIAEbEqCQ2LBSaBIJkAAJOIkAhcRJtUVbSYAESMCGBCgkNqwUmkQCJEACTiJAIXFSbdFWEiABErAhAQqJDSuFJpEACZCAkwhQSJxUW7SVBEiABGxIgEJiw0qhSSRAAiTgJAIUEifVFm0lARIgARsSoJDYsFJoEgmQAAk4iQCFxEm1RVtJgARIwIYEKCQ2rBSaRAIkQAJOIkAhcVJt0VYSIAESsCEBCokNK4UmkQAJkICTCFBInFRbtJUESIAEbEiAQmLDSqFJJEACJOAkAhQSJ9UWbSUBEiABGxKgkNiwUmgSCZAACTiJAIXESbVFW0mABEjAhgQoJDasFJpEAiRAAk4iQCFxUm3RVhIgARKwIQEKiQ0rhSaRAAmQgJMIUEicVFu0lQRIgARsSIBCYsNKoUkkQAIk4CQCFBIn1RZtJQESIAEbEqCQ2LBSaBIJkAAJOIkAhcRJtUVbSYAESMCGBCgkNqwUmkQCJEACTiJAIXFSbdFWEiABErAhAQqJDSuFJpEACZCAkwhQSJxUW7SVBEiABGxIgEJiw0qhSSRAAiTgJAIUEifVFm0lARIgARsSoJDYsFJoEgmQAAk4iQCFxEm1RVtJgARIwIYEKCQ2rBSaRAIkQAJOIkAhcVJt0VYSIAESsCEBCokNK4UmkQAJkICTCFBInFRbtJUESIAEbEiAQmLDSqFJJEACJOAkAhQSJ9UWbSUBEiABGxKgkNiwUmgSCZAACTiJAIXESbVFW0mABEjAhgQoJDasFJpEAiRAAk4iQCFxUm3RVhIgARKwIQEKiQ0rhSaRAAmQgJMIUEicVFu0lQRIgARsSIBCYsNKoUkkQAIk4CQCFBIn1RZtJQESIAEbEqCQ2LBSaBIJkAAJOIkAhcRJtUVbSYAESMCGBCgkNqwUmkQCJEACTiJAIXFSbdFWEiABErAhAQqJDSuFJpEACZCAkwhQSJxUW7SVBEiABGxIgEJiw0qhSSRAAiTgJAIUEifVFm0lARIgARsSoJDYsFJoEgmQAAk4iQCFxEm1RVtJgARIwIYEKCQ2rBSaRAIkQAJOIkAhcVJt0VYSIAESsCEBCokNK4UmkQAJkICTCFBInFRbtJUESIAEbEiAQmLDSqFJJEACJOAkAhQSJ9UWbSUBEiABGxKgkNiwUmgSCZAACTiJAIXESbVFW0mABEjAhgQoJDasFJpEAiRAAk4iQCFxUm3RVhIgARKwIQEKiQ0rhSaRAAmQgJMIUEicVFu0lQRIgARsSIBCYsNKoUkkQAIk4CQCFBIn1RZtJQESIAEbEqCQ2LBSaBIJkAAJOIkAhcRJtUVbSYAESMCGBCgkNqwUmkQCJEACTiJAIXFSbdFWEiABErAhAQqJDSuFJpEACZCAkwhQSJxUW7SVBEiABGxIgEJiw0qhSSRAAiTgJAIUEifVFm0lARIgARsSoJDYsFJoEgmQAAk4iQCFxEm1RVtJgARIwIYEKCQ2rBSaRAIkQAJOIkAhcVJt0VYSIAESsCEBCokNK4UmkQAJkICTCFBInFRbtJUESIAEbEiAQmLDSqFJJEACJOAkAhQSJ9UWbSUBEiABGxKgkNiwUmgSCZAACTiJAIXESbVFW0mABEjAhgQoJDasFJpEAiRAAk4iQCFxUm3RVhIgARKwIQEKiQ0rhSaRAAmQgJMIUEicVFu0lQRIgARsSIBCYsNKoUkkQAIk4CQCFBIn1RZtJQESIAEbEqCQ2LBSaBIJkAAJOIkAhcRJtUVbSYAESMCGBCgkNqwUmkQCJEACTiJAIXFSbdFWEiABErAhAQqJDSuFJpEACZCAkwhQSJxUW7SVBEiABGxIgEJiw0qhSSRAAiTgJAIUEifVFm0lARIgARsSoJDYsFJoEgmQAAk4iQCFxEm1RVtJgARIwIYEKCQ2rBSaRAIkQAJOIkAhcVJt0VYSIAESsCEBCokNK4UmkQAJkICTCFBInFRbtJUESIAEbEiAQmLDSqFJJEACJOAkAhQSJ9UWbSUBEiABGxKgkNiwUmgSCZAACTiJAIXESbVFW0mABEjAhgQoJDasFJpEAiRAAk4iQCFxUm3RVhIgARKwIQEKiQ0rhSaRAAmQgJMIUEicVFu0lQRIgARsSIBCYsNKoUkkQAIk4CQCFBIn1RZtJQESIAEbEqCQ2LBSaBIJkAAJOIkAhcRJtUVbSYAESMCGBCgkNqwUmkQCJEACTiJAIXFSbdFWEiABErAhAQqJDSuFJpEACZCAkwhQSJxUW7SVBEiABGxIgEJiw0qhSSRAAiTgJAIUEifVFm0lARIgARsSoJDYsFJoEgmQAAk4iQCFxEm1RVtJgARIwIYEKCQ2rBSaRAIkQAJOIkAhcVJt0VYS+H/7dVQCMRQEQZAXYiXn32HCueiBctDUfCxLgEBQwCEJjiKJAAECSwIOydJaWgkQIBAUcEiCo0giQIDAkoBDsrSWVgIECAQFHJLgKJIIECCwJOCQLK2llQABAkEBhyQ4iiQCBAgsCTgkS2tpJUCAQFDAIQmOIokAAQJLAg7J0lpaCRAgEBRwSIKjSCJAgMCSgEOytJZWAgQIBAUckuAokggQILAk4JAsraWVAAECQQGHJDiKJAIECCwJOCRLa2klQIBAUMAhCY4iiQABAksCDsnSWloJECAQFHBIgqNIIkCAwJKAQ7K0llYCBAgEBRyS4CiSCBAgsCTgkCytpZUAAQJBAYckOIokAgQILAk4JEtraSVAgEBQwCEJjiKJAAECSwIOydJaWgkQIBAUcEiCo0giQIDAkoBDsrSWVgIECAQFHJLgKJIIECCwJOCQLK2llQABAkEBhyQ4iiQCBAgsCTgkS2tpJUCAQFDAIQmOIokAAQJLAg7J0lpaCRAgEBRwSIKjSCJAgMCSgEOytJZWAgQIBAUckuAokggQILAk4JAsraWVAAECQQGHJDiKJAIECCwJOCRLa2klQIBAUMAhCY4iiQABAksCDsnSWloJECAQFHBIgqNIIkCAwJKAQ7K0llYCBAgEBRyS4CiSCBAgsCTgkCytpZUAAQJBAYckOIokAgQILAk4JEtraSVAgEBQwCEJjiKJAAECSwIOydJaWgkQIBAUcEiCo0giQIDAkoBDsrSWVgIECAQFHJLgKJIIECCwJOCQLK2llQABAkEBhyQ4iiQCBAgsCTgkS2tpJUCAQFDAIQmOIokAAQJLAg7J0lpaCRAgEBRwSIKjSCJAgMCSgEOytJZWAgQIBAUckuAokggQILAk4JAsraWVAAECQQGHJDiKJAIECCwJOCRLa2klQIBAUMAhCY4iiQABAksCDsnSWloJECAQFHBIgqNIIkCAwJKAQ7K0llYCBAgEBRyS4CiSCBAgsCTgkCytpZUAAQJBAYckOIokAgQILAk4JEtraSVAgEBQwCEJjiKJAAECSwIOydJaWgkQIBAUcEiCo0giQIDAkoBDsrSWVgIECAQFHJLgKJIIECCwJOCQLK2llQABAkEBhyQ4iiQCBAgsCTgkS2tpJUCAQFDAIQmOIokAAQJLAg7J0lpaCRAgEBRwSIKjSCJAgMCSgEOytJZWAgQIBAUckuAokggQILAk4JAsraWVAAECQQGHJDiKJAIECCwJOCRLa2klQIBAUMAhCY4iiQABAksCDsnSWloJECAQFHBIgqNIIkCAwJKAQ7K0llYCBAgEBRyS4CiSCBAgsCTgkCytpZUAAQJBAYckOIokAgQILAk4JEtraSVAgEBQwCEJjiKJAAECSwIOydJaWgkQIBAUcEiCo0giQIDAkoBDsrSWVgIECAQFHJLgKJIIECCwJOCQLK2llQABAkEBhyQ4iiQCBAgsCTgkS2tpJUCAQFDAIQmOIokAAQJLAg7J0lpaCRAgEBRwSIKjSCJAgMCSgEOytJZWAgQIBAUckuAokggQILAk4JAsraWVAAECQQGHJDiKJAIECCwJOCRLa2klQIBAUMAhCY4iiQABAksCDsnSWloJECAQFHBIgqNIIkCAwJKAQ7K0llYCBAgEBRyS4CiSCBAgsCTgkCytpZUAAQJBAYckOIokAgQILAk4JEtraSVAgEBQwCEJjiKJAAECSwIOydJaWgkQIBAUcEiCo0giQIDAkoBDsrSWVgIECAQFHJLgKJIIECCwJOCQLK2llQABAkEBhyQ4iiQCBAgsCTgkS2tpJUCAQFDAIQmOIokAAQJLAg7J0lpaCRAgEBRwSIKjSCJAgMCSgEOytJZWAgQIBAUckuAokggQILAk4JAsraWVAAECQQGHJDiKJAIECCwJOCRLa2klQIBAUMAhCY4iiQABAksCDsnSWloJECAQFLjeN1gliQABAgRmBHwkM1MJJUCAQFPAIWnuoooAAQIzAg7JzFRCCRAg0BRwSJq7qCJAgMCMgEMyM5VQAgQINAUckuYuqggQIDAj4JDMTCWUAAECTYHrnNMsU0WAAAECEwI+komZRBIgQKAr4JB0t1FGgACBCQGHZGImkQQIEOgKOCTdbZQRIEBgQsAhmZhJJAECBLoCDkl3G2UECBCYEHBIJmYSSYAAga6AQ9LdRhkBAgQmBBySiZlEEiBAoCvgkHS3UUaAAIEJAYdkYiaRBAgQ6Ao4JN1tlBEgQGBCwCGZmEkkAQIEugIOSXcbZQQIEJgQcEgmZhJJgACBroBD0t1GGQECBCYEHJKJmUQSIECgK+CQdLdRRoAAgQkBh2RiJpEECBDoCtz/tOf5dQuVESBAgEBa4AOGVlqKadgmRQAAAABJRU5ErkJggg==;fontSize=14;" vertex="1" parent="1">
          <mxGeometry x="455.5" y="-47.5" width="69" height="113.97" as="geometry" />
        </mxCell>
        <mxCell id="kWP5bIo4fPao6hV6OUjQ-7" value="" style="verticalLabelPosition=bottom;verticalAlign=top;html=1;shadow=0;dashed=0;strokeWidth=1;shape=mxgraph.android.phone2;strokeColor=#000000;hachureGap=4;fontFamily=ES Klarheit Kurrent RD;fontSize=14;" vertex="1" parent="1">
          <mxGeometry x="452.5" y="-60.4" width="75" height="140" as="geometry" />
        </mxCell>
      </root>
    </mxGraphModel>
  </diagram>
</mxfile>
